asd
 In:  90  1E  06  |  Ch 1 Note On  F#0
 In:  90  1D  1D  |  Ch 1 Note On  F0
 In:  90  1F  20  |  Ch 1 Note On  G0
 In:  90  28  28  |  Ch 1 Note On  E1
 In:  90  29  37  |  Ch 1 Note On  F1
 In:  90  26  24  |  Ch 1 Note On  D1
 In:  90  24  11  |  Ch 1 Note On  C1
 In:  90  23  0C  |  Ch 1 Note On  B0
 In:  80  1E  00  |  Ch 1 Note Off F#0
 In:  80  21  00  |  Ch 1 Note Off A0
 In:  80  23  00  |  Ch 1 Note Off B0
 In:  80  1F  00  |  Ch 1 Note Off G0
 In:  80  1D  00  |  Ch 1 Note Off F0
 In:  80  24  00  |  Ch 1 Note Off C1
 In:  80  26  00  |  Ch 1 Note Off D1
 In:  80  28  00  |  Ch 1 Note Off E1
 In:  80  29  00  |  Ch 1 Note Off F1
 In:  90  21  0B  |  Ch 1 Note On  A0
 In:  90  1F  19  |  Ch 1 Note On  G0
 In:  90  2B  27  |  Ch 1 Note On  G1
 In:  90  2D  3A  |  Ch 1 Note On  A1
 In:  80  1F  00  |  Ch 1 Note Off G0
 In:  80  21  00  |  Ch 1 Note Off A0
 In:  80  2D  00  |  Ch 1 Note Off A1
 In:  80  2B  00  |  Ch 1 Note Off G1
 In:  90  1F  20  |  Ch 1 Note On  G0
 In:  90  1D  2E  |  Ch 1 Note On  F0
 In:  90  2B  4A  |  Ch 1 Note On  G1
 In:  90  29  34  |  Ch 1 Note On  F1
 In:  80  1D  00  |  Ch 1 Note Off F0
 In:  80  1F  00  |  Ch 1 Note Off G0
 In:  80  29  00  |  Ch 1 Note Off F1
 In:  80  2B  00  |  Ch 1 Note Off G1
 In:  90  1C  39  |  Ch 1 Note On  E0
 In:  90  1A  4B  |  Ch 1 Note On  D0
 In:  80  1C  00  |  Ch 1 Note Off E0
 In:  80  1A  00  |  Ch 1 Note Off D0
 In:  90  18  2D  |  Ch 1 Note On  C0
 In:  90  1A  27  |  Ch 1 Note On  D0
 In:  80  1A  00  |  Ch 1 Note Off D0
 In:  80  18  00  |  Ch 1 Note Off C0
 In:  90  18  53  |  Ch 1 Note On  C0
 In:  90  1C  27  |  Ch 1 Note On  E0
 In:  90  1E  1E  |  Ch 1 Note On  F#0
 In:  90  22  09  |  Ch 1 Note On  A#0
 In:  80  1E  00  |  Ch 1 Note Off F#0
 In:  80  1C  00  |  Ch 1 Note Off E0
 In:  80  18  00  |  Ch 1 Note Off C0
 In:  80  22  00  |  Ch 1 Note Off A#0
 In:  90  19  77  |  Ch 1 Note On  C#0
 In:  90  1D  23  |  Ch 1 Note On  F0
 In:  80  1D  00  |  Ch 1 Note Off F0
 In:  90  22  42  |  Ch 1 Note On  A#0
 In:  80  22  00  |  Ch 1 Note Off A#0
 In:  80  19  00  |  Ch 1 Note Off C#0
 In:  90  1B  52  |  Ch 1 Note On  D#0
 In:  90  1F  26  |  Ch 1 Note On  G0
 In:  90  21  1F  |  Ch 1 Note On  A0
 In:  90  22  25  |  Ch 1 Note On  A#0
 In:  90  27  3B  |  Ch 1 Note On  D#1
 In:  80  21  00  |  Ch 1 Note Off A0
 In:  90  28  1F  |  Ch 1 Note On  E1
 In:  80  22  00  |  Ch 1 Note Off A#0
 In:  80  1F  00  |  Ch 1 Note Off G0
 In:  80  1B  00  |  Ch 1 Note Off D#0
 In:  80  28  00  |  Ch 1 Note Off E1
 In:  80  27  00  |  Ch 1 Note Off D#1
 In:  90  20  40  |  Ch 1 Note On  G#0
 In:  90  23  26  |  Ch 1 Note On  B0
 In:  90  24  23  |  Ch 1 Note On  C1
 In:  90  1F  1E  |  Ch 1 Note On  G0
 In:  90  25  20  |  Ch 1 Note On  C#1
 In:  90  28  15  |  Ch 1 Note On  E1
 In:  90  2A  1C  |  Ch 1 Note On  F#1
 In:  80  1F  00  |  Ch 1 Note Off G0
 In:  80  28  00  |  Ch 1 Note Off E1
 In:  80  25  00  |  Ch 1 Note Off C#1
 In:  80  24  00  |  Ch 1 Note Off C1
 In:  80  23  00  |  Ch 1 Note Off B0
 In:  90  2B  0C  |  Ch 1 Note On  G1
 In:  80  20  00  |  Ch 1 Note Off G#0
 In:  80  2A  00  |  Ch 1 Note Off F#1
 In:  80  2B  00  |  Ch 1 Note Off G1
 In:  90  22  5A  |  Ch 1 Note On  A#0
 In:  90  26  33  |  Ch 1 Note On  D1
 In:  90  2B  63  |  Ch 1 Note On  G1
 In:  90  29  5F  |  Ch 1 Note On  F1
 In:  90  28  37  |  Ch 1 Note On  E1
 In:  90  21  23  |  Ch 1 Note On  A0
 In:  90  23  23  |  Ch 1 Note On  B0
 In:  90  2D  0A  |  Ch 1 Note On  A1
 In:  90  2F  27  |  Ch 1 Note On  B1
 In:  80  27  00  |  Ch 1 Note Off D#1
 In:  80  28  00  |  Ch 1 Note Off E1
 In:  80  29  00  |  Ch 1 Note Off F1
 In:  90  2E  28  |  Ch 1 Note On  A#1
 In:  80  26  00  |  Ch 1 Note Off D1
 In:  80  2B  00  |  Ch 1 Note Off G1
 In:  80  21  00  |  Ch 1 Note Off A0
 In:  90  2C  45  |  Ch 1 Note On  G#1
 In:  80  23  00  |  Ch 1 Note Off B0
 In:  80  2D  00  |  Ch 1 Note Off A1
 In:  80  22  00  |  Ch 1 Note Off A#0
 In:  80  2F  00  |  Ch 1 Note Off B1
 In:  80  2E  00  |  Ch 1 Note Off A#1
 In:  80  2C  00  |  Ch 1 Note Off G#1
 In:  90  24  52  |  Ch 1 Note On  C1
 In:  90  23  4A  |  Ch 1 Note On  B0
 In:  90  30  5E  |  Ch 1 Note On  C2
 In:  90  2F  50  |  Ch 1 Note On  B1
 In:  90  28  2B  |  Ch 1 Note On  E1
 In:  90  2E  22  |  Ch 1 Note On  A#1
 In:  80  28  00  |  Ch 1 Note Off E1
 In:  80  2F  00  |  Ch 1 Note Off B1
 In:  80  23  00  |  Ch 1 Note Off B0
 In:  80  24  00  |  Ch 1 Note Off C1
 In:  80  30  00  |  Ch 1 Note Off C2
 In:  80  2E  00  |  Ch 1 Note Off A#1
 In:  90  27  7F  |  Ch 1 Note On  D#1
 In:  90  2E  6A  |  Ch 1 Note On  A#1
 In:  90  30  67  |  Ch 1 Note On  C2
 In:  90  2F  5B  |  Ch 1 Note On  B1
 In:  80  2F  00  |  Ch 1 Note Off B1
 In:  80  2E  00  |  Ch 1 Note Off A#1
 In:  80  30  00  |  Ch 1 Note Off C2
 In:  80  27  00  |  Ch 1 Note Off D#1
 In:  90  2C  67  |  Ch 1 Note On  G#1
 In:  90  30  62  |  Ch 1 Note On  C2
 In:  90  28  61  |  Ch 1 Note On  E1
 In:  90  2F  47  |  Ch 1 Note On  B1
 In:  80  2C  00  |  Ch 1 Note Off G#1
 In:  80  2F  00  |  Ch 1 Note Off B1
 In:  80  28  00  |  Ch 1 Note Off E1
 In:  80  30  00  |  Ch 1 Note Off C2
 In:  90  2C  71  |  Ch 1 Note On  G#1
 In:  90  30  47  |  Ch 1 Note On  C2
 In:  80  30  00  |  Ch 1 Note Off C2
 In:  80  2C  00  |  Ch 1 Note Off G#1
 In:  90  2A  6D  |  Ch 1 Note On  F#1
 In:  90  2E  7A  |  Ch 1 Note On  A#1
 In:  90  2F  6E  |  Ch 1 Note On  B1
 In:  90  24  58  |  Ch 1 Note On  C1
 In:  80  2E  00  |  Ch 1 Note Off A#1
 In:  90  2D  5C  |  Ch 1 Note On  A1
 In:  80  2D  00  |  Ch 1 Note Off A1
 In:  80  2A  00  |  Ch 1 Note Off F#1
 In:  80  2F  00  |  Ch 1 Note Off B1
 In:  80  24  00  |  Ch 1 Note Off C1
 In:  90  2F  5D  |  Ch 1 Note On  B1
 In:  90  2C  7B  |  Ch 1 Note On  G#1
 In:  90  23  56  |  Ch 1 Note On  B0
 In:  90  29  66  |  Ch 1 Note On  F1
 In:  80  29  00  |  Ch 1 Note Off F1
 In:  80  23  00  |  Ch 1 Note Off B0
 In:  80  2F  00  |  Ch 1 Note Off B1
 In:  80  2C  00  |  Ch 1 Note Off G#1
 In:  90  21  55  |  Ch 1 Note On  A0
 In:  90  2C  60  |  Ch 1 Note On  G#1
 In:  90  2D  6F  |  Ch 1 Note On  A1
 In:  80  2C  00  |  Ch 1 Note Off G#1
 In:  80  2D  00  |  Ch 1 Note Off A1
 In:  80  21  00  |  Ch 1 Note Off A0
 In:  90  25  7F  |  Ch 1 Note On  C#1
 In:  90  1D  53  |  Ch 1 Note On  F0
 In:  80  25  00  |  Ch 1 Note Off C#1
 In:  80  1D  00  |  Ch 1 Note Off F0
 In:  90  27  67  |  Ch 1 Note On  D#1
 In:  80  27  00  |  Ch 1 Note Off D#1
 In:  90  22  7F  |  Ch 1 Note On  A#0
 In:  80  22  00  |  Ch 1 Note Off A#0
 In:  90  1A  3B  |  Ch 1 Note On  D0
 In:  80  1A  00  |  Ch 1 Note Off D0
 In:  90  24  7F  |  Ch 1 Note On  C1
 In:  90  22  7F  |  Ch 1 Note On  A#0
 In:  80  24  00  |  Ch 1 Note Off C1
 In:  80  22  00  |  Ch 1 Note Off A#0
 In:  90  1E  7E  |  Ch 1 Note On  F#0
 In:  90  18  48  |  Ch 1 Note On  C0
 In:  80  1E  00  |  Ch 1 Note Off F#0
 In:  80  18  00  |  Ch 1 Note Off C0
 In:  90  22  7F  |  Ch 1 Note On  A#0
 In:  90  20  7F  |  Ch 1 Note On  G#0
 In:  80  20  00  |  Ch 1 Note Off G#0
 In:  80  22  00  |  Ch 1 Note Off A#0
 In:  90  20  7F  |  Ch 1 Note On  G#0
 In:  80  20  00  |  Ch 1 Note Off G#0
 In:  90  1B  48  |  Ch 1 Note On  D#0
 In:  80  1B  00  |  Ch 1 Note Off D#0
 In:  90  1B  7F  |  Ch 1 Note On  D#0
 In:  90  19  7D  |  Ch 1 Note On  C#0
 In:  80  19  00  |  Ch 1 Note Off C#0
 In:  80  1B  00  |  Ch 1 Note Off D#0
 In:  90  19  71  |  Ch 1 Note On  C#0
 In:  90  1B  52  |  Ch 1 Note On  D#0
 In:  90  1D  23  |  Ch 1 Note On  F0
 In:  80  1B  00  |  Ch 1 Note Off D#0
 In:  80  1D  00  |  Ch 1 Note Off F0
 In:  80  19  00  |  Ch 1 Note Off C#0
 In:  90  1B  7D  |  Ch 1 Note On  D#0
 In:  90  1D  66  |  Ch 1 Note On  F0
 In:  90  1F  3C  |  Ch 1 Note On  G0
 In:  90  1A  35  |  Ch 1 Note On  D0
 In:  90  1C  25  |  Ch 1 Note On  E0
 In:  80  1A  00  |  Ch 1 Note Off D0
 In:  80  1C  00  |  Ch 1 Note Off E0
 In:  80  1B  00  |  Ch 1 Note Off D#0
 In:  80  1D  00  |  Ch 1 Note Off F0
 In:  80  1F  00  |  Ch 1 Note Off G0
 In:  90  1E  77  |  Ch 1 Note On  F#0
 In:  90  1F  5D  |  Ch 1 Note On  G0
 In:  90  21  5E  |  Ch 1 Note On  A0
 In:  90  1C  52  |  Ch 1 Note On  E0
 In:  90  1D  44  |  Ch 1 Note On  F0
 In:  90  1A  3B  |  Ch 1 Note On  D0
 In:  80  1A  00  |  Ch 1 Note Off D0
 In:  80  1C  00  |  Ch 1 Note Off E0
 In:  80  1D  00  |  Ch 1 Note Off F0
 In:  80  1E  00  |  Ch 1 Note Off F#0
 In:  80  1F  00  |  Ch 1 Note Off G0
 In:  80  21  00  |  Ch 1 Note Off A0
 In:  90  20  7F  |  Ch 1 Note On  G#0
 In:  90  21  6D  |  Ch 1 Note On  A0
 In:  90  1E  52  |  Ch 1 Note On  F#0
 In:  90  22  7B  |  Ch 1 Note On  A#0
 In:  90  23  59  |  Ch 1 Note On  B0
 In:  90  1F  22  |  Ch 1 Note On  G0
 In:  80  23  00  |  Ch 1 Note Off B0
 In:  80  1F  00  |  Ch 1 Note Off G0
 In:  80  1E  00  |  Ch 1 Note Off F#0
 In:  80  22  00  |  Ch 1 Note Off A#0
 In:  80  21  00  |  Ch 1 Note Off A0
 In:  80  20  00  |  Ch 1 Note Off G#0
 In:  90  25  7F  |  Ch 1 Note On  C#1
 In:  90  24  5E  |  Ch 1 Note On  C1
 In:  90  1E  58  |  Ch 1 Note On  F#0
 In:  90  22  4A  |  Ch 1 Note On  A#0
 In:  90  1D  35  |  Ch 1 Note On  F0
 In:  90  21  2C  |  Ch 1 Note On  A0
 In:  90  1F  22  |  Ch 1 Note On  G0
 In:  90  27  1B  |  Ch 1 Note On  D#1
 In:  80  1F  00  |  Ch 1 Note Off G0
 In:  80  1E  00  |  Ch 1 Note Off F#0
 In:  80  1D  00  |  Ch 1 Note Off F0
 In:  80  21  00  |  Ch 1 Note Off A0
 In:  80  27  00  |  Ch 1 Note Off D#1
 In:  80  22  00  |  Ch 1 Note Off A#0
 In:  80  24  00  |  Ch 1 Note Off C1
 In:  80  25  00  |  Ch 1 Note Off C#1
 In:  90  20  56  |  Ch 1 Note On  G#0
 In:  90  1F  35  |  Ch 1 Note On  G0
 In:  90  2A  38  |  Ch 1 Note On  F#1
 In:  90  28  29  |  Ch 1 Note On  E1
 In:  90  27  27  |  Ch 1 Note On  D#1
 In:  90  21  30  |  Ch 1 Note On  A0
 In:  90  24  3C  |  Ch 1 Note On  C1
 In:  90  29  25  |  Ch 1 Note On  F1
 In:  90  26  26  |  Ch 1 Note On  D1
 In:  80  23  00  |  Ch 1 Note Off B0
 In:  80  26  00  |  Ch 1 Note Off D1
 In:  80  24  00  |  Ch 1 Note Off C1
 In:  80  29  00  |  Ch 1 Note Off F1
 In:  80  21  00  |  Ch 1 Note Off A0
 In:  80  27  00  |  Ch 1 Note Off D#1
 In:  80  20  00  |  Ch 1 Note Off G#0
 In:  80  28  00  |  Ch 1 Note Off E1
 In:  80  2A  00  |  Ch 1 Note Off F#1
 In:  80  1F  00  |  Ch 1 Note Off G0
 In:  90  23  43  |  Ch 1 Note On  B0
 In:  90  2C  35  |  Ch 1 Note On  G#1
 In:  90  2A  40  |  Ch 1 Note On  F#1
 In:  90  21  31  |  Ch 1 Note On  A0
 In:  90  2B  27  |  Ch 1 Note On  G1
 In:  90  2E  49  |  Ch 1 Note On  A#1
 In:  90  29  27  |  Ch 1 Note On  F1
 In:  90  25  47  |  Ch 1 Note On  C#1
 In:  90  26  44  |  Ch 1 Note On  D1
 In:  90  28  32  |  Ch 1 Note On  E1
 In:  90  24  3C  |  Ch 1 Note On  C1
 In:  90  2D  25  |  Ch 1 Note On  A1
 In:  80  24  00  |  Ch 1 Note Off C1
 In:  80  26  00  |  Ch 1 Note Off D1
 In:  80  25  00  |  Ch 1 Note Off C#1
 In:  80  28  00  |  Ch 1 Note Off E1
 In:  80  29  00  |  Ch 1 Note Off F1
 In:  80  21  00  |  Ch 1 Note Off A0
 In:  80  2D  00  |  Ch 1 Note Off A1
 In:  80  2A  00  |  Ch 1 Note Off F#1
 In:  80  2B  00  |  Ch 1 Note Off G1
 In:  80  23  00  |  Ch 1 Note Off B0
 In:  80  2C  00  |  Ch 1 Note Off G#1
 In:  80  2E  00  |  Ch 1 Note Off A#1
 In:  90  25  45  |  Ch 1 Note On  C#1
 In:  90  2D  26  |  Ch 1 Note On  A1
 In:  90  24  28  |  Ch 1 Note On  C1
 In:  90  2B  24  |  Ch 1 Note On  G1
 In:  90  2F  29  |  Ch 1 Note On  B1
 In:  90  2E  42  |  Ch 1 Note On  A#1
 In:  90  30  57  |  Ch 1 Note On  C2
 In:  90  2C  28  |  Ch 1 Note On  G#1
 In:  90  28  24  |  Ch 1 Note On  E1
 In:  90  23  1B  |  Ch 1 Note On  B0
 In:  80  2B  00  |  Ch 1 Note Off G1
 In:  80  2C  00  |  Ch 1 Note Off G#1
 In:  80  23  00  |  Ch 1 Note Off B0
 In:  80  28  00  |  Ch 1 Note Off E1
 In:  80  25  00  |  Ch 1 Note Off C#1
 In:  80  24  00  |  Ch 1 Note Off C1
 In:  80  2D  00  |  Ch 1 Note Off A1
 In:  80  30  00  |  Ch 1 Note Off C2
 In:  80  2E  00  |  Ch 1 Note Off A#1
 In:  80  2F  00  |  Ch 1 Note Off B1
 In:  90  27  59  |  Ch 1 Note On  D#1
 In:  90  30  35  |  Ch 1 Note On  C2
 In:  90  2F  28  |  Ch 1 Note On  B1
 In:  90  2E  4E  |  Ch 1 Note On  A#1
 In:  90  2D  32  |  Ch 1 Note On  A1
 In:  90  24  21  |  Ch 1 Note On  C1
 In:  90  29  25  |  Ch 1 Note On  F1
 In:  90  26  0A  |  Ch 1 Note On  D1
 In:  80  26  00  |  Ch 1 Note Off D1
 In:  80  24  00  |  Ch 1 Note Off C1
 In:  80  29  00  |  Ch 1 Note Off F1
 In:  80  2D  00  |  Ch 1 Note Off A1
 In:  80  2E  00  |  Ch 1 Note Off A#1
 In:  80  30  00  |  Ch 1 Note Off C2
 In:  80  27  00  |  Ch 1 Note Off D#1
 In:  80  2F  00  |  Ch 1 Note Off B1
 In:  90  25  5E  |  Ch 1 Note On  C#1
 In:  90  2B  39  |  Ch 1 Note On  G1
 In:  90  2E  28  |  Ch 1 Note On  A#1
 In:  90  2C  2A  |  Ch 1 Note On  G#1
 In:  90  2D  28  |  Ch 1 Note On  A1
 In:  90  2A  3D  |  Ch 1 Note On  F#1
 In:  90  29  28  |  Ch 1 Note On  F1
 In:  90  26  2A  |  Ch 1 Note On  D1
 In:  90  23  24  |  Ch 1 Note On  B0
 In:  90  24  1D  |  Ch 1 Note On  C1
 In:  80  2A  00  |  Ch 1 Note Off F#1
 In:  80  29  00  |  Ch 1 Note Off F1
 In:  80  2D  00  |  Ch 1 Note Off A1
 In:  80  26  00  |  Ch 1 Note Off D1
 In:  80  24  00  |  Ch 1 Note Off C1
 In:  80  2E  00  |  Ch 1 Note Off A#1
 In:  80  2C  00  |  Ch 1 Note Off G#1
 In:  80  28  00  |  Ch 1 Note Off E1
 In:  80  2B  00  |  Ch 1 Note Off G1
 In:  80  23  00  |  Ch 1 Note Off B0
 In:  80  25  00  |  Ch 1 Note Off C#1
 In:  90  22  73  |  Ch 1 Note On  A#0
 In:  90  2A  5E  |  Ch 1 Note On  F#1
 In:  90  2C  4D  |  Ch 1 Note On  G#1
 In:  90  27  49  |  Ch 1 Note On  D#1
 In:  90  21  4A  |  Ch 1 Note On  A0
 In:  90  29  3C  |  Ch 1 Note On  F1
 In:  90  26  3D  |  Ch 1 Note On  D1
 In:  90  28  30  |  Ch 1 Note On  E1
 In:  90  24  3B  |  Ch 1 Note On  C1
 In:  90  23  20  |  Ch 1 Note On  B0
 In:  90  2B  14  |  Ch 1 Note On  G1
 In:  80  23  00  |  Ch 1 Note Off B0
 In:  80  2B  00  |  Ch 1 Note Off G1
 In:  80  24  00  |  Ch 1 Note Off C1
 In:  80  26  00  |  Ch 1 Note Off D1
 In:  80  28  00  |  Ch 1 Note Off E1
 In:  80  27  00  |  Ch 1 Note Off D#1
 In:  80  2C  00  |  Ch 1 Note Off G#1
 In:  80  29  00  |  Ch 1 Note Off F1
 In:  80  21  00  |  Ch 1 Note Off A0
 In:  80  2A  00  |  Ch 1 Note Off F#1
 In:  80  22  00  |  Ch 1 Note Off A#0
 In:  90  27  6D  |  Ch 1 Note On  D#1
 In:  90  25  60  |  Ch 1 Note On  C#1
 In:  90  20  64  |  Ch 1 Note On  G#0
 In:  90  26  23  |  Ch 1 Note On  D1
 In:  90  1D  41  |  Ch 1 Note On  F0
 In:  90  28  22  |  Ch 1 Note On  E1
 In:  90  1F  2B  |  Ch 1 Note On  G0
 In:  90  23  27  |  Ch 1 Note On  B0
 In:  90  21  25  |  Ch 1 Note On  A0
 In:  90  24  1F  |  Ch 1 Note On  C1
 In:  80  24  00  |  Ch 1 Note Off C1
 In:  80  21  00  |  Ch 1 Note Off A0
 In:  80  28  00  |  Ch 1 Note Off E1
 In:  80  23  00  |  Ch 1 Note Off B0
 In:  80  1F  00  |  Ch 1 Note Off G0
 In:  80  26  00  |  Ch 1 Note Off D1
 In:  80  25  00  |  Ch 1 Note Off C#1
 In:  80  20  00  |  Ch 1 Note Off G#0
 In:  80  27  00  |  Ch 1 Note Off D#1
 In:  80  1D  00  |  Ch 1 Note Off F0
 In:  90  22  75  |  Ch 1 Note On  A#0
 In:  90  1B  63  |  Ch 1 Note On  D#0
 In:  90  1A  3E  |  Ch 1 Note On  D0
 In:  90  1E  27  |  Ch 1 Note On  F#0
 In:  90  1C  24  |  Ch 1 Note On  E0
 In:  90  25  1D  |  Ch 1 Note On  C#1
 In:  90  20  1D  |  Ch 1 Note On  G#0
 In:  90  23  1F  |  Ch 1 Note On  B0
 In:  80  23  00  |  Ch 1 Note Off B0
 In:  80  20  00  |  Ch 1 Note Off G#0
 In:  80  25  00  |  Ch 1 Note Off C#1
 In:  80  1E  00  |  Ch 1 Note Off F#0
 In:  80  1C  00  |  Ch 1 Note Off E0
 In:  80  1A  00  |  Ch 1 Note Off D0
 In:  80  1B  00  |  Ch 1 Note Off D#0
 In:  80  22  00  |  Ch 1 Note Off A#0
 In:  90  20  60  |  Ch 1 Note On  G#0
 In:  90  22  3E  |  Ch 1 Note On  A#0
 In:  90  19  17  |  Ch 1 Note On  C#0
 In:  90  18  11  |  Ch 1 Note On  C0
 In:  90  21  15  |  Ch 1 Note On  A0
 In:  90  1A  0D  |  Ch 1 Note On  D0
 In:  80  22  00  |  Ch 1 Note Off A#0
 In:  80  20  00  |  Ch 1 Note Off G#0
 In:  80  1A  00  |  Ch 1 Note Off D0
 In:  80  21  00  |  Ch 1 Note Off A0
 In:  80  19  00  |  Ch 1 Note Off C#0
 In:  80  18  00  |  Ch 1 Note Off C0
 In:  90  19  4D  |  Ch 1 Note On  C#0
 In:  90  1A  48  |  Ch 1 Note On  D0
 In:  90  18  38  |  Ch 1 Note On  C0
 In:  90  20  62  |  Ch 1 Note On  G#0
 In:  90  22  64  |  Ch 1 Note On  A#0
 In:  90  1E  4B  |  Ch 1 Note On  F#0
 In:  90  21  4A  |  Ch 1 Note On  A0
 In:  90  1D  27  |  Ch 1 Note On  F0
 In:  90  23  24  |  Ch 1 Note On  B0
 In:  90  1C  1F  |  Ch 1 Note On  E0
 In:  90  1F  1D  |  Ch 1 Note On  G0
 In:  80  1D  00  |  Ch 1 Note Off F0
 In:  80  1C  00  |  Ch 1 Note Off E0
 In:  80  1E  00  |  Ch 1 Note Off F#0
 In:  80  1F  00  |  Ch 1 Note Off G0
 In:  80  20  00  |  Ch 1 Note Off G#0
 In:  80  23  00  |  Ch 1 Note Off B0
 In:  80  22  00  |  Ch 1 Note Off A#0
 In:  80  19  00  |  Ch 1 Note Off C#0
 In:  80  21  00  |  Ch 1 Note Off A0
 In:  80  18  00  |  Ch 1 Note Off C0
 In:  80  1A  00  |  Ch 1 Note Off D0
 In:  90  1B  3C  |  Ch 1 Note On  D#0
 In:  90  1C  41  |  Ch 1 Note On  E0
 In:  90  1A  3A  |  Ch 1 Note On  D0
 In:  90  25  1B  |  Ch 1 Note On  C#1
 In:  90  24  14  |  Ch 1 Note On  C1
 In:  90  22  15  |  Ch 1 Note On  A#0
 In:  90  1F  14  |  Ch 1 Note On  G0
 In:  80  1F  00  |  Ch 1 Note Off G0
 In:  80  22  00  |  Ch 1 Note Off A#0
 In:  80  1A  00  |  Ch 1 Note Off D0
 In:  80  1B  00  |  Ch 1 Note Off D#0
 In:  80  25  00  |  Ch 1 Note Off C#1
 In:  80  24  00  |  Ch 1 Note Off C1
 In:  80  1C  00  |  Ch 1 Note Off E0
 In:  90  1F  4D  |  Ch 1 Note On  G0
 In:  90  1D  3A  |  Ch 1 Note On  F0
 In:  90  1E  52  |  Ch 1 Note On  F#0
 In:  90  27  2D  |  Ch 1 Note On  D#1
 In:  90  25  27  |  Ch 1 Note On  C#1
 In:  90  23  27  |  Ch 1 Note On  B0
 In:  90  21  21  |  Ch 1 Note On  A0
 In:  90  28  1A  |  Ch 1 Note On  E1
 In:  90  2A  36  |  Ch 1 Note On  F#1
 In:  90  29  23  |  Ch 1 Note On  F1
 In:  80  21  00  |  Ch 1 Note Off A0
 In:  80  23  00  |  Ch 1 Note Off B0
 In:  80  25  00  |  Ch 1 Note Off C#1
 In:  80  28  00  |  Ch 1 Note Off E1
 In:  80  27  00  |  Ch 1 Note Off D#1
 In:  80  29  00  |  Ch 1 Note Off F1
 In:  80  1E  00  |  Ch 1 Note Off F#0
 In:  80  1D  00  |  Ch 1 Note Off F0
 In:  80  2A  00  |  Ch 1 Note Off F#1
 In:  80  1F  00  |  Ch 1 Note Off G0
 In:  90  21  25  |  Ch 1 Note On  A0
 In:  90  2C  72  |  Ch 1 Note On  G#1
 In:  90  26  4A  |  Ch 1 Note On  D1
 In:  90  24  48  |  Ch 1 Note On  C1
 In:  90  2A  21  |  Ch 1 Note On  F#1
 In:  90  29  12  |  Ch 1 Note On  F1
 In:  90  2B  12  |  Ch 1 Note On  G1
 In:  80  29  00  |  Ch 1 Note Off F1
 In:  80  2A  00  |  Ch 1 Note Off F#1
 In:  80  24  00  |  Ch 1 Note Off C1
 In:  80  26  00  |  Ch 1 Note Off D1
 In:  80  21  00  |  Ch 1 Note Off A0
 In:  80  2B  00  |  Ch 1 Note Off G1
 In:  80  2C  00  |  Ch 1 Note Off G#1
 In:  90  2E  72  |  Ch 1 Note On  A#1
 In:  90  2C  5C  |  Ch 1 Note On  G#1
 In:  90  24  58  |  Ch 1 Note On  C1
 In:  90  23  5B  |  Ch 1 Note On  B0
 In:  90  2A  2F  |  Ch 1 Note On  F#1
 In:  80  2A  00  |  Ch 1 Note Off F#1
 In:  80  2C  00  |  Ch 1 Note Off G#1
 In:  80  23  00  |  Ch 1 Note Off B0
 In:  80  24  00  |  Ch 1 Note Off C1
 In:  80  2E  00  |  Ch 1 Note Off A#1
 In:  90  26  39  |  Ch 1 Note On  D1
 In:  90  29  50  |  Ch 1 Note On  F1
 In:  90  2E  7F  |  Ch 1 Note On  A#1
 In:  90  2B  55  |  Ch 1 Note On  G1
 In:  90  28  48  |  Ch 1 Note On  E1
 In:  90  2F  64  |  Ch 1 Note On  B1
 In:  90  2C  3C  |  Ch 1 Note On  G#1
 In:  90  2D  61  |  Ch 1 Note On  A1
 In:  90  30  69  |  Ch 1 Note On  C2
 In:  80  2D  00  |  Ch 1 Note Off A1
 In:  80  28  00  |  Ch 1 Note Off E1
 In:  80  2B  00  |  Ch 1 Note Off G1
 In:  80  29  00  |  Ch 1 Note Off F1
 In:  80  2C  00  |  Ch 1 Note Off G#1
 In:  80  2E  00  |  Ch 1 Note Off A#1
 In:  80  2F  00  |  Ch 1 Note Off B1
 In:  80  26  00  |  Ch 1 Note Off D1
 In:  80  30  00  |  Ch 1 Note Off C2
 In:  90  2E  6B  |  Ch 1 Note On  A#1
 In:  90  2B  48  |  Ch 1 Note On  G1
 In:  90  2D  3F  |  Ch 1 Note On  A1
 In:  90  28  4C  |  Ch 1 Note On  E1
 In:  90  29  49  |  Ch 1 Note On  F1
 In:  90  2F  26  |  Ch 1 Note On  B1
 In:  90  30  1C  |  Ch 1 Note On  C2
 In:  80  30  00  |  Ch 1 Note Off C2
 In:  80  2F  00  |  Ch 1 Note Off B1
 In:  80  2D  00  |  Ch 1 Note Off A1
 In:  80  2B  00  |  Ch 1 Note Off G1
 In:  80  29  00  |  Ch 1 Note Off F1
 In:  80  2E  00  |  Ch 1 Note Off A#1
 In:  80  28  00  |  Ch 1 Note Off E1
 In:  90  2E  28  |  Ch 1 Note On  A#1
 In:  90  2C  28  |  Ch 1 Note On  G#1
 In:  90  2F  26  |  Ch 1 Note On  B1
 In:  90  2B  28  |  Ch 1 Note On  G1
 In:  80  2B  00  |  Ch 1 Note Off G1
 In:  80  2F  00  |  Ch 1 Note Off B1
 In:  80  2C  00  |  Ch 1 Note Off G#1
 In:  80  2E  00  |  Ch 1 Note Off A#1
 In:  90  2E  27  |  Ch 1 Note On  A#1
 In:  90  2D  41  |  Ch 1 Note On  A1
 In:  90  2F  30  |  Ch 1 Note On  B1
 In:  90  2C  3F  |  Ch 1 Note On  G#1
 In:  90  26  3B  |  Ch 1 Note On  D1
 In:  90  29  4E  |  Ch 1 Note On  F1
 In:  90  2B  32  |  Ch 1 Note On  G1
 In:  80  2B  00  |  Ch 1 Note Off G1
 In:  80  29  00  |  Ch 1 Note Off F1
 In:  80  2C  00  |  Ch 1 Note Off G#1
 In:  80  26  00  |  Ch 1 Note Off D1
 In:  80  2D  00  |  Ch 1 Note Off A1
 In:  80  2E  00  |  Ch 1 Note Off A#1
 In:  80  2F  00  |  Ch 1 Note Off B1
 In:  90  2E  66  |  Ch 1 Note On  A#1
 In:  90  2C  52  |  Ch 1 Note On  G#1
 In:  90  2F  52  |  Ch 1 Note On  B1
 In:  90  2D  2D  |  Ch 1 Note On  A1
 In:  90  26  27  |  Ch 1 Note On  D1
 In:  80  26  00  |  Ch 1 Note Off D1
 In:  80  2F  00  |  Ch 1 Note Off B1
 In:  80  2D  00  |  Ch 1 Note Off A1
 In:  80  2C  00  |  Ch 1 Note Off G#1
 In:  80  2E  00  |  Ch 1 Note Off A#1
 In:  90  2C  6F  |  Ch 1 Note On  G#1
 In:  90  2A  5A  |  Ch 1 Note On  F#1
 In:  90  2B  32  |  Ch 1 Note On  G1
 In:  90  2D  28  |  Ch 1 Note On  A1
 In:  90  24  4A  |  Ch 1 Note On  C1
 In:  90  28  25  |  Ch 1 Note On  E1
 In:  80  28  00  |  Ch 1 Note Off E1
 In:  80  2D  00  |  Ch 1 Note Off A1
 In:  80  2A  00  |  Ch 1 Note Off F#1
 In:  80  2C  00  |  Ch 1 Note Off G#1
 In:  80  24  00  |  Ch 1 Note Off C1
 In:  80  2B  00  |  Ch 1 Note Off G1
 In:  90  2A  6A  |  Ch 1 Note On  F#1
 In:  90  29  4A  |  Ch 1 Note On  F1
 In:  90  2C  47  |  Ch 1 Note On  G#1
 In:  90  23  57  |  Ch 1 Note On  B0
 In:  90  26  49  |  Ch 1 Note On  D1
 In:  90  28  28  |  Ch 1 Note On  E1
 In:  80  2C  00  |  Ch 1 Note Off G#1
 In:  80  28  00  |  Ch 1 Note Off E1
 In:  80  2B  00  |  Ch 1 Note Off G1
 In:  80  26  00  |  Ch 1 Note Off D1
 In:  80  29  00  |  Ch 1 Note Off F1
 In:  80  2A  00  |  Ch 1 Note Off F#1
 In:  80  23  00  |  Ch 1 Note Off B0
 In:  90  27  7F  |  Ch 1 Note On  D#1
 In:  90  28  5E  |  Ch 1 Note On  E1
 In:  90  29  5A  |  Ch 1 Note On  F1
 In:  90  21  62  |  Ch 1 Note On  A0
 In:  90  24  50  |  Ch 1 Note On  C1
 In:  90  25  37  |  Ch 1 Note On  C#1
 In:  80  25  00  |  Ch 1 Note Off C#1
 In:  80  24  00  |  Ch 1 Note Off C1
 In:  80  29  00  |  Ch 1 Note Off F1
 In:  80  28  00  |  Ch 1 Note Off E1
 In:  80  21  00  |  Ch 1 Note Off A0
 In:  80  27  00  |  Ch 1 Note Off D#1
 In:  90  27  7B  |  Ch 1 Note On  D#1
 In:  90  25  73  |  Ch 1 Note On  C#1
 In:  90  1F  5A  |  Ch 1 Note On  G0
 In:  90  28  3F  |  Ch 1 Note On  E1
 In:  90  23  36  |  Ch 1 Note On  B0
 In:  80  23  00  |  Ch 1 Note Off B0
 In:  80  28  00  |  Ch 1 Note Off E1
 In:  80  27  00  |  Ch 1 Note Off D#1
 In:  80  25  00  |  Ch 1 Note Off C#1
 In:  80  1F  00  |  Ch 1 Note Off G0
 In:  90  25  7B  |  Ch 1 Note On  C#1
 In:  90  1F  50  |  Ch 1 Note On  G0
 In:  90  1D  51  |  Ch 1 Note On  F0
 In:  90  26  28  |  Ch 1 Note On  D1
 In:  90  21  28  |  Ch 1 Note On  A0
 In:  90  22  25  |  Ch 1 Note On  A#0
 In:  90  28  1C  |  Ch 1 Note On  E1
 In:  90  23  23  |  Ch 1 Note On  B0
 In:  80  22  00  |  Ch 1 Note Off A#0
 In:  80  23  00  |  Ch 1 Note Off B0
 In:  80  28  00  |  Ch 1 Note Off E1
 In:  80  21  00  |  Ch 1 Note Off A0
 In:  80  1D  00  |  Ch 1 Note Off F0
 In:  80  1F  00  |  Ch 1 Note Off G0
 In:  80  26  00  |  Ch 1 Note Off D1
 In:  80  25  00  |  Ch 1 Note Off C#1
 In:  90  25  6D  |  Ch 1 Note On  C#1
 In:  90  26  5F  |  Ch 1 Note On  D1
 In:  90  22  72  |  Ch 1 Note On  A#0
 In:  90  24  59  |  Ch 1 Note On  C1
 In:  90  1D  5D  |  Ch 1 Note On  F0
 In:  90  21  4E  |  Ch 1 Note On  A0
 In:  90  23  27  |  Ch 1 Note On  B0
 In:  90  1F  24  |  Ch 1 Note On  G0
 In:  80  1F  00  |  Ch 1 Note Off G0
 In:  80  23  00  |  Ch 1 Note Off B0
 In:  80  24  00  |  Ch 1 Note Off C1
 In:  80  21  00  |  Ch 1 Note Off A0
 In:  80  25  00  |  Ch 1 Note Off C#1
 In:  80  1D  00  |  Ch 1 Note Off F0
 In:  80  22  00  |  Ch 1 Note Off A#0
 In:  80  26  00  |  Ch 1 Note Off D1
 In:  90  22  7F  |  Ch 1 Note On  A#0
 In:  90  20  79  |  Ch 1 Note On  G#0
 In:  90  24  64  |  Ch 1 Note On  C1
 In:  90  1C  60  |  Ch 1 Note On  E0
 In:  90  1F  3D  |  Ch 1 Note On  G0
 In:  80  1F  00  |  Ch 1 Note Off G0
 In:  80  24  00  |  Ch 1 Note Off C1
 In:  80  20  00  |  Ch 1 Note Off G#0
 In:  80  22  00  |  Ch 1 Note Off A#0
 In:  80  1C  00  |  Ch 1 Note Off E0
 In:  90  20  7B  |  Ch 1 Note On  G#0
 In:  90  22  6F  |  Ch 1 Note On  A#0
 In:  90  1A  51  |  Ch 1 Note On  D0
 In:  90  1C  4F  |  Ch 1 Note On  E0
 In:  90  23  49  |  Ch 1 Note On  B0
 In:  90  1D  25  |  Ch 1 Note On  F0
 In:  80  1D  00  |  Ch 1 Note Off F0
 In:  80  23  00  |  Ch 1 Note Off B0
 In:  80  22  00  |  Ch 1 Note Off A#0
 In:  80  1C  00  |  Ch 1 Note Off E0
 In:  80  1A  00  |  Ch 1 Note Off D0
 In:  80  20  00  |  Ch 1 Note Off G#0
 In:  90  20  7F  |  Ch 1 Note On  G#0
 In:  90  1E  7B  |  Ch 1 Note On  F#0
 In:  90  1A  5F  |  Ch 1 Note On  D0
 In:  90  1D  2F  |  Ch 1 Note On  F0
 In:  90  1C  26  |  Ch 1 Note On  E0
 In:  90  21  21  |  Ch 1 Note On  A0
 In:  80  1C  00  |  Ch 1 Note Off E0
 In:  80  1D  00  |  Ch 1 Note Off F0
 In:  80  21  00  |  Ch 1 Note Off A0
 In:  80  1E  00  |  Ch 1 Note Off F#0
 In:  80  1A  00  |  Ch 1 Note Off D0
 In:  80  20  00  |  Ch 1 Note Off G#0
 In:  90  1E  7A  |  Ch 1 Note On  F#0
 In:  90  1A  5E  |  Ch 1 Note On  D0
 In:  90  20  6A  |  Ch 1 Note On  G#0
 In:  90  21  4D  |  Ch 1 Note On  A0
 In:  90  1C  28  |  Ch 1 Note On  E0
 In:  80  20  00  |  Ch 1 Note Off G#0
 In:  80  1C  00  |  Ch 1 Note Off E0
 In:  80  21  00  |  Ch 1 Note Off A0
 In:  80  1E  00  |  Ch 1 Note Off F#0
 In:  80  1A  00  |  Ch 1 Note Off D0
 In:  90  1B  7F  |  Ch 1 Note On  D#0
 In:  90  18  5F  |  Ch 1 Note On  C0
 In:  90  1E  7A  |  Ch 1 Note On  F#0
 In:  90  1A  58  |  Ch 1 Note On  D0
 In:  90  1F  3F  |  Ch 1 Note On  G0
 In:  90  1C  1D  |  Ch 1 Note On  E0
 In:  80  1C  00  |  Ch 1 Note Off E0
 In:  80  1F  00  |  Ch 1 Note Off G0
 In:  80  1A  00  |  Ch 1 Note Off D0
 In:  80  1E  00  |  Ch 1 Note Off F#0
 In:  80  1B  00  |  Ch 1 Note Off D#0
 In:  80  18  00  |  Ch 1 Note Off C0
 In:  90  1B  7E  |  Ch 1 Note On  D#0
 In:  90  18  62  |  Ch 1 Note On  C0
 In:  90  1F  4D  |  Ch 1 Note On  G0
 In:  90  1D  23  |  Ch 1 Note On  F0
 In:  80  1D  00  |  Ch 1 Note Off F0
 In:  80  1F  00  |  Ch 1 Note Off G0
 In:  80  1B  00  |  Ch 1 Note Off D#0
 In:  80  18  00  |  Ch 1 Note Off C0
 In:  90  18  5B  |  Ch 1 Note On  C0
 In:  90  1B  79  |  Ch 1 Note On  D#0
 In:  90  19  62  |  Ch 1 Note On  C#0
 In:  90  1F  1B  |  Ch 1 Note On  G0
 In:  80  1F  00  |  Ch 1 Note Off G0
 In:  80  19  00  |  Ch 1 Note Off C#0
 In:  80  1B  00  |  Ch 1 Note Off D#0
 In:  80  18  00  |  Ch 1 Note Off C0
 In:  90  1B  7D  |  Ch 1 Note On  D#0
 In:  90  1A  6D  |  Ch 1 Note On  D0
 In:  90  1E  73  |  Ch 1 Note On  F#0
 In:  90  1D  6D  |  Ch 1 Note On  F0
 In:  90  21  57  |  Ch 1 Note On  A0
 In:  80  1E  00  |  Ch 1 Note Off F#0
 In:  80  1D  00  |  Ch 1 Note Off F0
 In:  80  21  00  |  Ch 1 Note Off A0
 In:  80  1B  00  |  Ch 1 Note Off D#0
 In:  80  1A  00  |  Ch 1 Note Off D0
 In:  90  20  69  |  Ch 1 Note On  G#0
 In:  90  1C  63  |  Ch 1 Note On  E0
 In:  90  1E  54  |  Ch 1 Note On  F#0
 In:  90  23  22  |  Ch 1 Note On  B0
 In:  80  23  00  |  Ch 1 Note Off B0
 In:  80  20  00  |  Ch 1 Note Off G#0
 In:  80  1E  00  |  Ch 1 Note Off F#0
 In:  80  1C  00  |  Ch 1 Note Off E0
 In:  90  20  73  |  Ch 1 Note On  G#0
 In:  90  22  6E  |  Ch 1 Note On  A#0
 In:  90  1D  62  |  Ch 1 Note On  F0
 In:  90  24  27  |  Ch 1 Note On  C1
 In:  90  23  21  |  Ch 1 Note On  B0
 In:  80  23  00  |  Ch 1 Note Off B0
 In:  80  24  00  |  Ch 1 Note Off C1
 In:  80  22  00  |  Ch 1 Note Off A#0
 In:  80  20  00  |  Ch 1 Note Off G#0
 In:  80  1D  00  |  Ch 1 Note Off F0
 In:  90  22  77  |  Ch 1 Note On  A#0
 In:  90  1F  4F  |  Ch 1 Note On  G0
 In:  90  1D  4C  |  Ch 1 Note On  F0
 In:  90  24  17  |  Ch 1 Note On  C1
 In:  80  24  00  |  Ch 1 Note Off C1
 In:  80  1D  00  |  Ch 1 Note Off F0
 In:  80  1F  00  |  Ch 1 Note Off G0
 In:  80  22  00  |  Ch 1 Note Off A#0
 In:  90  21  46  |  Ch 1 Note On  A0
 In:  90  25  28  |  Ch 1 Note On  C#1
 In:  90  27  28  |  Ch 1 Note On  D#1
 In:  90  26  25  |  Ch 1 Note On  D1
 In:  90  28  23  |  Ch 1 Note On  E1
 In:  80  28  00  |  Ch 1 Note Off E1
 In:  80  26  00  |  Ch 1 Note Off D1
 In:  80  25  00  |  Ch 1 Note Off C#1
 In:  80  27  00  |  Ch 1 Note Off D#1
 In:  80  21  00  |  Ch 1 Note Off A0
 In:  90  2A  75  |  Ch 1 Note On  F#1
 In:  90  23  38  |  Ch 1 Note On  B0
 In:  90  2C  63  |  Ch 1 Note On  G#1
 In:  90  27  34  |  Ch 1 Note On  D#1
 In:  80  27  00  |  Ch 1 Note Off D#1
 In:  80  23  00  |  Ch 1 Note Off B0
 In:  80  2C  00  |  Ch 1 Note Off G#1
 In:  80  2A  00  |  Ch 1 Note Off F#1
 In:  90  2E  4C  |  Ch 1 Note On  A#1
 In:  90  2C  26  |  Ch 1 Note On  G#1
 In:  90  26  3A  |  Ch 1 Note On  D1
 In:  90  2D  26  |  Ch 1 Note On  A1
 In:  90  24  26  |  Ch 1 Note On  C1
 In:  90  2F  1F  |  Ch 1 Note On  B1
 In:  80  24  00  |  Ch 1 Note Off C1
 In:  80  2F  00  |  Ch 1 Note Off B1
 In:  80  26  00  |  Ch 1 Note Off D1
 In:  80  2C  00  |  Ch 1 Note Off G#1
 In:  80  2D  00  |  Ch 1 Note Off A1
 In:  80  2E  00  |  Ch 1 Note Off A#1
 In:  90  2E  58  |  Ch 1 Note On  A#1
 In:  90  2F  4A  |  Ch 1 Note On  B1
 In:  90  2D  27  |  Ch 1 Note On  A1
 In:  90  30  23  |  Ch 1 Note On  C2
 In:  90  26  3E  |  Ch 1 Note On  D1
 In:  90  28  3E  |  Ch 1 Note On  E1
 In:  80  26  00  |  Ch 1 Note Off D1
 In:  80  28  00  |  Ch 1 Note Off E1
 In:  80  30  00  |  Ch 1 Note Off C2
 In:  80  2D  00  |  Ch 1 Note Off A1
 In:  80  2E  00  |  Ch 1 Note Off A#1
 In:  80  2F  00  |  Ch 1 Note Off B1
 In:  90  2E  3B  |  Ch 1 Note On  A#1
 In:  90  2F  26  |  Ch 1 Note On  B1
 In:  90  2D  27  |  Ch 1 Note On  A1
 In:  90  30  48  |  Ch 1 Note On  C2
 In:  90  2C  23  |  Ch 1 Note On  G#1
 In:  90  2B  1E  |  Ch 1 Note On  G1
 In:  80  2C  00  |  Ch 1 Note Off G#1
 In:  80  30  00  |  Ch 1 Note Off C2
 In:  80  2D  00  |  Ch 1 Note Off A1
 In:  80  2E  00  |  Ch 1 Note Off A#1
 In:  80  2F  00  |  Ch 1 Note Off B1
 In:  90  1B  13  |  Ch 1 Note On  D#0
 In:  90  1C  0A  |  Ch 1 Note On  E0
 In:  90  1A  0A  |  Ch 1 Note On  D0
 In:  90  1D  25  |  Ch 1 Note On  F0
 In:  80  1A  00  |  Ch 1 Note Off D0
 In:  80  1D  00  |  Ch 1 Note Off F0
 In:  90  2C  23  |  Ch 1 Note On  G#1
 In:  80  1C  00  |  Ch 1 Note Off E0
 In:  80  1B  00  |  Ch 1 Note Off D#0
 In:  90  2E  28  |  Ch 1 Note On  A#1
 In:  90  2F  20  |  Ch 1 Note On  B1
 In:  90  2D  28  |  Ch 1 Note On  A1
 In:  90  30  3A  |  Ch 1 Note On  C2
 In:  80  30  00  |  Ch 1 Note Off C2
 In:  80  2C  00  |  Ch 1 Note Off G#1
 In:  80  2D  00  |  Ch 1 Note Off A1
 In:  80  2E  00  |  Ch 1 Note Off A#1
 In:  80  2F  00  |  Ch 1 Note Off B1
 In:  90  1E  36  |  Ch 1 Note On  F#0
 In:  90  1B  26  |  Ch 1 Note On  D#0
 In:  90  1C  26  |  Ch 1 Note On  E0
 In:  90  18  1D  |  Ch 1 Note On  C0
 In:  80  1B  00  |  Ch 1 Note Off D#0
 In:  80  18  00  |  Ch 1 Note Off C0
 In:  80  1A  00  |  Ch 1 Note Off D0
 In:  80  1C  00  |  Ch 1 Note Off E0
 In:  80  1E  00  |  Ch 1 Note Off F#0
 In:  90  2A  4B  |  Ch 1 Note On  F#1
 In:  90  27  4C  |  Ch 1 Note On  D#1
 In:  90  2B  2B  |  Ch 1 Note On  G1
 In:  90  29  28  |  Ch 1 Note On  F1
 In:  90  28  27  |  Ch 1 Note On  E1
 In:  80  28  00  |  Ch 1 Note Off E1
 In:  80  27  00  |  Ch 1 Note Off D#1
 In:  80  29  00  |  Ch 1 Note Off F1
 In:  80  2B  00  |  Ch 1 Note Off G1
 In:  80  2A  00  |  Ch 1 Note Off F#1
 In:  90  20  77  |  Ch 1 Note On  G#0
 In:  90  22  6A  |  Ch 1 Note On  A#0
 In:  90  1F  16  |  Ch 1 Note On  G0
 In:  90  21  19  |  Ch 1 Note On  A0
 In:  90  1E  10  |  Ch 1 Note On  F#0
 In:  80  21  00  |  Ch 1 Note Off A0
 In:  80  1F  00  |  Ch 1 Note Off G0
 In:  80  1E  00  |  Ch 1 Note Off F#0
 In:  80  22  00  |  Ch 1 Note Off A#0
 In:  80  20  00  |  Ch 1 Note Off G#0
 In:  90  28  27  |  Ch 1 Note On  E1
 In:  90  27  27  |  Ch 1 Note On  D#1
 In:  90  25  41  |  Ch 1 Note On  C#1
 In:  90  29  27  |  Ch 1 Note On  F1
 In:  90  26  37  |  Ch 1 Note On  D1
 In:  90  24  40  |  Ch 1 Note On  C1
 In:  80  29  00  |  Ch 1 Note Off F1
 In:  80  27  00  |  Ch 1 Note Off D#1
 In:  80  25  00  |  Ch 1 Note Off C#1
 In:  80  26  00  |  Ch 1 Note Off D1
 In:  80  24  00  |  Ch 1 Note Off C1
 In:  80  28  00  |  Ch 1 Note Off E1
 In:  90  1B  72  |  Ch 1 Note On  D#0
 In:  90  1E  1C  |  Ch 1 Note On  F#0
 In:  90  19  13  |  Ch 1 Note On  C#0
 In:  90  18  0A  |  Ch 1 Note On  C0
 In:  80  19  00  |  Ch 1 Note Off C#0
 In:  80  18  00  |  Ch 1 Note Off C0
 In:  80  1E  00  |  Ch 1 Note Off F#0
 In:  80  1B  00  |  Ch 1 Note Off D#0
 In:  90  24  30  |  Ch 1 Note On  C1
 In:  90  26  26  |  Ch 1 Note On  D1
 In:  90  23  31  |  Ch 1 Note On  B0
 In:  90  22  28  |  Ch 1 Note On  A#0
 In:  90  28  34  |  Ch 1 Note On  E1
 In:  90  25  42  |  Ch 1 Note On  C#1
 In:  80  25  00  |  Ch 1 Note Off C#1
 In:  80  22  00  |  Ch 1 Note Off A#0
 In:  80  23  00  |  Ch 1 Note Off B0
 In:  80  28  00  |  Ch 1 Note Off E1
 In:  80  26  00  |  Ch 1 Note Off D1
 In:  80  24  00  |  Ch 1 Note Off C1
 In:  90  19  26  |  Ch 1 Note On  C#0
 In:  90  1B  3E  |  Ch 1 Note On  D#0
 In:  90  1E  0A  |  Ch 1 Note On  F#0
 In:  80  1E  00  |  Ch 1 Note Off F#0
 In:  80  19  00  |  Ch 1 Note Off C#0
 In:  80  1B  00  |  Ch 1 Note Off D#0
 In:  90  2F  3D  |  Ch 1 Note On  B1
 In:  90  2E  4C  |  Ch 1 Note On  A#1
 In:  90  2D  33  |  Ch 1 Note On  A1
 In:  90  2C  39  |  Ch 1 Note On  G#1
 In:  90  26  32  |  Ch 1 Note On  D1
 In:  90  30  1D  |  Ch 1 Note On  C2
 In:  80  30  00  |  Ch 1 Note Off C2
 In:  80  26  00  |  Ch 1 Note Off D1
 In:  80  2D  00  |  Ch 1 Note Off A1
 In:  80  2F  00  |  Ch 1 Note Off B1
 In:  80  2E  00  |  Ch 1 Note Off A#1
 In:  80  2C  00  |  Ch 1 Note Off G#1
 In:  90  22  5E  |  Ch 1 Note On  A#0
 In:  90  20  33  |  Ch 1 Note On  G#0
 In:  90  1E  1D  |  Ch 1 Note On  F#0
 In:  90  21  1C  |  Ch 1 Note On  A0
 In:  90  1B  1F  |  Ch 1 Note On  D#0
 In:  90  23  27  |  Ch 1 Note On  B0
 In:  80  1B  00  |  Ch 1 Note Off D#0
 In:  80  21  00  |  Ch 1 Note Off A0
 In:  80  1E  00  |  Ch 1 Note Off F#0
 In:  80  20  00  |  Ch 1 Note Off G#0
 In:  80  22  00  |  Ch 1 Note Off A#0
 In:  80  23  00  |  Ch 1 Note Off B0
 In:  90  30  48  |  Ch 1 Note On  C2
 In:  90  2F  21  |  Ch 1 Note On  B1
 In:  90  29  15  |  Ch 1 Note On  F1
 In:  90  28  17  |  Ch 1 Note On  E1
 In:  90  2C  1D  |  Ch 1 Note On  G#1
 In:  90  2D  0B  |  Ch 1 Note On  A1
 In:  90  1A  17  |  Ch 1 Note On  D0
 In:  90  1C  35  |  Ch 1 Note On  E0
 In:  90  24  28  |  Ch 1 Note On  C1
 In:  90  26  1D  |  Ch 1 Note On  D1
 In:  80  30  00  |  Ch 1 Note Off C2
 In:  90  21  5A  |  Ch 1 Note On  A0
 In:  90  1F  1E  |  Ch 1 Note On  G0
 In:  80  2F  00  |  Ch 1 Note Off B1
 In:  80  2D  00  |  Ch 1 Note Off A1
 In:  90  20  1E  |  Ch 1 Note On  G#0
 In:  80  2C  00  |  Ch 1 Note Off G#1
 In:  90  1D  0A  |  Ch 1 Note On  F0
 In:  80  28  00  |  Ch 1 Note Off E1
 In:  80  29  00  |  Ch 1 Note Off F1
 In:  90  23  0A  |  Ch 1 Note On  B0
 In:  80  26  00  |  Ch 1 Note Off D1
 In:  80  24  00  |  Ch 1 Note Off C1
 In:  80  1A  00  |  Ch 1 Note Off D0
 In:  80  1D  00  |  Ch 1 Note Off F0
 In:  80  1F  00  |  Ch 1 Note Off G0
 In:  80  1C  00  |  Ch 1 Note Off E0
 In:  80  20  00  |  Ch 1 Note Off G#0
 In:  80  23  00  |  Ch 1 Note Off B0
 In:  80  21  00  |  Ch 1 Note Off A0
 In:  90  2F  1F  |  Ch 1 Note On  B1
 In:  90  30  51  |  Ch 1 Note On  C2
 In:  90  2D  6B  |  Ch 1 Note On  A1
 In:  90  28  1B  |  Ch 1 Note On  E1
 In:  90  2C  10  |  Ch 1 Note On  G#1
 In:  90  19  20  |  Ch 1 Note On  C#0
 In:  90  29  14  |  Ch 1 Note On  F1
 In:  90  2E  12  |  Ch 1 Note On  A#1
 In:  90  1B  2E  |  Ch 1 Note On  D#0
 In:  90  24  0C  |  Ch 1 Note On  C1
 In:  90  1E  51  |  Ch 1 Note On  F#0
 In:  90  1A  15  |  Ch 1 Note On  D0
 In:  90  26  21  |  Ch 1 Note On  D1
 In:  90  2A  40  |  Ch 1 Note On  F#1
 In:  90  1F  38  |  Ch 1 Note On  G0
 In:  90  18  08  |  Ch 1 Note On  C0
 In:  90  21  2F  |  Ch 1 Note On  A0
 In:  90  1C  1B  |  Ch 1 Note On  E0
 In:  80  2D  00  |  Ch 1 Note Off A1
 In:  80  30  00  |  Ch 1 Note Off C2
 In:  80  2F  00  |  Ch 1 Note Off B1
 In:  80  29  00  |  Ch 1 Note Off F1
 In:  80  28  00  |  Ch 1 Note Off E1
 In:  90  22  4E  |  Ch 1 Note On  A#0
 In:  80  2A  00  |  Ch 1 Note Off F#1
 In:  80  2E  00  |  Ch 1 Note Off A#1
 In:  80  26  00  |  Ch 1 Note Off D1
 In:  80  18  00  |  Ch 1 Note Off C0
 In:  80  1A  00  |  Ch 1 Note Off D0
 In:  80  1C  00  |  Ch 1 Note Off E0
 In:  80  2C  00  |  Ch 1 Note Off G#1
 In:  80  1F  00  |  Ch 1 Note Off G0
 In:  80  21  00  |  Ch 1 Note Off A0
 In:  80  1B  00  |  Ch 1 Note Off D#0
 In:  80  24  00  |  Ch 1 Note Off C1
 In:  80  1E  00  |  Ch 1 Note Off F#0
 In:  80  19  00  |  Ch 1 Note Off C#0
 In:  80  22  00  |  Ch 1 Note Off A#0
 In:  90  2F  1C  |  Ch 1 Note On  B1
 In:  90  30  4B  |  Ch 1 Note On  C2
 In:  90  2D  46  |  Ch 1 Note On  A1
 In:  90  2C  6B  |  Ch 1 Note On  G#1
 In:  90  2B  23  |  Ch 1 Note On  G1
 In:  90  29  24  |  Ch 1 Note On  F1
 In:  90  28  25  |  Ch 1 Note On  E1
 In:  90  24  39  |  Ch 1 Note On  C1
 In:  90  19  1E  |  Ch 1 Note On  C#0
 In:  90  18  20  |  Ch 1 Note On  C0
 In:  90  1A  23  |  Ch 1 Note On  D0
 In:  90  1B  34  |  Ch 1 Note On  D#0
 In:  90  23  18  |  Ch 1 Note On  B0
 In:  90  1E  51  |  Ch 1 Note On  F#0
 In:  90  2E  1F  |  Ch 1 Note On  A#1
 In:  90  21  4A  |  Ch 1 Note On  A0
 In:  90  1F  3B  |  Ch 1 Note On  G0
 In:  80  28  00  |  Ch 1 Note Off E1
 In:  80  29  00  |  Ch 1 Note Off F1
 In:  90  1C  08  |  Ch 1 Note On  E0
 In:  80  2B  00  |  Ch 1 Note Off G1
 In:  80  2C  00  |  Ch 1 Note Off G#1
 In:  80  2D  00  |  Ch 1 Note Off A1
 In:  90  22  28  |  Ch 1 Note On  A#0
 In:  80  2F  00  |  Ch 1 Note Off B1
 In:  80  18  00  |  Ch 1 Note Off C0
 In:  80  1A  00  |  Ch 1 Note Off D0
 In:  80  2E  00  |  Ch 1 Note Off A#1
 In:  80  30  00  |  Ch 1 Note Off C2
 In:  80  1C  00  |  Ch 1 Note Off E0
 In:  80  1F  00  |  Ch 1 Note Off G0
 In:  80  24  00  |  Ch 1 Note Off C1
 In:  80  21  00  |  Ch 1 Note Off A0
 In:  80  23  00  |  Ch 1 Note Off B0
 In:  80  1B  00  |  Ch 1 Note Off D#0
 In:  80  19  00  |  Ch 1 Note Off C#0
 In:  80  1E  00  |  Ch 1 Note Off F#0
 In:  80  22  00  |  Ch 1 Note Off A#0
 In:  90  2B  23  |  Ch 1 Note On  G1
 In:  90  24  2A  |  Ch 1 Note On  C1
 In:  90  29  23  |  Ch 1 Note On  F1
 In:  90  28  21  |  Ch 1 Note On  E1
 In:  90  2D  1D  |  Ch 1 Note On  A1
 In:  90  2F  22  |  Ch 1 Note On  B1
 In:  90  26  1A  |  Ch 1 Note On  D1
 In:  90  2C  4E  |  Ch 1 Note On  G#1
 In:  90  19  28  |  Ch 1 Note On  C#0
 In:  90  1B  3F  |  Ch 1 Note On  D#0
 In:  90  1C  16  |  Ch 1 Note On  E0
 In:  90  1E  49  |  Ch 1 Note On  F#0
 In:  90  18  0D  |  Ch 1 Note On  C0
 In:  90  1A  13  |  Ch 1 Note On  D0
 In:  90  1F  44  |  Ch 1 Note On  G0
 In:  90  2E  1F  |  Ch 1 Note On  A#1
 In:  90  1D  1E  |  Ch 1 Note On  F0
 In:  90  20  21  |  Ch 1 Note On  G#0
 In:  80  26  00  |  Ch 1 Note Off D1
 In:  80  2D  00  |  Ch 1 Note Off A1
 In:  80  29  00  |  Ch 1 Note Off F1
 In:  80  2B  00  |  Ch 1 Note Off G1
 In:  80  2C  00  |  Ch 1 Note Off G#1
 In:  80  2F  00  |  Ch 1 Note Off B1
 In:  90  21  09  |  Ch 1 Note On  A0
 In:  80  24  00  |  Ch 1 Note Off C1
 In:  80  18  00  |  Ch 1 Note Off C0
 In:  80  1A  00  |  Ch 1 Note Off D0
 In:  80  19  00  |  Ch 1 Note Off C#0
 In:  80  2E  00  |  Ch 1 Note Off A#1
 In:  90  22  2A  |  Ch 1 Note On  A#0
 In:  80  1B  00  |  Ch 1 Note Off D#0
 In:  80  1C  00  |  Ch 1 Note Off E0
 In:  80  1D  00  |  Ch 1 Note Off F0
 In:  80  22  00  |  Ch 1 Note Off A#0
 In:  80  1E  00  |  Ch 1 Note Off F#0
 In:  80  21  00  |  Ch 1 Note Off A0
 In:  80  1F  00  |  Ch 1 Note Off G0
 In:  80  20  00  |  Ch 1 Note Off G#0
 In:  90  22  5B  |  Ch 1 Note On  A#0
 In:  90  25  27  |  Ch 1 Note On  C#1
 In:  90  23  2F  |  Ch 1 Note On  B0
 In:  90  21  27  |  Ch 1 Note On  A0
 In:  90  28  27  |  Ch 1 Note On  E1
 In:  90  24  27  |  Ch 1 Note On  C1
 In:  90  26  25  |  Ch 1 Note On  D1
 In:  90  2B  26  |  Ch 1 Note On  G1
 In:  90  29  26  |  Ch 1 Note On  F1
 In:  90  2A  0A  |  Ch 1 Note On  F#1
 In:  90  27  20  |  Ch 1 Note On  D#1
 In:  80  26  00  |  Ch 1 Note Off D1
 In:  80  27  00  |  Ch 1 Note Off D#1
 In:  90  19  3C  |  Ch 1 Note On  C#0
 In:  80  29  00  |  Ch 1 Note Off F1
 In:  80  25  00  |  Ch 1 Note Off C#1
 In:  80  2B  00  |  Ch 1 Note Off G1
 In:  80  28  00  |  Ch 1 Note Off E1
 In:  90  1B  29  |  Ch 1 Note On  D#0
 In:  80  24  00  |  Ch 1 Note Off C1
 In:  80  2A  00  |  Ch 1 Note Off F#1
 In:  80  21  00  |  Ch 1 Note Off A0
 In:  80  23  00  |  Ch 1 Note Off B0
 In:  90  1E  26  |  Ch 1 Note On  F#0
 In:  80  22  00  |  Ch 1 Note Off A#0
 In:  90  1C  2D  |  Ch 1 Note On  E0
 In:  80  1C  00  |  Ch 1 Note Off E0
 In:  90  20  58  |  Ch 1 Note On  G#0
 In:  90  1F  2B  |  Ch 1 Note On  G0
 In:  90  27  66  |  Ch 1 Note On  D#1
 In:  90  21  27  |  Ch 1 Note On  A0
 In:  90  26  4B  |  Ch 1 Note On  D1
 In:  80  19  00  |  Ch 1 Note Off C#0
 In:  80  1E  00  |  Ch 1 Note Off F#0
 In:  90  28  28  |  Ch 1 Note On  E1
 In:  80  1B  00  |  Ch 1 Note Off D#0
 In:  90  24  29  |  Ch 1 Note On  C1
 In:  90  23  25  |  Ch 1 Note On  B0
 In:  80  23  00  |  Ch 1 Note Off B0
 In:  90  1C  28  |  Ch 1 Note On  E0
 In:  80  20  00  |  Ch 1 Note Off G#0
 In:  80  24  00  |  Ch 1 Note Off C1
 In:  90  1D  27  |  Ch 1 Note On  F0
 In:  80  27  00  |  Ch 1 Note Off D#1
 In:  90  1E  1F  |  Ch 1 Note On  F#0
 In:  80  26  00  |  Ch 1 Note Off D1
 In:  80  28  00  |  Ch 1 Note Off E1
 In:  80  21  00  |  Ch 1 Note Off A0
 In:  90  1A  09  |  Ch 1 Note On  D0
 In:  90  20  4B  |  Ch 1 Note On  G#0
 In:  90  21  26  |  Ch 1 Note On  A0
 In:  80  1A  00  |  Ch 1 Note Off D0
 In:  80  1E  00  |  Ch 1 Note Off F#0
 In:  80  20  00  |  Ch 1 Note Off G#0
 In:  80  21  00  |  Ch 1 Note Off A0
 In:  80  1C  00  |  Ch 1 Note Off E0
 In:  80  1D  00  |  Ch 1 Note Off F0
 In:  80  1F  00  |  Ch 1 Note Off G0
 In:  90  2D  5A  |  Ch 1 Note On  A1
 In:  90  2C  79  |  Ch 1 Note On  G#1
 In:  90  2A  71  |  Ch 1 Note On  F#1
 In:  90  2B  54  |  Ch 1 Note On  G1
 In:  90  25  53  |  Ch 1 Note On  C#1
 In:  90  29  47  |  Ch 1 Note On  F1
 In:  90  28  51  |  Ch 1 Note On  E1
 In:  90  24  4C  |  Ch 1 Note On  C1
 In:  90  2E  13  |  Ch 1 Note On  A#1
 In:  80  24  00  |  Ch 1 Note Off C1
 In:  80  25  00  |  Ch 1 Note Off C#1
 In:  80  28  00  |  Ch 1 Note Off E1
 In:  80  29  00  |  Ch 1 Note Off F1
 In:  80  2A  00  |  Ch 1 Note Off F#1
 In:  90  21  4A  |  Ch 1 Note On  A0
 In:  80  2B  00  |  Ch 1 Note Off G1
 In:  90  1D  38  |  Ch 1 Note On  F0
 In:  80  2C  00  |  Ch 1 Note Off G#1
 In:  90  1F  4A  |  Ch 1 Note On  G0
 In:  90  1C  38  |  Ch 1 Note On  E0
 In:  80  2D  00  |  Ch 1 Note Off A1
 In:  90  1A  12  |  Ch 1 Note On  D0
 In:  90  22  08  |  Ch 1 Note On  A#0
 In:  80  1A  00  |  Ch 1 Note Off D0
 In:  80  22  00  |  Ch 1 Note Off A#0
 In:  80  1C  00  |  Ch 1 Note Off E0
 In:  80  1F  00  |  Ch 1 Note Off G0
 In:  80  1D  00  |  Ch 1 Note Off F0
 In:  90  2F  59  |  Ch 1 Note On  B1
 In:  90  2E  72  |  Ch 1 Note On  A#1
 In:  90  2D  46  |  Ch 1 Note On  A1
 In:  90  27  49  |  Ch 1 Note On  D#1
 In:  80  21  00  |  Ch 1 Note Off A0
 In:  90  26  2D  |  Ch 1 Note On  D1
 In:  90  2C  20  |  Ch 1 Note On  G#1
 In:  90  2B  1F  |  Ch 1 Note On  G1
 In:  90  30  15  |  Ch 1 Note On  C2
 In:  80  26  00  |  Ch 1 Note Off D1
 In:  80  27  00  |  Ch 1 Note Off D#1
 In:  80  2B  00  |  Ch 1 Note Off G1
 In:  80  2C  00  |  Ch 1 Note Off G#1
 In:  90  23  2C  |  Ch 1 Note On  B0
 In:  90  25  55  |  Ch 1 Note On  C#1
 In:  90  24  55  |  Ch 1 Note On  C1
 In:  90  22  27  |  Ch 1 Note On  A#0
 In:  90  21  27  |  Ch 1 Note On  A0
 In:  80  2D  00  |  Ch 1 Note Off A1
 In:  90  1E  11  |  Ch 1 Note On  F#0
 In:  80  30  00  |  Ch 1 Note Off C2
 In:  80  2E  00  |  Ch 1 Note Off A#1
 In:  80  2F  00  |  Ch 1 Note Off B1
 In:  80  21  00  |  Ch 1 Note Off A0
 In:  80  23  00  |  Ch 1 Note Off B0
 In:  80  1E  00  |  Ch 1 Note Off F#0
 In:  90  2E  6F  |  Ch 1 Note On  A#1
 In:  80  24  00  |  Ch 1 Note Off C1
 In:  80  22  00  |  Ch 1 Note Off A#0
 In:  90  27  67  |  Ch 1 Note On  D#1
 In:  90  2C  51  |  Ch 1 Note On  G#1
 In:  90  2F  4E  |  Ch 1 Note On  B1
 In:  90  30  2E  |  Ch 1 Note On  C2
 In:  90  2D  1D  |  Ch 1 Note On  A1
 In:  80  25  00  |  Ch 1 Note Off C#1
 In:  90  2B  1B  |  Ch 1 Note On  G1
 In:  80  2B  00  |  Ch 1 Note Off G1
 In:  80  30  00  |  Ch 1 Note Off C2
 In:  80  2D  00  |  Ch 1 Note Off A1
 In:  80  2C  00  |  Ch 1 Note Off G#1
 In:  80  27  00  |  Ch 1 Note Off D#1
 In:  80  2F  00  |  Ch 1 Note Off B1
 In:  80  2E  00  |  Ch 1 Note Off A#1
 In:  90  1E  76  |  Ch 1 Note On  F#0
 In:  90  20  1F  |  Ch 1 Note On  G#0
 In:  90  1B  1D  |  Ch 1 Note On  D#0
 In:  90  21  15  |  Ch 1 Note On  A0
 In:  90  22  0D  |  Ch 1 Note On  A#0
 In:  90  1F  0F  |  Ch 1 Note On  G0
 In:  90  1C  1A  |  Ch 1 Note On  E0
 In:  90  1A  1D  |  Ch 1 Note On  D0
 In:  90  1D  0E  |  Ch 1 Note On  F0
 In:  80  22  00  |  Ch 1 Note Off A#0
 In:  80  1F  00  |  Ch 1 Note Off G0
 In:  80  21  00  |  Ch 1 Note Off A0
 In:  80  20  00  |  Ch 1 Note Off G#0
 In:  80  1D  00  |  Ch 1 Note Off F0
 In:  90  25  79  |  Ch 1 Note On  C#1
 In:  90  2C  79  |  Ch 1 Note On  G#1
 In:  90  2E  6A  |  Ch 1 Note On  A#1
 In:  90  2A  77  |  Ch 1 Note On  F#1
 In:  90  24  47  |  Ch 1 Note On  C1
 In:  90  2D  27  |  Ch 1 Note On  A1
 In:  80  1C  00  |  Ch 1 Note Off E0
 In:  80  1E  00  |  Ch 1 Note Off F#0
 In:  80  1A  00  |  Ch 1 Note Off D0
 In:  90  28  24  |  Ch 1 Note On  E1
 In:  90  29  1D  |  Ch 1 Note On  F1
 In:  80  1B  00  |  Ch 1 Note Off D#0
 In:  90  2B  15  |  Ch 1 Note On  G1
 In:  80  28  00  |  Ch 1 Note Off E1
 In:  80  29  00  |  Ch 1 Note Off F1
 In:  90  1B  4E  |  Ch 1 Note On  D#0
 In:  80  2A  00  |  Ch 1 Note Off F#1
 In:  80  2B  00  |  Ch 1 Note Off G1
 In:  80  2E  00  |  Ch 1 Note Off A#1
 In:  80  2C  00  |  Ch 1 Note Off G#1
 In:  80  24  00  |  Ch 1 Note Off C1
 In:  90  1A  23  |  Ch 1 Note On  D0
 In:  80  25  00  |  Ch 1 Note Off C#1
 In:  80  2D  00  |  Ch 1 Note Off A1
 In:  90  18  16  |  Ch 1 Note On  C0
 In:  90  19  0F  |  Ch 1 Note On  C#0
 In:  90  1E  20  |  Ch 1 Note On  F#0
 In:  90  1C  0A  |  Ch 1 Note On  E0
 In:  80  1C  00  |  Ch 1 Note Off E0
 In:  90  22  6F  |  Ch 1 Note On  A#0
 In:  80  1A  00  |  Ch 1 Note Off D0
 In:  80  18  00  |  Ch 1 Note Off C0
 In:  90  2A  5B  |  Ch 1 Note On  F#1
 In:  90  27  62  |  Ch 1 Note On  D#1
 In:  80  19  00  |  Ch 1 Note Off C#0
 In:  80  1E  00  |  Ch 1 Note Off F#0
 In:  90  28  42  |  Ch 1 Note On  E1
 In:  80  1B  00  |  Ch 1 Note Off D#0
 In:  90  26  40  |  Ch 1 Note On  D1
 In:  90  2B  28  |  Ch 1 Note On  G1
 In:  90  21  31  |  Ch 1 Note On  A0
 In:  90  24  27  |  Ch 1 Note On  C1
 In:  90  1B  4A  |  Ch 1 Note On  D#0
 In:  90  19  44  |  Ch 1 Note On  C#0
 In:  80  2B  00  |  Ch 1 Note Off G1
 In:  80  27  00  |  Ch 1 Note Off D#1
 In:  80  26  00  |  Ch 1 Note Off D1
 In:  80  2A  00  |  Ch 1 Note Off F#1
 In:  80  28  00  |  Ch 1 Note Off E1
 In:  80  29  00  |  Ch 1 Note Off F1
 In:  80  21  00  |  Ch 1 Note Off A0
 In:  80  22  00  |  Ch 1 Note Off A#0
 In:  90  27  5F  |  Ch 1 Note On  D#1
 In:  90  29  52  |  Ch 1 Note On  F1
 In:  90  28  4B  |  Ch 1 Note On  E1
 In:  90  26  44  |  Ch 1 Note On  D1
 In:  80  19  00  |  Ch 1 Note Off C#0
 In:  80  1B  00  |  Ch 1 Note Off D#0
 In:  90  21  29  |  Ch 1 Note On  A0
 In:  90  25  22  |  Ch 1 Note On  C#1
 In:  80  25  00  |  Ch 1 Note Off C#1
 In:  80  24  00  |  Ch 1 Note Off C1
 In:  80  26  00  |  Ch 1 Note Off D1
 In:  80  21  00  |  Ch 1 Note Off A0
 In:  80  28  00  |  Ch 1 Note Off E1
 In:  80  29  00  |  Ch 1 Note Off F1
 In:  90  1E  15  |  Ch 1 Note On  F#0
 In:  90  1F  1E  |  Ch 1 Note On  G0
 In:  90  1C  18  |  Ch 1 Note On  E0
 In:  90  1D  2C  |  Ch 1 Note On  F0
 In:  90  1A  22  |  Ch 1 Note On  D0
 In:  90  1B  3E  |  Ch 1 Note On  D#0
 In:  90  20  0A  |  Ch 1 Note On  G#0
 In:  80  1B  00  |  Ch 1 Note Off D#0
 In:  80  1A  00  |  Ch 1 Note Off D0
 In:  80  1E  00  |  Ch 1 Note Off F#0
 In:  80  20  00  |  Ch 1 Note Off G#0
 In:  80  1D  00  |  Ch 1 Note Off F0
 In:  80  1C  00  |  Ch 1 Note Off E0
 In:  90  2C  50  |  Ch 1 Note On  G#1
 In:  90  2A  44  |  Ch 1 Note On  F#1
 In:  90  25  34  |  Ch 1 Note On  C#1
 In:  80  1F  00  |  Ch 1 Note Off G0
 In:  90  2E  3F  |  Ch 1 Note On  A#1
 In:  90  28  3C  |  Ch 1 Note On  E1
 In:  90  24  51  |  Ch 1 Note On  C1
 In:  90  26  43  |  Ch 1 Note On  D1
 In:  90  29  26  |  Ch 1 Note On  F1
 In:  90  2D  1C  |  Ch 1 Note On  A1
 In:  80  26  00  |  Ch 1 Note Off D1
 In:  80  29  00  |  Ch 1 Note Off F1
 In:  80  24  00  |  Ch 1 Note Off C1
 In:  80  25  00  |  Ch 1 Note Off C#1
 In:  90  21  4C  |  Ch 1 Note On  A0
 In:  80  28  00  |  Ch 1 Note Off E1
 In:  90  1F  43  |  Ch 1 Note On  G0
 In:  80  2D  00  |  Ch 1 Note Off A1
 In:  80  2A  00  |  Ch 1 Note Off F#1
 In:  90  1D  28  |  Ch 1 Note On  F0
 In:  80  2C  00  |  Ch 1 Note Off G#1
 In:  90  22  21  |  Ch 1 Note On  A#0
 In:  80  2E  00  |  Ch 1 Note Off A#1
 In:  90  20  1B  |  Ch 1 Note On  G#0
 In:  90  23  09  |  Ch 1 Note On  B0
 In:  80  1D  00  |  Ch 1 Note Off F0
 In:  80  1F  00  |  Ch 1 Note Off G0
 In:  80  20  00  |  Ch 1 Note Off G#0
 In:  90  2E  59  |  Ch 1 Note On  A#1
 In:  80  23  00  |  Ch 1 Note Off B0
 In:  80  21  00  |  Ch 1 Note Off A0
 In:  90  2C  26  |  Ch 1 Note On  G#1
 In:  90  25  28  |  Ch 1 Note On  C#1
 In:  80  22  00  |  Ch 1 Note Off A#0
 In:  90  2F  28  |  Ch 1 Note On  B1
 In:  90  29  33  |  Ch 1 Note On  F1
 In:  90  30  45  |  Ch 1 Note On  C2
 In:  90  28  30  |  Ch 1 Note On  E1
 In:  90  24  1E  |  Ch 1 Note On  C1
 In:  80  24  00  |  Ch 1 Note Off C1
 In:  80  25  00  |  Ch 1 Note Off C#1
 In:  80  28  00  |  Ch 1 Note Off E1
 In:  80  29  00  |  Ch 1 Note Off F1
 In:  90  23  41  |  Ch 1 Note On  B0
 In:  80  2D  00  |  Ch 1 Note Off A1
 In:  90  24  66  |  Ch 1 Note On  C1
 In:  90  21  35  |  Ch 1 Note On  A0
 In:  90  25  63  |  Ch 1 Note On  C#1
 In:  80  2C  00  |  Ch 1 Note Off G#1
 In:  80  30  00  |  Ch 1 Note Off C2
 In:  90  22  45  |  Ch 1 Note On  A#0
 In:  80  2F  00  |  Ch 1 Note Off B1
 In:  80  2E  00  |  Ch 1 Note Off A#1
 In:  90  2E  7A  |  Ch 1 Note On  A#1
 In:  80  25  00  |  Ch 1 Note Off C#1
 In:  80  24  00  |  Ch 1 Note Off C1
 In:  90  30  57  |  Ch 1 Note On  C2
 In:  90  2F  36  |  Ch 1 Note On  B1
 In:  80  23  00  |  Ch 1 Note Off B0
 In:  80  21  00  |  Ch 1 Note Off A0
 In:  90  27  48  |  Ch 1 Note On  D#1
 In:  80  22  00  |  Ch 1 Note Off A#0
 In:  90  2B  3A  |  Ch 1 Note On  G1
 In:  90  29  43  |  Ch 1 Note On  F1
 In:  90  2C  24  |  Ch 1 Note On  G#1
 In:  90  2D  21  |  Ch 1 Note On  A1
 In:  80  27  00  |  Ch 1 Note Off D#1
 In:  80  29  00  |  Ch 1 Note Off F1
 In:  80  2B  00  |  Ch 1 Note Off G1
 In:  80  2D  00  |  Ch 1 Note Off A1
 In:  80  2C  00  |  Ch 1 Note Off G#1
 In:  80  30  00  |  Ch 1 Note Off C2
 In:  80  2F  00  |  Ch 1 Note Off B1
 In:  80  2E  00  |  Ch 1 Note Off A#1
 In:  90  1B  7A  |  Ch 1 Note On  D#0
 In:  90  19  4A  |  Ch 1 Note On  C#0
 In:  90  1E  61  |  Ch 1 Note On  F#0
 In:  90  1D  16  |  Ch 1 Note On  F0
 In:  80  1D  00  |  Ch 1 Note Off F0
 In:  90  2E  62  |  Ch 1 Note On  A#1
 In:  80  1E  00  |  Ch 1 Note Off F#0
 In:  80  19  00  |  Ch 1 Note Off C#0
 In:  90  2C  4C  |  Ch 1 Note On  G#1
 In:  80  1B  00  |  Ch 1 Note Off D#0
 In:  90  29  4B  |  Ch 1 Note On  F1
 In:  90  26  40  |  Ch 1 Note On  D1
 In:  90  2F  26  |  Ch 1 Note On  B1
 In:  90  28  47  |  Ch 1 Note On  E1
 In:  90  2B  2F  |  Ch 1 Note On  G1
 In:  90  2D  23  |  Ch 1 Note On  A1
 In:  80  26  00  |  Ch 1 Note Off D1
 In:  80  28  00  |  Ch 1 Note Off E1
 In:  80  2B  00  |  Ch 1 Note Off G1
 In:  80  29  00  |  Ch 1 Note Off F1
 In:  80  2D  00  |  Ch 1 Note Off A1
 In:  80  2F  00  |  Ch 1 Note Off B1
 In:  80  2C  00  |  Ch 1 Note Off G#1
 In:  80  2E  00  |  Ch 1 Note Off A#1
 In:  90  1F  5C  |  Ch 1 Note On  G0
 In:  90  23  46  |  Ch 1 Note On  B0
 In:  90  21  62  |  Ch 1 Note On  A0
 In:  90  1D  57  |  Ch 1 Note On  F0
 In:  90  1B  28  |  Ch 1 Note On  D#0
 In:  90  1A  0A  |  Ch 1 Note On  D0
 In:  90  20  05  |  Ch 1 Note On  G#0
 In:  80  20  00  |  Ch 1 Note Off G#0
 In:  80  1A  00  |  Ch 1 Note Off D0
 In:  80  1B  00  |  Ch 1 Note Off D#0
 In:  90  2C  58  |  Ch 1 Note On  G#1
 In:  90  2A  61  |  Ch 1 Note On  F#1
 In:  90  2D  3A  |  Ch 1 Note On  A1
 In:  80  1D  00  |  Ch 1 Note Off F0
 In:  90  28  41  |  Ch 1 Note On  E1
 In:  80  1F  00  |  Ch 1 Note Off G0
 In:  90  29  23  |  Ch 1 Note On  F1
 In:  90  2B  1C  |  Ch 1 Note On  G1
 In:  80  21  00  |  Ch 1 Note Off A0
 In:  80  23  00  |  Ch 1 Note Off B0
 In:  80  28  00  |  Ch 1 Note Off E1
 In:  80  29  00  |  Ch 1 Note Off F1
 In:  80  2B  00  |  Ch 1 Note Off G1
 In:  80  2A  00  |  Ch 1 Note Off F#1
 In:  80  2C  00  |  Ch 1 Note Off G#1
 In:  80  2D  00  |  Ch 1 Note Off A1
 In:  90  1E  27  |  Ch 1 Note On  F#0
 In:  90  1B  4C  |  Ch 1 Note On  D#0
 In:  90  1C  30  |  Ch 1 Note On  E0
 In:  80  1B  00  |  Ch 1 Note Off D#0
 In:  90  24  4E  |  Ch 1 Note On  C1
 In:  90  2A  7F  |  Ch 1 Note On  F#1
 In:  90  2C  7A  |  Ch 1 Note On  G#1
 In:  90  28  6A  |  Ch 1 Note On  E1
 In:  90  2D  5E  |  Ch 1 Note On  A1
 In:  90  2B  63  |  Ch 1 Note On  G1
 In:  90  29  5C  |  Ch 1 Note On  F1
 In:  90  26  62  |  Ch 1 Note On  D1
 In:  80  1E  00  |  Ch 1 Note Off F#0
 In:  80  26  00  |  Ch 1 Note Off D1
 In:  80  29  00  |  Ch 1 Note Off F1
 In:  80  24  00  |  Ch 1 Note Off C1
 In:  80  28  00  |  Ch 1 Note Off E1
 In:  80  2C  00  |  Ch 1 Note Off G#1
 In:  90  1B  7D  |  Ch 1 Note On  D#0
 In:  80  2A  00  |  Ch 1 Note Off F#1
 In:  80  2B  00  |  Ch 1 Note Off G1
 In:  90  19  6D  |  Ch 1 Note On  C#0
 In:  80  2D  00  |  Ch 1 Note Off A1
 In:  90  1E  7A  |  Ch 1 Note On  F#0
 In:  80  19  00  |  Ch 1 Note Off C#0
 In:  80  1E  00  |  Ch 1 Note Off F#0
 In:  80  1B  00  |  Ch 1 Note Off D#0
 In:  99  26  44  |  Ch 10 Note On  D1
 In:  89  26  00  |  Ch 10 Note Off D1
 In:  99  24  30  |  Ch 10 Note On  C1
 In:  A9  24  53  |  Ch 10 Aftertouch C1
 In:  A9  24  41  |  Ch 10 Aftertouch C1
 In:  89  24  00  |  Ch 10 Note Off C1
 In:  99  27  20  |  Ch 10 Note On  D#1
 In:  89  27  00  |  Ch 10 Note Off D#1
 In:  99  25  3B  |  Ch 10 Note On  C#1
 In:  A9  25  58  |  Ch 10 Aftertouch C#1
 In:  89  25  00  |  Ch 10 Note Off C#1
 In:  99  29  3A  |  Ch 10 Note On  F1
 In:  A9  29  11  |  Ch 10 Aftertouch F1
 In:  89  29  00  |  Ch 10 Note Off F1
 In:  99  26  40  |  Ch 10 Note On  D1
 In:  A9  26  55  |  Ch 10 Aftertouch D1
 In:  A9  26  3E  |  Ch 10 Aftertouch D1
 In:  89  26  00  |  Ch 10 Note Off D1
 In:  99  2A  46  |  Ch 10 Note On  F#1
 In:  A9  2A  71  |  Ch 10 Aftertouch F#1
 In:  A9  2A  5E  |  Ch 10 Aftertouch F#1
 In:  A9  2A  0A  |  Ch 10 Aftertouch F#1
 In:  89  2A  00  |  Ch 10 Note Off F#1
 In:  99  26  3C  |  Ch 10 Note On  D1
 In:  99  24  25  |  Ch 10 Note On  C1
 In:  89  24  00  |  Ch 10 Note Off C1
 In:  A9  26  7D  |  Ch 10 Aftertouch D1
 In:  A9  26  7F  |  Ch 10 Aftertouch D1
 In:  A9  26  7E  |  Ch 10 Aftertouch D1
 In:  A9  26  7A  |  Ch 10 Aftertouch D1
 In:  A9  26  70  |  Ch 10 Aftertouch D1
 In:  A9  26  58  |  Ch 10 Aftertouch D1
 In:  A9  26  08  |  Ch 10 Aftertouch D1
 In:  89  26  00  |  Ch 10 Note Off D1
 In:  99  29  28  |  Ch 10 Note On  F1
 In:  A9  29  7B  |  Ch 10 Aftertouch F1
 In:  A9  29  78  |  Ch 10 Aftertouch F1
 In:  A9  29  72  |  Ch 10 Aftertouch F1
 In:  99  2A  14  |  Ch 10 Note On  F#1
 In:  A9  29  66  |  Ch 10 Aftertouch F1
 In:  A9  29  5C  |  Ch 10 Aftertouch F1
 In:  89  29  00  |  Ch 10 Note Off F1
 In:  89  2A  00  |  Ch 10 Note Off F#1
 In:  99  2A  10  |  Ch 10 Note On  F#1
 In:  99  29  0F  |  Ch 10 Note On  F1
 In:  99  24  0D  |  Ch 10 Note On  C1
 In:  99  26  0C  |  Ch 10 Note On  D1
 In:  99  25  0E  |  Ch 10 Note On  C#1
 In:  A9  28  7A  |  Ch 10 Aftertouch E1
 In:  A9  2A  72  |  Ch 10 Aftertouch F#1
 In:  A9  28  79  |  Ch 10 Aftertouch E1
 In:  A9  2A  70  |  Ch 10 Aftertouch F#1
 In:  A9  29  4D  |  Ch 10 Aftertouch F1
 In:  A9  24  66  |  Ch 10 Aftertouch C1
 In:  A9  28  72  |  Ch 10 Aftertouch E1
 In:  A9  26  62  |  Ch 10 Aftertouch D1
 In:  A9  2A  6E  |  Ch 10 Aftertouch F#1
 In:  A9  29  33  |  Ch 10 Aftertouch F1
 In:  A9  25  46  |  Ch 10 Aftertouch C#1
 In:  A9  24  64  |  Ch 10 Aftertouch C1
 In:  A9  28  5D  |  Ch 10 Aftertouch E1
 In:  A9  26  40  |  Ch 10 Aftertouch D1
 In:  A9  2A  66  |  Ch 10 Aftertouch F#1
 In:  A9  29  1C  |  Ch 10 Aftertouch F1
 In:  A9  25  39  |  Ch 10 Aftertouch C#1
 In:  A9  24  54  |  Ch 10 Aftertouch C1
 In:  A9  28  37  |  Ch 10 Aftertouch E1
 In:  A9  26  1F  |  Ch 10 Aftertouch D1
 In:  A9  2A  53  |  Ch 10 Aftertouch F#1
 In:  89  29  00  |  Ch 10 Note Off F1
 In:  A9  25  28  |  Ch 10 Aftertouch C#1
 In:  A9  24  4B  |  Ch 10 Aftertouch C1
 In:  89  28  00  |  Ch 10 Note Off E1
 In:  A9  26  05  |  Ch 10 Aftertouch D1
 In:  A9  2A  19  |  Ch 10 Aftertouch F#1
 In:  89  25  00  |  Ch 10 Note Off C#1
 In:  A9  24  2F  |  Ch 10 Aftertouch C1
 In:  89  26  00  |  Ch 10 Note Off D1
 In:  89  2A  00  |  Ch 10 Note Off F#1
 In:  89  24  00  |  Ch 10 Note Off C1
 In:  99  28  0C  |  Ch 10 Note On  E1
 In:  99  2A  0C  |  Ch 10 Note On  F#1
 In:  99  29  0C  |  Ch 10 Note On  F1
 In:  99  26  0F  |  Ch 10 Note On  D1
 In:  99  27  0C  |  Ch 10 Note On  D#1
 In:  99  2B  0C  |  Ch 10 Note On  G1
 In:  99  25  10  |  Ch 10 Note On  C#1
 In:  A9  28  6E  |  Ch 10 Aftertouch E1
 In:  A9  2A  67  |  Ch 10 Aftertouch F#1
 In:  A9  29  66  |  Ch 10 Aftertouch F1
 In:  A9  26  6F  |  Ch 10 Aftertouch D1
 In:  A9  28  6D  |  Ch 10 Aftertouch E1
 In:  A9  2A  63  |  Ch 10 Aftertouch F#1
 In:  A9  26  6D  |  Ch 10 Aftertouch D1
 In:  A9  29  64  |  Ch 10 Aftertouch F1
 In:  A9  24  64  |  Ch 10 Aftertouch C1
 In:  A9  27  66  |  Ch 10 Aftertouch D#1
 In:  A9  2A  60  |  Ch 10 Aftertouch F#1
 In:  A9  26  68  |  Ch 10 Aftertouch D1
 In:  A9  29  61  |  Ch 10 Aftertouch F1
 In:  A9  2B  53  |  Ch 10 Aftertouch G1
 In:  A9  25  49  |  Ch 10 Aftertouch C#1
 In:  A9  24  4C  |  Ch 10 Aftertouch C1
 In:  A9  27  64  |  Ch 10 Aftertouch D#1
 In:  A9  2A  5D  |  Ch 10 Aftertouch F#1
 In:  A9  26  53  |  Ch 10 Aftertouch D1
 In:  A9  29  53  |  Ch 10 Aftertouch F1
 In:  A9  2B  4A  |  Ch 10 Aftertouch G1
 In:  A9  27  53  |  Ch 10 Aftertouch D#1
 In:  A9  2A  4A  |  Ch 10 Aftertouch F#1
 In:  A9  26  0C  |  Ch 10 Aftertouch D1
 In:  A9  29  13  |  Ch 10 Aftertouch F1
 In:  A9  2B  16  |  Ch 10 Aftertouch G1
 In:  A9  27  39  |  Ch 10 Aftertouch D#1
 In:  A9  2A  01  |  Ch 10 Aftertouch F#1
 In:  89  26  00  |  Ch 10 Note Off D1
 In:  89  29  00  |  Ch 10 Note Off F1
 In:  89  2B  00  |  Ch 10 Note Off G1
 In:  89  27  00  |  Ch 10 Note Off D#1
 In:  99  28  0D  |  Ch 10 Note On  E1
 In:  99  2B  10  |  Ch 10 Note On  G1
 In:  99  27  0F  |  Ch 10 Note On  D#1
 In:  99  2A  0F  |  Ch 10 Note On  F#1
 In:  99  29  0E  |  Ch 10 Note On  F1
 In:  99  26  0F  |  Ch 10 Note On  D1
 In:  99  25  0D  |  Ch 10 Note On  C#1
 In:  A9  28  72  |  Ch 10 Aftertouch E1
 In:  A9  2B  65  |  Ch 10 Aftertouch G1
 In:  A9  27  75  |  Ch 10 Aftertouch D#1
 In:  99  24  0D  |  Ch 10 Note On  C1
 In:  A9  2A  72  |  Ch 10 Aftertouch F#1
 In:  A9  28  70  |  Ch 10 Aftertouch E1
 In:  A9  29  69  |  Ch 10 Aftertouch F1
 In:  A9  27  74  |  Ch 10 Aftertouch D#1
 In:  A9  2B  63  |  Ch 10 Aftertouch G1
 In:  A9  26  69  |  Ch 10 Aftertouch D1
 In:  A9  2A  70  |  Ch 10 Aftertouch F#1
 In:  A9  28  67  |  Ch 10 Aftertouch E1
 In:  A9  29  65  |  Ch 10 Aftertouch F1
 In:  A9  27  70  |  Ch 10 Aftertouch D#1
 In:  89  24  00  |  Ch 10 Note Off C1
 In:  A9  26  57  |  Ch 10 Aftertouch D1
 In:  A9  2A  68  |  Ch 10 Aftertouch F#1
 In:  A9  28  60  |  Ch 10 Aftertouch E1
 In:  A9  29  5E  |  Ch 10 Aftertouch F1
 In:  A9  27  67  |  Ch 10 Aftertouch D#1
 In:  A9  2B  51  |  Ch 10 Aftertouch G1
 In:  A9  26  2B  |  Ch 10 Aftertouch D1
 In:  A9  2A  55  |  Ch 10 Aftertouch F#1
 In:  A9  28  4D  |  Ch 10 Aftertouch E1
 In:  A9  29  41  |  Ch 10 Aftertouch F1
 In:  A9  27  53  |  Ch 10 Aftertouch D#1
 In:  A9  2B  29  |  Ch 10 Aftertouch G1
 In:  89  26  00  |  Ch 10 Note Off D1
 In:  89  25  00  |  Ch 10 Note Off C#1
 In:  A9  2A  27  |  Ch 10 Aftertouch F#1
 In:  89  28  00  |  Ch 10 Note Off E1
 In:  89  29  00  |  Ch 10 Note Off F1
 In:  89  27  00  |  Ch 10 Note Off D#1
 In:  89  2B  00  |  Ch 10 Note Off G1
 In:  89  2A  00  |  Ch 10 Note Off F#1
 In:  99  28  0F  |  Ch 10 Note On  E1
 In:  99  29  0D  |  Ch 10 Note On  F1
 In:  99  2A  0F  |  Ch 10 Note On  F#1
 In:  99  27  0E  |  Ch 10 Note On  D#1
 In:  99  2B  0E  |  Ch 10 Note On  G1
 In:  99  26  0C  |  Ch 10 Note On  D1
 In:  99  25  0D  |  Ch 10 Note On  C#1
 In:  A9  28  6E  |  Ch 10 Aftertouch E1
 In:  99  24  0B  |  Ch 10 Note On  C1
 In:  A9  29  64  |  Ch 10 Aftertouch F1
 In:  A9  2A  67  |  Ch 10 Aftertouch F#1
 In:  A9  28  6C  |  Ch 10 Aftertouch E1
 In:  A9  27  6F  |  Ch 10 Aftertouch D#1
 In:  A9  2B  50  |  Ch 10 Aftertouch G1
 In:  89  24  00  |  Ch 10 Note Off C1
 In:  A9  29  5F  |  Ch 10 Aftertouch F1
 In:  A9  2A  61  |  Ch 10 Aftertouch F#1
 In:  A9  28  69  |  Ch 10 Aftertouch E1
 In:  A9  26  38  |  Ch 10 Aftertouch D1
 In:  A9  27  6B  |  Ch 10 Aftertouch D#1
 In:  A9  2B  40  |  Ch 10 Aftertouch G1
 In:  89  25  00  |  Ch 10 Note Off C#1
 In:  A9  29  4A  |  Ch 10 Aftertouch F1
 In:  A9  2A  56  |  Ch 10 Aftertouch F#1
 In:  A9  28  5A  |  Ch 10 Aftertouch E1
 In:  89  26  00  |  Ch 10 Note Off D1
 In:  A9  27  5E  |  Ch 10 Aftertouch D#1
 In:  A9  2B  1B  |  Ch 10 Aftertouch G1
 In:  A9  29  21  |  Ch 10 Aftertouch F1
 In:  A9  2A  3C  |  Ch 10 Aftertouch F#1
 In:  A9  28  23  |  Ch 10 Aftertouch E1
 In:  A9  27  1B  |  Ch 10 Aftertouch D#1
 In:  89  2B  00  |  Ch 10 Note Off G1
 In:  89  29  00  |  Ch 10 Note Off F1
 In:  89  2A  00  |  Ch 10 Note Off F#1
 In:  89  28  00  |  Ch 10 Note Off E1
 In:  89  27  00  |  Ch 10 Note Off D#1
 In:  99  27  0D  |  Ch 10 Note On  D#1
 In:  99  28  0D  |  Ch 10 Note On  E1
 In:  99  2A  15  |  Ch 10 Note On  F#1
 In:  99  26  0F  |  Ch 10 Note On  D1
 In:  99  2B  0E  |  Ch 10 Note On  G1
 In:  99  29  0C  |  Ch 10 Note On  F1
 In:  99  24  0C  |  Ch 10 Note On  C1
 In:  A9  27  76  |  Ch 10 Aftertouch D#1
 In:  A9  28  6A  |  Ch 10 Aftertouch E1
 In:  A9  2A  7B  |  Ch 10 Aftertouch F#1
 In:  A9  27  75  |  Ch 10 Aftertouch D#1
 In:  A9  26  6B  |  Ch 10 Aftertouch D1
 In:  A9  28  69  |  Ch 10 Aftertouch E1
 In:  A9  2B  56  |  Ch 10 Aftertouch G1
 In:  A9  2A  7A  |  Ch 10 Aftertouch F#1
 In:  A9  25  5D  |  Ch 10 Aftertouch C#1
 In:  A9  27  6F  |  Ch 10 Aftertouch D#1
 In:  A9  26  60  |  Ch 10 Aftertouch D1
 In:  A9  2B  50  |  Ch 10 Aftertouch G1
 In:  A9  2A  74  |  Ch 10 Aftertouch F#1
 In:  A9  24  05  |  Ch 10 Aftertouch C1
 In:  A9  29  5A  |  Ch 10 Aftertouch F1
 In:  A9  25  4C  |  Ch 10 Aftertouch C#1
 In:  A9  27  65  |  Ch 10 Aftertouch D#1
 In:  A9  26  58  |  Ch 10 Aftertouch D1
 In:  89  24  00  |  Ch 10 Note Off C1
 In:  A9  2A  71  |  Ch 10 Aftertouch F#1
 In:  A9  29  4A  |  Ch 10 Aftertouch F1
 In:  A9  25  0C  |  Ch 10 Aftertouch C#1
 In:  A9  27  5E  |  Ch 10 Aftertouch D#1
 In:  A9  26  43  |  Ch 10 Aftertouch D1
 In:  A9  2B  44  |  Ch 10 Aftertouch G1
 In:  A9  2A  6A  |  Ch 10 Aftertouch F#1
 In:  A9  29  1F  |  Ch 10 Aftertouch F1
 In:  A9  27  45  |  Ch 10 Aftertouch D#1
 In:  89  26  00  |  Ch 10 Note Off D1
 In:  A9  2B  1D  |  Ch 10 Aftertouch G1
 In:  A9  2A  52  |  Ch 10 Aftertouch F#1
 In:  89  29  00  |  Ch 10 Note Off F1
 In:  89  27  00  |  Ch 10 Note Off D#1
 In:  89  2B  00  |  Ch 10 Note Off G1
 In:  89  2A  00  |  Ch 10 Note Off F#1
 In:  99  27  0C  |  Ch 10 Note On  D#1
 In:  99  28  0B  |  Ch 10 Note On  E1
 In:  99  2A  0F  |  Ch 10 Note On  F#1
 In:  99  26  0C  |  Ch 10 Note On  D1
 In:  99  29  0D  |  Ch 10 Note On  F1
 In:  99  25  0E  |  Ch 10 Note On  C#1
 In:  99  2B  0D  |  Ch 10 Note On  G1
 In:  99  24  0D  |  Ch 10 Note On  C1
 In:  A9  27  6D  |  Ch 10 Aftertouch D#1
 In:  A9  28  56  |  Ch 10 Aftertouch E1
 In:  A9  2A  64  |  Ch 10 Aftertouch F#1
 In:  A9  27  63  |  Ch 10 Aftertouch D#1
 In:  A9  28  4F  |  Ch 10 Aftertouch E1
 In:  A9  26  52  |  Ch 10 Aftertouch D1
 In:  A9  25  4C  |  Ch 10 Aftertouch C#1
 In:  A9  2B  2A  |  Ch 10 Aftertouch G1
 In:  A9  2A  56  |  Ch 10 Aftertouch F#1
 In:  A9  27  5D  |  Ch 10 Aftertouch D#1
 In:  A9  24  27  |  Ch 10 Aftertouch C1
 In:  A9  28  2E  |  Ch 10 Aftertouch E1
 In:  A9  29  2F  |  Ch 10 Aftertouch F1
 In:  A9  25  35  |  Ch 10 Aftertouch C#1
 In:  89  2B  00  |  Ch 10 Note Off G1
 In:  A9  2A  4B  |  Ch 10 Aftertouch F#1
 In:  A9  27  4A  |  Ch 10 Aftertouch D#1
 In:  89  24  00  |  Ch 10 Note Off C1
 In:  89  28  00  |  Ch 10 Note Off E1
 In:  A9  26  1A  |  Ch 10 Aftertouch D1
 In:  A9  29  06  |  Ch 10 Aftertouch F1
 In:  89  25  00  |  Ch 10 Note Off C#1
 In:  A9  2A  0B  |  Ch 10 Aftertouch F#1
 In:  A9  27  3F  |  Ch 10 Aftertouch D#1
 In:  89  29  00  |  Ch 10 Note Off F1
 In:  89  26  00  |  Ch 10 Note Off D1
 In:  89  2A  00  |  Ch 10 Note Off F#1
 In:  89  27  00  |  Ch 10 Note Off D#1
 In:  90  21  3A  |  Ch 1 Note On  A0
 In:  90  2E  7B  |  Ch 1 Note On  A#1
 In:  90  2F  69  |  Ch 1 Note On  B1
 In:  90  1F  19  |  Ch 1 Note On  G0
 In:  90  2D  5F  |  Ch 1 Note On  A1
 In:  90  30  3F  |  Ch 1 Note On  C2
 In:  90  1D  19  |  Ch 1 Note On  F0
 In:  90  26  5E  |  Ch 1 Note On  D1
 In:  90  29  4B  |  Ch 1 Note On  F1
 In:  90  2B  3E  |  Ch 1 Note On  G1
 In:  90  28  5C  |  Ch 1 Note On  E1
 In:  80  28  00  |  Ch 1 Note Off E1
 In:  80  26  00  |  Ch 1 Note Off D1
 In:  80  29  00  |  Ch 1 Note Off F1
 In:  80  2B  00  |  Ch 1 Note Off G1
 In:  80  2E  00  |  Ch 1 Note Off A#1
 In:  80  2D  00  |  Ch 1 Note Off A1
 In:  80  1D  00  |  Ch 1 Note Off F0
 In:  80  2F  00  |  Ch 1 Note Off B1
 In:  80  30  00  |  Ch 1 Note Off C2
 In:  80  1F  00  |  Ch 1 Note Off G0
 In:  80  21  00  |  Ch 1 Note Off A0
 In:  90  2F  47  |  Ch 1 Note On  B1
 In:  90  28  6B  |  Ch 1 Note On  E1
 In:  90  2B  55  |  Ch 1 Note On  G1
 In:  90  2E  28  |  Ch 1 Note On  A#1
 In:  90  2D  26  |  Ch 1 Note On  A1
 In:  80  2D  00  |  Ch 1 Note Off A1
 In:  80  2E  00  |  Ch 1 Note Off A#1
 In:  80  2B  00  |  Ch 1 Note Off G1
 In:  80  28  00  |  Ch 1 Note Off E1
 In:  80  2F  00  |  Ch 1 Note Off B1
 In:  90  1B  7D  |  Ch 1 Note On  D#0
 In:  90  1E  6E  |  Ch 1 Note On  F#0
 In:  90  1F  69  |  Ch 1 Note On  G0
 In:  90  21  5B  |  Ch 1 Note On  A0
 In:  90  1C  52  |  Ch 1 Note On  E0
 In:  90  1A  49  |  Ch 1 Note On  D0
 In:  90  1D  42  |  Ch 1 Note On  F0
 In:  80  1F  00  |  Ch 1 Note Off G0
 In:  80  21  00  |  Ch 1 Note Off A0
 In:  80  1E  00  |  Ch 1 Note Off F#0
 In:  80  1D  00  |  Ch 1 Note Off F0
 In:  80  1C  00  |  Ch 1 Note Off E0
 In:  80  1A  00  |  Ch 1 Note Off D0
 In:  80  1B  00  |  Ch 1 Note Off D#0
 In:  90  2E  7E  |  Ch 1 Note On  A#1
 In:  90  2F  63  |  Ch 1 Note On  B1
 In:  90  30  5A  |  Ch 1 Note On  C2
 In:  90  2C  50  |  Ch 1 Note On  G#1
 In:  90  2B  28  |  Ch 1 Note On  G1
 In:  90  28  2D  |  Ch 1 Note On  E1
 In:  90  26  33  |  Ch 1 Note On  D1
 In:  80  26  00  |  Ch 1 Note Off D1
 In:  80  28  00  |  Ch 1 Note Off E1
 In:  80  2B  00  |  Ch 1 Note Off G1
 In:  80  2C  00  |  Ch 1 Note Off G#1
 In:  80  30  00  |  Ch 1 Note Off C2
 In:  80  2E  00  |  Ch 1 Note Off A#1
 In:  80  2F  00  |  Ch 1 Note Off B1
 In:  90  1B  76  |  Ch 1 Note On  D#0
 In:  90  1E  6F  |  Ch 1 Note On  F#0
 In:  90  20  1E  |  Ch 1 Note On  G#0
 In:  90  21  1B  |  Ch 1 Note On  A0
 In:  90  1F  13  |  Ch 1 Note On  G0
 In:  90  22  1F  |  Ch 1 Note On  A#0
 In:  80  1F  00  |  Ch 1 Note Off G0
 In:  80  22  00  |  Ch 1 Note Off A#0
 In:  80  21  00  |  Ch 1 Note Off A0
 In:  90  2E  6B  |  Ch 1 Note On  A#1
 In:  90  2C  5C  |  Ch 1 Note On  G#1
 In:  80  20  00  |  Ch 1 Note Off G#0
 In:  80  1B  00  |  Ch 1 Note Off D#0
 In:  90  2F  3C  |  Ch 1 Note On  B1
 In:  90  26  4C  |  Ch 1 Note On  D1
 In:  80  1E  00  |  Ch 1 Note Off F#0
 In:  90  29  31  |  Ch 1 Note On  F1
 In:  90  2D  1E  |  Ch 1 Note On  A1
 In:  90  24  26  |  Ch 1 Note On  C1
 In:  90  28  27  |  Ch 1 Note On  E1
 In:  80  28  00  |  Ch 1 Note Off E1
 In:  80  24  00  |  Ch 1 Note Off C1
 In:  80  29  00  |  Ch 1 Note Off F1
 In:  80  2D  00  |  Ch 1 Note Off A1
 In:  80  2C  00  |  Ch 1 Note Off G#1
 In:  80  2E  00  |  Ch 1 Note Off A#1
 In:  80  2F  00  |  Ch 1 Note Off B1
 In:  80  26  00  |  Ch 1 Note Off D1
 In:  90  20  79  |  Ch 1 Note On  G#0
 In:  90  22  75  |  Ch 1 Note On  A#0
 In:  90  1E  71  |  Ch 1 Note On  F#0
 In:  90  1B  64  |  Ch 1 Note On  D#0
 In:  80  1B  00  |  Ch 1 Note Off D#0
 In:  90  2C  6F  |  Ch 1 Note On  G#1
 In:  90  2A  67  |  Ch 1 Note On  F#1
 In:  90  24  47  |  Ch 1 Note On  C1
 In:  90  2E  3C  |  Ch 1 Note On  A#1
 In:  90  28  3F  |  Ch 1 Note On  E1
 In:  90  2D  24  |  Ch 1 Note On  A1
 In:  90  29  28  |  Ch 1 Note On  F1
 In:  80  1E  00  |  Ch 1 Note Off F#0
 In:  80  22  00  |  Ch 1 Note Off A#0
 In:  80  20  00  |  Ch 1 Note Off G#0
 In:  90  2F  16  |  Ch 1 Note On  B1
 In:  80  2F  00  |  Ch 1 Note Off B1
 In:  80  29  00  |  Ch 1 Note Off F1
 In:  80  2D  00  |  Ch 1 Note Off A1
 In:  80  28  00  |  Ch 1 Note Off E1
 In:  80  24  00  |  Ch 1 Note Off C1
 In:  80  2A  00  |  Ch 1 Note Off F#1
 In:  80  2C  00  |  Ch 1 Note Off G#1
 In:  80  2E  00  |  Ch 1 Note Off A#1
 In:  99  28  0D  |  Ch 10 Note On  E1
 In:  99  29  0E  |  Ch 10 Note On  F1
 In:  B0  01  05  |  Ch 1 CC 1 - Modulation Wheel
 In:  B0  01  06  |  Ch 1 CC 1 - Modulation Wheel
 In:  B0  01  07  |  Ch 1 CC 1 - Modulation Wheel
 In:  B0  01  08  |  Ch 1 CC 1 - Modulation Wheel
 In:  B0  01  09  |  Ch 1 CC 1 - Modulation Wheel
 In:  B0  01  0A  |  Ch 1 CC 1 - Modulation Wheel
 In:  B0  01  0C  |  Ch 1 CC 1 - Modulation Wheel
 In:  B0  01  0D  |  Ch 1 CC 1 - Modulation Wheel
 In:  B0  01  0E  |  Ch 1 CC 1 - Modulation Wheel
 In:  B0  01  0F  |  Ch 1 CC 1 - Modulation Wheel
 In:  B0  01  10  |  Ch 1 CC 1 - Modulation Wheel
 In:  B0  01  11  |  Ch 1 CC 1 - Modulation Wheel
 In:  B0  01  12  |  Ch 1 CC 1 - Modulation Wheel
 In:  B0  01  13  |  Ch 1 CC 1 - Modulation Wheel
 In:  B0  01  14  |  Ch 1 CC 1 - Modulation Wheel
 In:  B0  01  15  |  Ch 1 CC 1 - Modulation Wheel
 In:  99  25  13  |  Ch 10 Note On  C#1
 In:  B0  01  14  |  Ch 1 CC 1 - Modulation Wheel
 In:  B0  01  15  |  Ch 1 CC 1 - Modulation Wheel
 In:  99  24  0C  |  Ch 10 Note On  C1
 In:  A9  28  77  |  Ch 10 Aftertouch E1
 In:  B0  01  14  |  Ch 1 CC 1 - Modulation Wheel
 In:  A9  29  79  |  Ch 10 Aftertouch F1
 In:  A9  28  76  |  Ch 10 Aftertouch E1
 In:  B0  01  13  |  Ch 1 CC 1 - Modulation Wheel
 In:  A9  25  6D  |  Ch 10 Aftertouch C#1
 In:  A9  28  74  |  Ch 10 Aftertouch E1
 In:  A9  29  78  |  Ch 10 Aftertouch F1
 In:  B0  01  12  |  Ch 1 CC 1 - Modulation Wheel
 In:  A9  25  6F  |  Ch 10 Aftertouch C#1
 In:  A9  28  72  |  Ch 10 Aftertouch E1
 In:  A9  25  73  |  Ch 10 Aftertouch C#1
 In:  A9  29  73  |  Ch 10 Aftertouch F1
 In:  B0  01  13  |  Ch 1 CC 1 - Modulation Wheel
 In:  A9  28  71  |  Ch 10 Aftertouch E1
 In:  A9  24  5F  |  Ch 10 Aftertouch C1
 In:  A9  25  74  |  Ch 10 Aftertouch C#1
 In:  A9  25  76  |  Ch 10 Aftertouch C#1
 In:  B0  01  14  |  Ch 1 CC 1 - Modulation Wheel
 In:  A9  24  5D  |  Ch 10 Aftertouch C1
 In:  B0  01  15  |  Ch 1 CC 1 - Modulation Wheel
 In:  A9  24  56  |  Ch 10 Aftertouch C1
 In:  A9  24  54  |  Ch 10 Aftertouch C1
 In:  A9  25  75  |  Ch 10 Aftertouch C#1
 In:  A9  24  50  |  Ch 10 Aftertouch C1
 In:  A9  24  4B  |  Ch 10 Aftertouch C1
 In:  A9  24  48  |  Ch 10 Aftertouch C1
 In:  A9  24  46  |  Ch 10 Aftertouch C1
 In:  A9  29  74  |  Ch 10 Aftertouch F1
 In:  A9  24  41  |  Ch 10 Aftertouch C1
 In:  A9  29  76  |  Ch 10 Aftertouch F1
 In:  A9  24  44  |  Ch 10 Aftertouch C1
 In:  A9  24  46  |  Ch 10 Aftertouch C1
 In:  A9  29  74  |  Ch 10 Aftertouch F1
 In:  A9  24  45  |  Ch 10 Aftertouch C1
 In:  A9  25  74  |  Ch 10 Aftertouch C#1
 In:  A9  24  39  |  Ch 10 Aftertouch C1
 In:  A9  25  71  |  Ch 10 Aftertouch C#1
 In:  A9  24  34  |  Ch 10 Aftertouch C1
 In:  A9  24  21  |  Ch 10 Aftertouch C1
 In:  A9  24  23  |  Ch 10 Aftertouch C1
 In:  A9  24  20  |  Ch 10 Aftertouch C1
 In:  A9  24  15  |  Ch 10 Aftertouch C1
 In:  A9  24  09  |  Ch 10 Aftertouch C1
 In:  A9  29  73  |  Ch 10 Aftertouch F1
 In:  89  24  00  |  Ch 10 Note Off C1
 In:  A9  29  72  |  Ch 10 Aftertouch F1
 In:  A9  28  70  |  Ch 10 Aftertouch E1
 In:  A9  25  70  |  Ch 10 Aftertouch C#1
 In:  A9  29  70  |  Ch 10 Aftertouch F1
 In:  A9  28  6E  |  Ch 10 Aftertouch E1
 In:  A9  25  6D  |  Ch 10 Aftertouch C#1
 In:  A9  29  6F  |  Ch 10 Aftertouch F1
 In:  A9  25  69  |  Ch 10 Aftertouch C#1
 In:  A9  28  6D  |  Ch 10 Aftertouch E1
 In:  A9  29  6D  |  Ch 10 Aftertouch F1
 In:  A9  25  51  |  Ch 10 Aftertouch C#1
 In:  A9  28  61  |  Ch 10 Aftertouch E1
 In:  A9  29  61  |  Ch 10 Aftertouch F1
 In:  A9  28  5C  |  Ch 10 Aftertouch E1
 In:  A9  29  49  |  Ch 10 Aftertouch F1
 In:  A9  28  3F  |  Ch 10 Aftertouch E1
 In:  89  29  00  |  Ch 10 Note Off F1
 In:  89  28  00  |  Ch 10 Note Off E1
 In:  99  28  0E  |  Ch 10 Note On  E1
 In:  99  29  0D  |  Ch 10 Note On  F1
 In:  A9  28  73  |  Ch 10 Aftertouch E1
 In:  A9  29  5C  |  Ch 10 Aftertouch F1
 In:  A9  28  74  |  Ch 10 Aftertouch E1
 In:  A9  29  61  |  Ch 10 Aftertouch F1
 In:  A9  28  76  |  Ch 10 Aftertouch E1
 In:  A9  29  64  |  Ch 10 Aftertouch F1
 In:  A9  28  77  |  Ch 10 Aftertouch E1
 In:  A9  29  65  |  Ch 10 Aftertouch F1
 In:  A9  29  64  |  Ch 10 Aftertouch F1
 In:  A9  29  62  |  Ch 10 Aftertouch F1
 In:  A9  29  65  |  Ch 10 Aftertouch F1
 In:  99  24  0B  |  Ch 10 Note On  C1
 In:  A9  28  76  |  Ch 10 Aftertouch E1
 In:  A9  28  74  |  Ch 10 Aftertouch E1
 In:  A9  29  63  |  Ch 10 Aftertouch F1
 In:  A9  24  4E  |  Ch 10 Aftertouch C1
 In:  A9  24  53  |  Ch 10 Aftertouch C1
 In:  A9  29  62  |  Ch 10 Aftertouch F1
 In:  99  25  0D  |  Ch 10 Note On  C#1
 In:  A9  24  56  |  Ch 10 Aftertouch C1
 In:  A9  29  5E  |  Ch 10 Aftertouch F1
 In:  A9  24  58  |  Ch 10 Aftertouch C1
 In:  A9  24  63  |  Ch 10 Aftertouch C1
 In:  A9  24  68  |  Ch 10 Aftertouch C1
 In:  A9  24  6C  |  Ch 10 Aftertouch C1
 In:  A9  29  5F  |  Ch 10 Aftertouch F1
 In:  A9  25  70  |  Ch 10 Aftertouch C#1
 In:  A9  29  5E  |  Ch 10 Aftertouch F1
 In:  A9  25  73  |  Ch 10 Aftertouch C#1
 In:  A9  29  5B  |  Ch 10 Aftertouch F1
 In:  A9  25  77  |  Ch 10 Aftertouch C#1
 In:  A9  24  6D  |  Ch 10 Aftertouch C1
 In:  A9  25  7A  |  Ch 10 Aftertouch C#1
 In:  A9  29  5C  |  Ch 10 Aftertouch F1
 In:  A9  24  6F  |  Ch 10 Aftertouch C1
 In:  A9  25  7B  |  Ch 10 Aftertouch C#1
 In:  A9  29  64  |  Ch 10 Aftertouch F1
 In:  A9  25  7E  |  Ch 10 Aftertouch C#1
 In:  A9  29  68  |  Ch 10 Aftertouch F1
 In:  A9  28  75  |  Ch 10 Aftertouch E1
 In:  A9  24  70  |  Ch 10 Aftertouch C1
 In:  A9  25  7F  |  Ch 10 Aftertouch C#1
 In:  A9  29  6A  |  Ch 10 Aftertouch F1
 In:  A9  28  77  |  Ch 10 Aftertouch E1
 In:  A9  29  6B  |  Ch 10 Aftertouch F1
 In:  A9  28  78  |  Ch 10 Aftertouch E1
 In:  A9  29  6D  |  Ch 10 Aftertouch F1
 In:  A9  24  71  |  Ch 10 Aftertouch C1
 In:  A9  28  7B  |  Ch 10 Aftertouch E1
 In:  A9  29  6F  |  Ch 10 Aftertouch F1
 In:  A9  24  73  |  Ch 10 Aftertouch C1
 In:  A9  29  74  |  Ch 10 Aftertouch F1
 In:  A9  29  76  |  Ch 10 Aftertouch F1
 In:  A9  28  7D  |  Ch 10 Aftertouch E1
 In:  A9  29  79  |  Ch 10 Aftertouch F1
 In:  A9  24  74  |  Ch 10 Aftertouch C1
 In:  A9  28  7E  |  Ch 10 Aftertouch E1
 In:  A9  29  7B  |  Ch 10 Aftertouch F1
 In:  A9  28  7F  |  Ch 10 Aftertouch E1
 In:  A9  29  7E  |  Ch 10 Aftertouch F1
 In:  A9  24  75  |  Ch 10 Aftertouch C1
 In:  A9  29  7F  |  Ch 10 Aftertouch F1
 In:  A9  24  74  |  Ch 10 Aftertouch C1
 In:  A9  24  73  |  Ch 10 Aftertouch C1
 In:  A9  29  7E  |  Ch 10 Aftertouch F1
 In:  A9  24  6F  |  Ch 10 Aftertouch C1
 In:  A9  29  7D  |  Ch 10 Aftertouch F1
 In:  A9  24  6E  |  Ch 10 Aftertouch C1
 In:  A9  29  79  |  Ch 10 Aftertouch F1
 In:  A9  28  7E  |  Ch 10 Aftertouch E1
 In:  A9  24  6C  |  Ch 10 Aftertouch C1
 In:  A9  29  74  |  Ch 10 Aftertouch F1
 In:  A9  25  7D  |  Ch 10 Aftertouch C#1
 In:  A9  28  78  |  Ch 10 Aftertouch E1
 In:  A9  24  61  |  Ch 10 Aftertouch C1
 In:  A9  29  5A  |  Ch 10 Aftertouch F1
 In:  A9  25  77  |  Ch 10 Aftertouch C#1
 In:  A9  28  6F  |  Ch 10 Aftertouch E1
 In:  A9  24  51  |  Ch 10 Aftertouch C1
 In:  A9  29  26  |  Ch 10 Aftertouch F1
 In:  A9  25  65  |  Ch 10 Aftertouch C#1
 In:  A9  28  59  |  Ch 10 Aftertouch E1
 In:  A9  24  00  |  Ch 10 Aftertouch C1
 In:  89  29  00  |  Ch 10 Note Off F1
 In:  A9  25  4F  |  Ch 10 Aftertouch C#1
 In:  A9  28  2D  |  Ch 10 Aftertouch E1
 In:  89  25  00  |  Ch 10 Note Off C#1
 In:  89  28  00  |  Ch 10 Note Off E1
 In:  99  28  0D  |  Ch 10 Note On  E1
 In:  99  29  0C  |  Ch 10 Note On  F1
 In:  99  25  0C  |  Ch 10 Note On  C#1
 In:  99  2A  0E  |  Ch 10 Note On  F#1
 In:  A9  28  76  |  Ch 10 Aftertouch E1
 In:  A9  29  6A  |  Ch 10 Aftertouch F1
 In:  A9  28  7B  |  Ch 10 Aftertouch E1
 In:  A9  29  71  |  Ch 10 Aftertouch F1
 In:  A9  28  7D  |  Ch 10 Aftertouch E1
 In:  A9  29  73  |  Ch 10 Aftertouch F1
 In:  99  24  0C  |  Ch 10 Note On  C1
 In:  A9  25  79  |  Ch 10 Aftertouch C#1
 In:  A9  29  75  |  Ch 10 Aftertouch F1
 In:  A9  28  7F  |  Ch 10 Aftertouch E1
 In:  A9  2A  3E  |  Ch 10 Aftertouch F#1
 In:  A9  25  7C  |  Ch 10 Aftertouch C#1
 In:  A9  29  76  |  Ch 10 Aftertouch F1
 In:  A9  25  7E  |  Ch 10 Aftertouch C#1
 In:  A9  25  7F  |  Ch 10 Aftertouch C#1
 In:  A9  29  78  |  Ch 10 Aftertouch F1
 In:  A9  24  64  |  Ch 10 Aftertouch C1
 In:  A9  29  79  |  Ch 10 Aftertouch F1
 In:  A9  2A  3F  |  Ch 10 Aftertouch F#1
 In:  A9  24  67  |  Ch 10 Aftertouch C1
 In:  A9  29  7A  |  Ch 10 Aftertouch F1
 In:  A9  2A  44  |  Ch 10 Aftertouch F#1
 In:  A9  2A  43  |  Ch 10 Aftertouch F#1
 In:  A9  24  66  |  Ch 10 Aftertouch C1
 In:  A9  2A  3E  |  Ch 10 Aftertouch F#1
 In:  A9  29  79  |  Ch 10 Aftertouch F1
 In:  A9  24  56  |  Ch 10 Aftertouch C1
 In:  A9  29  77  |  Ch 10 Aftertouch F1
 In:  A9  28  7E  |  Ch 10 Aftertouch E1
 In:  A9  25  7E  |  Ch 10 Aftertouch C#1
 In:  A9  24  4B  |  Ch 10 Aftertouch C1
 In:  A9  2A  3D  |  Ch 10 Aftertouch F#1
 In:  A9  29  74  |  Ch 10 Aftertouch F1
 In:  A9  28  78  |  Ch 10 Aftertouch E1
 In:  A9  25  79  |  Ch 10 Aftertouch C#1
 In:  A9  24  0C  |  Ch 10 Aftertouch C1
 In:  A9  2A  2E  |  Ch 10 Aftertouch F#1
 In:  A9  29  6A  |  Ch 10 Aftertouch F1
 In:  A9  28  6C  |  Ch 10 Aftertouch E1
 In:  A9  25  6F  |  Ch 10 Aftertouch C#1
 In:  89  24  00  |  Ch 10 Note Off C1
 In:  89  2A  00  |  Ch 10 Note Off F#1
 In:  A9  29  40  |  Ch 10 Aftertouch F1
 In:  A9  28  4C  |  Ch 10 Aftertouch E1
 In:  A9  25  4B  |  Ch 10 Aftertouch C#1
 In:  89  29  00  |  Ch 10 Note Off F1
 In:  A9  28  01  |  Ch 10 Aftertouch E1
 In:  A9  25  00  |  Ch 10 Aftertouch C#1
 In:  89  28  00  |  Ch 10 Note Off E1
 In:  89  25  00  |  Ch 10 Note Off C#1
 In:  99  28  0C  |  Ch 10 Note On  E1
 In:  99  29  0D  |  Ch 10 Note On  F1
 In:  A9  28  73  |  Ch 10 Aftertouch E1
 In:  99  25  0C  |  Ch 10 Note On  C#1
 In:  A9  28  75  |  Ch 10 Aftertouch E1
 In:  A9  29  54  |  Ch 10 Aftertouch F1
 In:  A9  28  73  |  Ch 10 Aftertouch E1
 In:  A9  29  52  |  Ch 10 Aftertouch F1
 In:  A9  28  71  |  Ch 10 Aftertouch E1
 In:  A9  29  51  |  Ch 10 Aftertouch F1
 In:  A9  28  6F  |  Ch 10 Aftertouch E1
 In:  A9  29  47  |  Ch 10 Aftertouch F1
 In:  A9  28  6B  |  Ch 10 Aftertouch E1
 In:  A9  29  41  |  Ch 10 Aftertouch F1
 In:  A9  25  1F  |  Ch 10 Aftertouch C#1
 In:  A9  28  68  |  Ch 10 Aftertouch E1
 In:  A9  29  33  |  Ch 10 Aftertouch F1
 In:  89  25  00  |  Ch 10 Note Off C#1
 In:  A9  28  66  |  Ch 10 Aftertouch E1
 In:  89  29  00  |  Ch 10 Note Off F1
 In:  A9  28  61  |  Ch 10 Aftertouch E1
 In:  A9  28  4F  |  Ch 10 Aftertouch E1
 In:  A9  28  2F  |  Ch 10 Aftertouch E1
 In:  89  28  00  |  Ch 10 Note Off E1
 In:  99  25  0D  |  Ch 10 Note On  C#1
 In:  99  24  0C  |  Ch 10 Note On  C1
 In:  99  28  14  |  Ch 10 Note On  E1
 In:  A9  25  70  |  Ch 10 Aftertouch C#1
 In:  A9  25  78  |  Ch 10 Aftertouch C#1
 In:  A9  24  53  |  Ch 10 Aftertouch C1
 In:  A9  25  77  |  Ch 10 Aftertouch C#1
 In:  99  2A  0D  |  Ch 10 Note On  F#1
 In:  A9  24  50  |  Ch 10 Aftertouch C1
 In:  A9  25  74  |  Ch 10 Aftertouch C#1
 In:  A9  24  3B  |  Ch 10 Aftertouch C1
 In:  99  29  0D  |  Ch 10 Note On  F1
 In:  A9  25  6B  |  Ch 10 Aftertouch C#1
 In:  89  24  00  |  Ch 10 Note Off C1
 In:  A9  28  3B  |  Ch 10 Aftertouch E1
 In:  89  29  00  |  Ch 10 Note Off F1
 In:  A9  25  4F  |  Ch 10 Aftertouch C#1
 In:  A9  28  1C  |  Ch 10 Aftertouch E1
 In:  89  2A  00  |  Ch 10 Note Off F#1
 In:  89  25  00  |  Ch 10 Note Off C#1
 In:  89  28  00  |  Ch 10 Note Off E1
 In:  B0  49  01  |  Ch 1 CC 73 - Attack Time
 In:  B0  5D  41  |  Ch 1 CC 93 - Chorus Send Level
 In:  B0  5D  42  |  Ch 1 CC 93 - Chorus Send Level
 In:  B0  5D  43  |  Ch 1 CC 93 - Chorus Send Level
 In:  B0  5B  01  |  Ch 1 CC 91 - Reverb Send Level
 In:  B0  5B  02  |  Ch 1 CC 91 - Reverb Send Level
 In:  B0  5D  44  |  Ch 1 CC 93 - Chorus Send Level
 In:  B0  5B  03  |  Ch 1 CC 91 - Reverb Send Level
 In:  B0  5B  04  |  Ch 1 CC 91 - Reverb Send Level
 In:  B0  5B  05  |  Ch 1 CC 91 - Reverb Send Level
 In:  B0  5D  45  |  Ch 1 CC 93 - Chorus Send Level
 In:  B0  5B  06  |  Ch 1 CC 91 - Reverb Send Level
 In:  B0  5B  07  |  Ch 1 CC 91 - Reverb Send Level
 In:  B0  5B  08  |  Ch 1 CC 91 - Reverb Send Level
 In:  B0  5B  09  |  Ch 1 CC 91 - Reverb Send Level
 In:  B0  5B  0A  |  Ch 1 CC 91 - Reverb Send Level
 In:  90  25  20  |  Ch 1 Note On  C#1
 In:  90  22  20  |  Ch 1 Note On  A#0
 In:  90  1E  24  |  Ch 1 Note On  F#0
 In:  90  20  1A  |  Ch 1 Note On  G#0
 In:  80  25  00  |  Ch 1 Note Off C#1
 In:  90  28  10  |  Ch 1 Note On  E1
 In:  80  20  00  |  Ch 1 Note Off G#0
 In:  80  1E  00  |  Ch 1 Note Off F#0
 In:  80  22  00  |  Ch 1 Note Off A#0
 In:  90  2B  1C  |  Ch 1 Note On  G1
 In:  90  2D  14  |  Ch 1 Note On  A1
 In:  90  2E  17  |  Ch 1 Note On  A#1
 In:  80  2E  00  |  Ch 1 Note Off A#1
 In:  80  2D  00  |  Ch 1 Note Off A1
 In:  80  2B  00  |  Ch 1 Note Off G1
 In:  80  28  00  |  Ch 1 Note Off E1
 In:  90  1D  09  |  Ch 1 Note On  F0
 In:  90  28  28  |  Ch 1 Note On  E1
 In:  90  2B  22  |  Ch 1 Note On  G1
 In:  90  2E  16  |  Ch 1 Note On  A#1
 In:  80  1D  00  |  Ch 1 Note Off F0
 In:  90  2D  1E  |  Ch 1 Note On  A1
 In:  80  2D  00  |  Ch 1 Note Off A1
 In:  80  2E  00  |  Ch 1 Note Off A#1
 In:  80  28  00  |  Ch 1 Note Off E1
 In:  80  2B  00  |  Ch 1 Note Off G1
 In:  90  1D  19  |  Ch 1 Note On  F0
 In:  90  1C  17  |  Ch 1 Note On  E0
 In:  90  1B  0F  |  Ch 1 Note On  D#0
 In:  90  1A  17  |  Ch 1 Note On  D0
 In:  90  26  48  |  Ch 1 Note On  D1
 In:  90  2F  27  |  Ch 1 Note On  B1
 In:  90  2D  28  |  Ch 1 Note On  A1
 In:  80  1D  00  |  Ch 1 Note Off F0
 In:  90  29  31  |  Ch 1 Note On  F1
 In:  90  2B  27  |  Ch 1 Note On  G1
 In:  80  1A  00  |  Ch 1 Note Off D0
 In:  90  30  27  |  Ch 1 Note On  C2
 In:  80  1C  00  |  Ch 1 Note Off E0
 In:  80  1B  00  |  Ch 1 Note Off D#0
 In:  80  2B  00  |  Ch 1 Note Off G1
 In:  80  29  00  |  Ch 1 Note Off F1
 In:  80  30  00  |  Ch 1 Note Off C2
 In:  80  2D  00  |  Ch 1 Note Off A1
 In:  80  2F  00  |  Ch 1 Note Off B1
 In:  90  1C  26  |  Ch 1 Note On  E0
 In:  80  26  00  |  Ch 1 Note Off D1
 In:  90  1D  24  |  Ch 1 Note On  F0
 In:  90  1B  25  |  Ch 1 Note On  D#0
 In:  90  1A  23  |  Ch 1 Note On  D0
 In:  90  1F  19  |  Ch 1 Note On  G0
 In:  90  23  24  |  Ch 1 Note On  B0
 In:  90  24  24  |  Ch 1 Note On  C1
 In:  90  22  14  |  Ch 1 Note On  A#0
 In:  90  26  54  |  Ch 1 Note On  D1
 In:  90  29  47  |  Ch 1 Note On  F1
 In:  90  2D  32  |  Ch 1 Note On  A1
 In:  90  2F  27  |  Ch 1 Note On  B1
 In:  80  1A  00  |  Ch 1 Note Off D0
 In:  90  28  3D  |  Ch 1 Note On  E1
 In:  90  30  46  |  Ch 1 Note On  C2
 In:  90  2B  28  |  Ch 1 Note On  G1
 In:  80  1B  00  |  Ch 1 Note Off D#0
 In:  80  1C  00  |  Ch 1 Note Off E0
 In:  80  1D  00  |  Ch 1 Note Off F0
 In:  80  1F  00  |  Ch 1 Note Off G0
 In:  80  21  00  |  Ch 1 Note Off A0
 In:  80  22  00  |  Ch 1 Note Off A#0
 In:  80  23  00  |  Ch 1 Note Off B0
 In:  80  2B  00  |  Ch 1 Note Off G1
 In:  80  28  00  |  Ch 1 Note Off E1
 In:  80  29  00  |  Ch 1 Note Off F1
 In:  80  2D  00  |  Ch 1 Note Off A1
 In:  80  26  00  |  Ch 1 Note Off D1
 In:  80  24  00  |  Ch 1 Note Off C1
 In:  80  2F  00  |  Ch 1 Note Off B1
 In:  80  30  00  |  Ch 1 Note Off C2
 In:  90  21  3A  |  Ch 1 Note On  A0
 In:  90  1C  25  |  Ch 1 Note On  E0
 In:  90  1F  42  |  Ch 1 Note On  G0
 In:  90  1D  26  |  Ch 1 Note On  F0
 In:  90  23  4D  |  Ch 1 Note On  B0
 In:  90  1B  0A  |  Ch 1 Note On  D#0
 In:  90  24  26  |  Ch 1 Note On  C1
 In:  90  2F  45  |  Ch 1 Note On  B1
 In:  90  2D  4B  |  Ch 1 Note On  A1
 In:  90  2B  50  |  Ch 1 Note On  G1
 In:  90  26  42  |  Ch 1 Note On  D1
 In:  90  1A  09  |  Ch 1 Note On  D0
 In:  90  29  25  |  Ch 1 Note On  F1
 In:  90  30  0A  |  Ch 1 Note On  C2
 In:  80  23  00  |  Ch 1 Note Off B0
 In:  80  1F  00  |  Ch 1 Note Off G0
 In:  80  21  00  |  Ch 1 Note Off A0
 In:  80  1D  00  |  Ch 1 Note Off F0
 In:  80  1A  00  |  Ch 1 Note Off D0
 In:  80  1B  00  |  Ch 1 Note Off D#0
 In:  80  1C  00  |  Ch 1 Note Off E0
 In:  80  30  00  |  Ch 1 Note Off C2
 In:  80  2B  00  |  Ch 1 Note Off G1
 In:  80  26  00  |  Ch 1 Note Off D1
 In:  80  2D  00  |  Ch 1 Note Off A1
 In:  80  24  00  |  Ch 1 Note Off C1
 In:  80  2F  00  |  Ch 1 Note Off B1
 In:  90  1C  47  |  Ch 1 Note On  E0
 In:  90  1B  4B  |  Ch 1 Note On  D#0
 In:  90  1A  39  |  Ch 1 Note On  D0
 In:  90  1D  49  |  Ch 1 Note On  F0
 In:  90  1F  61  |  Ch 1 Note On  G0
 In:  90  21  61  |  Ch 1 Note On  A0
 In:  90  23  17  |  Ch 1 Note On  B0
 In:  90  2F  36  |  Ch 1 Note On  B1
 In:  90  2D  36  |  Ch 1 Note On  A1
 In:  90  30  40  |  Ch 1 Note On  C2
 In:  90  2B  2C  |  Ch 1 Note On  G1
 In:  90  24  2D  |  Ch 1 Note On  C1
 In:  90  26  27  |  Ch 1 Note On  D1
 In:  80  23  00  |  Ch 1 Note Off B0
 In:  80  1F  00  |  Ch 1 Note Off G0
 In:  80  21  00  |  Ch 1 Note Off A0
 In:  80  1D  00  |  Ch 1 Note Off F0
 In:  80  1C  00  |  Ch 1 Note Off E0
 In:  80  1B  00  |  Ch 1 Note Off D#0
 In:  80  2B  00  |  Ch 1 Note Off G1
 In:  80  26  00  |  Ch 1 Note Off D1
 In:  80  30  00  |  Ch 1 Note Off C2
 In:  80  2D  00  |  Ch 1 Note Off A1
 In:  80  2F  00  |  Ch 1 Note Off B1
 In:  90  20  6D  |  Ch 1 Note On  G#0
 In:  80  24  00  |  Ch 1 Note Off C1
 In:  90  1E  15  |  Ch 1 Note On  F#0
 In:  90  1F  13  |  Ch 1 Note On  G0
 In:  90  1B  14  |  Ch 1 Note On  D#0
 In:  90  1C  0A  |  Ch 1 Note On  E0
 In:  90  1A  0A  |  Ch 1 Note On  D0
 In:  90  2D  54  |  Ch 1 Note On  A1
 In:  90  2F  54  |  Ch 1 Note On  B1
 In:  90  2B  3F  |  Ch 1 Note On  G1
 In:  90  28  50  |  Ch 1 Note On  E1
 In:  90  29  4D  |  Ch 1 Note On  F1
 In:  90  24  40  |  Ch 1 Note On  C1
 In:  90  23  45  |  Ch 1 Note On  B0
 In:  80  20  00  |  Ch 1 Note Off G#0
 In:  80  1E  00  |  Ch 1 Note Off F#0
 In:  80  1F  00  |  Ch 1 Note Off G0
 In:  80  1C  00  |  Ch 1 Note Off E0
 In:  80  1A  00  |  Ch 1 Note Off D0
 In:  80  1B  00  |  Ch 1 Note Off D#0
 In:  80  23  00  |  Ch 1 Note Off B0
 In:  80  28  00  |  Ch 1 Note Off E1
 In:  80  29  00  |  Ch 1 Note Off F1
 In:  80  2B  00  |  Ch 1 Note Off G1
 In:  80  24  00  |  Ch 1 Note Off C1
 In:  80  2F  00  |  Ch 1 Note Off B1
 In:  80  2D  00  |  Ch 1 Note Off A1
 In:  90  20  73  |  Ch 1 Note On  G#0
 In:  90  1E  67  |  Ch 1 Note On  F#0
 In:  90  1F  3F  |  Ch 1 Note On  G0
 In:  90  1B  28  |  Ch 1 Note On  D#0
 In:  90  1D  18  |  Ch 1 Note On  F0
 In:  80  1D  00  |  Ch 1 Note Off F0
 In:  80  1F  00  |  Ch 1 Note Off G0
 In:  90  2D  4D  |  Ch 1 Note On  A1
 In:  90  2F  51  |  Ch 1 Note On  B1
 In:  90  28  4F  |  Ch 1 Note On  E1
 In:  90  29  45  |  Ch 1 Note On  F1
 In:  90  2B  39  |  Ch 1 Note On  G1
 In:  90  2C  39  |  Ch 1 Note On  G#1
 In:  90  2E  29  |  Ch 1 Note On  A#1
 In:  90  24  50  |  Ch 1 Note On  C1
 In:  90  23  50  |  Ch 1 Note On  B0
 In:  80  1B  00  |  Ch 1 Note Off D#0
 In:  80  1E  00  |  Ch 1 Note Off F#0
 In:  80  20  00  |  Ch 1 Note Off G#0
 In:  80  29  00  |  Ch 1 Note Off F1
 In:  80  2B  00  |  Ch 1 Note Off G1
 In:  80  28  00  |  Ch 1 Note Off E1
 In:  80  2F  00  |  Ch 1 Note Off B1
 In:  80  2D  00  |  Ch 1 Note Off A1
 In:  80  24  00  |  Ch 1 Note Off C1
 In:  80  23  00  |  Ch 1 Note Off B0
 In:  90  20  25  |  Ch 1 Note On  G#0
 In:  90  1E  4E  |  Ch 1 Note On  F#0
 In:  80  2C  00  |  Ch 1 Note Off G#1
 In:  80  2E  00  |  Ch 1 Note Off A#1
 In:  90  1B  1A  |  Ch 1 Note On  D#0
 In:  90  19  19  |  Ch 1 Note On  C#0
 In:  90  2E  45  |  Ch 1 Note On  A#1
 In:  90  2C  27  |  Ch 1 Note On  G#1
 In:  90  29  42  |  Ch 1 Note On  F1
 In:  90  24  3D  |  Ch 1 Note On  C1
 In:  90  28  50  |  Ch 1 Note On  E1
 In:  90  23  45  |  Ch 1 Note On  B0
 In:  90  2D  27  |  Ch 1 Note On  A1
 In:  90  2F  25  |  Ch 1 Note On  B1
 In:  90  30  25  |  Ch 1 Note On  C2
 In:  80  1B  00  |  Ch 1 Note Off D#0
 In:  80  20  00  |  Ch 1 Note Off G#0
 In:  80  1E  00  |  Ch 1 Note Off F#0
 In:  80  2D  00  |  Ch 1 Note Off A1
 In:  80  28  00  |  Ch 1 Note Off E1
 In:  80  29  00  |  Ch 1 Note Off F1
 In:  80  23  00  |  Ch 1 Note Off B0
 In:  80  24  00  |  Ch 1 Note Off C1
 In:  80  2F  00  |  Ch 1 Note Off B1
 In:  80  2C  00  |  Ch 1 Note Off G#1
 In:  80  19  00  |  Ch 1 Note Off C#0
 In:  80  30  00  |  Ch 1 Note Off C2
 In:  80  2E  00  |  Ch 1 Note Off A#1
 In:  90  2C  77  |  Ch 1 Note On  G#1
 In:  90  29  5E  |  Ch 1 Note On  F1
 In:  90  28  5E  |  Ch 1 Note On  E1
 In:  90  24  3C  |  Ch 1 Note On  C1
 In:  90  23  35  |  Ch 1 Note On  B0
 In:  90  19  43  |  Ch 1 Note On  C#0
 In:  90  1E  69  |  Ch 1 Note On  F#0
 In:  90  2D  5D  |  Ch 1 Note On  A1
 In:  90  2F  49  |  Ch 1 Note On  B1
 In:  90  1B  5C  |  Ch 1 Note On  D#0
 In:  90  20  30  |  Ch 1 Note On  G#0
 In:  80  23  00  |  Ch 1 Note Off B0
 In:  80  24  00  |  Ch 1 Note Off C1
 In:  80  28  00  |  Ch 1 Note Off E1
 In:  80  2D  00  |  Ch 1 Note Off A1
 In:  80  29  00  |  Ch 1 Note Off F1
 In:  80  2F  00  |  Ch 1 Note Off B1
 In:  80  2C  00  |  Ch 1 Note Off G#1
 In:  80  2E  00  |  Ch 1 Note Off A#1
 In:  80  20  00  |  Ch 1 Note Off G#0
 In:  80  1E  00  |  Ch 1 Note Off F#0
 In:  80  1B  00  |  Ch 1 Note Off D#0
 In:  90  23  45  |  Ch 1 Note On  B0
 In:  90  28  49  |  Ch 1 Note On  E1
 In:  90  29  42  |  Ch 1 Note On  F1
 In:  90  2E  2D  |  Ch 1 Note On  A#1
 In:  90  2A  3F  |  Ch 1 Note On  F#1
 In:  90  2D  2A  |  Ch 1 Note On  A1
 In:  90  2F  26  |  Ch 1 Note On  B1
 In:  80  19  00  |  Ch 1 Note Off C#0
 In:  90  30  1E  |  Ch 1 Note On  C2
 In:  80  2A  00  |  Ch 1 Note Off F#1
 In:  80  2D  00  |  Ch 1 Note Off A1
 In:  80  23  00  |  Ch 1 Note Off B0
 In:  90  1E  11  |  Ch 1 Note On  F#0
 In:  80  29  00  |  Ch 1 Note Off F1
 In:  80  28  00  |  Ch 1 Note Off E1
 In:  90  20  1F  |  Ch 1 Note On  G#0
 In:  90  22  43  |  Ch 1 Note On  A#0
 In:  80  30  00  |  Ch 1 Note Off C2
 In:  80  2E  00  |  Ch 1 Note Off A#1
 In:  80  2F  00  |  Ch 1 Note Off B1
 In:  80  1E  00  |  Ch 1 Note Off F#0
 In:  80  20  00  |  Ch 1 Note Off G#0
 In:  90  28  40  |  Ch 1 Note On  E1
 In:  90  23  36  |  Ch 1 Note On  B0
 In:  90  29  38  |  Ch 1 Note On  F1
 In:  90  2E  27  |  Ch 1 Note On  A#1
 In:  90  2A  34  |  Ch 1 Note On  F#1
 In:  90  24  25  |  Ch 1 Note On  C1
 In:  90  2D  25  |  Ch 1 Note On  A1
 In:  90  2F  25  |  Ch 1 Note On  B1
 In:  90  30  2C  |  Ch 1 Note On  C2
 In:  80  22  00  |  Ch 1 Note Off A#0
 In:  80  2D  00  |  Ch 1 Note Off A1
 In:  80  24  00  |  Ch 1 Note Off C1
 In:  80  23  00  |  Ch 1 Note Off B0
 In:  80  2A  00  |  Ch 1 Note Off F#1
 In:  80  29  00  |  Ch 1 Note Off F1
 In:  80  28  00  |  Ch 1 Note Off E1
 In:  90  1D  2A  |  Ch 1 Note On  F0
 In:  90  1F  3D  |  Ch 1 Note On  G0
 In:  90  1C  20  |  Ch 1 Note On  E0
 In:  90  22  46  |  Ch 1 Note On  A#0
 In:  90  20  27  |  Ch 1 Note On  G#0
 In:  90  1E  22  |  Ch 1 Note On  F#0
 In:  90  21  23  |  Ch 1 Note On  A0
 In:  80  2F  00  |  Ch 1 Note Off B1
 In:  80  2E  00  |  Ch 1 Note Off A#1
 In:  80  21  00  |  Ch 1 Note Off A0
 In:  90  24  54  |  Ch 1 Note On  C1
 In:  80  1C  00  |  Ch 1 Note Off E0
 In:  80  1F  00  |  Ch 1 Note Off G0
 In:  90  29  55  |  Ch 1 Note On  F1
 In:  90  28  55  |  Ch 1 Note On  E1
 In:  80  1D  00  |  Ch 1 Note Off F0
 In:  90  2E  15  |  Ch 1 Note On  A#1
 In:  90  2C  39  |  Ch 1 Note On  G#1
 In:  80  1E  00  |  Ch 1 Note Off F#0
 In:  90  2B  30  |  Ch 1 Note On  G1
 In:  80  20  00  |  Ch 1 Note Off G#0
 In:  80  30  00  |  Ch 1 Note Off C2
 In:  80  22  00  |  Ch 1 Note Off A#0
 In:  90  30  47  |  Ch 1 Note On  C2
 In:  90  2F  39  |  Ch 1 Note On  B1
 In:  80  2B  00  |  Ch 1 Note Off G1
 In:  80  28  00  |  Ch 1 Note Off E1
 In:  80  29  00  |  Ch 1 Note Off F1
 In:  80  2C  00  |  Ch 1 Note Off G#1
 In:  80  2E  00  |  Ch 1 Note Off A#1
 In:  90  19  59  |  Ch 1 Note On  C#0
 In:  80  2F  00  |  Ch 1 Note Off B1
 In:  80  24  00  |  Ch 1 Note Off C1
 In:  90  1E  26  |  Ch 1 Note On  F#0
 In:  90  20  1F  |  Ch 1 Note On  G#0
 In:  90  1F  1F  |  Ch 1 Note On  G0
 In:  80  1F  00  |  Ch 1 Note Off G0
 In:  90  29  5C  |  Ch 1 Note On  F1
 In:  90  24  25  |  Ch 1 Note On  C1
 In:  90  28  5B  |  Ch 1 Note On  E1
 In:  90  2B  52  |  Ch 1 Note On  G1
 In:  90  2E  22  |  Ch 1 Note On  A#1
 In:  90  2F  23  |  Ch 1 Note On  B1
 In:  80  20  00  |  Ch 1 Note Off G#0
 In:  80  1E  00  |  Ch 1 Note Off F#0
 In:  80  19  00  |  Ch 1 Note Off C#0
 In:  80  2B  00  |  Ch 1 Note Off G1
 In:  80  28  00  |  Ch 1 Note Off E1
 In:  80  29  00  |  Ch 1 Note Off F1
 In:  80  24  00  |  Ch 1 Note Off C1
 In:  90  1B  50  |  Ch 1 Note On  D#0
 In:  80  2E  00  |  Ch 1 Note Off A#1
 In:  90  19  1F  |  Ch 1 Note On  C#0
 In:  90  1E  0A  |  Ch 1 Note On  F#0
 In:  90  23  36  |  Ch 1 Note On  B0
 In:  90  2A  33  |  Ch 1 Note On  F#1
 In:  90  28  4B  |  Ch 1 Note On  E1
 In:  80  1E  00  |  Ch 1 Note Off F#0
 In:  90  2D  1B  |  Ch 1 Note On  A1
 In:  80  1B  00  |  Ch 1 Note Off D#0
 In:  80  28  00  |  Ch 1 Note Off E1
 In:  80  23  00  |  Ch 1 Note Off B0
 In:  80  19  00  |  Ch 1 Note Off C#0
 In:  80  2D  00  |  Ch 1 Note Off A1
 In:  80  2A  00  |  Ch 1 Note Off F#1
 In:  80  2F  00  |  Ch 1 Note Off B1
 In:  80  30  00  |  Ch 1 Note Off C2
 In:  90  1B  47  |  Ch 1 Note On  D#0
 In:  90  1E  41  |  Ch 1 Note On  F#0
 In:  90  2A  4A  |  Ch 1 Note On  F#1
 In:  90  28  5C  |  Ch 1 Note On  E1
 In:  90  23  64  |  Ch 1 Note On  B0
 In:  90  2C  1E  |  Ch 1 Note On  G#1
 In:  90  26  30  |  Ch 1 Note On  D1
 In:  90  29  25  |  Ch 1 Note On  F1
 In:  90  2D  23  |  Ch 1 Note On  A1
 In:  90  2F  23  |  Ch 1 Note On  B1
 In:  90  19  1D  |  Ch 1 Note On  C#0
 In:  80  2F  00  |  Ch 1 Note Off B1
 In:  80  29  00  |  Ch 1 Note Off F1
 In:  80  19  00  |  Ch 1 Note Off C#0
 In:  80  26  00  |  Ch 1 Note Off D1
 In:  80  23  00  |  Ch 1 Note Off B0
 In:  80  2D  00  |  Ch 1 Note Off A1
 In:  80  2A  00  |  Ch 1 Note Off F#1
 In:  80  1B  00  |  Ch 1 Note Off D#0
 In:  90  2D  26  |  Ch 1 Note On  A1
 In:  80  1E  00  |  Ch 1 Note Off F#0
 In:  90  2A  25  |  Ch 1 Note On  F#1
 In:  90  2F  45  |  Ch 1 Note On  B1
 In:  90  29  32  |  Ch 1 Note On  F1
 In:  90  23  3F  |  Ch 1 Note On  B0
 In:  90  30  46  |  Ch 1 Note On  C2
 In:  90  2E  09  |  Ch 1 Note On  A#1
 In:  90  1E  53  |  Ch 1 Note On  F#0
 In:  90  1F  39  |  Ch 1 Note On  G0
 In:  90  19  67  |  Ch 1 Note On  C#0
 In:  90  1D  3C  |  Ch 1 Note On  F0
 In:  90  1B  26  |  Ch 1 Note On  D#0
 In:  80  2D  00  |  Ch 1 Note Off A1
 In:  90  21  0A  |  Ch 1 Note On  A0
 In:  90  1C  3A  |  Ch 1 Note On  E0
 In:  80  2C  00  |  Ch 1 Note Off G#1
 In:  80  29  00  |  Ch 1 Note Off F1
 In:  80  2A  00  |  Ch 1 Note Off F#1
 In:  80  28  00  |  Ch 1 Note Off E1
 In:  80  23  00  |  Ch 1 Note Off B0
 In:  80  2F  00  |  Ch 1 Note Off B1
 In:  80  21  00  |  Ch 1 Note Off A0
 In:  80  30  00  |  Ch 1 Note Off C2
 In:  90  23  5B  |  Ch 1 Note On  B0
 In:  80  1F  00  |  Ch 1 Note Off G0
 In:  80  1E  00  |  Ch 1 Note Off F#0
 In:  80  1B  00  |  Ch 1 Note Off D#0
 In:  80  2E  00  |  Ch 1 Note Off A#1
 In:  80  1C  00  |  Ch 1 Note Off E0
 In:  80  23  00  |  Ch 1 Note Off B0
 In:  80  1D  00  |  Ch 1 Note Off F0
 In:  90  1B  24  |  Ch 1 Note On  D#0
 In:  90  1E  31  |  Ch 1 Note On  F#0
 In:  90  28  62  |  Ch 1 Note On  E1
 In:  90  2C  77  |  Ch 1 Note On  G#1
 In:  90  29  51  |  Ch 1 Note On  F1
 In:  90  2E  1B  |  Ch 1 Note On  A#1
 In:  90  2F  23  |  Ch 1 Note On  B1
 In:  90  2D  41  |  Ch 1 Note On  A1
 In:  90  30  2F  |  Ch 1 Note On  C2
 In:  90  24  1E  |  Ch 1 Note On  C1
 In:  90  26  19  |  Ch 1 Note On  D1
 In:  90  23  19  |  Ch 1 Note On  B0
 In:  80  19  00  |  Ch 1 Note Off C#0
 In:  80  1B  00  |  Ch 1 Note Off D#0
 In:  80  1E  00  |  Ch 1 Note Off F#0
 In:  90  2A  11  |  Ch 1 Note On  F#1
 In:  80  2D  00  |  Ch 1 Note Off A1
 In:  90  1E  1C  |  Ch 1 Note On  F#0
 In:  80  26  00  |  Ch 1 Note Off D1
 In:  80  29  00  |  Ch 1 Note Off F1
 In:  80  23  00  |  Ch 1 Note Off B0
 In:  80  24  00  |  Ch 1 Note Off C1
 In:  90  19  27  |  Ch 1 Note On  C#0
 In:  90  1B  25  |  Ch 1 Note On  D#0
 In:  90  20  3B  |  Ch 1 Note On  G#0
 In:  80  28  00  |  Ch 1 Note Off E1
 In:  90  1F  3C  |  Ch 1 Note On  G0
 In:  80  2C  00  |  Ch 1 Note Off G#1
 In:  80  2F  00  |  Ch 1 Note Off B1
 In:  80  2A  00  |  Ch 1 Note Off F#1
 In:  80  30  00  |  Ch 1 Note Off C2
 In:  80  2E  00  |  Ch 1 Note Off A#1
 In:  80  1F  00  |  Ch 1 Note Off G0
 In:  80  19  00  |  Ch 1 Note Off C#0
 In:  90  2C  5F  |  Ch 1 Note On  G#1
 In:  90  28  4E  |  Ch 1 Note On  E1
 In:  90  27  43  |  Ch 1 Note On  D#1
 In:  90  26  20  |  Ch 1 Note On  D1
 In:  80  1B  00  |  Ch 1 Note Off D#0
 In:  90  29  1A  |  Ch 1 Note On  F1
 In:  90  2F  21  |  Ch 1 Note On  B1
 In:  90  2B  1E  |  Ch 1 Note On  G1
 In:  90  2D  21  |  Ch 1 Note On  A1
 In:  80  1E  00  |  Ch 1 Note Off F#0
 In:  90  2E  1B  |  Ch 1 Note On  A#1
 In:  90  30  25  |  Ch 1 Note On  C2
 In:  80  20  00  |  Ch 1 Note Off G#0
 In:  90  24  10  |  Ch 1 Note On  C1
 In:  90  23  0E  |  Ch 1 Note On  B0
 In:  90  2A  13  |  Ch 1 Note On  F#1
 In:  90  22  06  |  Ch 1 Note On  A#0
 In:  80  27  00  |  Ch 1 Note Off D#1
 In:  80  29  00  |  Ch 1 Note Off F1
 In:  90  1B  66  |  Ch 1 Note On  D#0
 In:  90  19  28  |  Ch 1 Note On  C#0
 In:  90  1E  6B  |  Ch 1 Note On  F#0
 In:  80  24  00  |  Ch 1 Note Off C1
 In:  80  26  00  |  Ch 1 Note Off D1
 In:  80  23  00  |  Ch 1 Note Off B0
 In:  80  28  00  |  Ch 1 Note Off E1
 In:  80  2A  00  |  Ch 1 Note Off F#1
 In:  80  2D  00  |  Ch 1 Note Off A1
 In:  80  2C  00  |  Ch 1 Note Off G#1
 In:  90  20  1E  |  Ch 1 Note On  G#0
 In:  90  21  5D  |  Ch 1 Note On  A0
 In:  80  2E  00  |  Ch 1 Note Off A#1
 In:  80  2F  00  |  Ch 1 Note Off B1
 In:  80  30  00  |  Ch 1 Note Off C2
 In:  80  19  00  |  Ch 1 Note Off C#0
 In:  80  1B  00  |  Ch 1 Note Off D#0
 In:  90  2A  32  |  Ch 1 Note On  F#1
 In:  80  1E  00  |  Ch 1 Note Off F#0
 In:  90  2F  28  |  Ch 1 Note On  B1
 In:  90  28  53  |  Ch 1 Note On  E1
 In:  90  29  50  |  Ch 1 Note On  F1
 In:  90  2C  33  |  Ch 1 Note On  G#1
 In:  90  2B  30  |  Ch 1 Note On  G1
 In:  90  2D  31  |  Ch 1 Note On  A1
 In:  90  2E  4A  |  Ch 1 Note On  A#1
 In:  90  30  50  |  Ch 1 Note On  C2
 In:  80  20  00  |  Ch 1 Note Off G#0
 In:  80  21  00  |  Ch 1 Note Off A0
 In:  90  24  37  |  Ch 1 Note On  C1
 In:  80  22  00  |  Ch 1 Note Off A#0
 In:  80  24  00  |  Ch 1 Note Off C1
 In:  80  28  00  |  Ch 1 Note Off E1
 In:  80  29  00  |  Ch 1 Note Off F1
 In:  80  2B  00  |  Ch 1 Note Off G1
 In:  80  2A  00  |  Ch 1 Note Off F#1
 In:  80  2C  00  |  Ch 1 Note Off G#1
 In:  80  2D  00  |  Ch 1 Note Off A1
 In:  90  1F  48  |  Ch 1 Note On  G0
 In:  90  21  56  |  Ch 1 Note On  A0
 In:  90  19  79  |  Ch 1 Note On  C#0
 In:  90  20  6F  |  Ch 1 Note On  G#0
 In:  90  1E  7B  |  Ch 1 Note On  F#0
 In:  90  1D  44  |  Ch 1 Note On  F0
 In:  80  2E  00  |  Ch 1 Note Off A#1
 In:  80  30  00  |  Ch 1 Note Off C2
 In:  80  2F  00  |  Ch 1 Note Off B1
 In:  80  19  00  |  Ch 1 Note Off C#0
 In:  80  1E  00  |  Ch 1 Note Off F#0
 In:  90  26  7F  |  Ch 1 Note On  D1
 In:  90  2E  4A  |  Ch 1 Note On  A#1
 In:  90  2C  44  |  Ch 1 Note On  G#1
 In:  90  29  5A  |  Ch 1 Note On  F1
 In:  90  2B  4E  |  Ch 1 Note On  G1
 In:  90  2F  46  |  Ch 1 Note On  B1
 In:  90  2D  48  |  Ch 1 Note On  A1
 In:  90  2A  49  |  Ch 1 Note On  F#1
 In:  90  28  57  |  Ch 1 Note On  E1
 In:  80  20  00  |  Ch 1 Note Off G#0
 In:  90  30  60  |  Ch 1 Note On  C2
 In:  80  1D  00  |  Ch 1 Note Off F0
 In:  80  21  00  |  Ch 1 Note Off A0
 In:  80  1F  00  |  Ch 1 Note Off G0
 In:  80  2A  00  |  Ch 1 Note Off F#1
 In:  80  28  00  |  Ch 1 Note Off E1
 In:  80  26  00  |  Ch 1 Note Off D1
 In:  80  29  00  |  Ch 1 Note Off F1
 In:  80  2B  00  |  Ch 1 Note Off G1
 In:  80  2C  00  |  Ch 1 Note Off G#1
 In:  80  2D  00  |  Ch 1 Note Off A1
 In:  90  1F  63  |  Ch 1 Note On  G0
 In:  90  21  5E  |  Ch 1 Note On  A0
 In:  90  22  7E  |  Ch 1 Note On  A#0
 In:  80  30  00  |  Ch 1 Note Off C2
 In:  80  2E  00  |  Ch 1 Note Off A#1
 In:  90  23  6D  |  Ch 1 Note On  B0
 In:  80  2F  00  |  Ch 1 Note Off B1
 In:  90  2E  7B  |  Ch 1 Note On  A#1
 In:  90  2C  6D  |  Ch 1 Note On  G#1
 In:  90  2F  50  |  Ch 1 Note On  B1
 In:  90  26  58  |  Ch 1 Note On  D1
 In:  90  27  3A  |  Ch 1 Note On  D#1
 In:  90  2D  50  |  Ch 1 Note On  A1
 In:  80  1F  00  |  Ch 1 Note Off G0
 In:  90  29  4C  |  Ch 1 Note On  F1
 In:  80  21  00  |  Ch 1 Note Off A0
 In:  90  2B  38  |  Ch 1 Note On  G1
 In:  80  23  00  |  Ch 1 Note Off B0
 In:  80  22  00  |  Ch 1 Note Off A#0
 In:  80  27  00  |  Ch 1 Note Off D#1
 In:  80  29  00  |  Ch 1 Note Off F1
 In:  80  2B  00  |  Ch 1 Note Off G1
 In:  80  26  00  |  Ch 1 Note Off D1
 In:  80  2C  00  |  Ch 1 Note Off G#1
 In:  80  2D  00  |  Ch 1 Note Off A1
 In:  80  30  00  |  Ch 1 Note Off C2
 In:  80  2F  00  |  Ch 1 Note Off B1
 In:  80  2E  00  |  Ch 1 Note Off A#1
 In:  90  1F  6A  |  Ch 1 Note On  G0
 In:  90  21  64  |  Ch 1 Note On  A0
 In:  90  23  67  |  Ch 1 Note On  B0
 In:  90  1D  67  |  Ch 1 Note On  F0
 In:  90  24  73  |  Ch 1 Note On  C1
 In:  90  2E  7A  |  Ch 1 Note On  A#1
 In:  90  26  59  |  Ch 1 Note On  D1
 In:  90  2C  5F  |  Ch 1 Note On  G#1
 In:  80  1D  00  |  Ch 1 Note Off F0
 In:  90  2F  4D  |  Ch 1 Note On  B1
 In:  90  30  5B  |  Ch 1 Note On  C2
 In:  90  29  4A  |  Ch 1 Note On  F1
 In:  90  2B  3A  |  Ch 1 Note On  G1
 In:  80  1F  00  |  Ch 1 Note Off G0
 In:  90  2D  27  |  Ch 1 Note On  A1
 In:  80  21  00  |  Ch 1 Note Off A0
 In:  80  24  00  |  Ch 1 Note Off C1
 In:  80  23  00  |  Ch 1 Note Off B0
 In:  80  2D  00  |  Ch 1 Note Off A1
 In:  80  29  00  |  Ch 1 Note Off F1
 In:  80  2B  00  |  Ch 1 Note Off G1
 In:  80  2C  00  |  Ch 1 Note Off G#1
 In:  80  2F  00  |  Ch 1 Note Off B1
 In:  80  30  00  |  Ch 1 Note Off C2
 In:  90  23  6E  |  Ch 1 Note On  B0
 In:  90  24  75  |  Ch 1 Note On  C1
 In:  90  1F  5D  |  Ch 1 Note On  G0
 In:  80  2E  00  |  Ch 1 Note Off A#1
 In:  90  21  5E  |  Ch 1 Note On  A0
 In:  80  26  00  |  Ch 1 Note Off D1
 In:  90  2E  58  |  Ch 1 Note On  A#1
 In:  90  26  6B  |  Ch 1 Note On  D1
 In:  90  2C  60  |  Ch 1 Note On  G#1
 In:  90  2F  4A  |  Ch 1 Note On  B1
 In:  90  29  5E  |  Ch 1 Note On  F1
 In:  90  30  54  |  Ch 1 Note On  C2
 In:  90  2B  57  |  Ch 1 Note On  G1
 In:  90  2D  4D  |  Ch 1 Note On  A1
 In:  80  24  00  |  Ch 1 Note Off C1
 In:  80  23  00  |  Ch 1 Note Off B0
 In:  90  28  32  |  Ch 1 Note On  E1
 In:  80  21  00  |  Ch 1 Note Off A0
 In:  80  1F  00  |  Ch 1 Note Off G0
 In:  80  28  00  |  Ch 1 Note Off E1
 In:  80  26  00  |  Ch 1 Note Off D1
 In:  80  29  00  |  Ch 1 Note Off F1
 In:  80  2C  00  |  Ch 1 Note Off G#1
 In:  80  2D  00  |  Ch 1 Note Off A1
 In:  80  2E  00  |  Ch 1 Note Off A#1
 In:  80  2F  00  |  Ch 1 Note Off B1
 In:  80  30  00  |  Ch 1 Note Off C2
 In:  90  1B  6E  |  Ch 1 Note On  D#0
 In:  90  1C  4A  |  Ch 1 Note On  E0
 In:  90  1D  48  |  Ch 1 Note On  F0
 In:  90  2A  47  |  Ch 1 Note On  F#1
 In:  90  24  48  |  Ch 1 Note On  C1
 In:  90  23  4A  |  Ch 1 Note On  B0
 In:  90  28  34  |  Ch 1 Note On  E1
 In:  90  2C  1E  |  Ch 1 Note On  G#1
 In:  90  2B  1F  |  Ch 1 Note On  G1
 In:  90  2D  1E  |  Ch 1 Note On  A1
 In:  90  26  27  |  Ch 1 Note On  D1
 In:  90  2E  27  |  Ch 1 Note On  A#1
 In:  90  2F  1D  |  Ch 1 Note On  B1
 In:  80  1C  00  |  Ch 1 Note Off E0
 In:  80  1D  00  |  Ch 1 Note Off F0
 In:  80  26  00  |  Ch 1 Note Off D1
 In:  80  2F  00  |  Ch 1 Note Off B1
 In:  80  1B  00  |  Ch 1 Note Off D#0
 In:  80  2B  00  |  Ch 1 Note Off G1
 In:  80  28  00  |  Ch 1 Note Off E1
 In:  80  2D  00  |  Ch 1 Note Off A1
 In:  80  2A  00  |  Ch 1 Note Off F#1
 In:  80  2E  00  |  Ch 1 Note Off A#1
 In:  80  2C  00  |  Ch 1 Note Off G#1
 In:  80  23  00  |  Ch 1 Note Off B0
 In:  80  24  00  |  Ch 1 Note Off C1
 In:  90  1B  75  |  Ch 1 Note On  D#0
 In:  90  19  26  |  Ch 1 Note On  C#0
 In:  90  2C  73  |  Ch 1 Note On  G#1
 In:  90  2A  79  |  Ch 1 Note On  F#1
 In:  90  1C  31  |  Ch 1 Note On  E0
 In:  90  26  69  |  Ch 1 Note On  D1
 In:  90  28  64  |  Ch 1 Note On  E1
 In:  90  23  54  |  Ch 1 Note On  B0
 In:  90  2B  5D  |  Ch 1 Note On  G1
 In:  90  2D  5C  |  Ch 1 Note On  A1
 In:  90  29  51  |  Ch 1 Note On  F1
 In:  90  1A  2C  |  Ch 1 Note On  D0
 In:  90  21  52  |  Ch 1 Note On  A0
 In:  90  2E  17  |  Ch 1 Note On  A#1
 In:  80  1A  00  |  Ch 1 Note Off D0
 In:  80  19  00  |  Ch 1 Note Off C#0
 In:  80  21  00  |  Ch 1 Note Off A0
 In:  80  1C  00  |  Ch 1 Note Off E0
 In:  80  29  00  |  Ch 1 Note Off F1
 In:  80  2E  00  |  Ch 1 Note Off A#1
 In:  80  2A  00  |  Ch 1 Note Off F#1
 In:  80  2D  00  |  Ch 1 Note Off A1
 In:  80  26  00  |  Ch 1 Note Off D1
 In:  80  28  00  |  Ch 1 Note Off E1
 In:  80  2B  00  |  Ch 1 Note Off G1
 In:  80  23  00  |  Ch 1 Note Off B0
 In:  80  2C  00  |  Ch 1 Note Off G#1
 In:  80  1B  00  |  Ch 1 Note Off D#0
 In:  90  26  5B  |  Ch 1 Note On  D1
 In:  90  28  57  |  Ch 1 Note On  E1
 In:  90  2A  58  |  Ch 1 Note On  F#1
 In:  90  23  51  |  Ch 1 Note On  B0
 In:  90  2C  4E  |  Ch 1 Note On  G#1
 In:  90  2B  4C  |  Ch 1 Note On  G1
 In:  90  2D  4E  |  Ch 1 Note On  A1
 In:  90  21  4E  |  Ch 1 Note On  A0
 In:  90  29  4A  |  Ch 1 Note On  F1
 In:  90  19  7A  |  Ch 1 Note On  C#0
 In:  90  1A  61  |  Ch 1 Note On  D0
 In:  90  18  61  |  Ch 1 Note On  C0
 In:  80  29  00  |  Ch 1 Note Off F1
 In:  80  2A  00  |  Ch 1 Note Off F#1
 In:  80  23  00  |  Ch 1 Note Off B0
 In:  80  26  00  |  Ch 1 Note Off D1
 In:  80  2D  00  |  Ch 1 Note Off A1
 In:  80  21  00  |  Ch 1 Note Off A0
 In:  80  2B  00  |  Ch 1 Note Off G1
 In:  80  2C  00  |  Ch 1 Note Off G#1
 In:  80  18  00  |  Ch 1 Note Off C0
 In:  90  2A  7B  |  Ch 1 Note On  F#1
 In:  90  27  79  |  Ch 1 Note On  D#1
 In:  90  1F  4A  |  Ch 1 Note On  G0
 In:  90  2B  50  |  Ch 1 Note On  G1
 In:  90  29  49  |  Ch 1 Note On  F1
 In:  80  1A  00  |  Ch 1 Note Off D0
 In:  90  26  57  |  Ch 1 Note On  D1
 In:  90  24  5B  |  Ch 1 Note On  C1
 In:  80  19  00  |  Ch 1 Note Off C#0
 In:  90  28  3B  |  Ch 1 Note On  E1
 In:  80  28  00  |  Ch 1 Note Off E1
 In:  80  24  00  |  Ch 1 Note Off C1
 In:  80  26  00  |  Ch 1 Note Off D1
 In:  80  29  00  |  Ch 1 Note Off F1
 In:  80  2B  00  |  Ch 1 Note Off G1
 In:  80  27  00  |  Ch 1 Note Off D#1
 In:  90  19  7B  |  Ch 1 Note On  C#0
 In:  80  2A  00  |  Ch 1 Note Off F#1
 In:  80  21  00  |  Ch 1 Note Off A0
 In:  90  1A  5A  |  Ch 1 Note On  D0
 In:  90  18  49  |  Ch 1 Note On  C0
 In:  80  1F  00  |  Ch 1 Note Off G0
 In:  80  18  00  |  Ch 1 Note Off C0
 In:  80  1A  00  |  Ch 1 Note Off D0
 In:  90  1F  42  |  Ch 1 Note On  G0
 In:  90  27  7F  |  Ch 1 Note On  D#1
 In:  90  2A  7A  |  Ch 1 Note On  F#1
 In:  90  1D  52  |  Ch 1 Note On  F0
 In:  90  29  51  |  Ch 1 Note On  F1
 In:  80  19  00  |  Ch 1 Note Off C#0
 In:  90  24  46  |  Ch 1 Note On  C1
 In:  90  28  25  |  Ch 1 Note On  E1
 In:  80  24  00  |  Ch 1 Note Off C1
 In:  80  28  00  |  Ch 1 Note Off E1
 In:  80  29  00  |  Ch 1 Note Off F1
 In:  80  27  00  |  Ch 1 Note Off D#1
 In:  80  1D  00  |  Ch 1 Note Off F0
 In:  90  1B  79  |  Ch 1 Note On  D#0
 In:  80  2A  00  |  Ch 1 Note Off F#1
 In:  90  1C  64  |  Ch 1 Note On  E0
 In:  90  1A  66  |  Ch 1 Note On  D0
 In:  80  1F  00  |  Ch 1 Note Off G0
 In:  80  1A  00  |  Ch 1 Note Off D0
 In:  90  27  7A  |  Ch 1 Note On  D#1
 In:  90  2A  76  |  Ch 1 Note On  F#1
 In:  90  1F  47  |  Ch 1 Note On  G0
 In:  90  21  47  |  Ch 1 Note On  A0
 In:  80  1C  00  |  Ch 1 Note Off E0
 In:  80  1B  00  |  Ch 1 Note Off D#0
 In:  90  24  3F  |  Ch 1 Note On  C1
 In:  90  26  27  |  Ch 1 Note On  D1
 In:  80  26  00  |  Ch 1 Note Off D1
 In:  80  24  00  |  Ch 1 Note Off C1
 In:  80  27  00  |  Ch 1 Note Off D#1
 In:  80  21  00  |  Ch 1 Note Off A0
 In:  80  1F  00  |  Ch 1 Note Off G0
 In:  80  2A  00  |  Ch 1 Note Off F#1
 In:  90  1D  67  |  Ch 1 Note On  F0
 In:  90  1C  6B  |  Ch 1 Note On  E0
 In:  90  1B  43  |  Ch 1 Note On  D#0
 In:  80  1B  00  |  Ch 1 Note Off D#0
 In:  90  2A  7A  |  Ch 1 Note On  F#1
 In:  90  21  57  |  Ch 1 Note On  A0
 In:  80  1C  00  |  Ch 1 Note Off E0
 In:  90  23  51  |  Ch 1 Note On  B0
 In:  80  1D  00  |  Ch 1 Note Off F0
 In:  90  2C  0A  |  Ch 1 Note On  G#1
 In:  80  23  00  |  Ch 1 Note Off B0
 In:  80  21  00  |  Ch 1 Note Off A0
 In:  80  2A  00  |  Ch 1 Note Off F#1
 In:  90  1F  24  |  Ch 1 Note On  G0
 In:  90  1E  24  |  Ch 1 Note On  F#0
 In:  80  2C  00  |  Ch 1 Note Off G#1
 In:  80  1F  00  |  Ch 1 Note Off G0
 In:  90  2E  71  |  Ch 1 Note On  A#1
 In:  90  24  22  |  Ch 1 Note On  C1
 In:  90  2F  3D  |  Ch 1 Note On  B1
 In:  90  2C  24  |  Ch 1 Note On  G#1
 In:  80  1E  00  |  Ch 1 Note Off F#0
 In:  90  2A  1C  |  Ch 1 Note On  F#1
 In:  80  2C  00  |  Ch 1 Note Off G#1
 In:  90  20  5A  |  Ch 1 Note On  G#0
 In:  80  24  00  |  Ch 1 Note Off C1
 In:  90  21  1D  |  Ch 1 Note On  A0
 In:  80  2F  00  |  Ch 1 Note Off B1
 In:  80  2E  00  |  Ch 1 Note Off A#1
 In:  90  1E  20  |  Ch 1 Note On  F#0
 In:  80  2A  00  |  Ch 1 Note Off F#1
 In:  90  1F  10  |  Ch 1 Note On  G0
 In:  80  21  00  |  Ch 1 Note Off A0
 In:  90  26  48  |  Ch 1 Note On  D1
 In:  90  28  45  |  Ch 1 Note On  E1
 In:  90  2A  25  |  Ch 1 Note On  F#1
 In:  80  1F  00  |  Ch 1 Note Off G0
 In:  90  2F  1E  |  Ch 1 Note On  B1
 In:  90  30  25  |  Ch 1 Note On  C2
 In:  90  2D  20  |  Ch 1 Note On  A1
 In:  90  2E  4D  |  Ch 1 Note On  A#1
 In:  90  21  0A  |  Ch 1 Note On  A0
 In:  90  2C  1D  |  Ch 1 Note On  G#1
 In:  80  2A  00  |  Ch 1 Note Off F#1
 In:  90  23  0F  |  Ch 1 Note On  B0
 In:  80  30  00  |  Ch 1 Note Off C2
 In:  80  2D  00  |  Ch 1 Note Off A1
 In:  80  2F  00  |  Ch 1 Note Off B1
 In:  80  2E  00  |  Ch 1 Note Off A#1
 In:  90  2A  5F  |  Ch 1 Note On  F#1
 In:  80  21  00  |  Ch 1 Note Off A0
 In:  80  2C  00  |  Ch 1 Note Off G#1
 In:  80  26  00  |  Ch 1 Note Off D1
 In:  80  23  00  |  Ch 1 Note Off B0
 In:  80  28  00  |  Ch 1 Note Off E1
 In:  90  30  3B  |  Ch 1 Note On  C2
 In:  90  2F  3B  |  Ch 1 Note On  B1
 In:  90  2D  39  |  Ch 1 Note On  A1
 In:  90  26  21  |  Ch 1 Note On  D1
 In:  90  2E  26  |  Ch 1 Note On  A#1
 In:  90  2C  15  |  Ch 1 Note On  G#1
 In:  80  1E  00  |  Ch 1 Note Off F#0
 In:  80  20  00  |  Ch 1 Note Off G#0
 In:  90  21  21  |  Ch 1 Note On  A0
 In:  90  23  32  |  Ch 1 Note On  B0
 In:  90  24  49  |  Ch 1 Note On  C1
 In:  80  2D  00  |  Ch 1 Note Off A1
 In:  80  26  00  |  Ch 1 Note Off D1
 In:  80  2E  00  |  Ch 1 Note Off A#1
 In:  90  20  6D  |  Ch 1 Note On  G#0
 In:  80  2F  00  |  Ch 1 Note Off B1
 In:  80  2C  00  |  Ch 1 Note Off G#1
 In:  90  1E  1A  |  Ch 1 Note On  F#0
 In:  80  30  00  |  Ch 1 Note Off C2
 In:  90  1F  04  |  Ch 1 Note On  G0
 In:  80  24  00  |  Ch 1 Note Off C1
 In:  90  1A  22  |  Ch 1 Note On  D0
 In:  90  18  22  |  Ch 1 Note On  C0
 In:  80  23  00  |  Ch 1 Note Off B0
 In:  90  1C  1A  |  Ch 1 Note On  E0
 In:  80  21  00  |  Ch 1 Note Off A0
 In:  80  2A  00  |  Ch 1 Note Off F#1
 In:  90  26  26  |  Ch 1 Note On  D1
 In:  90  30  25  |  Ch 1 Note On  C2
 In:  90  24  28  |  Ch 1 Note On  C1
 In:  90  29  37  |  Ch 1 Note On  F1
 In:  90  2B  28  |  Ch 1 Note On  G1
 In:  90  2F  2A  |  Ch 1 Note On  B1
 In:  90  21  21  |  Ch 1 Note On  A0
 In:  90  2C  0A  |  Ch 1 Note On  G#1
 In:  90  23  19  |  Ch 1 Note On  B0
 In:  80  2B  00  |  Ch 1 Note Off G1
 In:  80  29  00  |  Ch 1 Note Off F1
 In:  80  2C  00  |  Ch 1 Note Off G#1
 In:  90  2A  0C  |  Ch 1 Note On  F#1
 In:  80  1F  00  |  Ch 1 Note Off G0
 In:  80  2F  00  |  Ch 1 Note Off B1
 In:  90  22  4A  |  Ch 1 Note On  A#0
 In:  80  18  00  |  Ch 1 Note Off C0
 In:  80  1A  00  |  Ch 1 Note Off D0
 In:  80  1C  00  |  Ch 1 Note Off E0
 In:  80  30  00  |  Ch 1 Note Off C2
 In:  80  1E  00  |  Ch 1 Note Off F#0
 In:  80  21  00  |  Ch 1 Note Off A0
 In:  80  20  00  |  Ch 1 Note Off G#0
 In:  80  26  00  |  Ch 1 Note Off D1
 In:  80  2A  00  |  Ch 1 Note Off F#1
 In:  80  23  00  |  Ch 1 Note Off B0
 In:  80  24  00  |  Ch 1 Note Off C1
 In:  90  24  31  |  Ch 1 Note On  C1
 In:  80  22  00  |  Ch 1 Note Off A#0
 In:  90  28  26  |  Ch 1 Note On  E1
 In:  90  29  26  |  Ch 1 Note On  F1
 In:  90  2C  28  |  Ch 1 Note On  G#1
 In:  90  2F  23  |  Ch 1 Note On  B1
 In:  90  2E  0A  |  Ch 1 Note On  A#1
 In:  90  2B  28  |  Ch 1 Note On  G1
 In:  90  2D  3C  |  Ch 1 Note On  A1
 In:  80  2C  00  |  Ch 1 Note Off G#1
 In:  80  2E  00  |  Ch 1 Note Off A#1
 In:  90  30  0A  |  Ch 1 Note On  C2
 In:  90  18  20  |  Ch 1 Note On  C0
 In:  90  19  47  |  Ch 1 Note On  C#0
 In:  90  1A  31  |  Ch 1 Note On  D0
 In:  80  29  00  |  Ch 1 Note Off F1
 In:  80  28  00  |  Ch 1 Note Off E1
 In:  90  1B  23  |  Ch 1 Note On  D#0
 In:  80  2B  00  |  Ch 1 Note Off G1
 In:  80  24  00  |  Ch 1 Note Off C1
 In:  80  2D  00  |  Ch 1 Note Off A1
 In:  90  1F  21  |  Ch 1 Note On  G0
 In:  90  1E  27  |  Ch 1 Note On  F#0
 In:  90  21  2A  |  Ch 1 Note On  A0
 In:  90  22  36  |  Ch 1 Note On  A#0
 In:  80  1A  00  |  Ch 1 Note Off D0
 In:  80  2F  00  |  Ch 1 Note Off B1
 In:  80  30  00  |  Ch 1 Note Off C2
 In:  80  18  00  |  Ch 1 Note Off C0
 In:  80  1B  00  |  Ch 1 Note Off D#0
 In:  80  1E  00  |  Ch 1 Note Off F#0
 In:  80  19  00  |  Ch 1 Note Off C#0
 In:  90  23  0F  |  Ch 1 Note On  B0
 In:  80  1F  00  |  Ch 1 Note Off G0
 In:  80  21  00  |  Ch 1 Note Off A0
 In:  80  23  00  |  Ch 1 Note Off B0
 In:  80  22  00  |  Ch 1 Note Off A#0
 In:  90  2D  51  |  Ch 1 Note On  A1
 In:  90  2F  4B  |  Ch 1 Note On  B1
 In:  90  30  25  |  Ch 1 Note On  C2
 In:  90  2B  21  |  Ch 1 Note On  G1
 In:  90  18  3C  |  Ch 1 Note On  C0
 In:  90  2C  77  |  Ch 1 Note On  G#1
 In:  90  1B  5B  |  Ch 1 Note On  D#0
 In:  90  28  09  |  Ch 1 Note On  E1
 In:  90  23  2B  |  Ch 1 Note On  B0
 In:  90  24  26  |  Ch 1 Note On  C1
 In:  90  1D  17  |  Ch 1 Note On  F0
 In:  90  1F  34  |  Ch 1 Note On  G0
 In:  80  2B  00  |  Ch 1 Note Off G1
 In:  90  1C  1F  |  Ch 1 Note On  E0
 In:  80  2D  00  |  Ch 1 Note Off A1
 In:  80  28  00  |  Ch 1 Note Off E1
 In:  80  30  00  |  Ch 1 Note Off C2
 In:  90  2A  21  |  Ch 1 Note On  F#1
 In:  80  2F  00  |  Ch 1 Note Off B1
 In:  90  20  28  |  Ch 1 Note On  G#0
 In:  80  18  00  |  Ch 1 Note Off C0
 In:  80  24  00  |  Ch 1 Note Off C1
 In:  80  1B  00  |  Ch 1 Note Off D#0
 In:  80  2C  00  |  Ch 1 Note Off G#1
 In:  80  1C  00  |  Ch 1 Note Off E0
 In:  80  2A  00  |  Ch 1 Note Off F#1
 In:  80  23  00  |  Ch 1 Note Off B0
 In:  80  1D  00  |  Ch 1 Note Off F0
 In:  80  1F  00  |  Ch 1 Note Off G0
 In:  80  20  00  |  Ch 1 Note Off G#0
 In:  90  2F  2E  |  Ch 1 Note On  B1
 In:  90  2D  39  |  Ch 1 Note On  A1
 In:  90  19  19  |  Ch 1 Note On  C#0
 In:  90  2E  4A  |  Ch 1 Note On  A#1
 In:  90  18  09  |  Ch 1 Note On  C0
 In:  90  1B  5F  |  Ch 1 Note On  D#0
 In:  90  2C  77  |  Ch 1 Note On  G#1
 In:  90  2B  25  |  Ch 1 Note On  G1
 In:  90  28  3D  |  Ch 1 Note On  E1
 In:  90  26  2C  |  Ch 1 Note On  D1
 In:  90  2A  24  |  Ch 1 Note On  F#1
 In:  90  1E  13  |  Ch 1 Note On  F#0
 In:  80  2F  00  |  Ch 1 Note Off B1
 In:  90  1F  23  |  Ch 1 Note On  G0
 In:  80  2B  00  |  Ch 1 Note Off G1
 In:  90  21  28  |  Ch 1 Note On  A0
 In:  80  2D  00  |  Ch 1 Note Off A1
 In:  80  18  00  |  Ch 1 Note Off C0
 In:  80  2E  00  |  Ch 1 Note Off A#1
 In:  90  23  0A  |  Ch 1 Note On  B0
 In:  80  26  00  |  Ch 1 Note Off D1
 In:  90  22  17  |  Ch 1 Note On  A#0
 In:  80  19  00  |  Ch 1 Note Off C#0
 In:  80  28  00  |  Ch 1 Note Off E1
 In:  80  2C  00  |  Ch 1 Note Off G#1
 In:  80  1B  00  |  Ch 1 Note Off D#0
 In:  80  23  00  |  Ch 1 Note Off B0
 In:  80  2A  00  |  Ch 1 Note Off F#1
 In:  80  1F  00  |  Ch 1 Note Off G0
 In:  80  1E  00  |  Ch 1 Note Off F#0
 In:  80  21  00  |  Ch 1 Note Off A0
 In:  80  22  00  |  Ch 1 Note Off A#0
 In:  90  2F  26  |  Ch 1 Note On  B1
 In:  90  2D  25  |  Ch 1 Note On  A1
 In:  90  2E  66  |  Ch 1 Note On  A#1
 In:  90  18  5C  |  Ch 1 Note On  C0
 In:  90  2C  7F  |  Ch 1 Note On  G#1
 In:  90  1B  43  |  Ch 1 Note On  D#0
 In:  90  1A  40  |  Ch 1 Note On  D0
 In:  90  2B  1D  |  Ch 1 Note On  G1
 In:  90  1C  62  |  Ch 1 Note On  E0
 In:  90  28  30  |  Ch 1 Note On  E1
 In:  90  29  20  |  Ch 1 Note On  F1
 In:  90  2A  1D  |  Ch 1 Note On  F#1
 In:  90  24  4D  |  Ch 1 Note On  C1
 In:  90  26  25  |  Ch 1 Note On  D1
 In:  90  1D  13  |  Ch 1 Note On  F0
 In:  80  2F  00  |  Ch 1 Note Off B1
 In:  80  2D  00  |  Ch 1 Note Off A1
 In:  80  29  00  |  Ch 1 Note Off F1
 In:  90  1F  20  |  Ch 1 Note On  G0
 In:  90  20  4D  |  Ch 1 Note On  G#0
 In:  80  2E  00  |  Ch 1 Note Off A#1
 In:  80  18  00  |  Ch 1 Note Off C0
 In:  80  26  00  |  Ch 1 Note Off D1
 In:  80  2C  00  |  Ch 1 Note Off G#1
 In:  80  1A  00  |  Ch 1 Note Off D0
 In:  80  28  00  |  Ch 1 Note Off E1
 In:  80  1B  00  |  Ch 1 Note Off D#0
 In:  80  1C  00  |  Ch 1 Note Off E0
 In:  80  1D  00  |  Ch 1 Note Off F0
 In:  80  2A  00  |  Ch 1 Note Off F#1
 In:  80  24  00  |  Ch 1 Note Off C1
 In:  80  1F  00  |  Ch 1 Note Off G0
 In:  80  20  00  |  Ch 1 Note Off G#0
 In:  90  2E  6A  |  Ch 1 Note On  A#1
 In:  90  2C  7B  |  Ch 1 Note On  G#1
 In:  90  24  2C  |  Ch 1 Note On  C1
 In:  90  2D  38  |  Ch 1 Note On  A1
 In:  90  2F  28  |  Ch 1 Note On  B1
 In:  90  1D  3A  |  Ch 1 Note On  F0
 In:  90  1B  6B  |  Ch 1 Note On  D#0
 In:  90  1F  38  |  Ch 1 Note On  G0
 In:  80  2F  00  |  Ch 1 Note Off B1
 In:  80  2E  00  |  Ch 1 Note Off A#1
 In:  80  2D  00  |  Ch 1 Note Off A1
 In:  80  2C  00  |  Ch 1 Note Off G#1
 In:  80  24  00  |  Ch 1 Note Off C1
 In:  80  1B  00  |  Ch 1 Note Off D#0
 In:  80  1F  00  |  Ch 1 Note Off G0
 In:  80  1D  00  |  Ch 1 Note Off F0
 In:  90  2C  7F  |  Ch 1 Note On  G#1
 In:  90  2E  7F  |  Ch 1 Note On  A#1
 In:  90  2F  6E  |  Ch 1 Note On  B1
 In:  90  2D  6D  |  Ch 1 Note On  A1
 In:  90  24  37  |  Ch 1 Note On  C1
 In:  90  26  3A  |  Ch 1 Note On  D1
 In:  80  26  00  |  Ch 1 Note Off D1
 In:  80  2C  00  |  Ch 1 Note Off G#1
 In:  80  2D  00  |  Ch 1 Note Off A1
 In:  80  24  00  |  Ch 1 Note Off C1
 In:  80  2E  00  |  Ch 1 Note Off A#1
 In:  80  2F  00  |  Ch 1 Note Off B1
 In:  90  1C  48  |  Ch 1 Note On  E0
 In:  90  1B  40  |  Ch 1 Note On  D#0
 In:  90  19  27  |  Ch 1 Note On  C#0
 In:  90  1D  23  |  Ch 1 Note On  F0
 In:  80  19  00  |  Ch 1 Note Off C#0
 In:  90  24  53  |  Ch 1 Note On  C1
 In:  90  26  55  |  Ch 1 Note On  D1
 In:  80  1B  00  |  Ch 1 Note Off D#0
 In:  90  2D  4D  |  Ch 1 Note On  A1
 In:  80  1D  00  |  Ch 1 Note Off F0
 In:  80  1C  00  |  Ch 1 Note Off E0
 In:  80  2D  00  |  Ch 1 Note Off A1
 In:  80  26  00  |  Ch 1 Note Off D1
 In:  80  24  00  |  Ch 1 Note Off C1
 In:  90  1D  31  |  Ch 1 Note On  F0
 In:  90  2D  54  |  Ch 1 Note On  A1
 In:  90  2F  56  |  Ch 1 Note On  B1
 In:  90  24  50  |  Ch 1 Note On  C1
 In:  80  2D  00  |  Ch 1 Note Off A1
 In:  80  1D  00  |  Ch 1 Note Off F0
 In:  80  24  00  |  Ch 1 Note Off C1
 In:  80  2F  00  |  Ch 1 Note Off B1
 In:  90  1C  41  |  Ch 1 Note On  E0
 In:  90  2C  7F  |  Ch 1 Note On  G#1
 In:  90  2D  62  |  Ch 1 Note On  A1
 In:  90  1D  26  |  Ch 1 Note On  F0
 In:  90  2F  53  |  Ch 1 Note On  B1
 In:  80  2C  00  |  Ch 1 Note Off G#1
 In:  90  24  28  |  Ch 1 Note On  C1
 In:  80  1C  00  |  Ch 1 Note Off E0
 In:  90  2B  14  |  Ch 1 Note On  G1
 In:  90  29  0A  |  Ch 1 Note On  F1
 In:  80  2F  00  |  Ch 1 Note Off B1
 In:  80  2B  00  |  Ch 1 Note Off G1
 In:  80  1D  00  |  Ch 1 Note Off F0
 In:  80  24  00  |  Ch 1 Note Off C1
 In:  80  29  00  |  Ch 1 Note Off F1
 In:  80  2D  00  |  Ch 1 Note Off A1
 In:  90  1C  26  |  Ch 1 Note On  E0
 In:  90  24  25  |  Ch 1 Note On  C1
 In:  90  30  4C  |  Ch 1 Note On  C2
 In:  90  2F  46  |  Ch 1 Note On  B1
 In:  90  1F  48  |  Ch 1 Note On  G0
 In:  90  21  49  |  Ch 1 Note On  A0
 In:  90  2D  31  |  Ch 1 Note On  A1
 In:  80  1C  00  |  Ch 1 Note Off E0
 In:  90  2B  2D  |  Ch 1 Note On  G1
 In:  80  2F  00  |  Ch 1 Note Off B1
 In:  80  30  00  |  Ch 1 Note Off C2
 In:  80  24  00  |  Ch 1 Note Off C1
 In:  80  1F  00  |  Ch 1 Note Off G0
 In:  80  21  00  |  Ch 1 Note Off A0
 In:  90  19  75  |  Ch 1 Note On  C#0
 In:  90  1C  76  |  Ch 1 Note On  E0
 In:  80  2D  00  |  Ch 1 Note Off A1
 In:  80  2B  00  |  Ch 1 Note Off G1
 In:  80  19  00  |  Ch 1 Note Off C#0
 In:  90  30  5A  |  Ch 1 Note On  C2
 In:  90  2F  59  |  Ch 1 Note On  B1
 In:  90  23  0A  |  Ch 1 Note On  B0
 In:  90  24  0A  |  Ch 1 Note On  C1
 In:  90  21  26  |  Ch 1 Note On  A0
 In:  80  24  00  |  Ch 1 Note Off C1
 In:  90  2D  5F  |  Ch 1 Note On  A1
 In:  80  1C  00  |  Ch 1 Note Off E0
 In:  90  2B  1E  |  Ch 1 Note On  G1
 In:  80  30  00  |  Ch 1 Note Off C2
 In:  80  2F  00  |  Ch 1 Note Off B1
 In:  80  21  00  |  Ch 1 Note Off A0
 In:  80  23  00  |  Ch 1 Note Off B0
 In:  80  2B  00  |  Ch 1 Note Off G1
 In:  80  2D  00  |  Ch 1 Note Off A1
 In:  90  1B  50  |  Ch 1 Note On  D#0
 In:  90  1D  72  |  Ch 1 Note On  F0
 In:  80  1B  00  |  Ch 1 Note Off D#0
 In:  80  1D  00  |  Ch 1 Note Off F0
 In:  90  23  66  |  Ch 1 Note On  B0
 In:  90  2C  7A  |  Ch 1 Note On  G#1
 In:  90  24  47  |  Ch 1 Note On  C1
 In:  90  2A  73  |  Ch 1 Note On  F#1
 In:  80  24  00  |  Ch 1 Note Off C1
 In:  80  2A  00  |  Ch 1 Note Off F#1
 In:  80  23  00  |  Ch 1 Note Off B0
 In:  80  2C  00  |  Ch 1 Note Off G#1
 In:  90  2A  7F  |  Ch 1 Note On  F#1
 In:  90  2C  7F  |  Ch 1 Note On  G#1
 In:  90  1E  73  |  Ch 1 Note On  F#0
 In:  90  26  47  |  Ch 1 Note On  D1
 In:  80  2C  00  |  Ch 1 Note Off G#1
 In:  80  2A  00  |  Ch 1 Note Off F#1
 In:  80  26  00  |  Ch 1 Note Off D1
 In:  80  1E  00  |  Ch 1 Note Off F#0
 In:  90  20  7D  |  Ch 1 Note On  G#0
 In:  90  1E  7B  |  Ch 1 Note On  F#0
 In:  90  2C  76  |  Ch 1 Note On  G#1
 In:  90  26  63  |  Ch 1 Note On  D1
 In:  90  2A  54  |  Ch 1 Note On  F#1
 In:  80  1E  00  |  Ch 1 Note Off F#0
 In:  80  20  00  |  Ch 1 Note Off G#0
 In:  80  2A  00  |  Ch 1 Note Off F#1
 In:  80  26  00  |  Ch 1 Note Off D1
 In:  80  2C  00  |  Ch 1 Note Off G#1
 In:  90  20  7D  |  Ch 1 Note On  G#0
 In:  90  1E  72  |  Ch 1 Note On  F#0
 In:  90  2C  67  |  Ch 1 Note On  G#1
 In:  90  2A  64  |  Ch 1 Note On  F#1
 In:  90  26  31  |  Ch 1 Note On  D1
 In:  80  1E  00  |  Ch 1 Note Off F#0
 In:  80  20  00  |  Ch 1 Note Off G#0
 In:  90  20  7B  |  Ch 1 Note On  G#0
 In:  80  26  00  |  Ch 1 Note Off D1
 In:  90  1E  73  |  Ch 1 Note On  F#0
 In:  80  2C  00  |  Ch 1 Note Off G#1
 In:  80  2A  00  |  Ch 1 Note Off F#1
 In:  80  1E  00  |  Ch 1 Note Off F#0
 In:  80  20  00  |  Ch 1 Note Off G#0
 In:  90  2A  79  |  Ch 1 Note On  F#1
 In:  90  2C  6E  |  Ch 1 Note On  G#1
 In:  90  26  51  |  Ch 1 Note On  D1
 In:  80  26  00  |  Ch 1 Note Off D1
 In:  80  2C  00  |  Ch 1 Note Off G#1
 In:  80  2A  00  |  Ch 1 Note Off F#1
 In:  90  22  27  |  Ch 1 Note On  A#0
 In:  90  23  2C  |  Ch 1 Note On  B0
 In:  80  23  00  |  Ch 1 Note Off B0
 In:  90  2A  6F  |  Ch 1 Note On  F#1
 In:  80  22  00  |  Ch 1 Note Off A#0
 In:  90  27  35  |  Ch 1 Note On  D#1
 In:  90  24  42  |  Ch 1 Note On  C1
 In:  90  26  2B  |  Ch 1 Note On  D1
 In:  90  29  1C  |  Ch 1 Note On  F1
 In:  90  28  22  |  Ch 1 Note On  E1
 In:  80  28  00  |  Ch 1 Note Off E1
 In:  80  29  00  |  Ch 1 Note Off F1
 In:  80  26  00  |  Ch 1 Note Off D1
 In:  80  27  00  |  Ch 1 Note Off D#1
 In:  80  24  00  |  Ch 1 Note Off C1
 In:  80  2A  00  |  Ch 1 Note Off F#1
 In:  90  20  57  |  Ch 1 Note On  G#0
 In:  90  1E  4F  |  Ch 1 Note On  F#0
 In:  90  1F  41  |  Ch 1 Note On  G0
 In:  90  21  38  |  Ch 1 Note On  A0
 In:  80  21  00  |  Ch 1 Note Off A0
 In:  80  20  00  |  Ch 1 Note Off G#0
 In:  90  27  75  |  Ch 1 Note On  D#1
 In:  80  1F  00  |  Ch 1 Note Off G0
 In:  90  24  61  |  Ch 1 Note On  C1
 In:  90  2A  37  |  Ch 1 Note On  F#1
 In:  90  28  1C  |  Ch 1 Note On  E1
 In:  90  29  18  |  Ch 1 Note On  F1
 In:  80  29  00  |  Ch 1 Note Off F1
 In:  80  28  00  |  Ch 1 Note Off E1
 In:  80  2A  00  |  Ch 1 Note Off F#1
 In:  90  1B  6D  |  Ch 1 Note On  D#0
 In:  80  27  00  |  Ch 1 Note Off D#1
 In:  80  24  00  |  Ch 1 Note Off C1
 In:  90  1E  25  |  Ch 1 Note On  F#0
 In:  90  1C  24  |  Ch 1 Note On  E0
 In:  90  1D  23  |  Ch 1 Note On  F0
 In:  80  1D  00  |  Ch 1 Note Off F0
 In:  80  1E  00  |  Ch 1 Note Off F#0
 In:  80  1C  00  |  Ch 1 Note Off E0
 In:  80  1B  00  |  Ch 1 Note Off D#0
 In:  90  25  6B  |  Ch 1 Note On  C#1
 In:  90  21  4D  |  Ch 1 Note On  A0
 In:  90  23  44  |  Ch 1 Note On  B0
 In:  90  27  2E  |  Ch 1 Note On  D#1
 In:  90  28  32  |  Ch 1 Note On  E1
 In:  90  1B  5D  |  Ch 1 Note On  D#0
 In:  90  19  59  |  Ch 1 Note On  C#0
 In:  80  28  00  |  Ch 1 Note Off E1
 In:  80  27  00  |  Ch 1 Note Off D#1
 In:  80  23  00  |  Ch 1 Note Off B0
 In:  80  25  00  |  Ch 1 Note Off C#1
 In:  80  21  00  |  Ch 1 Note Off A0
 In:  90  22  60  |  Ch 1 Note On  A#0
 In:  80  19  00  |  Ch 1 Note Off C#0
 In:  80  1B  00  |  Ch 1 Note Off D#0
 In:  90  1F  45  |  Ch 1 Note On  G0
 In:  90  21  43  |  Ch 1 Note On  A0
 In:  90  25  25  |  Ch 1 Note On  C#1
 In:  90  1B  7F  |  Ch 1 Note On  D#0
 In:  90  19  7B  |  Ch 1 Note On  C#0
 In:  80  25  00  |  Ch 1 Note Off C#1
 In:  80  21  00  |  Ch 1 Note Off A0
 In:  80  1F  00  |  Ch 1 Note Off G0
 In:  80  22  00  |  Ch 1 Note Off A#0
 In:  90  22  75  |  Ch 1 Note On  A#0
 In:  90  21  58  |  Ch 1 Note On  A0
 In:  80  19  00  |  Ch 1 Note Off C#0
 In:  90  25  64  |  Ch 1 Note On  C#1
 In:  80  1B  00  |  Ch 1 Note Off D#0
 In:  80  25  00  |  Ch 1 Note Off C#1
 In:  80  22  00  |  Ch 1 Note Off A#0
 In:  80  1F  00  |  Ch 1 Note Off G0
 In:  80  21  00  |  Ch 1 Note Off A0
 In:  90  1E  79  |  Ch 1 Note On  F#0
 In:  90  1B  72  |  Ch 1 Note On  D#0
 In:  80  1B  00  |  Ch 1 Note Off D#0
 In:  80  1E  00  |  Ch 1 Note Off F#0
 In:  90  25  79  |  Ch 1 Note On  C#1
 In:  90  23  60  |  Ch 1 Note On  B0
 In:  90  27  6E  |  Ch 1 Note On  D#1
 In:  90  28  2A  |  Ch 1 Note On  E1
 In:  80  28  00  |  Ch 1 Note Off E1
 In:  90  20  77  |  Ch 1 Note On  G#0
 In:  80  27  00  |  Ch 1 Note Off D#1
 In:  80  25  00  |  Ch 1 Note Off C#1
 In:  80  23  00  |  Ch 1 Note Off B0
 In:  90  1E  47  |  Ch 1 Note On  F#0
 In:  90  1F  2B  |  Ch 1 Note On  G0
 In:  90  21  27  |  Ch 1 Note On  A0
 In:  80  1E  00  |  Ch 1 Note Off F#0
 In:  80  1F  00  |  Ch 1 Note Off G0
 In:  80  21  00  |  Ch 1 Note Off A0
 In:  80  20  00  |  Ch 1 Note Off G#0
 In:  90  24  52  |  Ch 1 Note On  C1
 In:  90  2A  69  |  Ch 1 Note On  F#1
 In:  90  26  51  |  Ch 1 Note On  D1
 In:  90  27  4C  |  Ch 1 Note On  D#1
 In:  80  27  00  |  Ch 1 Note Off D#1
 In:  80  26  00  |  Ch 1 Note Off D1
 In:  80  24  00  |  Ch 1 Note Off C1
 In:  80  2A  00  |  Ch 1 Note Off F#1
 In:  90  22  7F  |  Ch 1 Note On  A#0
 In:  90  20  64  |  Ch 1 Note On  G#0
 In:  90  23  1E  |  Ch 1 Note On  B0
 In:  80  20  00  |  Ch 1 Note Off G#0
 In:  80  23  00  |  Ch 1 Note Off B0
 In:  90  28  5C  |  Ch 1 Note On  E1
 In:  90  2C  6F  |  Ch 1 Note On  G#1
 In:  80  22  00  |  Ch 1 Note Off A#0
 In:  90  2E  31  |  Ch 1 Note On  A#1
 In:  80  2C  00  |  Ch 1 Note Off G#1
 In:  80  28  00  |  Ch 1 Note Off E1
 In:  80  2E  00  |  Ch 1 Note Off A#1
 In:  90  25  7F  |  Ch 1 Note On  C#1
 In:  90  26  24  |  Ch 1 Note On  D1
 In:  90  24  25  |  Ch 1 Note On  C1
 In:  80  24  00  |  Ch 1 Note Off C1
 In:  80  26  00  |  Ch 1 Note Off D1
 In:  80  25  00  |  Ch 1 Note Off C#1
 In:  90  2E  71  |  Ch 1 Note On  A#1
 In:  90  29  58  |  Ch 1 Note On  F1
 In:  90  2F  49  |  Ch 1 Note On  B1
 In:  90  30  48  |  Ch 1 Note On  C2
 In:  90  28  73  |  Ch 1 Note On  E1
 In:  90  27  6F  |  Ch 1 Note On  D#1
 In:  80  2E  00  |  Ch 1 Note Off A#1
 In:  80  30  00  |  Ch 1 Note Off C2
 In:  80  2F  00  |  Ch 1 Note Off B1
 In:  80  29  00  |  Ch 1 Note Off F1
 In:  80  27  00  |  Ch 1 Note Off D#1
 In:  80  28  00  |  Ch 1 Note Off E1
 In:  90  29  69  |  Ch 1 Note On  F1
 In:  90  2E  76  |  Ch 1 Note On  A#1
 In:  90  2F  5B  |  Ch 1 Note On  B1
 In:  90  30  4F  |  Ch 1 Note On  C2
 In:  90  2D  20  |  Ch 1 Note On  A1
 In:  80  2D  00  |  Ch 1 Note Off A1
 In:  80  30  00  |  Ch 1 Note Off C2
 In:  80  2E  00  |  Ch 1 Note Off A#1
 In:  80  2F  00  |  Ch 1 Note Off B1
 In:  80  29  00  |  Ch 1 Note Off F1
 In:  90  20  44  |  Ch 1 Note On  G#0
 In:  90  21  36  |  Ch 1 Note On  A0
 In:  90  22  24  |  Ch 1 Note On  A#0
 In:  90  1F  27  |  Ch 1 Note On  G0
 In:  90  23  1B  |  Ch 1 Note On  B0
 In:  80  23  00  |  Ch 1 Note Off B0
 In:  80  22  00  |  Ch 1 Note Off A#0
 In:  90  26  57  |  Ch 1 Note On  D1
 In:  80  20  00  |  Ch 1 Note Off G#0
 In:  90  24  4F  |  Ch 1 Note On  C1
 In:  90  2A  47  |  Ch 1 Note On  F#1
 In:  80  21  00  |  Ch 1 Note Off A0
 In:  80  1F  00  |  Ch 1 Note Off G0
 In:  90  2B  23  |  Ch 1 Note On  G1
 In:  90  2C  32  |  Ch 1 Note On  G#1
 In:  80  28  00  |  Ch 1 Note Off E1
 In:  80  24  00  |  Ch 1 Note Off C1
 In:  80  2C  00  |  Ch 1 Note Off G#1
 In:  80  2B  00  |  Ch 1 Note Off G1
 In:  80  2A  00  |  Ch 1 Note Off F#1
 In:  80  26  00  |  Ch 1 Note Off D1
 In:  90  1E  21  |  Ch 1 Note On  F#0
 In:  90  1C  21  |  Ch 1 Note On  E0
 In:  90  1A  23  |  Ch 1 Note On  D0
 In:  90  1D  1F  |  Ch 1 Note On  F0
 In:  90  18  24  |  Ch 1 Note On  C0
 In:  90  1F  0B  |  Ch 1 Note On  G0
 In:  90  23  50  |  Ch 1 Note On  B0
 In:  90  24  42  |  Ch 1 Note On  C1
 In:  90  27  42  |  Ch 1 Note On  D#1
 In:  90  28  37  |  Ch 1 Note On  E1
 In:  90  29  33  |  Ch 1 Note On  F1
 In:  90  26  2E  |  Ch 1 Note On  D1
 In:  80  18  00  |  Ch 1 Note Off C0
 In:  80  1E  00  |  Ch 1 Note Off F#0
 In:  80  1F  00  |  Ch 1 Note Off G0
 In:  80  1C  00  |  Ch 1 Note Off E0
 In:  80  1A  00  |  Ch 1 Note Off D0
 In:  80  1D  00  |  Ch 1 Note Off F0
 In:  80  26  00  |  Ch 1 Note Off D1
 In:  80  29  00  |  Ch 1 Note Off F1
 In:  80  28  00  |  Ch 1 Note Off E1
 In:  80  27  00  |  Ch 1 Note Off D#1
 In:  80  24  00  |  Ch 1 Note Off C1
 In:  80  23  00  |  Ch 1 Note Off B0
 In:  90  1B  43  |  Ch 1 Note On  D#0
 In:  90  19  26  |  Ch 1 Note On  C#0
 In:  90  1A  21  |  Ch 1 Note On  D0
 In:  80  1A  00  |  Ch 1 Note Off D0
 In:  90  21  5C  |  Ch 1 Note On  A0
 In:  80  19  00  |  Ch 1 Note Off C#0
 In:  90  25  75  |  Ch 1 Note On  C#1
 In:  80  1B  00  |  Ch 1 Note Off D#0
 In:  90  28  35  |  Ch 1 Note On  E1
 In:  90  26  17  |  Ch 1 Note On  D1
 In:  90  27  17  |  Ch 1 Note On  D#1
 In:  80  28  00  |  Ch 1 Note Off E1
 In:  80  26  00  |  Ch 1 Note Off D1
 In:  80  27  00  |  Ch 1 Note Off D#1
 In:  90  19  56  |  Ch 1 Note On  C#0
 In:  80  25  00  |  Ch 1 Note Off C#1
 In:  90  1B  26  |  Ch 1 Note On  D#0
 In:  80  21  00  |  Ch 1 Note Off A0
 In:  80  1B  00  |  Ch 1 Note Off D#0
 In:  90  21  56  |  Ch 1 Note On  A0
 In:  90  25  77  |  Ch 1 Note On  C#1
 In:  90  26  61  |  Ch 1 Note On  D1
 In:  90  28  2D  |  Ch 1 Note On  E1
 In:  80  19  00  |  Ch 1 Note Off C#0
 In:  80  28  00  |  Ch 1 Note Off E1
 In:  90  1E  44  |  Ch 1 Note On  F#0
 In:  80  26  00  |  Ch 1 Note Off D1
 In:  80  21  00  |  Ch 1 Note Off A0
 In:  90  1B  76  |  Ch 1 Note On  D#0
 In:  90  19  6A  |  Ch 1 Note On  C#0
 In:  80  1B  00  |  Ch 1 Note Off D#0
 In:  80  19  00  |  Ch 1 Note Off C#0
 In:  80  1E  00  |  Ch 1 Note Off F#0
 In:  90  27  73  |  Ch 1 Note On  D#1
 In:  90  2A  46  |  Ch 1 Note On  F#1
 In:  90  23  27  |  Ch 1 Note On  B0
 In:  90  24  26  |  Ch 1 Note On  C1
 In:  90  28  18  |  Ch 1 Note On  E1
 In:  90  29  0C  |  Ch 1 Note On  F1
 In:  80  24  00  |  Ch 1 Note Off C1
 In:  80  23  00  |  Ch 1 Note Off B0
 In:  80  29  00  |  Ch 1 Note Off F1
 In:  90  20  5B  |  Ch 1 Note On  G#0
 In:  80  28  00  |  Ch 1 Note Off E1
 In:  90  1E  46  |  Ch 1 Note On  F#0
 In:  90  1B  56  |  Ch 1 Note On  D#0
 In:  80  2A  00  |  Ch 1 Note Off F#1
 In:  80  27  00  |  Ch 1 Note Off D#1
 In:  80  1E  00  |  Ch 1 Note Off F#0
 In:  80  1B  00  |  Ch 1 Note Off D#0
 In:  80  20  00  |  Ch 1 Note Off G#0
 In:  90  26  4F  |  Ch 1 Note On  D1
 In:  90  2C  56  |  Ch 1 Note On  G#1
 In:  90  2A  37  |  Ch 1 Note On  F#1
 In:  90  2D  30  |  Ch 1 Note On  A1
 In:  90  2B  23  |  Ch 1 Note On  G1
 In:  80  2B  00  |  Ch 1 Note Off G1
 In:  80  2A  00  |  Ch 1 Note Off F#1
 In:  90  22  6A  |  Ch 1 Note On  A#0
 In:  80  26  00  |  Ch 1 Note Off D1
 In:  80  2C  00  |  Ch 1 Note Off G#1
 In:  80  2D  00  |  Ch 1 Note Off A1
 In:  90  20  40  |  Ch 1 Note On  G#0
 In:  80  20  00  |  Ch 1 Note Off G#0
 In:  90  2F  51  |  Ch 1 Note On  B1
 In:  90  30  57  |  Ch 1 Note On  C2
 In:  80  22  00  |  Ch 1 Note Off A#0
 In:  90  2E  44  |  Ch 1 Note On  A#1
 In:  90  28  32  |  Ch 1 Note On  E1
 In:  90  29  28  |  Ch 1 Note On  F1
 In:  80  29  00  |  Ch 1 Note Off F1
 In:  80  28  00  |  Ch 1 Note Off E1
 In:  80  2E  00  |  Ch 1 Note Off A#1
 In:  90  24  1C  |  Ch 1 Note On  C1
 In:  80  30  00  |  Ch 1 Note Off C2
 In:  90  25  1B  |  Ch 1 Note On  C#1
 In:  80  2F  00  |  Ch 1 Note Off B1
 In:  80  24  00  |  Ch 1 Note Off C1
 In:  90  2F  28  |  Ch 1 Note On  B1
 In:  80  25  00  |  Ch 1 Note Off C#1
 In:  90  29  28  |  Ch 1 Note On  F1
 In:  90  2E  21  |  Ch 1 Note On  A#1
 In:  90  28  28  |  Ch 1 Note On  E1
 In:  90  30  1C  |  Ch 1 Note On  C2
 In:  90  26  53  |  Ch 1 Note On  D1
 In:  80  30  00  |  Ch 1 Note Off C2
 In:  80  2E  00  |  Ch 1 Note Off A#1
 In:  80  2F  00  |  Ch 1 Note Off B1
 In:  80  28  00  |  Ch 1 Note Off E1
 In:  80  29  00  |  Ch 1 Note Off F1
 In:  80  26  00  |  Ch 1 Note Off D1
 In:  90  28  5E  |  Ch 1 Note On  E1
 In:  90  2C  4F  |  Ch 1 Note On  G#1
 In:  90  2E  27  |  Ch 1 Note On  A#1
 In:  90  2F  1D  |  Ch 1 Note On  B1
 In:  90  2D  18  |  Ch 1 Note On  A1
 In:  80  2E  00  |  Ch 1 Note Off A#1
 In:  80  2C  00  |  Ch 1 Note Off G#1
 In:  80  2D  00  |  Ch 1 Note Off A1
 In:  80  2F  00  |  Ch 1 Note Off B1
 In:  80  28  00  |  Ch 1 Note Off E1
 In:  90  1F  23  |  Ch 1 Note On  G0
 In:  90  21  33  |  Ch 1 Note On  A0
 In:  90  24  5F  |  Ch 1 Note On  C1
 In:  90  2A  6E  |  Ch 1 Note On  F#1
 In:  80  21  00  |  Ch 1 Note Off A0
 In:  90  2B  2F  |  Ch 1 Note On  G1
 In:  90  2D  20  |  Ch 1 Note On  A1
 In:  90  28  1F  |  Ch 1 Note On  E1
 In:  80  1F  00  |  Ch 1 Note Off G0
 In:  90  26  14  |  Ch 1 Note On  D1
 In:  80  26  00  |  Ch 1 Note Off D1
 In:  80  2D  00  |  Ch 1 Note Off A1
 In:  80  28  00  |  Ch 1 Note Off E1
 In:  80  2B  00  |  Ch 1 Note Off G1
 In:  80  2A  00  |  Ch 1 Note Off F#1
 In:  80  24  00  |  Ch 1 Note Off C1
 In:  90  1B  4F  |  Ch 1 Note On  D#0
 In:  90  1C  1D  |  Ch 1 Note On  E0
 In:  90  1A  53  |  Ch 1 Note On  D0
 In:  90  19  09  |  Ch 1 Note On  C#0
 In:  80  1A  00  |  Ch 1 Note Off D0
 In:  80  19  00  |  Ch 1 Note Off C#0
 In:  80  1C  00  |  Ch 1 Note Off E0
 In:  80  1B  00  |  Ch 1 Note Off D#0
 In:  90  21  49  |  Ch 1 Note On  A0
 In:  90  28  4E  |  Ch 1 Note On  E1
 In:  90  25  57  |  Ch 1 Note On  C#1
 In:  90  27  51  |  Ch 1 Note On  D#1
 In:  90  29  28  |  Ch 1 Note On  F1
 In:  90  26  26  |  Ch 1 Note On  D1
 In:  90  19  6D  |  Ch 1 Note On  C#0
 In:  80  29  00  |  Ch 1 Note Off F1
 In:  80  26  00  |  Ch 1 Note Off D1
 In:  80  25  00  |  Ch 1 Note Off C#1
 In:  80  27  00  |  Ch 1 Note Off D#1
 In:  80  28  00  |  Ch 1 Note Off E1
 In:  80  21  00  |  Ch 1 Note Off A0
 In:  90  1B  19  |  Ch 1 Note On  D#0
 In:  90  1F  4E  |  Ch 1 Note On  G0
 In:  80  19  00  |  Ch 1 Note Off C#0
 In:  90  22  30  |  Ch 1 Note On  A#0
 In:  90  26  2D  |  Ch 1 Note On  D1
 In:  90  25  2A  |  Ch 1 Note On  C#1
 In:  80  1B  00  |  Ch 1 Note Off D#0
 In:  90  24  24  |  Ch 1 Note On  C1
 In:  90  1B  73  |  Ch 1 Note On  D#0
 In:  80  26  00  |  Ch 1 Note Off D1
 In:  80  24  00  |  Ch 1 Note Off C1
 In:  80  22  00  |  Ch 1 Note Off A#0
 In:  80  25  00  |  Ch 1 Note Off C#1
 In:  90  19  2F  |  Ch 1 Note On  C#0
 In:  90  1A  2C  |  Ch 1 Note On  D0
 In:  90  1C  2C  |  Ch 1 Note On  E0
 In:  80  1F  00  |  Ch 1 Note Off G0
 In:  80  19  00  |  Ch 1 Note Off C#0
 In:  80  1A  00  |  Ch 1 Note Off D0
 In:  80  1C  00  |  Ch 1 Note Off E0
 In:  80  1B  00  |  Ch 1 Note Off D#0
 In:  90  25  57  |  Ch 1 Note On  C#1
 In:  90  1F  35  |  Ch 1 Note On  G0
 In:  90  21  39  |  Ch 1 Note On  A0
 In:  90  26  1D  |  Ch 1 Note On  D1
 In:  90  23  24  |  Ch 1 Note On  B0
 In:  90  28  1D  |  Ch 1 Note On  E1
 In:  80  28  00  |  Ch 1 Note Off E1
 In:  80  23  00  |  Ch 1 Note Off B0
 In:  80  26  00  |  Ch 1 Note Off D1
 In:  80  25  00  |  Ch 1 Note Off C#1
 In:  80  21  00  |  Ch 1 Note Off A0
 In:  80  1F  00  |  Ch 1 Note Off G0
 In:  90  1C  46  |  Ch 1 Note On  E0
 In:  90  1D  47  |  Ch 1 Note On  F0
 In:  80  1C  00  |  Ch 1 Note Off E0
 In:  80  1D  00  |  Ch 1 Note Off F0
 In:  90  24  28  |  Ch 1 Note On  C1
 In:  90  2A  26  |  Ch 1 Note On  F#1
 In:  90  27  2C  |  Ch 1 Note On  D#1
 In:  90  23  1F  |  Ch 1 Note On  B0
 In:  90  29  16  |  Ch 1 Note On  F1
 In:  80  23  00  |  Ch 1 Note Off B0
 In:  80  27  00  |  Ch 1 Note Off D#1
 In:  80  24  00  |  Ch 1 Note Off C1
 In:  80  29  00  |  Ch 1 Note Off F1
 In:  80  2A  00  |  Ch 1 Note Off F#1
 In:  90  1E  28  |  Ch 1 Note On  F#0
 In:  90  1F  2E  |  Ch 1 Note On  G0
 In:  90  1D  28  |  Ch 1 Note On  F0
 In:  80  1E  00  |  Ch 1 Note Off F#0
 In:  80  1D  00  |  Ch 1 Note Off F0
 In:  90  2E  26  |  Ch 1 Note On  A#1
 In:  90  26  2B  |  Ch 1 Note On  D1
 In:  80  1F  00  |  Ch 1 Note Off G0
 In:  90  2C  21  |  Ch 1 Note On  G#1
 In:  90  2D  15  |  Ch 1 Note On  A1
 In:  80  2D  00  |  Ch 1 Note Off A1
 In:  80  26  00  |  Ch 1 Note Off D1
 In:  80  2C  00  |  Ch 1 Note Off G#1
 In:  80  2E  00  |  Ch 1 Note Off A#1
 In:  90  21  56  |  Ch 1 Note On  A0
 In:  90  1F  36  |  Ch 1 Note On  G0
 In:  90  20  24  |  Ch 1 Note On  G#0
 In:  80  1F  00  |  Ch 1 Note Off G0
 In:  80  20  00  |  Ch 1 Note Off G#0
 In:  80  21  00  |  Ch 1 Note Off A0
 In:  90  2E  5E  |  Ch 1 Note On  A#1
 In:  90  2F  2A  |  Ch 1 Note On  B1
 In:  90  28  44  |  Ch 1 Note On  E1
 In:  90  26  4A  |  Ch 1 Note On  D1
 In:  90  30  37  |  Ch 1 Note On  C2
 In:  80  26  00  |  Ch 1 Note Off D1
 In:  80  28  00  |  Ch 1 Note Off E1
 In:  80  30  00  |  Ch 1 Note Off C2
 In:  80  2F  00  |  Ch 1 Note Off B1
 In:  80  2E  00  |  Ch 1 Note Off A#1
 In:  90  23  27  |  Ch 1 Note On  B0
 In:  90  21  23  |  Ch 1 Note On  A0
 In:  90  20  1F  |  Ch 1 Note On  G#0
 In:  90  24  09  |  Ch 1 Note On  C1
 In:  80  21  00  |  Ch 1 Note Off A0
 In:  80  24  00  |  Ch 1 Note Off C1
 In:  80  20  00  |  Ch 1 Note Off G#0
 In:  80  23  00  |  Ch 1 Note Off B0
 In:  90  28  56  |  Ch 1 Note On  E1
 In:  90  2E  38  |  Ch 1 Note On  A#1
 In:  90  2F  20  |  Ch 1 Note On  B1
 In:  90  2B  1F  |  Ch 1 Note On  G1
 In:  90  30  14  |  Ch 1 Note On  C2
 In:  90  24  66  |  Ch 1 Note On  C1
 In:  90  23  5C  |  Ch 1 Note On  B0
 In:  80  2B  00  |  Ch 1 Note Off G1
 In:  80  30  00  |  Ch 1 Note Off C2
 In:  80  2E  00  |  Ch 1 Note Off A#1
 In:  80  2F  00  |  Ch 1 Note Off B1
 In:  80  28  00  |  Ch 1 Note Off E1
 In:  80  23  00  |  Ch 1 Note Off B0
 In:  80  24  00  |  Ch 1 Note Off C1
 In:  90  2C  6F  |  Ch 1 Note On  G#1
 In:  90  2A  5E  |  Ch 1 Note On  F#1
 In:  90  2D  2F  |  Ch 1 Note On  A1
 In:  90  24  4F  |  Ch 1 Note On  C1
 In:  90  26  49  |  Ch 1 Note On  D1
 In:  90  2F  2B  |  Ch 1 Note On  B1
 In:  90  28  3C  |  Ch 1 Note On  E1
 In:  90  29  28  |  Ch 1 Note On  F1
 In:  90  2E  1B  |  Ch 1 Note On  A#1
 In:  90  2B  1C  |  Ch 1 Note On  G1
 In:  80  2B  00  |  Ch 1 Note Off G1
 In:  80  29  00  |  Ch 1 Note Off F1
 In:  80  2A  00  |  Ch 1 Note Off F#1
 In:  80  28  00  |  Ch 1 Note Off E1
 In:  80  2E  00  |  Ch 1 Note Off A#1
 In:  80  2F  00  |  Ch 1 Note Off B1
 In:  80  2D  00  |  Ch 1 Note Off A1
 In:  80  2C  00  |  Ch 1 Note Off G#1
 In:  80  26  00  |  Ch 1 Note Off D1
 In:  80  24  00  |  Ch 1 Note Off C1
 In:  90  1E  77  |  Ch 1 Note On  F#0
 In:  90  1D  41  |  Ch 1 Note On  F0
 In:  90  1B  28  |  Ch 1 Note On  D#0
 In:  90  1C  1B  |  Ch 1 Note On  E0
 In:  90  1F  08  |  Ch 1 Note On  G0
 In:  80  1B  00  |  Ch 1 Note Off D#0
 In:  80  1F  00  |  Ch 1 Note Off G0
 In:  80  1C  00  |  Ch 1 Note Off E0
 In:  80  1E  00  |  Ch 1 Note Off F#0
 In:  80  1D  00  |  Ch 1 Note Off F0
 In:  90  27  6F  |  Ch 1 Note On  D#1
 In:  90  21  4A  |  Ch 1 Note On  A0
 In:  90  28  55  |  Ch 1 Note On  E1
 In:  90  29  4A  |  Ch 1 Note On  F1
 In:  90  24  24  |  Ch 1 Note On  C1
 In:  90  25  11  |  Ch 1 Note On  C#1
 In:  80  25  00  |  Ch 1 Note Off C#1
 In:  80  24  00  |  Ch 1 Note Off C1
 In:  80  29  00  |  Ch 1 Note Off F1
 In:  80  27  00  |  Ch 1 Note Off D#1
 In:  80  28  00  |  Ch 1 Note Off E1
 In:  90  1B  73  |  Ch 1 Note On  D#0
 In:  80  21  00  |  Ch 1 Note Off A0
 In:  90  1A  3E  |  Ch 1 Note On  D0
 In:  90  1C  3B  |  Ch 1 Note On  E0
 In:  90  19  28  |  Ch 1 Note On  C#0
 In:  80  19  00  |  Ch 1 Note Off C#0
 In:  80  1B  00  |  Ch 1 Note Off D#0
 In:  80  1C  00  |  Ch 1 Note Off E0
 In:  80  1A  00  |  Ch 1 Note Off D0
 In:  90  1F  57  |  Ch 1 Note On  G0
 In:  90  25  79  |  Ch 1 Note On  C#1
 In:  90  26  54  |  Ch 1 Note On  D1
 In:  90  24  25  |  Ch 1 Note On  C1
 In:  90  22  21  |  Ch 1 Note On  A#0
 In:  90  28  19  |  Ch 1 Note On  E1
 In:  90  21  1E  |  Ch 1 Note On  A0
 In:  80  28  00  |  Ch 1 Note Off E1
 In:  80  21  00  |  Ch 1 Note Off A0
 In:  80  22  00  |  Ch 1 Note Off A#0
 In:  80  24  00  |  Ch 1 Note Off C1
 In:  80  26  00  |  Ch 1 Note Off D1
 In:  90  19  63  |  Ch 1 Note On  C#0
 In:  80  25  00  |  Ch 1 Note Off C#1
 In:  90  1A  29  |  Ch 1 Note On  D0
 In:  90  18  25  |  Ch 1 Note On  C0
 In:  80  1F  00  |  Ch 1 Note Off G0
 In:  90  1F  50  |  Ch 1 Note On  G0
 In:  90  25  6D  |  Ch 1 Note On  C#1
 In:  90  26  4F  |  Ch 1 Note On  D1
 In:  80  19  00  |  Ch 1 Note Off C#0
 In:  80  1A  00  |  Ch 1 Note Off D0
 In:  90  24  3F  |  Ch 1 Note On  C1
 In:  90  21  29  |  Ch 1 Note On  A0
 In:  90  22  25  |  Ch 1 Note On  A#0
 In:  90  23  26  |  Ch 1 Note On  B0
 In:  80  22  00  |  Ch 1 Note Off A#0
 In:  80  23  00  |  Ch 1 Note Off B0
 In:  80  21  00  |  Ch 1 Note Off A0
 In:  80  24  00  |  Ch 1 Note Off C1
 In:  80  26  00  |  Ch 1 Note Off D1
 In:  80  25  00  |  Ch 1 Note Off C#1
 In:  80  1F  00  |  Ch 1 Note Off G0
 In:  90  18  1C  |  Ch 1 Note On  C0
 In:  90  19  19  |  Ch 1 Note On  C#0
 In:  90  1A  15  |  Ch 1 Note On  D0
 In:  80  1A  00  |  Ch 1 Note Off D0
 In:  80  19  00  |  Ch 1 Note Off C#0
 In:  80  18  00  |  Ch 1 Note Off C0
 In:  90  22  6E  |  Ch 1 Note On  A#0
 In:  90  1D  4A  |  Ch 1 Note On  F0
 In:  90  1F  4A  |  Ch 1 Note On  G0
 In:  90  26  33  |  Ch 1 Note On  D1
 In:  90  21  26  |  Ch 1 Note On  A0
 In:  90  24  1A  |  Ch 1 Note On  C1
 In:  90  25  10  |  Ch 1 Note On  C#1
 In:  80  25  00  |  Ch 1 Note Off C#1
 In:  80  26  00  |  Ch 1 Note Off D1
 In:  80  24  00  |  Ch 1 Note Off C1
 In:  80  21  00  |  Ch 1 Note Off A0
 In:  80  22  00  |  Ch 1 Note Off A#0
 In:  80  1F  00  |  Ch 1 Note Off G0
 In:  90  18  25  |  Ch 1 Note On  C0
 In:  90  19  26  |  Ch 1 Note On  C#0
 In:  90  1A  14  |  Ch 1 Note On  D0
 In:  80  1A  00  |  Ch 1 Note Off D0
 In:  80  18  00  |  Ch 1 Note Off C0
 In:  80  19  00  |  Ch 1 Note Off C#0
 In:  90  1F  49  |  Ch 1 Note On  G0
 In:  90  22  7F  |  Ch 1 Note On  A#0
 In:  90  25  7F  |  Ch 1 Note On  C#1
 In:  90  19  5F  |  Ch 1 Note On  C#0
 In:  80  22  00  |  Ch 1 Note Off A#0
 In:  80  25  00  |  Ch 1 Note Off C#1
 In:  80  1F  00  |  Ch 1 Note Off G0
 In:  90  18  3D  |  Ch 1 Note On  C0
 In:  90  1A  30  |  Ch 1 Note On  D0
 In:  80  1A  00  |  Ch 1 Note Off D0
 In:  80  19  00  |  Ch 1 Note Off C#0
 In:  80  18  00  |  Ch 1 Note Off C0
 In:  90  27  7B  |  Ch 1 Note On  D#1
 In:  90  28  62  |  Ch 1 Note On  E1
 In:  90  21  31  |  Ch 1 Note On  A0
 In:  90  29  4A  |  Ch 1 Note On  F1
 In:  90  23  42  |  Ch 1 Note On  B0
 In:  90  24  26  |  Ch 1 Note On  C1
 In:  80  24  00  |  Ch 1 Note Off C1
 In:  80  23  00  |  Ch 1 Note Off B0
 In:  80  21  00  |  Ch 1 Note Off A0
 In:  80  29  00  |  Ch 1 Note Off F1
 In:  80  28  00  |  Ch 1 Note Off E1
 In:  80  27  00  |  Ch 1 Note Off D#1
 In:  90  1C  6A  |  Ch 1 Note On  E0
 In:  90  1D  61  |  Ch 1 Note On  F0
 In:  90  1B  73  |  Ch 1 Note On  D#0
 In:  80  1B  00  |  Ch 1 Note Off D#0
 In:  90  2C  7F  |  Ch 1 Note On  G#1
 In:  90  2A  7D  |  Ch 1 Note On  F#1
 In:  80  1C  00  |  Ch 1 Note Off E0
 In:  80  1D  00  |  Ch 1 Note Off F0
 In:  90  24  4D  |  Ch 1 Note On  C1
 In:  90  26  4D  |  Ch 1 Note On  D1
 In:  90  2E  10  |  Ch 1 Note On  A#1
 In:  90  28  19  |  Ch 1 Note On  E1
 In:  90  2D  0D  |  Ch 1 Note On  A1
 In:  80  28  00  |  Ch 1 Note Off E1
 In:  80  2D  00  |  Ch 1 Note Off A1
 In:  80  26  00  |  Ch 1 Note Off D1
 In:  80  24  00  |  Ch 1 Note Off C1
 In:  80  2A  00  |  Ch 1 Note Off F#1
 In:  80  2E  00  |  Ch 1 Note Off A#1
 In:  80  2C  00  |  Ch 1 Note Off G#1
 In:  90  1E  75  |  Ch 1 Note On  F#0
 In:  90  1B  66  |  Ch 1 Note On  D#0
 In:  90  1D  50  |  Ch 1 Note On  F0
 In:  90  1F  48  |  Ch 1 Note On  G0
 In:  90  1C  12  |  Ch 1 Note On  E0
 In:  90  1A  0A  |  Ch 1 Note On  D0
 In:  80  1A  00  |  Ch 1 Note Off D0
 In:  80  1B  00  |  Ch 1 Note Off D#0
 In:  80  1C  00  |  Ch 1 Note Off E0
 In:  80  1E  00  |  Ch 1 Note Off F#0
 In:  80  1F  00  |  Ch 1 Note Off G0
 In:  80  1D  00  |  Ch 1 Note Off F0
 In:  90  2E  7F  |  Ch 1 Note On  A#1
 In:  90  2F  6F  |  Ch 1 Note On  B1
 In:  90  2C  79  |  Ch 1 Note On  G#1
 In:  90  30  6F  |  Ch 1 Note On  C2
 In:  90  28  54  |  Ch 1 Note On  E1
 In:  90  1B  45  |  Ch 1 Note On  D#0
 In:  90  19  4A  |  Ch 1 Note On  C#0
 In:  90  1A  42  |  Ch 1 Note On  D0
 In:  90  18  38  |  Ch 1 Note On  C0
 In:  80  2C  00  |  Ch 1 Note Off G#1
 In:  80  28  00  |  Ch 1 Note Off E1
 In:  80  2F  00  |  Ch 1 Note Off B1
 In:  80  2E  00  |  Ch 1 Note Off A#1
 In:  80  30  00  |  Ch 1 Note Off C2
 In:  80  1B  00  |  Ch 1 Note Off D#0
 In:  80  1A  00  |  Ch 1 Note Off D0
 In:  80  19  00  |  Ch 1 Note Off C#0
 In:  90  2E  75  |  Ch 1 Note On  A#1
 In:  90  28  4D  |  Ch 1 Note On  E1
 In:  80  18  00  |  Ch 1 Note Off C0
 In:  90  2F  19  |  Ch 1 Note On  B1
 In:  90  2B  24  |  Ch 1 Note On  G1
 In:  90  30  12  |  Ch 1 Note On  C2
 In:  90  18  53  |  Ch 1 Note On  C0
 In:  90  1B  75  |  Ch 1 Note On  D#0
 In:  90  19  64  |  Ch 1 Note On  C#0
 In:  80  2B  00  |  Ch 1 Note Off G1
 In:  80  28  00  |  Ch 1 Note Off E1
 In:  80  2E  00  |  Ch 1 Note Off A#1
 In:  80  30  00  |  Ch 1 Note Off C2
 In:  80  2F  00  |  Ch 1 Note Off B1
 In:  80  1B  00  |  Ch 1 Note Off D#0
 In:  80  19  00  |  Ch 1 Note Off C#0
 In:  90  2E  7A  |  Ch 1 Note On  A#1
 In:  90  2C  72  |  Ch 1 Note On  G#1
 In:  90  2F  4A  |  Ch 1 Note On  B1
 In:  80  18  00  |  Ch 1 Note Off C0
 In:  90  30  4F  |  Ch 1 Note On  C2
 In:  90  28  1F  |  Ch 1 Note On  E1
 In:  90  1E  77  |  Ch 1 Note On  F#0
 In:  80  28  00  |  Ch 1 Note Off E1
 In:  90  1C  5D  |  Ch 1 Note On  E0
 In:  90  20  26  |  Ch 1 Note On  G#0
 In:  90  1A  41  |  Ch 1 Note On  D0
 In:  90  18  28  |  Ch 1 Note On  C0
 In:  80  2C  00  |  Ch 1 Note Off G#1
 In:  90  1F  28  |  Ch 1 Note On  G0
 In:  80  30  00  |  Ch 1 Note Off C2
 In:  80  2F  00  |  Ch 1 Note Off B1
 In:  80  2E  00  |  Ch 1 Note Off A#1
 In:  90  1D  11  |  Ch 1 Note On  F0
 In:  80  1D  00  |  Ch 1 Note Off F0
 In:  80  1A  00  |  Ch 1 Note Off D0
 In:  80  18  00  |  Ch 1 Note Off C0
 In:  80  1C  00  |  Ch 1 Note Off E0
 In:  80  1E  00  |  Ch 1 Note Off F#0
 In:  90  2C  7D  |  Ch 1 Note On  G#1
 In:  90  2E  73  |  Ch 1 Note On  A#1
 In:  90  2A  7B  |  Ch 1 Note On  F#1
 In:  80  1F  00  |  Ch 1 Note Off G0
 In:  90  2F  3F  |  Ch 1 Note On  B1
 In:  90  24  5B  |  Ch 1 Note On  C1
 In:  90  2D  2C  |  Ch 1 Note On  A1
 In:  80  20  00  |  Ch 1 Note Off G#0
 In:  90  26  57  |  Ch 1 Note On  D1
 In:  90  28  4F  |  Ch 1 Note On  E1
 In:  90  29  47  |  Ch 1 Note On  F1
 In:  90  2B  22  |  Ch 1 Note On  G1
 In:  80  2B  00  |  Ch 1 Note Off G1
 In:  80  29  00  |  Ch 1 Note Off F1
 In:  80  28  00  |  Ch 1 Note Off E1
 In:  80  2D  00  |  Ch 1 Note Off A1
 In:  80  2F  00  |  Ch 1 Note Off B1
 In:  80  2A  00  |  Ch 1 Note Off F#1
 In:  80  26  00  |  Ch 1 Note Off D1
 In:  90  1F  4B  |  Ch 1 Note On  G0
 In:  90  21  53  |  Ch 1 Note On  A0
 In:  80  2C  00  |  Ch 1 Note Off G#1
 In:  80  2E  00  |  Ch 1 Note Off A#1
 In:  80  24  00  |  Ch 1 Note Off C1
 In:  80  1F  00  |  Ch 1 Note Off G0
 In:  80  21  00  |  Ch 1 Note Off A0
 In:  90  2A  7F  |  Ch 1 Note On  F#1
 In:  90  2C  5F  |  Ch 1 Note On  G#1
 In:  90  2B  52  |  Ch 1 Note On  G1
 In:  90  2D  59  |  Ch 1 Note On  A1
 In:  90  26  50  |  Ch 1 Note On  D1
 In:  90  23  53  |  Ch 1 Note On  B0
 In:  90  28  3C  |  Ch 1 Note On  E1
 In:  90  24  61  |  Ch 1 Note On  C1
 In:  90  29  24  |  Ch 1 Note On  F1
 In:  80  24  00  |  Ch 1 Note Off C1
 In:  80  29  00  |  Ch 1 Note Off F1
 In:  80  28  00  |  Ch 1 Note Off E1
 In:  80  2D  00  |  Ch 1 Note Off A1
 In:  80  26  00  |  Ch 1 Note Off D1
 In:  80  23  00  |  Ch 1 Note Off B0
 In:  80  2B  00  |  Ch 1 Note Off G1
 In:  80  2A  00  |  Ch 1 Note Off F#1
 In:  90  19  1F  |  Ch 1 Note On  C#0
 In:  90  1B  77  |  Ch 1 Note On  D#0
 In:  90  1E  7F  |  Ch 1 Note On  F#0
 In:  80  2C  00  |  Ch 1 Note Off G#1
 In:  90  20  57  |  Ch 1 Note On  G#0
 In:  90  1F  14  |  Ch 1 Note On  G0
 In:  80  1F  00  |  Ch 1 Note Off G0
 In:  80  19  00  |  Ch 1 Note Off C#0
 In:  80  1B  00  |  Ch 1 Note Off D#0
 In:  80  1E  00  |  Ch 1 Note Off F#0
 In:  80  20  00  |  Ch 1 Note Off G#0
 In:  99  27  1D  |  Ch 10 Note On  D#1
 In:  99  28  0D  |  Ch 10 Note On  E1
 In:  A9  27  55  |  Ch 10 Aftertouch D#1
 In:  A9  27  50  |  Ch 10 Aftertouch D#1
 In:  A9  28  39  |  Ch 10 Aftertouch E1
 In:  A9  27  4A  |  Ch 10 Aftertouch D#1
 In:  A9  28  02  |  Ch 10 Aftertouch E1
 In:  A9  27  2A  |  Ch 10 Aftertouch D#1
 In:  89  28  00  |  Ch 10 Note Off E1
 In:  89  27  00  |  Ch 10 Note Off D#1
 In:  E0  00  3F  |  Ch 1 Pitch bend
 In:  E0  00  3E  |  Ch 1 Pitch bend
 In:  E0  00  3D  |  Ch 1 Pitch bend
 In:  E0  00  3C  |  Ch 1 Pitch bend
 In:  E0  00  3B  |  Ch 1 Pitch bend
 In:  E0  00  3A  |  Ch 1 Pitch bend
 In:  E0  00  39  |  Ch 1 Pitch bend
 In:  E0  00  38  |  Ch 1 Pitch bend
 In:  E0  00  37  |  Ch 1 Pitch bend
 In:  E0  00  36  |  Ch 1 Pitch bend
 In:  E0  00  35  |  Ch 1 Pitch bend
 In:  E0  00  34  |  Ch 1 Pitch bend
 In:  E0  00  33  |  Ch 1 Pitch bend
 In:  E0  00  32  |  Ch 1 Pitch bend
 In:  E0  00  31  |  Ch 1 Pitch bend
 In:  E0  00  30  |  Ch 1 Pitch bend
 In:  E0  00  2F  |  Ch 1 Pitch bend
 In:  E0  00  2E  |  Ch 1 Pitch bend
 In:  E0  00  2D  |  Ch 1 Pitch bend
 In:  E0  00  2C  |  Ch 1 Pitch bend
 In:  E0  00  2B  |  Ch 1 Pitch bend
 In:  E0  00  2A  |  Ch 1 Pitch bend
 In:  E0  00  29  |  Ch 1 Pitch bend
 In:  E0  00  28  |  Ch 1 Pitch bend
 In:  E0  00  27  |  Ch 1 Pitch bend
 In:  E0  00  26  |  Ch 1 Pitch bend
 In:  E0  00  25  |  Ch 1 Pitch bend
 In:  B0  01  14  |  Ch 1 CC 1 - Modulation Wheel
 In:  E0  00  24  |  Ch 1 Pitch bend
 In:  B0  01  13  |  Ch 1 CC 1 - Modulation Wheel
 In:  E0  00  23  |  Ch 1 Pitch bend
 In:  B0  01  12  |  Ch 1 CC 1 - Modulation Wheel
 In:  E0  00  22  |  Ch 1 Pitch bend
 In:  B0  01  11  |  Ch 1 CC 1 - Modulation Wheel
 In:  E0  00  21  |  Ch 1 Pitch bend
 In:  B0  01  10  |  Ch 1 CC 1 - Modulation Wheel
 In:  E0  00  20  |  Ch 1 Pitch bend
 In:  B0  01  0F  |  Ch 1 CC 1 - Modulation Wheel
 In:  E0  00  1F  |  Ch 1 Pitch bend
 In:  B0  01  0E  |  Ch 1 CC 1 - Modulation Wheel
 In:  E0  00  1E  |  Ch 1 Pitch bend
 In:  B0  01  0D  |  Ch 1 CC 1 - Modulation Wheel
 In:  E0  00  1D  |  Ch 1 Pitch bend
 In:  B0  01  0C  |  Ch 1 CC 1 - Modulation Wheel
 In:  E0  00  1C  |  Ch 1 Pitch bend
 In:  B0  01  0B  |  Ch 1 CC 1 - Modulation Wheel
 In:  E0  00  1B  |  Ch 1 Pitch bend
 In:  B0  01  0A  |  Ch 1 CC 1 - Modulation Wheel
 In:  E0  00  1A  |  Ch 1 Pitch bend
 In:  B0  01  09  |  Ch 1 CC 1 - Modulation Wheel
 In:  E0  00  19  |  Ch 1 Pitch bend
 In:  B0  01  08  |  Ch 1 CC 1 - Modulation Wheel
 In:  E0  00  18  |  Ch 1 Pitch bend
 In:  B0  01  07  |  Ch 1 CC 1 - Modulation Wheel
 In:  E0  00  17  |  Ch 1 Pitch bend
 In:  B0  01  06  |  Ch 1 CC 1 - Modulation Wheel
 In:  E0  00  16  |  Ch 1 Pitch bend
 In:  E0  00  15  |  Ch 1 Pitch bend
 In:  B0  01  05  |  Ch 1 CC 1 - Modulation Wheel
 In:  E0  00  14  |  Ch 1 Pitch bend
 In:  B0  01  04  |  Ch 1 CC 1 - Modulation Wheel
 In:  E0  00  13  |  Ch 1 Pitch bend
 In:  B0  01  03  |  Ch 1 CC 1 - Modulation Wheel
 In:  E0  00  12  |  Ch 1 Pitch bend
 In:  B0  01  02  |  Ch 1 CC 1 - Modulation Wheel
 In:  E0  00  11  |  Ch 1 Pitch bend
 In:  B0  01  03  |  Ch 1 CC 1 - Modulation Wheel
 In:  E0  00  10  |  Ch 1 Pitch bend
 In:  E0  00  0F  |  Ch 1 Pitch bend
 In:  E0  00  0E  |  Ch 1 Pitch bend
 In:  E0  00  0D  |  Ch 1 Pitch bend
 In:  E0  00  0C  |  Ch 1 Pitch bend
 In:  E0  00  0B  |  Ch 1 Pitch bend
 In:  E0  00  0A  |  Ch 1 Pitch bend
 In:  E0  00  09  |  Ch 1 Pitch bend
 In:  E0  00  08  |  Ch 1 Pitch bend
 In:  E0  00  07  |  Ch 1 Pitch bend
 In:  E0  00  06  |  Ch 1 Pitch bend
 In:  E0  00  05  |  Ch 1 Pitch bend
 In:  E0  00  04  |  Ch 1 Pitch bend
 In:  E0  00  03  |  Ch 1 Pitch bend
 In:  E0  00  02  |  Ch 1 Pitch bend
 In:  E0  00  01  |  Ch 1 Pitch bend
 In:  E0  00  00  |  Ch 1 Pitch bend
 In:  B0  01  02  |  Ch 1 CC 1 - Modulation Wheel
 In:  B0  01  01  |  Ch 1 CC 1 - Modulation Wheel
 In:  E0  00  01  |  Ch 1 Pitch bend
 In:  E0  00  02  |  Ch 1 Pitch bend
 In:  E0  00  03  |  Ch 1 Pitch bend
 In:  E0  00  04  |  Ch 1 Pitch bend
 In:  E0  00  05  |  Ch 1 Pitch bend
 In:  E0  00  06  |  Ch 1 Pitch bend
 In:  E0  00  07  |  Ch 1 Pitch bend
 In:  E0  00  08  |  Ch 1 Pitch bend
 In:  E0  00  09  |  Ch 1 Pitch bend
 In:  E0  00  0A  |  Ch 1 Pitch bend
 In:  E0  00  0B  |  Ch 1 Pitch bend
 In:  E0  00  0C  |  Ch 1 Pitch bend
 In:  E0  00  0D  |  Ch 1 Pitch bend
 In:  E0  00  0E  |  Ch 1 Pitch bend
 In:  E0  00  0F  |  Ch 1 Pitch bend
 In:  E0  00  10  |  Ch 1 Pitch bend
 In:  E0  00  11  |  Ch 1 Pitch bend
 In:  E0  00  12  |  Ch 1 Pitch bend
 In:  E0  00  13  |  Ch 1 Pitch bend
 In:  E0  00  14  |  Ch 1 Pitch bend
 In:  E0  00  15  |  Ch 1 Pitch bend
 In:  E0  00  16  |  Ch 1 Pitch bend
 In:  B0  01  02  |  Ch 1 CC 1 - Modulation Wheel
 In:  E0  00  17  |  Ch 1 Pitch bend
 In:  E0  00  18  |  Ch 1 Pitch bend
 In:  E0  00  19  |  Ch 1 Pitch bend
 In:  E0  00  1A  |  Ch 1 Pitch bend
 In:  E0  00  1B  |  Ch 1 Pitch bend
 In:  E0  00  1C  |  Ch 1 Pitch bend
 In:  E0  00  1D  |  Ch 1 Pitch bend
 In:  E0  00  1E  |  Ch 1 Pitch bend
 In:  E0  00  1F  |  Ch 1 Pitch bend
 In:  E0  00  20  |  Ch 1 Pitch bend
 In:  E0  00  21  |  Ch 1 Pitch bend
 In:  E0  00  22  |  Ch 1 Pitch bend
 In:  E0  00  23  |  Ch 1 Pitch bend
 In:  E0  00  24  |  Ch 1 Pitch bend
 In:  E0  00  25  |  Ch 1 Pitch bend
 In:  E0  00  26  |  Ch 1 Pitch bend
 In:  E0  00  27  |  Ch 1 Pitch bend
 In:  E0  00  28  |  Ch 1 Pitch bend
 In:  E0  00  29  |  Ch 1 Pitch bend
 In:  E0  00  2A  |  Ch 1 Pitch bend
 In:  E0  00  2B  |  Ch 1 Pitch bend
 In:  E0  00  2C  |  Ch 1 Pitch bend
 In:  E0  00  2D  |  Ch 1 Pitch bend
 In:  E0  00  2E  |  Ch 1 Pitch bend
 In:  E0  00  2F  |  Ch 1 Pitch bend
 In:  E0  00  30  |  Ch 1 Pitch bend
 In:  E0  00  31  |  Ch 1 Pitch bend
 In:  E0  00  32  |  Ch 1 Pitch bend
 In:  E0  00  33  |  Ch 1 Pitch bend
 In:  E0  00  34  |  Ch 1 Pitch bend
 In:  E0  00  35  |  Ch 1 Pitch bend
 In:  90  23  49  |  Ch 1 Note On  B0
 In:  E0  00  36  |  Ch 1 Pitch bend
 In:  90  24  57  |  Ch 1 Note On  C1
 In:  E0  00  37  |  Ch 1 Pitch bend
 In:  E0  00  38  |  Ch 1 Pitch bend
 In:  90  2A  7F  |  Ch 1 Note On  F#1
 In:  90  2B  7A  |  Ch 1 Note On  G1
 In:  E0  00  39  |  Ch 1 Pitch bend
 In:  E0  00  3A  |  Ch 1 Pitch bend
 In:  E0  00  3B  |  Ch 1 Pitch bend
 In:  90  28  75  |  Ch 1 Note On  E1
 In:  90  29  79  |  Ch 1 Note On  F1
 In:  E0  00  3C  |  Ch 1 Pitch bend
 In:  90  2C  7F  |  Ch 1 Note On  G#1
 In:  E0  00  3D  |  Ch 1 Pitch bend
 In:  E0  00  3E  |  Ch 1 Pitch bend
 In:  E0  00  3F  |  Ch 1 Pitch bend
 In:  E0  00  40  |  Ch 1 Pitch bend
 In:  80  26  00  |  Ch 1 Note Off D1
 In:  80  28  00  |  Ch 1 Note Off E1
 In:  80  24  00  |  Ch 1 Note Off C1
 In:  80  2D  00  |  Ch 1 Note Off A1
 In:  80  29  00  |  Ch 1 Note Off F1
 In:  80  2C  00  |  Ch 1 Note Off G#1
 In:  80  2B  00  |  Ch 1 Note Off G1
 In:  80  2A  00  |  Ch 1 Note Off F#1
 In:  90  1D  61  |  Ch 1 Note On  F0
 In:  90  1F  23  |  Ch 1 Note On  G0
 In:  90  21  34  |  Ch 1 Note On  A0
 In:  90  1C  12  |  Ch 1 Note On  E0
 In:  80  1C  00  |  Ch 1 Note Off E0
 In:  80  1D  00  |  Ch 1 Note Off F0
 In:  80  1F  00  |  Ch 1 Note Off G0
 In:  80  21  00  |  Ch 1 Note Off A0
 In:  90  24  4F  |  Ch 1 Note On  C1
 In:  90  2A  60  |  Ch 1 Note On  F#1
 In:  90  2B  3F  |  Ch 1 Note On  G1
 In:  90  2D  36  |  Ch 1 Note On  A1
 In:  90  28  48  |  Ch 1 Note On  E1
 In:  90  2C  26  |  Ch 1 Note On  G#1
 In:  90  29  1F  |  Ch 1 Note On  F1
 In:  80  29  00  |  Ch 1 Note Off F1
 In:  80  28  00  |  Ch 1 Note Off E1
 In:  80  2A  00  |  Ch 1 Note Off F#1
 In:  80  2C  00  |  Ch 1 Note Off G#1
 In:  80  2D  00  |  Ch 1 Note Off A1
 In:  80  2B  00  |  Ch 1 Note Off G1
 In:  80  24  00  |  Ch 1 Note Off C1
 In:  90  1C  60  |  Ch 1 Note On  E0
 In:  90  1B  11  |  Ch 1 Note On  D#0
 In:  80  1C  00  |  Ch 1 Note Off E0
 In:  80  1B  00  |  Ch 1 Note Off D#0
 In:  90  2A  6E  |  Ch 1 Note On  F#1
 In:  90  23  42  |  Ch 1 Note On  B0
 In:  90  27  50  |  Ch 1 Note On  D#1
 In:  90  2B  2E  |  Ch 1 Note On  G1
 In:  90  26  3C  |  Ch 1 Note On  D1
 In:  90  29  26  |  Ch 1 Note On  F1
 In:  90  28  28  |  Ch 1 Note On  E1
 In:  B0  01  03  |  Ch 1 CC 1 - Modulation Wheel
 In:  B0  01  04  |  Ch 1 CC 1 - Modulation Wheel
 In:  B0  01  05  |  Ch 1 CC 1 - Modulation Wheel
 In:  B0  01  06  |  Ch 1 CC 1 - Modulation Wheel
 In:  B0  01  07  |  Ch 1 CC 1 - Modulation Wheel
 In:  B0  01  08  |  Ch 1 CC 1 - Modulation Wheel
 In:  B0  01  09  |  Ch 1 CC 1 - Modulation Wheel
 In:  B0  01  0A  |  Ch 1 CC 1 - Modulation Wheel
 In:  B0  01  0B  |  Ch 1 CC 1 - Modulation Wheel
 In:  B0  01  0C  |  Ch 1 CC 1 - Modulation Wheel
 In:  B0  01  0D  |  Ch 1 CC 1 - Modulation Wheel
 In:  B0  01  0E  |  Ch 1 CC 1 - Modulation Wheel
 In:  B0  01  0F  |  Ch 1 CC 1 - Modulation Wheel
 In:  B0  01  10  |  Ch 1 CC 1 - Modulation Wheel
 In:  B0  01  11  |  Ch 1 CC 1 - Modulation Wheel
 In:  B0  01  12  |  Ch 1 CC 1 - Modulation Wheel
 In:  B0  01  13  |  Ch 1 CC 1 - Modulation Wheel
 In:  B0  01  14  |  Ch 1 CC 1 - Modulation Wheel
 In:  B0  01  15  |  Ch 1 CC 1 - Modulation Wheel
 In:  B0  01  16  |  Ch 1 CC 1 - Modulation Wheel
 In:  B0  01  17  |  Ch 1 CC 1 - Modulation Wheel
 In:  B0  01  18  |  Ch 1 CC 1 - Modulation Wheel
 In:  B0  01  19  |  Ch 1 CC 1 - Modulation Wheel
 In:  B0  01  1A  |  Ch 1 CC 1 - Modulation Wheel
 In:  B0  01  1B  |  Ch 1 CC 1 - Modulation Wheel
 In:  B0  01  1C  |  Ch 1 CC 1 - Modulation Wheel
 In:  B0  01  1D  |  Ch 1 CC 1 - Modulation Wheel
 In:  B0  01  1E  |  Ch 1 CC 1 - Modulation Wheel
 In:  B0  01  1F  |  Ch 1 CC 1 - Modulation Wheel
 In:  B0  01  20  |  Ch 1 CC 1 - Modulation Wheel
 In:  B0  01  21  |  Ch 1 CC 1 - Modulation Wheel
 In:  B0  01  22  |  Ch 1 CC 1 - Modulation Wheel
 In:  B0  01  23  |  Ch 1 CC 1 - Modulation Wheel
 In:  B0  01  24  |  Ch 1 CC 1 - Modulation Wheel
 In:  B0  01  25  |  Ch 1 CC 1 - Modulation Wheel
 In:  B0  01  26  |  Ch 1 CC 1 - Modulation Wheel
 In:  B0  01  27  |  Ch 1 CC 1 - Modulation Wheel
 In:  B0  01  28  |  Ch 1 CC 1 - Modulation Wheel
 In:  B0  01  29  |  Ch 1 CC 1 - Modulation Wheel
 In:  B0  01  2A  |  Ch 1 CC 1 - Modulation Wheel
 In:  B0  01  2B  |  Ch 1 CC 1 - Modulation Wheel
 In:  B0  01  2C  |  Ch 1 CC 1 - Modulation Wheel
 In:  B0  01  2D  |  Ch 1 CC 1 - Modulation Wheel
 In:  B0  01  2E  |  Ch 1 CC 1 - Modulation Wheel
 In:  B0  01  2F  |  Ch 1 CC 1 - Modulation Wheel
 In:  B0  01  30  |  Ch 1 CC 1 - Modulation Wheel
 In:  B0  01  2F  |  Ch 1 CC 1 - Modulation Wheel
 In:  B0  01  2E  |  Ch 1 CC 1 - Modulation Wheel
 In:  B0  01  2D  |  Ch 1 CC 1 - Modulation Wheel
 In:  B0  01  2C  |  Ch 1 CC 1 - Modulation Wheel
 In:  B0  01  2B  |  Ch 1 CC 1 - Modulation Wheel
 In:  B0  01  2A  |  Ch 1 CC 1 - Modulation Wheel
 In:  B0  01  29  |  Ch 1 CC 1 - Modulation Wheel
 In:  B0  01  28  |  Ch 1 CC 1 - Modulation Wheel
 In:  B0  01  27  |  Ch 1 CC 1 - Modulation Wheel
 In:  B0  01  26  |  Ch 1 CC 1 - Modulation Wheel
 In:  B0  01  25  |  Ch 1 CC 1 - Modulation Wheel
 In:  B0  01  24  |  Ch 1 CC 1 - Modulation Wheel
 In:  B0  01  23  |  Ch 1 CC 1 - Modulation Wheel
 In:  B0  01  22  |  Ch 1 CC 1 - Modulation Wheel
 In:  B0  01  21  |  Ch 1 CC 1 - Modulation Wheel
 In:  B0  01  20  |  Ch 1 CC 1 - Modulation Wheel
 In:  B0  01  1F  |  Ch 1 CC 1 - Modulation Wheel
 In:  B0  01  1E  |  Ch 1 CC 1 - Modulation Wheel
 In:  B0  01  1D  |  Ch 1 CC 1 - Modulation Wheel
 In:  B0  01  1C  |  Ch 1 CC 1 - Modulation Wheel
 In:  B0  01  1B  |  Ch 1 CC 1 - Modulation Wheel
 In:  B0  01  1A  |  Ch 1 CC 1 - Modulation Wheel
 In:  B0  01  19  |  Ch 1 CC 1 - Modulation Wheel
 In:  B0  01  18  |  Ch 1 CC 1 - Modulation Wheel
 In:  B0  01  17  |  Ch 1 CC 1 - Modulation Wheel
 In:  B0  01  16  |  Ch 1 CC 1 - Modulation Wheel
 In:  B0  01  15  |  Ch 1 CC 1 - Modulation Wheel
 In:  B0  01  14  |  Ch 1 CC 1 - Modulation Wheel
 In:  B0  01  13  |  Ch 1 CC 1 - Modulation Wheel
 In:  B0  01  12  |  Ch 1 CC 1 - Modulation Wheel
 In:  B0  01  11  |  Ch 1 CC 1 - Modulation Wheel
 In:  B0  01  10  |  Ch 1 CC 1 - Modulation Wheel
 In:  B0  01  0F  |  Ch 1 CC 1 - Modulation Wheel
 In:  B0  01  0E  |  Ch 1 CC 1 - Modulation Wheel
 In:  B0  01  0D  |  Ch 1 CC 1 - Modulation Wheel
 In:  B0  01  0C  |  Ch 1 CC 1 - Modulation Wheel
 In:  B0  01  0B  |  Ch 1 CC 1 - Modulation Wheel
 In:  B0  01  0A  |  Ch 1 CC 1 - Modulation Wheel
 In:  B0  01  09  |  Ch 1 CC 1 - Modulation Wheel
 In:  B0  01  08  |  Ch 1 CC 1 - Modulation Wheel
 In:  B0  01  07  |  Ch 1 CC 1 - Modulation Wheel
 In:  B0  01  06  |  Ch 1 CC 1 - Modulation Wheel
 In:  B0  01  05  |  Ch 1 CC 1 - Modulation Wheel
 In:  B0  01  04  |  Ch 1 CC 1 - Modulation Wheel
 In:  B0  01  03  |  Ch 1 CC 1 - Modulation Wheel
 In:  B0  01  04  |  Ch 1 CC 1 - Modulation Wheel
 In:  B0  01  05  |  Ch 1 CC 1 - Modulation Wheel
 In:  B0  01  06  |  Ch 1 CC 1 - Modulation Wheel
 In:  B0  01  07  |  Ch 1 CC 1 - Modulation Wheel
 In:  B0  01  08  |  Ch 1 CC 1 - Modulation Wheel
 In:  B0  01  09  |  Ch 1 CC 1 - Modulation Wheel
 In:  B0  01  0A  |  Ch 1 CC 1 - Modulation Wheel
 In:  B0  01  0B  |  Ch 1 CC 1 - Modulation Wheel
 In:  B0  01  0C  |  Ch 1 CC 1 - Modulation Wheel
 In:  B0  01  0D  |  Ch 1 CC 1 - Modulation Wheel
 In:  B0  01  0E  |  Ch 1 CC 1 - Modulation Wheel
 In:  B0  01  0F  |  Ch 1 CC 1 - Modulation Wheel
 In:  B0  01  10  |  Ch 1 CC 1 - Modulation Wheel
 In:  B0  01  11  |  Ch 1 CC 1 - Modulation Wheel
 In:  B0  01  12  |  Ch 1 CC 1 - Modulation Wheel
 In:  B0  01  13  |  Ch 1 CC 1 - Modulation Wheel
 In:  B0  01  14  |  Ch 1 CC 1 - Modulation Wheel
 In:  B0  01  15  |  Ch 1 CC 1 - Modulation Wheel
 In:  B0  01  16  |  Ch 1 CC 1 - Modulation Wheel
 In:  B0  01  17  |  Ch 1 CC 1 - Modulation Wheel
 In:  B0  01  18  |  Ch 1 CC 1 - Modulation Wheel
 In:  B0  01  19  |  Ch 1 CC 1 - Modulation Wheel
 In:  B0  01  1A  |  Ch 1 CC 1 - Modulation Wheel
 In:  B0  01  1B  |  Ch 1 CC 1 - Modulation Wheel
 In:  B0  01  1C  |  Ch 1 CC 1 - Modulation Wheel
 In:  B0  01  1D  |  Ch 1 CC 1 - Modulation Wheel
 In:  B0  01  1E  |  Ch 1 CC 1 - Modulation Wheel
 In:  B0  01  1F  |  Ch 1 CC 1 - Modulation Wheel
 In:  B0  01  20  |  Ch 1 CC 1 - Modulation Wheel
 In:  B0  01  21  |  Ch 1 CC 1 - Modulation Wheel
 In:  B0  01  22  |  Ch 1 CC 1 - Modulation Wheel
 In:  B0  01  23  |  Ch 1 CC 1 - Modulation Wheel
 In:  B0  01  25  |  Ch 1 CC 1 - Modulation Wheel
 In:  B0  01  26  |  Ch 1 CC 1 - Modulation Wheel
 In:  B0  01  27  |  Ch 1 CC 1 - Modulation Wheel
 In:  B0  01  28  |  Ch 1 CC 1 - Modulation Wheel
 In:  B0  01  29  |  Ch 1 CC 1 - Modulation Wheel
 In:  B0  01  2A  |  Ch 1 CC 1 - Modulation Wheel
 In:  B0  01  2B  |  Ch 1 CC 1 - Modulation Wheel
 In:  B0  01  2C  |  Ch 1 CC 1 - Modulation Wheel
 In:  B0  01  2D  |  Ch 1 CC 1 - Modulation Wheel
 In:  B0  01  2E  |  Ch 1 CC 1 - Modulation Wheel
 In:  B0  01  2F  |  Ch 1 CC 1 - Modulation Wheel
 In:  B0  01  30  |  Ch 1 CC 1 - Modulation Wheel
 In:  B0  01  31  |  Ch 1 CC 1 - Modulation Wheel
 In:  B0  01  32  |  Ch 1 CC 1 - Modulation Wheel
 In:  B0  01  33  |  Ch 1 CC 1 - Modulation Wheel
 In:  B0  01  34  |  Ch 1 CC 1 - Modulation Wheel
 In:  B0  01  35  |  Ch 1 CC 1 - Modulation Wheel
 In:  B0  01  36  |  Ch 1 CC 1 - Modulation Wheel
 In:  B0  01  37  |  Ch 1 CC 1 - Modulation Wheel
 In:  B0  01  38  |  Ch 1 CC 1 - Modulation Wheel
 In:  B0  01  39  |  Ch 1 CC 1 - Modulation Wheel
 In:  B0  01  3A  |  Ch 1 CC 1 - Modulation Wheel
 In:  B0  01  3B  |  Ch 1 CC 1 - Modulation Wheel
 In:  B0  01  3C  |  Ch 1 CC 1 - Modulation Wheel
 In:  B0  01  3D  |  Ch 1 CC 1 - Modulation Wheel
 In:  B0  01  3E  |  Ch 1 CC 1 - Modulation Wheel
 In:  B0  01  3F  |  Ch 1 CC 1 - Modulation Wheel
 In:  B0  01  40  |  Ch 1 CC 1 - Modulation Wheel
 In:  B0  01  41  |  Ch 1 CC 1 - Modulation Wheel
 In:  B0  01  42  |  Ch 1 CC 1 - Modulation Wheel
 In:  B0  01  43  |  Ch 1 CC 1 - Modulation Wheel
 In:  B0  01  44  |  Ch 1 CC 1 - Modulation Wheel
 In:  B0  01  45  |  Ch 1 CC 1 - Modulation Wheel
 In:  B0  01  46  |  Ch 1 CC 1 - Modulation Wheel
 In:  B0  01  48  |  Ch 1 CC 1 - Modulation Wheel
 In:  B0  01  49  |  Ch 1 CC 1 - Modulation Wheel
 In:  B0  01  4A  |  Ch 1 CC 1 - Modulation Wheel
 In:  B0  01  4B  |  Ch 1 CC 1 - Modulation Wheel
 In:  B0  01  4C  |  Ch 1 CC 1 - Modulation Wheel
 In:  B0  01  4D  |  Ch 1 CC 1 - Modulation Wheel
 In:  B0  01  4E  |  Ch 1 CC 1 - Modulation Wheel
 In:  B0  01  4F  |  Ch 1 CC 1 - Modulation Wheel
 In:  B0  01  50  |  Ch 1 CC 1 - Modulation Wheel
 In:  B0  01  51  |  Ch 1 CC 1 - Modulation Wheel
 In:  B0  01  52  |  Ch 1 CC 1 - Modulation Wheel
 In:  B0  01  53  |  Ch 1 CC 1 - Modulation Wheel
 In:  B0  01  54  |  Ch 1 CC 1 - Modulation Wheel
 In:  B0  01  55  |  Ch 1 CC 1 - Modulation Wheel
 In:  B0  01  56  |  Ch 1 CC 1 - Modulation Wheel
 In:  B0  01  57  |  Ch 1 CC 1 - Modulation Wheel
 In:  B0  01  58  |  Ch 1 CC 1 - Modulation Wheel
 In:  B0  01  59  |  Ch 1 CC 1 - Modulation Wheel
 In:  B0  01  5A  |  Ch 1 CC 1 - Modulation Wheel
 In:  E0  00  41  |  Ch 1 Pitch bend
 In:  E0  00  42  |  Ch 1 Pitch bend
 In:  E0  00  43  |  Ch 1 Pitch bend
 In:  E0  00  44  |  Ch 1 Pitch bend
 In:  E0  00  45  |  Ch 1 Pitch bend
 In:  E0  00  46  |  Ch 1 Pitch bend
 In:  E0  00  47  |  Ch 1 Pitch bend
 In:  E0  00  48  |  Ch 1 Pitch bend
 In:  E0  00  49  |  Ch 1 Pitch bend
 In:  E0  00  4A  |  Ch 1 Pitch bend
 In:  E0  00  4B  |  Ch 1 Pitch bend
 In:  E0  00  4C  |  Ch 1 Pitch bend
 In:  E0  00  4D  |  Ch 1 Pitch bend
 In:  E0  00  4E  |  Ch 1 Pitch bend
 In:  E0  00  4F  |  Ch 1 Pitch bend
 In:  E0  00  50  |  Ch 1 Pitch bend
 In:  E0  00  4F  |  Ch 1 Pitch bend
 In:  E0  00  4E  |  Ch 1 Pitch bend
 In:  E0  00  4D  |  Ch 1 Pitch bend
 In:  E0  00  4C  |  Ch 1 Pitch bend
 In:  E0  00  4B  |  Ch 1 Pitch bend
 In:  E0  00  4A  |  Ch 1 Pitch bend
 In:  E0  00  49  |  Ch 1 Pitch bend
 In:  E0  00  48  |  Ch 1 Pitch bend
 In:  E0  00  47  |  Ch 1 Pitch bend
 In:  E0  00  46  |  Ch 1 Pitch bend
 In:  E0  00  45  |  Ch 1 Pitch bend
 In:  E0  00  44  |  Ch 1 Pitch bend
 In:  E0  00  43  |  Ch 1 Pitch bend
 In:  E0  00  42  |  Ch 1 Pitch bend
 In:  E0  00  41  |  Ch 1 Pitch bend
 In:  E0  00  40  |  Ch 1 Pitch bend
 In:  E0  00  3F  |  Ch 1 Pitch bend
 In:  E0  00  3E  |  Ch 1 Pitch bend
 In:  E0  00  3D  |  Ch 1 Pitch bend
 In:  E0  00  3C  |  Ch 1 Pitch bend
 In:  E0  00  3B  |  Ch 1 Pitch bend
 In:  E0  00  3A  |  Ch 1 Pitch bend
 In:  E0  00  39  |  Ch 1 Pitch bend
 In:  E0  00  38  |  Ch 1 Pitch bend
 In:  E0  00  37  |  Ch 1 Pitch bend
 In:  E0  00  36  |  Ch 1 Pitch bend
 In:  E0  00  35  |  Ch 1 Pitch bend
 In:  E0  00  34  |  Ch 1 Pitch bend
 In:  E0  00  33  |  Ch 1 Pitch bend
 In:  E0  00  32  |  Ch 1 Pitch bend
 In:  E0  00  31  |  Ch 1 Pitch bend
 In:  E0  00  30  |  Ch 1 Pitch bend
 In:  E0  00  2F  |  Ch 1 Pitch bend
 In:  E0  00  2E  |  Ch 1 Pitch bend
 In:  E0  00  2D  |  Ch 1 Pitch bend
 In:  E0  00  2C  |  Ch 1 Pitch bend
 In:  E0  00  2B  |  Ch 1 Pitch bend
 In:  E0  00  2A  |  Ch 1 Pitch bend
 In:  E0  00  29  |  Ch 1 Pitch bend
 In:  E0  00  28  |  Ch 1 Pitch bend
 In:  E0  00  27  |  Ch 1 Pitch bend
 In:  E0  00  26  |  Ch 1 Pitch bend
 In:  E0  00  25  |  Ch 1 Pitch bend
 In:  E0  00  24  |  Ch 1 Pitch bend
 In:  E0  00  23  |  Ch 1 Pitch bend
 In:  E0  00  22  |  Ch 1 Pitch bend
 In:  E0  00  21  |  Ch 1 Pitch bend
 In:  E0  00  20  |  Ch 1 Pitch bend
 In:  E0  00  1F  |  Ch 1 Pitch bend
 In:  E0  00  20  |  Ch 1 Pitch bend
 In:  E0  00  21  |  Ch 1 Pitch bend
 In:  E0  00  22  |  Ch 1 Pitch bend
 In:  E0  00  23  |  Ch 1 Pitch bend
 In:  E0  00  24  |  Ch 1 Pitch bend
 In:  E0  00  25  |  Ch 1 Pitch bend
 In:  E0  00  26  |  Ch 1 Pitch bend
 In:  E0  00  27  |  Ch 1 Pitch bend
 In:  E0  00  28  |  Ch 1 Pitch bend
 In:  E0  00  29  |  Ch 1 Pitch bend
 In:  E0  00  2A  |  Ch 1 Pitch bend
 In:  E0  00  2B  |  Ch 1 Pitch bend
 In:  E0  00  2C  |  Ch 1 Pitch bend
 In:  E0  00  2D  |  Ch 1 Pitch bend
 In:  E0  00  2E  |  Ch 1 Pitch bend
 In:  E0  00  2F  |  Ch 1 Pitch bend
 In:  E0  00  30  |  Ch 1 Pitch bend
 In:  E0  00  31  |  Ch 1 Pitch bend
 In:  E0  00  32  |  Ch 1 Pitch bend
 In:  E0  00  33  |  Ch 1 Pitch bend
 In:  E0  00  34  |  Ch 1 Pitch bend
 In:  E0  00  35  |  Ch 1 Pitch bend
 In:  E0  00  36  |  Ch 1 Pitch bend
 In:  E0  00  37  |  Ch 1 Pitch bend
 In:  E0  00  38  |  Ch 1 Pitch bend
 In:  E0  00  39  |  Ch 1 Pitch bend
 In:  E0  00  3A  |  Ch 1 Pitch bend
 In:  E0  00  3B  |  Ch 1 Pitch bend
 In:  E0  00  3C  |  Ch 1 Pitch bend
 In:  E0  00  3D  |  Ch 1 Pitch bend
 In:  E0  00  3E  |  Ch 1 Pitch bend
 In:  E0  00  3F  |  Ch 1 Pitch bend
 In:  E0  00  40  |  Ch 1 Pitch bend
 In:  E0  00  41  |  Ch 1 Pitch bend
 In:  E0  00  42  |  Ch 1 Pitch bend
 In:  E0  00  43  |  Ch 1 Pitch bend
 In:  E0  00  44  |  Ch 1 Pitch bend
 In:  E0  00  45  |  Ch 1 Pitch bend
 In:  E0  00  46  |  Ch 1 Pitch bend
 In:  E0  00  47  |  Ch 1 Pitch bend
 In:  E0  00  48  |  Ch 1 Pitch bend
 In:  E0  00  49  |  Ch 1 Pitch bend
 In:  E0  00  4A  |  Ch 1 Pitch bend
 In:  E0  00  4B  |  Ch 1 Pitch bend
 In:  E0  00  4C  |  Ch 1 Pitch bend
 In:  E0  00  4D  |  Ch 1 Pitch bend
 In:  E0  00  4E  |  Ch 1 Pitch bend
 In:  E0  00  4F  |  Ch 1 Pitch bend
 In:  E0  00  50  |  Ch 1 Pitch bend
 In:  E0  00  51  |  Ch 1 Pitch bend
 In:  E0  00  52  |  Ch 1 Pitch bend
 In:  E0  00  53  |  Ch 1 Pitch bend
 In:  E0  00  54  |  Ch 1 Pitch bend
 In:  E0  00  55  |  Ch 1 Pitch bend
 In:  E0  00  56  |  Ch 1 Pitch bend
 In:  E0  00  57  |  Ch 1 Pitch bend
 In:  E0  00  58  |  Ch 1 Pitch bend
 In:  E0  00  59  |  Ch 1 Pitch bend
 In:  E0  00  5A  |  Ch 1 Pitch bend
 In:  E0  00  5B  |  Ch 1 Pitch bend
 In:  E0  00  5C  |  Ch 1 Pitch bend
 In:  E0  00  5D  |  Ch 1 Pitch bend
 In:  E0  00  5E  |  Ch 1 Pitch bend
 In:  E0  00  5F  |  Ch 1 Pitch bend
 In:  E0  00  60  |  Ch 1 Pitch bend
 In:  E0  00  61  |  Ch 1 Pitch bend
 In:  E0  00  62  |  Ch 1 Pitch bend
 In:  E0  00  63  |  Ch 1 Pitch bend
 In:  E0  00  64  |  Ch 1 Pitch bend
 In:  E0  00  65  |  Ch 1 Pitch bend
 In:  E0  00  66  |  Ch 1 Pitch bend
 In:  E0  00  67  |  Ch 1 Pitch bend
 In:  E0  00  68  |  Ch 1 Pitch bend
 In:  E0  00  69  |  Ch 1 Pitch bend
 In:  E0  00  6A  |  Ch 1 Pitch bend
 In:  E0  00  6B  |  Ch 1 Pitch bend
 In:  E0  00  6C  |  Ch 1 Pitch bend
 In:  E0  00  6D  |  Ch 1 Pitch bend
 In:  E0  00  6E  |  Ch 1 Pitch bend
 In:  E0  00  6F  |  Ch 1 Pitch bend
 In:  E0  00  70  |  Ch 1 Pitch bend
 In:  E0  00  71  |  Ch 1 Pitch bend
 In:  E0  00  72  |  Ch 1 Pitch bend
 In:  E0  00  73  |  Ch 1 Pitch bend
 In:  E0  00  74  |  Ch 1 Pitch bend
 In:  E0  00  75  |  Ch 1 Pitch bend
 In:  E0  00  76  |  Ch 1 Pitch bend
 In:  E0  00  77  |  Ch 1 Pitch bend
 In:  E0  00  78  |  Ch 1 Pitch bend
 In:  E0  00  79  |  Ch 1 Pitch bend
 In:  E0  00  78  |  Ch 1 Pitch bend
 In:  E0  00  79  |  Ch 1 Pitch bend
 In:  E0  00  78  |  Ch 1 Pitch bend
 In:  E0  00  77  |  Ch 1 Pitch bend
 In:  E0  00  76  |  Ch 1 Pitch bend
 In:  E0  00  75  |  Ch 1 Pitch bend
 In:  E0  00  74  |  Ch 1 Pitch bend
 In:  E0  00  73  |  Ch 1 Pitch bend
 In:  E0  00  72  |  Ch 1 Pitch bend
 In:  E0  00  71  |  Ch 1 Pitch bend
 In:  E0  00  70  |  Ch 1 Pitch bend
 In:  E0  00  6F  |  Ch 1 Pitch bend
 In:  E0  00  6E  |  Ch 1 Pitch bend
 In:  E0  00  6D  |  Ch 1 Pitch bend
 In:  E0  00  6C  |  Ch 1 Pitch bend
 In:  E0  00  6B  |  Ch 1 Pitch bend
 In:  E0  00  6A  |  Ch 1 Pitch bend
 In:  E0  00  69  |  Ch 1 Pitch bend
 In:  E0  00  68  |  Ch 1 Pitch bend
 In:  E0  00  67  |  Ch 1 Pitch bend
 In:  E0  00  66  |  Ch 1 Pitch bend
 In:  E0  00  65  |  Ch 1 Pitch bend
 In:  E0  00  64  |  Ch 1 Pitch bend
 In:  E0  00  63  |  Ch 1 Pitch bend
 In:  E0  00  62  |  Ch 1 Pitch bend
 In:  E0  00  61  |  Ch 1 Pitch bend
 In:  E0  00  60  |  Ch 1 Pitch bend
 In:  E0  00  5F  |  Ch 1 Pitch bend
 In:  E0  00  5E  |  Ch 1 Pitch bend
 In:  E0  00  5D  |  Ch 1 Pitch bend
 In:  E0  00  5C  |  Ch 1 Pitch bend
 In:  E0  00  5B  |  Ch 1 Pitch bend
 In:  E0  00  5A  |  Ch 1 Pitch bend
 In:  E0  00  59  |  Ch 1 Pitch bend
 In:  E0  00  58  |  Ch 1 Pitch bend
 In:  E0  00  57  |  Ch 1 Pitch bend
 In:  E0  00  56  |  Ch 1 Pitch bend
 In:  E0  00  55  |  Ch 1 Pitch bend
 In:  E0  00  54  |  Ch 1 Pitch bend
 In:  E0  00  53  |  Ch 1 Pitch bend
 In:  E0  00  52  |  Ch 1 Pitch bend
 In:  E0  00  51  |  Ch 1 Pitch bend
 In:  E0  00  50  |  Ch 1 Pitch bend
 In:  E0  00  4F  |  Ch 1 Pitch bend
 In:  E0  00  4E  |  Ch 1 Pitch bend
 In:  E0  00  4D  |  Ch 1 Pitch bend
 In:  E0  00  4C  |  Ch 1 Pitch bend
 In:  E0  00  4B  |  Ch 1 Pitch bend
 In:  E0  00  4A  |  Ch 1 Pitch bend
 In:  E0  00  49  |  Ch 1 Pitch bend
 In:  E0  00  48  |  Ch 1 Pitch bend
 In:  E0  00  47  |  Ch 1 Pitch bend
 In:  E0  00  46  |  Ch 1 Pitch bend
 In:  E0  00  45  |  Ch 1 Pitch bend
 In:  E0  00  44  |  Ch 1 Pitch bend
 In:  E0  00  43  |  Ch 1 Pitch bend
 In:  E0  00  42  |  Ch 1 Pitch bend
 In:  E0  00  41  |  Ch 1 Pitch bend
 In:  E0  00  40  |  Ch 1 Pitch bend
 In:  80  29  00  |  Ch 1 Note Off F1
 In:  80  27  00  |  Ch 1 Note Off D#1
 In:  80  28  00  |  Ch 1 Note Off E1
 In:  80  26  00  |  Ch 1 Note Off D1
 In:  80  2B  00  |  Ch 1 Note Off G1
 In:  80  2A  00  |  Ch 1 Note Off F#1
 In:  80  23  00  |  Ch 1 Note Off B0
 In:  90  2A  7E  |  Ch 1 Note On  F#1
 In:  90  24  56  |  Ch 1 Note On  C1
 In:  90  2C  6E  |  Ch 1 Note On  G#1
 In:  90  23  4C  |  Ch 1 Note On  B0
 In:  90  2B  5B  |  Ch 1 Note On  G1
 In:  90  2D  5B  |  Ch 1 Note On  A1
 In:  90  26  4C  |  Ch 1 Note On  D1
 In:  90  28  4C  |  Ch 1 Note On  E1
 In:  80  26  00  |  Ch 1 Note Off D1
 In:  80  28  00  |  Ch 1 Note Off E1
 In:  80  2D  00  |  Ch 1 Note Off A1
 In:  80  2B  00  |  Ch 1 Note Off G1
 In:  80  23  00  |  Ch 1 Note Off B0
 In:  80  24  00  |  Ch 1 Note Off C1
 In:  80  2A  00  |  Ch 1 Note Off F#1
 In:  80  2C  00  |  Ch 1 Note Off G#1
 In:  90  1E  7E  |  Ch 1 Note On  F#0
 In:  90  1B  6A  |  Ch 1 Note On  D#0
 In:  80  1B  00  |  Ch 1 Note Off D#0
 In:  80  1E  00  |  Ch 1 Note Off F#0
 In:  90  2C  65  |  Ch 1 Note On  G#1
 In:  90  2A  6B  |  Ch 1 Note On  F#1
 In:  90  24  59  |  Ch 1 Note On  C1
 In:  90  2D  3D  |  Ch 1 Note On  A1
 In:  80  2D  00  |  Ch 1 Note Off A1
 In:  80  2A  00  |  Ch 1 Note Off F#1
 In:  80  24  00  |  Ch 1 Note Off C1
 In:  90  1E  7F  |  Ch 1 Note On  F#0
 In:  90  20  7F  |  Ch 1 Note On  G#0
 In:  80  2C  00  |  Ch 1 Note Off G#1
 In:  80  1E  00  |  Ch 1 Note Off F#0
 In:  90  2C  6F  |  Ch 1 Note On  G#1
 In:  80  20  00  |  Ch 1 Note Off G#0
 In:  90  2A  76  |  Ch 1 Note On  F#1
 In:  90  24  62  |  Ch 1 Note On  C1
 In:  90  2D  33  |  Ch 1 Note On  A1
 In:  80  2D  00  |  Ch 1 Note Off A1
 In:  90  20  7F  |  Ch 1 Note On  G#0
 In:  90  1E  77  |  Ch 1 Note On  F#0
 In:  80  24  00  |  Ch 1 Note Off C1
 In:  80  2A  00  |  Ch 1 Note Off F#1
 In:  80  2C  00  |  Ch 1 Note Off G#1
 In:  90  19  76  |  Ch 1 Note On  C#0
 In:  80  20  00  |  Ch 1 Note Off G#0
 In:  80  1E  00  |  Ch 1 Note Off F#0
 In:  80  19  00  |  Ch 1 Note Off C#0
 In:  90  2A  77  |  Ch 1 Note On  F#1
 In:  90  27  5E  |  Ch 1 Note On  D#1
 In:  90  23  54  |  Ch 1 Note On  B0
 In:  90  26  3D  |  Ch 1 Note On  D1
 In:  80  26  00  |  Ch 1 Note Off D1
 In:  80  27  00  |  Ch 1 Note Off D#1
 In:  90  1B  56  |  Ch 1 Note On  D#0
 In:  80  2A  00  |  Ch 1 Note Off F#1
 In:  80  23  00  |  Ch 1 Note Off B0
 In:  90  1E  57  |  Ch 1 Note On  F#0
 In:  90  19  27  |  Ch 1 Note On  C#0
 In:  90  27  7D  |  Ch 1 Note On  D#1
 In:  90  2A  7D  |  Ch 1 Note On  F#1
 In:  90  23  61  |  Ch 1 Note On  B0
 In:  90  29  51  |  Ch 1 Note On  F1
 In:  90  2B  48  |  Ch 1 Note On  G1
 In:  90  26  47  |  Ch 1 Note On  D1
 In:  80  19  00  |  Ch 1 Note Off C#0
 In:  80  1E  00  |  Ch 1 Note Off F#0
 In:  90  24  3D  |  Ch 1 Note On  C1
 In:  80  1B  00  |  Ch 1 Note Off D#0
 In:  80  24  00  |  Ch 1 Note Off C1
 In:  80  26  00  |  Ch 1 Note Off D1
 In:  80  2B  00  |  Ch 1 Note Off G1
 In:  80  29  00  |  Ch 1 Note Off F1
 In:  80  27  00  |  Ch 1 Note Off D#1
 In:  80  2A  00  |  Ch 1 Note Off F#1
 In:  80  23  00  |  Ch 1 Note Off B0
 In:  90  1B  5C  |  Ch 1 Note On  D#0
 In:  90  1E  47  |  Ch 1 Note On  F#0
 In:  90  19  25  |  Ch 1 Note On  C#0
 In:  90  2C  6F  |  Ch 1 Note On  G#1
 In:  90  2A  6F  |  Ch 1 Note On  F#1
 In:  90  24  47  |  Ch 1 Note On  C1
 In:  90  23  4C  |  Ch 1 Note On  B0
 In:  90  28  3D  |  Ch 1 Note On  E1
 In:  80  1E  00  |  Ch 1 Note Off F#0
 In:  80  1B  00  |  Ch 1 Note Off D#0
 In:  80  19  00  |  Ch 1 Note Off C#0
 In:  90  26  32  |  Ch 1 Note On  D1
 In:  80  26  00  |  Ch 1 Note Off D1
 In:  80  23  00  |  Ch 1 Note Off B0
 In:  80  28  00  |  Ch 1 Note Off E1
 In:  80  24  00  |  Ch 1 Note Off C1
 In:  80  2A  00  |  Ch 1 Note Off F#1
 In:  90  1E  67  |  Ch 1 Note On  F#0
 In:  90  20  67  |  Ch 1 Note On  G#0
 In:  80  2C  00  |  Ch 1 Note Off G#1
 In:  90  1C  53  |  Ch 1 Note On  E0
 In:  90  1F  28  |  Ch 1 Note On  G0
 In:  90  21  3D  |  Ch 1 Note On  A0
 In:  90  2A  7F  |  Ch 1 Note On  F#1
 In:  80  1C  00  |  Ch 1 Note Off E0
 In:  80  20  00  |  Ch 1 Note Off G#0
 In:  80  1F  00  |  Ch 1 Note Off G0
 In:  80  21  00  |  Ch 1 Note Off A0
 In:  90  23  53  |  Ch 1 Note On  B0
 In:  90  26  58  |  Ch 1 Note On  D1
 In:  90  2C  2D  |  Ch 1 Note On  G#1
 In:  90  28  4D  |  Ch 1 Note On  E1
 In:  90  2B  3C  |  Ch 1 Note On  G1
 In:  80  1E  00  |  Ch 1 Note Off F#0
 In:  90  2D  19  |  Ch 1 Note On  A1
 In:  80  2D  00  |  Ch 1 Note Off A1
 In:  80  2C  00  |  Ch 1 Note Off G#1
 In:  80  2B  00  |  Ch 1 Note Off G1
 In:  80  26  00  |  Ch 1 Note Off D1
 In:  80  28  00  |  Ch 1 Note Off E1
 In:  80  23  00  |  Ch 1 Note Off B0
 In:  80  2A  00  |  Ch 1 Note Off F#1
 In:  90  1F  76  |  Ch 1 Note On  G0
 In:  90  21  76  |  Ch 1 Note On  A0
 In:  80  1F  00  |  Ch 1 Note Off G0
 In:  80  21  00  |  Ch 1 Note Off A0
 In:  90  30  27  |  Ch 1 Note On  C2
 In:  90  33  21  |  Ch 1 Note On  D#2
 In:  90  32  2C  |  Ch 1 Note On  D2
 In:  90  35  21  |  Ch 1 Note On  F2
 In:  90  39  22  |  Ch 1 Note On  A2
 In:  90  37  22  |  Ch 1 Note On  G2
 In:  90  38  1D  |  Ch 1 Note On  G#2
 In:  90  34  1F  |  Ch 1 Note On  E2
 In:  80  38  00  |  Ch 1 Note Off G#2
 In:  80  37  00  |  Ch 1 Note Off G2
 In:  80  34  00  |  Ch 1 Note Off E2
 In:  80  35  00  |  Ch 1 Note Off F2
 In:  80  39  00  |  Ch 1 Note Off A2
 In:  80  30  00  |  Ch 1 Note Off C2
 In:  80  32  00  |  Ch 1 Note Off D2
 In:  80  33  00  |  Ch 1 Note Off D#2
 In:  90  37  22  |  Ch 1 Note On  G2
 In:  90  3B  1E  |  Ch 1 Note On  B2
 In:  90  35  24  |  Ch 1 Note On  F2
 In:  90  3F  1F  |  Ch 1 Note On  D#3
 In:  90  41  16  |  Ch 1 Note On  F3
 In:  90  3C  24  |  Ch 1 Note On  C3
 In:  90  40  23  |  Ch 1 Note On  E3
 In:  80  3C  00  |  Ch 1 Note Off C3
 In:  80  40  00  |  Ch 1 Note Off E3
 In:  80  3B  00  |  Ch 1 Note Off B2
 In:  80  3F  00  |  Ch 1 Note Off D#3
 In:  80  35  00  |  Ch 1 Note Off F2
 In:  80  41  00  |  Ch 1 Note Off F3
 In:  80  37  00  |  Ch 1 Note Off G2
 In:  90  46  0A  |  Ch 1 Note On  A#3
 In:  90  44  1A  |  Ch 1 Note On  G#3
 In:  90  3B  39  |  Ch 1 Note On  B2
 In:  90  45  34  |  Ch 1 Note On  A3
 In:  90  47  2C  |  Ch 1 Note On  B3
 In:  90  42  2A  |  Ch 1 Note On  F#3
 In:  90  3E  0C  |  Ch 1 Note On  D3
 In:  80  3E  00  |  Ch 1 Note Off D3
 In:  80  46  00  |  Ch 1 Note Off A#3
 In:  80  47  00  |  Ch 1 Note Off B3
 In:  80  42  00  |  Ch 1 Note Off F#3
 In:  80  45  00  |  Ch 1 Note Off A3
 In:  80  44  00  |  Ch 1 Note Off G#3
 In:  80  3B  00  |  Ch 1 Note Off B2
 In:  90  40  31  |  Ch 1 Note On  E3
 In:  90  39  27  |  Ch 1 Note On  A2
 In:  90  37  28  |  Ch 1 Note On  G2
 In:  90  3B  28  |  Ch 1 Note On  B2
 In:  90  3C  2B  |  Ch 1 Note On  C3
 In:  80  40  00  |  Ch 1 Note Off E3
 In:  80  3C  00  |  Ch 1 Note Off C3
 In:  80  3B  00  |  Ch 1 Note Off B2
 In:  80  3E  00  |  Ch 1 Note Off D3
 In:  80  37  00  |  Ch 1 Note Off G2
 In:  80  39  00  |  Ch 1 Note Off A2
 In:  90  33  26  |  Ch 1 Note On  D#2
 In:  90  38  22  |  Ch 1 Note On  G#2
 In:  90  32  27  |  Ch 1 Note On  D2
 In:  90  36  0A  |  Ch 1 Note On  F#2
 In:  80  32  00  |  Ch 1 Note Off D2
 In:  80  36  00  |  Ch 1 Note Off F#2
 In:  80  38  00  |  Ch 1 Note Off G#2
 In:  80  33  00  |  Ch 1 Note Off D#2
 In:  90  44  29  |  Ch 1 Note On  G#3
 In:  90  42  27  |  Ch 1 Note On  F#3
 In:  90  45  24  |  Ch 1 Note On  A3
 In:  90  3F  28  |  Ch 1 Note On  D#3
 In:  90  3C  55  |  Ch 1 Note On  C3
 In:  90  3B  49  |  Ch 1 Note On  B2
 In:  80  45  00  |  Ch 1 Note Off A3
 In:  80  3F  00  |  Ch 1 Note Off D#3
 In:  80  3B  00  |  Ch 1 Note Off B2
 In:  80  44  00  |  Ch 1 Note Off G#3
 In:  80  42  00  |  Ch 1 Note Off F#3
 In:  80  3C  00  |  Ch 1 Note Off C3
 In:  90  42  2C  |  Ch 1 Note On  F#3
 In:  90  3E  35  |  Ch 1 Note On  D3
 In:  90  43  36  |  Ch 1 Note On  G3
 In:  90  40  2C  |  Ch 1 Note On  E3
 In:  90  47  24  |  Ch 1 Note On  B3
 In:  90  48  24  |  Ch 1 Note On  C4
 In:  90  45  25  |  Ch 1 Note On  A3
 In:  80  40  00  |  Ch 1 Note Off E3
 In:  80  48  00  |  Ch 1 Note Off C4
 In:  80  43  00  |  Ch 1 Note Off G3
 In:  80  42  00  |  Ch 1 Note Off F#3
 In:  80  3E  00  |  Ch 1 Note Off D3
 In:  80  47  00  |  Ch 1 Note Off B3
 In:  80  45  00  |  Ch 1 Note Off A3
 In:  90  44  23  |  Ch 1 Note On  G#3
 In:  90  47  57  |  Ch 1 Note On  B3
 In:  90  45  4E  |  Ch 1 Note On  A3
 In:  90  3C  2D  |  Ch 1 Note On  C3
 In:  90  3B  28  |  Ch 1 Note On  B2
 In:  90  3F  23  |  Ch 1 Note On  D#3
 In:  90  42  10  |  Ch 1 Note On  F#3
 In:  90  40  1F  |  Ch 1 Note On  E3
 In:  80  40  00  |  Ch 1 Note Off E3
 In:  80  3F  00  |  Ch 1 Note Off D#3
 In:  80  42  00  |  Ch 1 Note Off F#3
 In:  80  47  00  |  Ch 1 Note Off B3
 In:  80  45  00  |  Ch 1 Note Off A3
 In:  80  44  00  |  Ch 1 Note Off G#3
 In:  80  3C  00  |  Ch 1 Note Off C3
 In:  90  3F  26  |  Ch 1 Note On  D#3
 In:  90  35  33  |  Ch 1 Note On  F2
 In:  90  37  34  |  Ch 1 Note On  G2
 In:  90  41  40  |  Ch 1 Note On  F3
 In:  90  3A  28  |  Ch 1 Note On  A#2
 In:  90  3D  25  |  Ch 1 Note On  C#3
 In:  90  40  1D  |  Ch 1 Note On  E3
 In:  90  39  21  |  Ch 1 Note On  A2
 In:  80  40  00  |  Ch 1 Note Off E3
 In:  80  39  00  |  Ch 1 Note Off A2
 In:  80  41  00  |  Ch 1 Note Off F3
 In:  80  3D  00  |  Ch 1 Note Off C#3
 In:  80  3F  00  |  Ch 1 Note Off D#3
 In:  80  3A  00  |  Ch 1 Note Off A#2
 In:  80  37  00  |  Ch 1 Note Off G2
 In:  80  35  00  |  Ch 1 Note Off F2
 In:  90  33  23  |  Ch 1 Note On  D#2
 In:  90  3A  26  |  Ch 1 Note On  A#2
 In:  90  38  20  |  Ch 1 Note On  G#2
 In:  90  3C  23  |  Ch 1 Note On  C3
 In:  90  3E  21  |  Ch 1 Note On  D3
 In:  90  34  13  |  Ch 1 Note On  E2
 In:  80  3E  00  |  Ch 1 Note Off D3
 In:  80  3C  00  |  Ch 1 Note Off C3
 In:  80  34  00  |  Ch 1 Note Off E2
 In:  80  38  00  |  Ch 1 Note Off G#2
 In:  80  33  00  |  Ch 1 Note Off D#2
 In:  80  3A  00  |  Ch 1 Note Off A#2
 In:  90  31  27  |  Ch 1 Note On  C#2
 In:  90  30  25  |  Ch 1 Note On  C2
 In:  90  32  27  |  Ch 1 Note On  D2
 In:  90  34  21  |  Ch 1 Note On  E2
 In:  90  37  1E  |  Ch 1 Note On  G2
 In:  90  3B  1C  |  Ch 1 Note On  B2
 In:  90  35  1A  |  Ch 1 Note On  F2
 In:  90  39  18  |  Ch 1 Note On  A2
 In:  80  39  00  |  Ch 1 Note Off A2
 In:  80  3B  00  |  Ch 1 Note Off B2
 In:  80  35  00  |  Ch 1 Note Off F2
 In:  80  31  00  |  Ch 1 Note Off C#2
 In:  80  34  00  |  Ch 1 Note Off E2
 In:  80  37  00  |  Ch 1 Note Off G2
 In:  80  30  00  |  Ch 1 Note Off C2
 In:  80  32  00  |  Ch 1 Note Off D2
 In:  90  38  24  |  Ch 1 Note On  G#2
 In:  90  3F  28  |  Ch 1 Note On  D#3
 In:  90  37  1F  |  Ch 1 Note On  G2
 In:  90  40  22  |  Ch 1 Note On  E3
 In:  90  3C  21  |  Ch 1 Note On  C3
 In:  90  39  0F  |  Ch 1 Note On  A2
 In:  90  3B  16  |  Ch 1 Note On  B2
 In:  80  3F  00  |  Ch 1 Note Off D#3
 In:  80  3C  00  |  Ch 1 Note Off C3
 In:  80  40  00  |  Ch 1 Note Off E3
 In:  80  39  00  |  Ch 1 Note Off A2
 In:  80  3B  00  |  Ch 1 Note Off B2
 In:  80  37  00  |  Ch 1 Note Off G2
 In:  80  38  00  |  Ch 1 Note Off G#2
 In:  90  3C  2A  |  Ch 1 Note On  C3
 In:  90  42  46  |  Ch 1 Note On  F#3
 In:  90  46  26  |  Ch 1 Note On  A#3
 In:  90  47  27  |  Ch 1 Note On  B3
 In:  90  48  43  |  Ch 1 Note On  C4
 In:  90  40  31  |  Ch 1 Note On  E3
 In:  90  43  27  |  Ch 1 Note On  G3
 In:  80  46  00  |  Ch 1 Note Off A#3
 In:  80  48  00  |  Ch 1 Note Off C4
 In:  80  43  00  |  Ch 1 Note Off G3
 In:  80  42  00  |  Ch 1 Note Off F#3
 In:  80  45  00  |  Ch 1 Note Off A3
 In:  80  40  00  |  Ch 1 Note Off E3
 In:  80  47  00  |  Ch 1 Note Off B3
 In:  80  3C  00  |  Ch 1 Note Off C3
 In:  90  45  24  |  Ch 1 Note On  A3
 In:  90  47  26  |  Ch 1 Note On  B3
 In:  90  3E  1A  |  Ch 1 Note On  D3
 In:  90  43  24  |  Ch 1 Note On  G3
 In:  90  48  49  |  Ch 1 Note On  C4
 In:  90  40  24  |  Ch 1 Note On  E3
 In:  80  40  00  |  Ch 1 Note Off E3
 In:  80  3E  00  |  Ch 1 Note Off D3
 In:  80  48  00  |  Ch 1 Note Off C4
 In:  80  43  00  |  Ch 1 Note Off G3
 In:  80  47  00  |  Ch 1 Note Off B3
 In:  80  45  00  |  Ch 1 Note Off A3
 In:  90  37  26  |  Ch 1 Note On  G2
 In:  90  3F  26  |  Ch 1 Note On  D#3
 In:  90  3C  34  |  Ch 1 Note On  C3
 In:  90  40  16  |  Ch 1 Note On  E3
 In:  90  43  28  |  Ch 1 Note On  G3
 In:  90  41  2E  |  Ch 1 Note On  F3
 In:  90  3B  1C  |  Ch 1 Note On  B2
 In:  80  41  00  |  Ch 1 Note Off F3
 In:  80  43  00  |  Ch 1 Note Off G3
 In:  80  3B  00  |  Ch 1 Note Off B2
 In:  80  40  00  |  Ch 1 Note Off E3
 In:  80  3C  00  |  Ch 1 Note Off C3
 In:  80  3F  00  |  Ch 1 Note Off D#3
 In:  80  37  00  |  Ch 1 Note Off G2
 In:  90  36  2D  |  Ch 1 Note On  F#2
 In:  90  38  1E  |  Ch 1 Note On  G#2
 In:  90  3A  24  |  Ch 1 Note On  A#2
 In:  80  3A  00  |  Ch 1 Note Off A#2
 In:  80  38  00  |  Ch 1 Note Off G#2
 In:  80  36  00  |  Ch 1 Note Off F#2
 In:  90  31  37  |  Ch 1 Note On  C#2
 In:  90  33  28  |  Ch 1 Note On  D#2
 In:  80  33  00  |  Ch 1 Note Off D#2
 In:  80  31  00  |  Ch 1 Note Off C#2
 In:  90  38  4C  |  Ch 1 Note On  G#2
 In:  90  3A  4D  |  Ch 1 Note On  A#2
 In:  80  38  00  |  Ch 1 Note Off G#2
 In:  80  3A  00  |  Ch 1 Note Off A#2
 In:  90  3F  41  |  Ch 1 Note On  D#3
 In:  90  42  24  |  Ch 1 Note On  F#3
 In:  90  40  1E  |  Ch 1 Note On  E3
 In:  90  43  1D  |  Ch 1 Note On  G3
 In:  80  43  00  |  Ch 1 Note Off G3
 In:  80  40  00  |  Ch 1 Note Off E3
 In:  80  42  00  |  Ch 1 Note Off F#3
 In:  80  3F  00  |  Ch 1 Note Off D#3
 In:  90  46  25  |  Ch 1 Note On  A#3
 In:  90  44  28  |  Ch 1 Note On  G#3
 In:  90  3E  2C  |  Ch 1 Note On  D3
 In:  90  3D  2B  |  Ch 1 Note On  C#3
 In:  90  47  17  |  Ch 1 Note On  B3
 In:  90  48  16  |  Ch 1 Note On  C4
 In:  90  41  22  |  Ch 1 Note On  F3
 In:  90  43  20  |  Ch 1 Note On  G3
 In:  80  3D  00  |  Ch 1 Note Off C#3
 In:  80  43  00  |  Ch 1 Note Off G3
 In:  80  41  00  |  Ch 1 Note Off F3
 In:  80  3E  00  |  Ch 1 Note Off D3
 In:  80  48  00  |  Ch 1 Note Off C4
 In:  80  44  00  |  Ch 1 Note Off G#3
 In:  80  47  00  |  Ch 1 Note Off B3
 In:  80  46  00  |  Ch 1 Note Off A#3
 In:  90  42  35  |  Ch 1 Note On  F#3
 In:  90  3F  34  |  Ch 1 Note On  D#3
 In:  90  44  36  |  Ch 1 Note On  G#3
 In:  90  39  28  |  Ch 1 Note On  A2
 In:  90  41  25  |  Ch 1 Note On  F3
 In:  90  43  26  |  Ch 1 Note On  G3
 In:  90  3C  28  |  Ch 1 Note On  C3
 In:  90  3E  21  |  Ch 1 Note On  D3
 In:  80  3E  00  |  Ch 1 Note Off D3
 In:  80  44  00  |  Ch 1 Note Off G#3
 In:  80  43  00  |  Ch 1 Note Off G3
 In:  80  3C  00  |  Ch 1 Note Off C3
 In:  80  41  00  |  Ch 1 Note Off F3
 In:  80  42  00  |  Ch 1 Note Off F#3
 In:  80  3F  00  |  Ch 1 Note Off D#3
 In:  80  39  00  |  Ch 1 Note Off A2
 In:  90  3C  19  |  Ch 1 Note On  C3
 In:  90  38  22  |  Ch 1 Note On  G#2
 In:  90  3A  27  |  Ch 1 Note On  A#2
 In:  90  3B  28  |  Ch 1 Note On  B2
 In:  90  37  19  |  Ch 1 Note On  G2
 In:  90  39  10  |  Ch 1 Note On  A2
 In:  80  39  00  |  Ch 1 Note Off A2
 In:  80  37  00  |  Ch 1 Note Off G2
 In:  80  3B  00  |  Ch 1 Note Off B2
 In:  80  3A  00  |  Ch 1 Note Off A#2
 In:  80  38  00  |  Ch 1 Note Off G#2
 In:  80  3C  00  |  Ch 1 Note Off C3
 In:  90  33  2B  |  Ch 1 Note On  D#2
 In:  90  37  23  |  Ch 1 Note On  G2
 In:  90  34  28  |  Ch 1 Note On  E2
 In:  90  36  34  |  Ch 1 Note On  F#2
 In:  90  39  26  |  Ch 1 Note On  A2
 In:  90  35  26  |  Ch 1 Note On  F2
 In:  90  32  34  |  Ch 1 Note On  D2
 In:  80  36  00  |  Ch 1 Note Off F#2
 In:  80  39  00  |  Ch 1 Note Off A2
 In:  80  32  00  |  Ch 1 Note Off D2
 In:  80  35  00  |  Ch 1 Note Off F2
 In:  80  37  00  |  Ch 1 Note Off G2
 In:  80  33  00  |  Ch 1 Note Off D#2
 In:  80  34  00  |  Ch 1 Note Off E2
 In:  90  31  18  |  Ch 1 Note On  C#2
 In:  90  30  1F  |  Ch 1 Note On  C2
 In:  90  33  24  |  Ch 1 Note On  D#2
 In:  90  35  0D  |  Ch 1 Note On  F2
 In:  90  32  23  |  Ch 1 Note On  D2
 In:  90  34  23  |  Ch 1 Note On  E2
 In:  80  33  00  |  Ch 1 Note Off D#2
 In:  80  34  00  |  Ch 1 Note Off E2
 In:  80  32  00  |  Ch 1 Note Off D2
 In:  80  35  00  |  Ch 1 Note Off F2
 In:  80  30  00  |  Ch 1 Note Off C2
 In:  80  31  00  |  Ch 1 Note Off C#2
 In:  90  3A  27  |  Ch 1 Note On  A#2
 In:  90  38  27  |  Ch 1 Note On  G#2
 In:  90  35  3C  |  Ch 1 Note On  F2
 In:  90  3E  27  |  Ch 1 Note On  D3
 In:  90  3C  27  |  Ch 1 Note On  C3
 In:  90  37  27  |  Ch 1 Note On  G2
 In:  90  39  27  |  Ch 1 Note On  A2
 In:  90  3B  26  |  Ch 1 Note On  B2
 In:  80  37  00  |  Ch 1 Note Off G2
 In:  80  39  00  |  Ch 1 Note Off A2
 In:  80  3B  00  |  Ch 1 Note Off B2
 In:  80  3C  00  |  Ch 1 Note Off C3
 In:  80  3A  00  |  Ch 1 Note Off A#2
 In:  80  3E  00  |  Ch 1 Note Off D3
 In:  80  35  00  |  Ch 1 Note Off F2
 In:  90  44  2A  |  Ch 1 Note On  G#3
 In:  90  46  3F  |  Ch 1 Note On  A#3
 In:  90  3E  25  |  Ch 1 Note On  D3
 In:  90  3B  26  |  Ch 1 Note On  B2
 In:  90  45  20  |  Ch 1 Note On  A3
 In:  90  42  26  |  Ch 1 Note On  F#3
 In:  90  40  23  |  Ch 1 Note On  E3
 In:  90  3C  26  |  Ch 1 Note On  C3
 In:  90  43  1E  |  Ch 1 Note On  G3
 In:  80  3C  00  |  Ch 1 Note Off C3
 In:  80  42  00  |  Ch 1 Note Off F#3
 In:  80  40  00  |  Ch 1 Note Off E3
 In:  80  46  00  |  Ch 1 Note Off A#3
 In:  80  43  00  |  Ch 1 Note Off G3
 In:  80  45  00  |  Ch 1 Note Off A3
 In:  80  3E  00  |  Ch 1 Note Off D3
 In:  80  44  00  |  Ch 1 Note Off G#3
 In:  80  3B  00  |  Ch 1 Note Off B2
 In:  90  48  32  |  Ch 1 Note On  C4
 In:  90  46  21  |  Ch 1 Note On  A#3
 In:  90  47  23  |  Ch 1 Note On  B3
 In:  90  45  1B  |  Ch 1 Note On  A3
 In:  90  41  20  |  Ch 1 Note On  F3
 In:  90  40  24  |  Ch 1 Note On  E3
 In:  90  3E  2F  |  Ch 1 Note On  D3
 In:  90  3C  36  |  Ch 1 Note On  C3
 In:  90  44  1B  |  Ch 1 Note On  G#3
 In:  90  3D  46  |  Ch 1 Note On  C#3
 In:  90  43  1A  |  Ch 1 Note On  G3
 In:  80  3D  00  |  Ch 1 Note Off C#3
 In:  80  43  00  |  Ch 1 Note Off G3
 In:  80  44  00  |  Ch 1 Note Off G#3
 In:  80  3C  00  |  Ch 1 Note Off C3
 In:  80  40  00  |  Ch 1 Note Off E3
 In:  80  3E  00  |  Ch 1 Note Off D3
 In:  80  41  00  |  Ch 1 Note Off F3
 In:  80  45  00  |  Ch 1 Note Off A3
 In:  80  46  00  |  Ch 1 Note Off A#3
 In:  80  48  00  |  Ch 1 Note Off C4
 In:  80  47  00  |  Ch 1 Note Off B3
 In:  90  42  23  |  Ch 1 Note On  F#3
 In:  90  44  3A  |  Ch 1 Note On  G#3
 In:  90  39  21  |  Ch 1 Note On  A2
 In:  90  3C  36  |  Ch 1 Note On  C3
 In:  90  3E  2D  |  Ch 1 Note On  D3
 In:  90  43  20  |  Ch 1 Note On  G3
 In:  90  3F  30  |  Ch 1 Note On  D#3
 In:  90  40  1D  |  Ch 1 Note On  E3
 In:  90  41  15  |  Ch 1 Note On  F3
 In:  80  40  00  |  Ch 1 Note Off E3
 In:  80  3F  00  |  Ch 1 Note Off D#3
 In:  80  43  00  |  Ch 1 Note Off G3
 In:  80  41  00  |  Ch 1 Note Off F3
 In:  80  3E  00  |  Ch 1 Note Off D3
 In:  80  3C  00  |  Ch 1 Note Off C3
 In:  80  42  00  |  Ch 1 Note Off F#3
 In:  80  39  00  |  Ch 1 Note Off A2
 In:  90  3D  23  |  Ch 1 Note On  C#3
 In:  90  34  29  |  Ch 1 Note On  E2
 In:  90  35  27  |  Ch 1 Note On  F2
 In:  90  3F  25  |  Ch 1 Note On  D#3
 In:  90  39  21  |  Ch 1 Note On  A2
 In:  90  3E  1D  |  Ch 1 Note On  D3
 In:  90  3A  22  |  Ch 1 Note On  A#2
 In:  90  37  16  |  Ch 1 Note On  G2
 In:  80  37  00  |  Ch 1 Note Off G2
 In:  80  3A  00  |  Ch 1 Note Off A#2
 In:  80  3E  00  |  Ch 1 Note Off D3
 In:  80  39  00  |  Ch 1 Note Off A2
 In:  80  3F  00  |  Ch 1 Note Off D#3
 In:  80  3D  00  |  Ch 1 Note Off C#3
 In:  80  35  00  |  Ch 1 Note Off F2
 In:  80  34  00  |  Ch 1 Note Off E2
 In:  90  30  41  |  Ch 1 Note On  C2
 In:  90  36  21  |  Ch 1 Note On  F#2
 In:  90  38  24  |  Ch 1 Note On  G#2
 In:  90  39  24  |  Ch 1 Note On  A2
 In:  90  37  26  |  Ch 1 Note On  G2
 In:  90  34  20  |  Ch 1 Note On  E2
 In:  80  34  00  |  Ch 1 Note Off E2
 In:  80  37  00  |  Ch 1 Note Off G2
 In:  80  30  00  |  Ch 1 Note Off C2
 In:  80  38  00  |  Ch 1 Note Off G#2
 In:  80  39  00  |  Ch 1 Note Off A2
 In:  80  36  00  |  Ch 1 Note Off F#2
 In:  90  31  26  |  Ch 1 Note On  C#2
 In:  90  33  3C  |  Ch 1 Note On  D#2
 In:  90  32  2E  |  Ch 1 Note On  D2
 In:  90  34  30  |  Ch 1 Note On  E2
 In:  90  37  2A  |  Ch 1 Note On  G2
 In:  90  30  18  |  Ch 1 Note On  C2
 In:  90  35  12  |  Ch 1 Note On  F2
 In:  80  30  00  |  Ch 1 Note Off C2
 In:  80  35  00  |  Ch 1 Note Off F2
 In:  80  37  00  |  Ch 1 Note Off G2
 In:  80  34  00  |  Ch 1 Note Off E2
 In:  80  33  00  |  Ch 1 Note Off D#2
 In:  80  32  00  |  Ch 1 Note Off D2
 In:  80  31  00  |  Ch 1 Note Off C#2
 In:  90  36  33  |  Ch 1 Note On  F#2
 In:  90  35  24  |  Ch 1 Note On  F2
 In:  90  38  25  |  Ch 1 Note On  G#2
 In:  90  3B  20  |  Ch 1 Note On  B2
 In:  90  37  21  |  Ch 1 Note On  G2
 In:  90  39  10  |  Ch 1 Note On  A2
 In:  80  39  00  |  Ch 1 Note Off A2
 In:  80  3B  00  |  Ch 1 Note Off B2
 In:  80  37  00  |  Ch 1 Note Off G2
 In:  80  38  00  |  Ch 1 Note Off G#2
 In:  80  35  00  |  Ch 1 Note Off F2
 In:  80  36  00  |  Ch 1 Note Off F#2
 In:  90  3A  38  |  Ch 1 Note On  A#2
 In:  90  3E  28  |  Ch 1 Note On  D3
 In:  90  39  26  |  Ch 1 Note On  A2
 In:  90  3D  4D  |  Ch 1 Note On  C#3
 In:  90  3C  30  |  Ch 1 Note On  C3
 In:  80  3D  00  |  Ch 1 Note Off C#3
 In:  80  3A  00  |  Ch 1 Note Off A#2
 In:  80  3B  00  |  Ch 1 Note Off B2
 In:  80  39  00  |  Ch 1 Note Off A2
 In:  80  3E  00  |  Ch 1 Note Off D3
 In:  90  3F  4D  |  Ch 1 Note On  D#3
 In:  90  3D  38  |  Ch 1 Note On  C#3
 In:  90  41  33  |  Ch 1 Note On  F3
 In:  90  3C  2A  |  Ch 1 Note On  C3
 In:  90  40  27  |  Ch 1 Note On  E3
 In:  90  3E  24  |  Ch 1 Note On  D3
 In:  80  3D  00  |  Ch 1 Note Off C#3
 In:  80  3E  00  |  Ch 1 Note Off D3
 In:  80  3F  00  |  Ch 1 Note Off D#3
 In:  80  40  00  |  Ch 1 Note Off E3
 In:  80  3C  00  |  Ch 1 Note Off C3
 In:  80  41  00  |  Ch 1 Note Off F3
 In:  90  42  55  |  Ch 1 Note On  F#3
 In:  90  40  27  |  Ch 1 Note On  E3
 In:  90  43  30  |  Ch 1 Note On  G3
 In:  90  45  33  |  Ch 1 Note On  A3
 In:  90  41  2D  |  Ch 1 Note On  F3
 In:  90  3E  28  |  Ch 1 Note On  D3
 In:  80  3E  00  |  Ch 1 Note Off D3
 In:  80  42  00  |  Ch 1 Note Off F#3
 In:  80  41  00  |  Ch 1 Note Off F3
 In:  80  45  00  |  Ch 1 Note Off A3
 In:  80  40  00  |  Ch 1 Note Off E3
 In:  80  43  00  |  Ch 1 Note Off G3
 In:  90  46  39  |  Ch 1 Note On  A#3
 In:  90  44  36  |  Ch 1 Note On  G#3
 In:  90  41  23  |  Ch 1 Note On  F3
 In:  90  47  19  |  Ch 1 Note On  B3
 In:  90  45  24  |  Ch 1 Note On  A3
 In:  90  43  20  |  Ch 1 Note On  G3
 In:  80  43  00  |  Ch 1 Note Off G3
 In:  80  45  00  |  Ch 1 Note Off A3
 In:  80  44  00  |  Ch 1 Note Off G#3
 In:  80  46  00  |  Ch 1 Note Off A#3
 In:  80  47  00  |  Ch 1 Note Off B3
 In:  80  41  00  |  Ch 1 Note Off F3
 In:  90  46  1D  |  Ch 1 Note On  A#3
 In:  90  48  17  |  Ch 1 Note On  C4
 In:  90  47  19  |  Ch 1 Note On  B3
 In:  90  43  21  |  Ch 1 Note On  G3
 In:  90  45  20  |  Ch 1 Note On  A3
 In:  80  45  00  |  Ch 1 Note Off A3
 In:  80  43  00  |  Ch 1 Note Off G3
 In:  80  46  00  |  Ch 1 Note Off A#3
 In:  80  47  00  |  Ch 1 Note Off B3
 In:  80  48  00  |  Ch 1 Note Off C4
 In:  90  48  39  |  Ch 1 Note On  C4
 In:  90  47  2F  |  Ch 1 Note On  B3
 In:  90  46  33  |  Ch 1 Note On  A#3
 In:  90  44  28  |  Ch 1 Note On  G#3
 In:  90  43  23  |  Ch 1 Note On  G3
 In:  90  45  12  |  Ch 1 Note On  A3
 In:  80  43  00  |  Ch 1 Note Off G3
 In:  80  45  00  |  Ch 1 Note Off A3
 In:  80  44  00  |  Ch 1 Note Off G#3
 In:  80  46  00  |  Ch 1 Note Off A#3
 In:  80  47  00  |  Ch 1 Note Off B3
 In:  80  48  00  |  Ch 1 Note Off C4
 In:  90  45  25  |  Ch 1 Note On  A3
 In:  90  44  27  |  Ch 1 Note On  G#3
 In:  90  42  2B  |  Ch 1 Note On  F#3
 In:  90  43  19  |  Ch 1 Note On  G3
 In:  80  42  00  |  Ch 1 Note Off F#3
 In:  80  43  00  |  Ch 1 Note Off G3
 In:  80  44  00  |  Ch 1 Note Off G#3
 In:  80  45  00  |  Ch 1 Note Off A3
 In:  90  3F  28  |  Ch 1 Note On  D#3
 In:  90  41  29  |  Ch 1 Note On  F3
 In:  90  40  24  |  Ch 1 Note On  E3
 In:  90  3C  1A  |  Ch 1 Note On  C3
 In:  90  3E  0A  |  Ch 1 Note On  D3
 In:  80  3C  00  |  Ch 1 Note Off C3
 In:  80  3E  00  |  Ch 1 Note Off D3
 In:  80  40  00  |  Ch 1 Note Off E3
 In:  80  3F  00  |  Ch 1 Note Off D#3
 In:  80  41  00  |  Ch 1 Note Off F3
 In:  90  3D  4A  |  Ch 1 Note On  C#3
 In:  90  3E  25  |  Ch 1 Note On  D3
 In:  90  40  1D  |  Ch 1 Note On  E3
 In:  90  3F  20  |  Ch 1 Note On  D#3
 In:  90  39  24  |  Ch 1 Note On  A2
 In:  90  3C  1D  |  Ch 1 Note On  C3
 In:  90  3B  22  |  Ch 1 Note On  B2
 In:  80  3F  00  |  Ch 1 Note Off D#3
 In:  80  39  00  |  Ch 1 Note Off A2
 In:  80  3B  00  |  Ch 1 Note Off B2
 In:  80  3C  00  |  Ch 1 Note Off C3
 In:  80  40  00  |  Ch 1 Note Off E3
 In:  80  3E  00  |  Ch 1 Note Off D3
 In:  80  3D  00  |  Ch 1 Note Off C#3
 In:  90  3A  25  |  Ch 1 Note On  A#2
 In:  90  38  20  |  Ch 1 Note On  G#2
 In:  90  3C  28  |  Ch 1 Note On  C3
 In:  90  3B  27  |  Ch 1 Note On  B2
 In:  90  37  18  |  Ch 1 Note On  G2
 In:  90  39  13  |  Ch 1 Note On  A2
 In:  80  37  00  |  Ch 1 Note Off G2
 In:  80  39  00  |  Ch 1 Note Off A2
 In:  80  3B  00  |  Ch 1 Note Off B2
 In:  80  3C  00  |  Ch 1 Note Off C3
 In:  80  38  00  |  Ch 1 Note Off G#2
 In:  80  3A  00  |  Ch 1 Note Off A#2
 In:  90  39  26  |  Ch 1 Note On  A2
 In:  90  36  27  |  Ch 1 Note On  F#2
 In:  90  34  32  |  Ch 1 Note On  E2
 In:  90  37  25  |  Ch 1 Note On  G2
 In:  90  35  27  |  Ch 1 Note On  F2
 In:  80  35  00  |  Ch 1 Note Off F2
 In:  80  36  00  |  Ch 1 Note Off F#2
 In:  80  37  00  |  Ch 1 Note Off G2
 In:  80  34  00  |  Ch 1 Note Off E2
 In:  80  39  00  |  Ch 1 Note Off A2
 In:  90  33  24  |  Ch 1 Note On  D#2
 In:  90  37  1D  |  Ch 1 Note On  G2
 In:  90  32  23  |  Ch 1 Note On  D2
 In:  90  35  1F  |  Ch 1 Note On  F2
 In:  90  34  20  |  Ch 1 Note On  E2
 In:  90  31  21  |  Ch 1 Note On  C#2
 In:  80  31  00  |  Ch 1 Note Off C#2
 In:  80  34  00  |  Ch 1 Note Off E2
 In:  80  35  00  |  Ch 1 Note Off F2
 In:  80  32  00  |  Ch 1 Note Off D2
 In:  80  33  00  |  Ch 1 Note Off D#2
 In:  80  37  00  |  Ch 1 Note Off G2
 In:  90  31  25  |  Ch 1 Note On  C#2
 In:  90  30  23  |  Ch 1 Note On  C2
 In:  90  32  20  |  Ch 1 Note On  D2
 In:  90  33  1F  |  Ch 1 Note On  D#2
 In:  90  35  1C  |  Ch 1 Note On  F2
 In:  90  34  10  |  Ch 1 Note On  E2
 In:  80  35  00  |  Ch 1 Note Off F2
 In:  80  34  00  |  Ch 1 Note Off E2
 In:  80  33  00  |  Ch 1 Note Off D#2
 In:  80  32  00  |  Ch 1 Note Off D2
 In:  80  31  00  |  Ch 1 Note Off C#2
 In:  80  30  00  |  Ch 1 Note Off C2
 In:  90  31  08  |  Ch 1 Note On  C#2
 In:  80  31  00  |  Ch 1 Note Off C#2
 In:  90  31  25  |  Ch 1 Note On  C#2
 In:  90  33  20  |  Ch 1 Note On  D#2
 In:  90  32  13  |  Ch 1 Note On  D2
 In:  80  32  00  |  Ch 1 Note Off D2
 In:  80  33  00  |  Ch 1 Note Off D#2
 In:  80  31  00  |  Ch 1 Note Off C#2
 In:  90  33  26  |  Ch 1 Note On  D#2
 In:  90  39  23  |  Ch 1 Note On  A2
 In:  90  36  45  |  Ch 1 Note On  F#2
 In:  90  35  27  |  Ch 1 Note On  F2
 In:  90  34  21  |  Ch 1 Note On  E2
 In:  90  37  25  |  Ch 1 Note On  G2
 In:  80  37  00  |  Ch 1 Note Off G2
 In:  80  33  00  |  Ch 1 Note Off D#2
 In:  80  34  00  |  Ch 1 Note Off E2
 In:  80  35  00  |  Ch 1 Note Off F2
 In:  80  36  00  |  Ch 1 Note Off F#2
 In:  80  39  00  |  Ch 1 Note Off A2
 In:  90  38  1F  |  Ch 1 Note On  G#2
 In:  90  3C  27  |  Ch 1 Note On  C3
 In:  90  37  1D  |  Ch 1 Note On  G2
 In:  90  36  26  |  Ch 1 Note On  F#2
 In:  90  3A  27  |  Ch 1 Note On  A#2
 In:  90  39  1E  |  Ch 1 Note On  A2
 In:  90  3B  17  |  Ch 1 Note On  B2
 In:  80  3B  00  |  Ch 1 Note Off B2
 In:  80  3A  00  |  Ch 1 Note Off A#2
 In:  80  36  00  |  Ch 1 Note Off F#2
 In:  80  39  00  |  Ch 1 Note Off A2
 In:  80  3C  00  |  Ch 1 Note Off C3
 In:  80  38  00  |  Ch 1 Note Off G#2
 In:  80  37  00  |  Ch 1 Note Off G2
 In:  90  3A  28  |  Ch 1 Note On  A#2
 In:  90  40  34  |  Ch 1 Note On  E3
 In:  90  3E  3A  |  Ch 1 Note On  D3
 In:  90  3D  3F  |  Ch 1 Note On  C#3
 In:  90  39  23  |  Ch 1 Note On  A2
 In:  90  3C  2C  |  Ch 1 Note On  C3
 In:  90  3B  22  |  Ch 1 Note On  B2
 In:  90  3F  13  |  Ch 1 Note On  D#3
 In:  80  3F  00  |  Ch 1 Note Off D#3
 In:  80  39  00  |  Ch 1 Note Off A2
 In:  80  3B  00  |  Ch 1 Note Off B2
 In:  80  3A  00  |  Ch 1 Note Off A#2
 In:  80  3C  00  |  Ch 1 Note Off C3
 In:  80  3D  00  |  Ch 1 Note Off C#3
 In:  80  3E  00  |  Ch 1 Note Off D3
 In:  80  40  00  |  Ch 1 Note Off E3
 In:  90  3C  4B  |  Ch 1 Note On  C3
 In:  90  40  20  |  Ch 1 Note On  E3
 In:  90  44  18  |  Ch 1 Note On  G#3
 In:  90  3E  1B  |  Ch 1 Note On  D3
 In:  90  46  23  |  Ch 1 Note On  A#3
 In:  90  45  1E  |  Ch 1 Note On  A3
 In:  90  47  23  |  Ch 1 Note On  B3
 In:  80  47  00  |  Ch 1 Note Off B3
 In:  80  3E  00  |  Ch 1 Note Off D3
 In:  80  45  00  |  Ch 1 Note Off A3
 In:  80  46  00  |  Ch 1 Note Off A#3
 In:  80  44  00  |  Ch 1 Note Off G#3
 In:  80  40  00  |  Ch 1 Note Off E3
 In:  80  3C  00  |  Ch 1 Note Off C3
 In:  90  48  3C  |  Ch 1 Note On  C4
 In:  90  46  26  |  Ch 1 Note On  A#3
 In:  90  47  28  |  Ch 1 Note On  B3
 In:  90  44  28  |  Ch 1 Note On  G#3
 In:  90  3E  22  |  Ch 1 Note On  D3
 In:  90  3C  33  |  Ch 1 Note On  C3
 In:  90  40  23  |  Ch 1 Note On  E3
 In:  90  45  0F  |  Ch 1 Note On  A3
 In:  90  41  1C  |  Ch 1 Note On  F3
 In:  80  41  00  |  Ch 1 Note Off F3
 In:  80  40  00  |  Ch 1 Note Off E3
 In:  80  3C  00  |  Ch 1 Note Off C3
 In:  80  45  00  |  Ch 1 Note Off A3
 In:  80  3E  00  |  Ch 1 Note Off D3
 In:  80  44  00  |  Ch 1 Note Off G#3
 In:  80  46  00  |  Ch 1 Note Off A#3
 In:  80  47  00  |  Ch 1 Note Off B3
 In:  80  48  00  |  Ch 1 Note Off C4
 In:  90  48  4C  |  Ch 1 Note On  C4
 In:  90  47  3F  |  Ch 1 Note On  B3
 In:  90  44  29  |  Ch 1 Note On  G#3
 In:  90  3E  28  |  Ch 1 Note On  D3
 In:  90  3C  2B  |  Ch 1 Note On  C3
 In:  90  45  1C  |  Ch 1 Note On  A3
 In:  90  40  21  |  Ch 1 Note On  E3
 In:  90  41  1C  |  Ch 1 Note On  F3
 In:  80  40  00  |  Ch 1 Note Off E3
 In:  80  41  00  |  Ch 1 Note Off F3
 In:  80  45  00  |  Ch 1 Note Off A3
 In:  80  47  00  |  Ch 1 Note Off B3
 In:  80  3C  00  |  Ch 1 Note Off C3
 In:  80  48  00  |  Ch 1 Note Off C4
 In:  80  3E  00  |  Ch 1 Note Off D3
 In:  80  44  00  |  Ch 1 Note Off G#3
 In:  90  3C  2E  |  Ch 1 Note On  C3
 In:  90  46  28  |  Ch 1 Note On  A#3
 In:  90  47  28  |  Ch 1 Note On  B3
 In:  90  45  2A  |  Ch 1 Note On  A3
 In:  90  40  25  |  Ch 1 Note On  E3
 In:  90  42  1F  |  Ch 1 Note On  F#3
 In:  90  43  16  |  Ch 1 Note On  G3
 In:  80  43  00  |  Ch 1 Note Off G3
 In:  80  45  00  |  Ch 1 Note Off A3
 In:  80  46  00  |  Ch 1 Note Off A#3
 In:  80  47  00  |  Ch 1 Note Off B3
 In:  80  42  00  |  Ch 1 Note Off F#3
 In:  80  40  00  |  Ch 1 Note Off E3
 In:  80  3C  00  |  Ch 1 Note Off C3
 In:  90  42  28  |  Ch 1 Note On  F#3
 In:  90  39  25  |  Ch 1 Note On  A2
 In:  90  37  27  |  Ch 1 Note On  G2
 In:  90  41  1F  |  Ch 1 Note On  F3
 In:  90  3C  26  |  Ch 1 Note On  C3
 In:  90  3B  26  |  Ch 1 Note On  B2
 In:  90  3D  26  |  Ch 1 Note On  C#3
 In:  90  40  1B  |  Ch 1 Note On  E3
 In:  90  3E  1E  |  Ch 1 Note On  D3
 In:  90  43  14  |  Ch 1 Note On  G3
 In:  90  3F  23  |  Ch 1 Note On  D#3
 In:  80  3D  00  |  Ch 1 Note Off C#3
 In:  80  3F  00  |  Ch 1 Note Off D#3
 In:  80  43  00  |  Ch 1 Note Off G3
 In:  80  3E  00  |  Ch 1 Note Off D3
 In:  80  3B  00  |  Ch 1 Note Off B2
 In:  80  40  00  |  Ch 1 Note Off E3
 In:  80  41  00  |  Ch 1 Note Off F3
 In:  80  42  00  |  Ch 1 Note Off F#3
 In:  80  37  00  |  Ch 1 Note Off G2
 In:  80  3C  00  |  Ch 1 Note Off C3
 In:  80  39  00  |  Ch 1 Note Off A2
 In:  90  34  1D  |  Ch 1 Note On  E2
 In:  90  3A  27  |  Ch 1 Note On  A#2
 In:  90  37  21  |  Ch 1 Note On  G2
 In:  90  39  22  |  Ch 1 Note On  A2
 In:  90  3D  23  |  Ch 1 Note On  C#3
 In:  90  3E  0B  |  Ch 1 Note On  D3
 In:  90  35  22  |  Ch 1 Note On  F2
 In:  90  3B  24  |  Ch 1 Note On  B2
 In:  90  3F  26  |  Ch 1 Note On  D#3
 In:  90  3C  24  |  Ch 1 Note On  C3
 In:  80  3F  00  |  Ch 1 Note Off D#3
 In:  80  3A  00  |  Ch 1 Note Off A#2
 In:  80  3C  00  |  Ch 1 Note Off C3
 In:  80  3D  00  |  Ch 1 Note Off C#3
 In:  80  3B  00  |  Ch 1 Note Off B2
 In:  80  3E  00  |  Ch 1 Note Off D3
 In:  80  35  00  |  Ch 1 Note Off F2
 In:  80  39  00  |  Ch 1 Note Off A2
 In:  80  37  00  |  Ch 1 Note Off G2
 In:  80  34  00  |  Ch 1 Note Off E2
 In:  90  3A  13  |  Ch 1 Note On  A#2
 In:  90  34  27  |  Ch 1 Note On  E2
 In:  90  32  2E  |  Ch 1 Note On  D2
 In:  90  37  27  |  Ch 1 Note On  G2
 In:  90  35  28  |  Ch 1 Note On  F2
 In:  90  38  33  |  Ch 1 Note On  G#2
 In:  90  3C  23  |  Ch 1 Note On  C3
 In:  90  39  25  |  Ch 1 Note On  A2
 In:  90  3D  26  |  Ch 1 Note On  C#3
 In:  90  3B  1E  |  Ch 1 Note On  B2
 In:  80  3D  00  |  Ch 1 Note Off C#3
 In:  80  38  00  |  Ch 1 Note Off G#2
 In:  80  35  00  |  Ch 1 Note Off F2
 In:  80  3A  00  |  Ch 1 Note Off A#2
 In:  80  3B  00  |  Ch 1 Note Off B2
 In:  80  32  00  |  Ch 1 Note Off D2
 In:  80  37  00  |  Ch 1 Note Off G2
 In:  80  34  00  |  Ch 1 Note Off E2
 In:  80  39  00  |  Ch 1 Note Off A2
 In:  80  3C  00  |  Ch 1 Note Off C3
 In:  90  46  25  |  Ch 1 Note On  A#3
 In:  90  40  27  |  Ch 1 Note On  E3
 In:  90  42  3A  |  Ch 1 Note On  F#3
 In:  90  3C  2C  |  Ch 1 Note On  C3
 In:  90  45  25  |  Ch 1 Note On  A3
 In:  90  3E  3B  |  Ch 1 Note On  D3
 In:  90  41  27  |  Ch 1 Note On  F3
 In:  90  44  2A  |  Ch 1 Note On  G#3
 In:  90  3B  28  |  Ch 1 Note On  B2
 In:  90  47  27  |  Ch 1 Note On  B3
 In:  90  43  21  |  Ch 1 Note On  G3
 In:  80  3B  00  |  Ch 1 Note Off B2
 In:  80  3C  00  |  Ch 1 Note Off C3
 In:  80  3E  00  |  Ch 1 Note Off D3
 In:  80  43  00  |  Ch 1 Note Off G3
 In:  80  42  00  |  Ch 1 Note Off F#3
 In:  80  44  00  |  Ch 1 Note Off G#3
 In:  80  41  00  |  Ch 1 Note Off F3
 In:  80  40  00  |  Ch 1 Note Off E3
 In:  80  47  00  |  Ch 1 Note Off B3
 In:  80  45  00  |  Ch 1 Note Off A3
 In:  80  46  00  |  Ch 1 Note Off A#3
 In:  90  46  18  |  Ch 1 Note On  A#3
 In:  90  48  25  |  Ch 1 Note On  C4
 In:  90  47  23  |  Ch 1 Note On  B3
 In:  90  3E  24  |  Ch 1 Note On  D3
 In:  90  44  22  |  Ch 1 Note On  G#3
 In:  90  41  28  |  Ch 1 Note On  F3
 In:  90  40  31  |  Ch 1 Note On  E3
 In:  90  43  23  |  Ch 1 Note On  G3
 In:  90  45  09  |  Ch 1 Note On  A3
 In:  80  40  00  |  Ch 1 Note Off E3
 In:  80  45  00  |  Ch 1 Note Off A3
 In:  80  3E  00  |  Ch 1 Note Off D3
 In:  80  41  00  |  Ch 1 Note Off F3
 In:  80  43  00  |  Ch 1 Note Off G3
 In:  80  44  00  |  Ch 1 Note Off G#3
 In:  80  48  00  |  Ch 1 Note Off C4
 In:  80  47  00  |  Ch 1 Note Off B3
 In:  80  46  00  |  Ch 1 Note Off A#3
 In:  90  46  25  |  Ch 1 Note On  A#3
 In:  90  3C  3C  |  Ch 1 Note On  C3
 In:  90  40  2E  |  Ch 1 Note On  E3
 In:  90  44  27  |  Ch 1 Note On  G#3
 In:  90  41  28  |  Ch 1 Note On  F3
 In:  90  47  22  |  Ch 1 Note On  B3
 In:  90  45  1B  |  Ch 1 Note On  A3
 In:  80  45  00  |  Ch 1 Note Off A3
 In:  80  47  00  |  Ch 1 Note Off B3
 In:  80  41  00  |  Ch 1 Note Off F3
 In:  80  44  00  |  Ch 1 Note Off G#3
 In:  80  46  00  |  Ch 1 Note Off A#3
 In:  80  40  00  |  Ch 1 Note Off E3
 In:  80  3C  00  |  Ch 1 Note Off C3
 In:  90  39  27  |  Ch 1 Note On  A2
 In:  90  42  20  |  Ch 1 Note On  F#3
 In:  90  44  22  |  Ch 1 Note On  G#3
 In:  90  3F  4C  |  Ch 1 Note On  D#3
 In:  90  3C  3B  |  Ch 1 Note On  C3
 In:  90  3E  37  |  Ch 1 Note On  D3
 In:  90  43  1F  |  Ch 1 Note On  G3
 In:  90  41  1C  |  Ch 1 Note On  F3
 In:  80  41  00  |  Ch 1 Note Off F3
 In:  80  43  00  |  Ch 1 Note Off G3
 In:  80  44  00  |  Ch 1 Note Off G#3
 In:  80  3F  00  |  Ch 1 Note Off D#3
 In:  80  3C  00  |  Ch 1 Note Off C3
 In:  80  3E  00  |  Ch 1 Note Off D3
 In:  80  42  00  |  Ch 1 Note Off F#3
 In:  80  39  00  |  Ch 1 Note Off A2
 In:  90  3F  28  |  Ch 1 Note On  D#3
 In:  90  3D  40  |  Ch 1 Note On  C#3
 In:  90  35  2C  |  Ch 1 Note On  F2
 In:  90  37  2F  |  Ch 1 Note On  G2
 In:  90  40  27  |  Ch 1 Note On  E3
 In:  90  3B  2F  |  Ch 1 Note On  B2
 In:  90  3E  26  |  Ch 1 Note On  D3
 In:  90  39  2A  |  Ch 1 Note On  A2
 In:  90  3C  21  |  Ch 1 Note On  C3
 In:  80  3C  00  |  Ch 1 Note Off C3
 In:  80  40  00  |  Ch 1 Note Off E3
 In:  80  3E  00  |  Ch 1 Note Off D3
 In:  80  39  00  |  Ch 1 Note Off A2
 In:  80  3B  00  |  Ch 1 Note Off B2
 In:  80  3F  00  |  Ch 1 Note Off D#3
 In:  80  37  00  |  Ch 1 Note Off G2
 In:  80  3D  00  |  Ch 1 Note Off C#3
 In:  80  35  00  |  Ch 1 Note Off F2
 In:  90  3D  29  |  Ch 1 Note On  C#3
 In:  90  34  27  |  Ch 1 Note On  E2
 In:  90  3A  28  |  Ch 1 Note On  A#2
 In:  90  37  26  |  Ch 1 Note On  G2
 In:  90  38  27  |  Ch 1 Note On  G#2
 In:  90  3B  28  |  Ch 1 Note On  B2
 In:  90  32  24  |  Ch 1 Note On  D2
 In:  90  3C  1F  |  Ch 1 Note On  C3
 In:  90  39  1D  |  Ch 1 Note On  A2
 In:  80  39  00  |  Ch 1 Note Off A2
 In:  80  3C  00  |  Ch 1 Note Off C3
 In:  80  3B  00  |  Ch 1 Note Off B2
 In:  80  32  00  |  Ch 1 Note Off D2
 In:  80  38  00  |  Ch 1 Note Off G#2
 In:  80  37  00  |  Ch 1 Note Off G2
 In:  80  3A  00  |  Ch 1 Note Off A#2
 In:  80  34  00  |  Ch 1 Note Off E2
 In:  80  3D  00  |  Ch 1 Note Off C#3
 In:  90  3A  26  |  Ch 1 Note On  A#2
 In:  90  38  26  |  Ch 1 Note On  G#2
 In:  90  32  26  |  Ch 1 Note On  D2
 In:  90  3C  27  |  Ch 1 Note On  C3
 In:  90  3B  25  |  Ch 1 Note On  B2
 In:  90  35  25  |  Ch 1 Note On  F2
 In:  90  37  1E  |  Ch 1 Note On  G2
 In:  80  37  00  |  Ch 1 Note Off G2
 In:  80  35  00  |  Ch 1 Note Off F2
 In:  80  3B  00  |  Ch 1 Note Off B2
 In:  80  3A  00  |  Ch 1 Note Off A#2
 In:  80  38  00  |  Ch 1 Note Off G#2
 In:  80  32  00  |  Ch 1 Note Off D2
 In:  90  36  26  |  Ch 1 Note On  F#2
 In:  90  33  2C  |  Ch 1 Note On  D#2
 In:  90  30  2A  |  Ch 1 Note On  C2
 In:  90  37  22  |  Ch 1 Note On  G2
 In:  90  35  28  |  Ch 1 Note On  F2
 In:  90  39  20  |  Ch 1 Note On  A2
 In:  90  34  25  |  Ch 1 Note On  E2
 In:  80  34  00  |  Ch 1 Note Off E2
 In:  80  39  00  |  Ch 1 Note Off A2
 In:  80  35  00  |  Ch 1 Note Off F2
 In:  80  37  00  |  Ch 1 Note Off G2
 In:  80  33  00  |  Ch 1 Note Off D#2
 In:  80  36  00  |  Ch 1 Note Off F#2
 In:  80  30  00  |  Ch 1 Note Off C2
 In:  90  30  12  |  Ch 1 Note On  C2
 In:  90  33  22  |  Ch 1 Note On  D#2
 In:  90  37  2C  |  Ch 1 Note On  G2
 In:  90  35  28  |  Ch 1 Note On  F2
 In:  90  36  22  |  Ch 1 Note On  F#2
 In:  90  32  23  |  Ch 1 Note On  D2
 In:  90  34  1E  |  Ch 1 Note On  E2
 In:  80  36  00  |  Ch 1 Note Off F#2
 In:  80  32  00  |  Ch 1 Note Off D2
 In:  80  34  00  |  Ch 1 Note Off E2
 In:  80  33  00  |  Ch 1 Note Off D#2
 In:  80  35  00  |  Ch 1 Note Off F2
 In:  80  37  00  |  Ch 1 Note Off G2
 In:  80  30  00  |  Ch 1 Note Off C2
 In:  90  3A  48  |  Ch 1 Note On  A#2
 In:  90  34  28  |  Ch 1 Note On  E2
 In:  90  35  27  |  Ch 1 Note On  F2
 In:  90  38  2E  |  Ch 1 Note On  G#2
 In:  90  37  3C  |  Ch 1 Note On  G2
 In:  90  39  28  |  Ch 1 Note On  A2
 In:  90  3B  23  |  Ch 1 Note On  B2
 In:  90  3C  1E  |  Ch 1 Note On  C3
 In:  80  3B  00  |  Ch 1 Note Off B2
 In:  80  3C  00  |  Ch 1 Note Off C3
 In:  80  38  00  |  Ch 1 Note Off G#2
 In:  80  39  00  |  Ch 1 Note Off A2
 In:  80  35  00  |  Ch 1 Note Off F2
 In:  80  34  00  |  Ch 1 Note Off E2
 In:  80  3A  00  |  Ch 1 Note Off A#2
 In:  80  37  00  |  Ch 1 Note Off G2
 In:  90  39  1F  |  Ch 1 Note On  A2
 In:  90  3F  27  |  Ch 1 Note On  D#3
 In:  90  42  17  |  Ch 1 Note On  F#3
 In:  90  3C  23  |  Ch 1 Note On  C3
 In:  90  3E  25  |  Ch 1 Note On  D3
 In:  90  41  20  |  Ch 1 Note On  F3
 In:  80  41  00  |  Ch 1 Note Off F3
 In:  80  3E  00  |  Ch 1 Note Off D3
 In:  80  3F  00  |  Ch 1 Note Off D#3
 In:  80  42  00  |  Ch 1 Note Off F#3
 In:  80  39  00  |  Ch 1 Note Off A2
 In:  90  46  28  |  Ch 1 Note On  A#3
 In:  90  45  37  |  Ch 1 Note On  A3
 In:  90  47  4C  |  Ch 1 Note On  B3
 In:  90  3C  3C  |  Ch 1 Note On  C3
 In:  90  44  2C  |  Ch 1 Note On  G#3
 In:  90  40  2C  |  Ch 1 Note On  E3
 In:  90  3E  3F  |  Ch 1 Note On  D3
 In:  90  41  28  |  Ch 1 Note On  F3
 In:  80  3E  00  |  Ch 1 Note Off D3
 In:  80  40  00  |  Ch 1 Note Off E3
 In:  80  41  00  |  Ch 1 Note Off F3
 In:  80  3C  00  |  Ch 1 Note Off C3
 In:  80  47  00  |  Ch 1 Note Off B3
 In:  80  44  00  |  Ch 1 Note Off G#3
 In:  80  45  00  |  Ch 1 Note Off A3
 In:  80  46  00  |  Ch 1 Note Off A#3
 In:  90  46  28  |  Ch 1 Note On  A#3
 In:  90  48  3C  |  Ch 1 Note On  C4
 In:  90  47  25  |  Ch 1 Note On  B3
 In:  90  3E  2D  |  Ch 1 Note On  D3
 In:  90  40  38  |  Ch 1 Note On  E3
 In:  90  45  1B  |  Ch 1 Note On  A3
 In:  90  43  22  |  Ch 1 Note On  G3
 In:  90  41  24  |  Ch 1 Note On  F3
 In:  80  41  00  |  Ch 1 Note Off F3
 In:  80  43  00  |  Ch 1 Note Off G3
 In:  80  40  00  |  Ch 1 Note Off E3
 In:  80  45  00  |  Ch 1 Note Off A3
 In:  80  3E  00  |  Ch 1 Note Off D3
 In:  80  48  00  |  Ch 1 Note Off C4
 In:  80  46  00  |  Ch 1 Note Off A#3
 In:  80  47  00  |  Ch 1 Note Off B3
 In:  90  3C  36  |  Ch 1 Note On  C3
 In:  90  44  1D  |  Ch 1 Note On  G#3
 In:  90  42  27  |  Ch 1 Note On  F#3
 In:  90  43  17  |  Ch 1 Note On  G3
 In:  90  40  1F  |  Ch 1 Note On  E3
 In:  80  40  00  |  Ch 1 Note Off E3
 In:  80  43  00  |  Ch 1 Note Off G3
 In:  80  44  00  |  Ch 1 Note Off G#3
 In:  80  42  00  |  Ch 1 Note Off F#3
 In:  80  3C  00  |  Ch 1 Note Off C3
 In:  90  39  3E  |  Ch 1 Note On  A2
 In:  90  3F  30  |  Ch 1 Note On  D#3
 In:  90  42  41  |  Ch 1 Note On  F#3
 In:  90  40  26  |  Ch 1 Note On  E3
 In:  90  3C  2C  |  Ch 1 Note On  C3
 In:  90  41  23  |  Ch 1 Note On  F3
 In:  80  41  00  |  Ch 1 Note Off F3
 In:  80  42  00  |  Ch 1 Note Off F#3
 In:  80  40  00  |  Ch 1 Note Off E3
 In:  80  3C  00  |  Ch 1 Note Off C3
 In:  80  3F  00  |  Ch 1 Note Off D#3
 In:  80  39  00  |  Ch 1 Note Off A2
 In:  90  35  3C  |  Ch 1 Note On  F2
 In:  90  3A  33  |  Ch 1 Note On  A#2
 In:  90  3D  37  |  Ch 1 Note On  C#3
 In:  90  3E  24  |  Ch 1 Note On  D3
 In:  90  39  28  |  Ch 1 Note On  A2
 In:  90  37  22  |  Ch 1 Note On  G2
 In:  90  3B  15  |  Ch 1 Note On  B2
 In:  80  3B  00  |  Ch 1 Note Off B2
 In:  80  3D  00  |  Ch 1 Note Off C#3
 In:  80  37  00  |  Ch 1 Note Off G2
 In:  80  3E  00  |  Ch 1 Note Off D3
 In:  80  3A  00  |  Ch 1 Note Off A#2
 In:  80  39  00  |  Ch 1 Note Off A2
 In:  80  35  00  |  Ch 1 Note Off F2
 In:  90  38  3D  |  Ch 1 Note On  G#2
 In:  90  32  4A  |  Ch 1 Note On  D2
 In:  90  34  3F  |  Ch 1 Note On  E2
 In:  90  3A  24  |  Ch 1 Note On  A#2
 In:  90  35  28  |  Ch 1 Note On  F2
 In:  90  36  2E  |  Ch 1 Note On  F#2
 In:  90  37  24  |  Ch 1 Note On  G2
 In:  90  3B  19  |  Ch 1 Note On  B2
 In:  80  36  00  |  Ch 1 Note Off F#2
 In:  80  37  00  |  Ch 1 Note Off G2
 In:  80  3B  00  |  Ch 1 Note Off B2
 In:  80  3A  00  |  Ch 1 Note Off A#2
 In:  80  35  00  |  Ch 1 Note Off F2
 In:  80  38  00  |  Ch 1 Note Off G#2
 In:  80  34  00  |  Ch 1 Note Off E2
 In:  80  32  00  |  Ch 1 Note Off D2
 In:  90  30  30  |  Ch 1 Note On  C2
 In:  90  36  47  |  Ch 1 Note On  F#2
 In:  90  34  28  |  Ch 1 Note On  E2
 In:  90  39  21  |  Ch 1 Note On  A2
 In:  90  32  1F  |  Ch 1 Note On  D2
 In:  90  38  19  |  Ch 1 Note On  G#2
 In:  90  35  17  |  Ch 1 Note On  F2
 In:  80  38  00  |  Ch 1 Note Off G#2
 In:  80  32  00  |  Ch 1 Note Off D2
 In:  80  35  00  |  Ch 1 Note Off F2
 In:  80  39  00  |  Ch 1 Note Off A2
 In:  80  34  00  |  Ch 1 Note Off E2
 In:  80  36  00  |  Ch 1 Note Off F#2
 In:  80  30  00  |  Ch 1 Note Off C2
 In:  90  34  58  |  Ch 1 Note On  E2
 In:  90  3A  71  |  Ch 1 Note On  A#2
 In:  90  38  63  |  Ch 1 Note On  G#2
 In:  90  37  48  |  Ch 1 Note On  G2
 In:  90  3C  55  |  Ch 1 Note On  C3
 In:  90  35  36  |  Ch 1 Note On  F2
 In:  90  39  27  |  Ch 1 Note On  A2
 In:  90  3B  23  |  Ch 1 Note On  B2
 In:  80  3B  00  |  Ch 1 Note Off B2
 In:  80  39  00  |  Ch 1 Note Off A2
 In:  80  3C  00  |  Ch 1 Note Off C3
 In:  80  35  00  |  Ch 1 Note Off F2
 In:  80  38  00  |  Ch 1 Note Off G#2
 In:  80  3A  00  |  Ch 1 Note Off A#2
 In:  80  37  00  |  Ch 1 Note Off G2
 In:  80  34  00  |  Ch 1 Note Off E2
 In:  90  37  45  |  Ch 1 Note On  G2
 In:  90  3D  51  |  Ch 1 Note On  C#3
 In:  90  39  4B  |  Ch 1 Note On  A2
 In:  90  3B  4A  |  Ch 1 Note On  B2
 In:  90  3C  36  |  Ch 1 Note On  C3
 In:  90  3F  26  |  Ch 1 Note On  D#3
 In:  90  3E  25  |  Ch 1 Note On  D3
 In:  90  40  24  |  Ch 1 Note On  E3
 In:  80  3C  00  |  Ch 1 Note Off C3
 In:  80  40  00  |  Ch 1 Note Off E3
 In:  80  3F  00  |  Ch 1 Note Off D#3
 In:  80  3E  00  |  Ch 1 Note Off D3
 In:  80  3B  00  |  Ch 1 Note Off B2
 In:  80  39  00  |  Ch 1 Note Off A2
 In:  80  3D  00  |  Ch 1 Note Off C#3
 In:  80  37  00  |  Ch 1 Note Off G2
 In:  90  3B  33  |  Ch 1 Note On  B2
 In:  90  3F  3B  |  Ch 1 Note On  D#3
 In:  90  42  28  |  Ch 1 Note On  F#3
 In:  90  3C  39  |  Ch 1 Note On  C3
 In:  90  3E  30  |  Ch 1 Note On  D3
 In:  90  40  23  |  Ch 1 Note On  E3
 In:  90  41  1C  |  Ch 1 Note On  F3
 In:  90  43  1D  |  Ch 1 Note On  G3
 In:  80  43  00  |  Ch 1 Note Off G3
 In:  80  40  00  |  Ch 1 Note Off E3
 In:  80  41  00  |  Ch 1 Note Off F3
 In:  80  3C  00  |  Ch 1 Note Off C3
 In:  80  3E  00  |  Ch 1 Note Off D3
 In:  80  3F  00  |  Ch 1 Note Off D#3
 In:  80  3B  00  |  Ch 1 Note Off B2
 In:  80  42  00  |  Ch 1 Note Off F#3
 In:  90  3E  4B  |  Ch 1 Note On  D3
 In:  90  46  28  |  Ch 1 Note On  A#3
 In:  90  40  43  |  Ch 1 Note On  E3
 In:  90  44  26  |  Ch 1 Note On  G#3
 In:  90  41  3E  |  Ch 1 Note On  F3
 In:  90  45  23  |  Ch 1 Note On  A3
 In:  90  47  24  |  Ch 1 Note On  B3
 In:  90  43  1F  |  Ch 1 Note On  G3
 In:  80  43  00  |  Ch 1 Note Off G3
 In:  80  44  00  |  Ch 1 Note Off G#3
 In:  80  40  00  |  Ch 1 Note Off E3
 In:  80  41  00  |  Ch 1 Note Off F3
 In:  80  45  00  |  Ch 1 Note Off A3
 In:  80  47  00  |  Ch 1 Note Off B3
 In:  80  46  00  |  Ch 1 Note Off A#3
 In:  80  3E  00  |  Ch 1 Note Off D3
 In:  90  46  27  |  Ch 1 Note On  A#3
 In:  90  48  21  |  Ch 1 Note On  C4
 In:  90  40  28  |  Ch 1 Note On  E3
 In:  90  47  1D  |  Ch 1 Note On  B3
 In:  90  41  28  |  Ch 1 Note On  F3
 In:  90  43  26  |  Ch 1 Note On  G3
 In:  90  3E  26  |  Ch 1 Note On  D3
 In:  90  45  20  |  Ch 1 Note On  A3
 In:  80  3E  00  |  Ch 1 Note Off D3
 In:  80  40  00  |  Ch 1 Note Off E3
 In:  80  45  00  |  Ch 1 Note Off A3
 In:  80  46  00  |  Ch 1 Note Off A#3
 In:  80  41  00  |  Ch 1 Note Off F3
 In:  80  43  00  |  Ch 1 Note Off G3
 In:  80  48  00  |  Ch 1 Note Off C4
 In:  80  47  00  |  Ch 1 Note Off B3
 In:  90  46  24  |  Ch 1 Note On  A#3
 In:  90  43  23  |  Ch 1 Note On  G3
 In:  90  40  27  |  Ch 1 Note On  E3
 In:  90  45  26  |  Ch 1 Note On  A3
 In:  90  41  37  |  Ch 1 Note On  F3
 In:  90  47  1A  |  Ch 1 Note On  B3
 In:  90  48  0C  |  Ch 1 Note On  C4
 In:  80  41  00  |  Ch 1 Note Off F3
 In:  80  40  00  |  Ch 1 Note Off E3
 In:  80  45  00  |  Ch 1 Note Off A3
 In:  80  46  00  |  Ch 1 Note Off A#3
 In:  80  48  00  |  Ch 1 Note Off C4
 In:  80  47  00  |  Ch 1 Note Off B3
 In:  90  46  26  |  Ch 1 Note On  A#3
 In:  90  47  1F  |  Ch 1 Note On  B3
 In:  90  44  27  |  Ch 1 Note On  G#3
 In:  90  41  27  |  Ch 1 Note On  F3
 In:  90  45  20  |  Ch 1 Note On  A3
 In:  90  43  25  |  Ch 1 Note On  G3
 In:  90  3E  32  |  Ch 1 Note On  D3
 In:  90  40  31  |  Ch 1 Note On  E3
 In:  80  40  00  |  Ch 1 Note Off E3
 In:  80  3E  00  |  Ch 1 Note Off D3
 In:  80  44  00  |  Ch 1 Note Off G#3
 In:  80  45  00  |  Ch 1 Note Off A3
 In:  80  43  00  |  Ch 1 Note Off G3
 In:  80  46  00  |  Ch 1 Note Off A#3
 In:  80  41  00  |  Ch 1 Note Off F3
 In:  90  40  27  |  Ch 1 Note On  E3
 In:  90  3C  28  |  Ch 1 Note On  C3
 In:  90  3E  28  |  Ch 1 Note On  D3
 In:  90  44  28  |  Ch 1 Note On  G#3
 In:  90  42  3A  |  Ch 1 Note On  F#3
 In:  90  45  26  |  Ch 1 Note On  A3
 In:  90  43  24  |  Ch 1 Note On  G3
 In:  90  3B  27  |  Ch 1 Note On  B2
 In:  90  41  1F  |  Ch 1 Note On  F3
 In:  80  41  00  |  Ch 1 Note Off F3
 In:  80  3B  00  |  Ch 1 Note Off B2
 In:  80  42  00  |  Ch 1 Note Off F#3
 In:  80  43  00  |  Ch 1 Note Off G3
 In:  80  45  00  |  Ch 1 Note Off A3
 In:  80  3C  00  |  Ch 1 Note Off C3
 In:  80  44  00  |  Ch 1 Note Off G#3
 In:  80  3E  00  |  Ch 1 Note Off D3
 In:  80  40  00  |  Ch 1 Note Off E3
 In:  90  42  26  |  Ch 1 Note On  F#3
 In:  90  39  27  |  Ch 1 Note On  A2
 In:  90  3C  29  |  Ch 1 Note On  C3
 In:  90  3F  42  |  Ch 1 Note On  D#3
 In:  90  3E  28  |  Ch 1 Note On  D3
 In:  90  3B  28  |  Ch 1 Note On  B2
 In:  90  41  20  |  Ch 1 Note On  F3
 In:  90  43  20  |  Ch 1 Note On  G3
 In:  90  40  22  |  Ch 1 Note On  E3
 In:  80  43  00  |  Ch 1 Note Off G3
 In:  80  41  00  |  Ch 1 Note Off F3
 In:  80  40  00  |  Ch 1 Note Off E3
 In:  80  42  00  |  Ch 1 Note Off F#3
 In:  80  3F  00  |  Ch 1 Note Off D#3
 In:  80  3B  00  |  Ch 1 Note Off B2
 In:  80  3E  00  |  Ch 1 Note Off D3
 In:  80  39  00  |  Ch 1 Note Off A2
 In:  80  3C  00  |  Ch 1 Note Off C3
 In:  90  3F  3B  |  Ch 1 Note On  D#3
 In:  90  40  26  |  Ch 1 Note On  E3
 In:  90  3D  32  |  Ch 1 Note On  C#3
 In:  90  37  22  |  Ch 1 Note On  G2
 In:  90  3B  2B  |  Ch 1 Note On  B2
 In:  90  39  28  |  Ch 1 Note On  A2
 In:  90  3E  25  |  Ch 1 Note On  D3
 In:  90  3C  27  |  Ch 1 Note On  C3
 In:  80  3C  00  |  Ch 1 Note Off C3
 In:  80  3E  00  |  Ch 1 Note Off D3
 In:  80  39  00  |  Ch 1 Note Off A2
 In:  80  3D  00  |  Ch 1 Note Off C#3
 In:  80  3B  00  |  Ch 1 Note Off B2
 In:  80  3F  00  |  Ch 1 Note Off D#3
 In:  80  37  00  |  Ch 1 Note Off G2
 In:  80  40  00  |  Ch 1 Note Off E3
 In:  90  3D  25  |  Ch 1 Note On  C#3
 In:  90  3E  22  |  Ch 1 Note On  D3
 In:  90  3A  2A  |  Ch 1 Note On  A#2
 In:  90  3C  20  |  Ch 1 Note On  C3
 In:  90  39  25  |  Ch 1 Note On  A2
 In:  90  35  26  |  Ch 1 Note On  F2
 In:  90  37  25  |  Ch 1 Note On  G2
 In:  90  34  27  |  Ch 1 Note On  E2
 In:  90  3B  1F  |  Ch 1 Note On  B2
 In:  80  3B  00  |  Ch 1 Note Off B2
 In:  80  34  00  |  Ch 1 Note Off E2
 In:  80  3A  00  |  Ch 1 Note Off A#2
 In:  80  35  00  |  Ch 1 Note Off F2
 In:  80  37  00  |  Ch 1 Note Off G2
 In:  80  3D  00  |  Ch 1 Note Off C#3
 In:  80  3E  00  |  Ch 1 Note Off D3
 In:  80  39  00  |  Ch 1 Note Off A2
 In:  90  3A  11  |  Ch 1 Note On  A#2
 In:  90  32  22  |  Ch 1 Note On  D2
 In:  90  3B  24  |  Ch 1 Note On  B2
 In:  90  38  26  |  Ch 1 Note On  G#2
 In:  90  34  21  |  Ch 1 Note On  E2
 In:  90  35  21  |  Ch 1 Note On  F2
 In:  90  37  22  |  Ch 1 Note On  G2
 In:  90  3C  2D  |  Ch 1 Note On  C3
 In:  90  39  1F  |  Ch 1 Note On  A2
 In:  80  3C  00  |  Ch 1 Note Off C3
 In:  80  3B  00  |  Ch 1 Note Off B2
 In:  80  39  00  |  Ch 1 Note Off A2
 In:  80  38  00  |  Ch 1 Note Off G#2
 In:  80  34  00  |  Ch 1 Note Off E2
 In:  80  37  00  |  Ch 1 Note Off G2
 In:  80  35  00  |  Ch 1 Note Off F2
 In:  80  3A  00  |  Ch 1 Note Off A#2
 In:  80  32  00  |  Ch 1 Note Off D2
 In:  90  30  24  |  Ch 1 Note On  C2
 In:  90  36  26  |  Ch 1 Note On  F#2
 In:  90  34  28  |  Ch 1 Note On  E2
 In:  90  38  37  |  Ch 1 Note On  G#2
 In:  90  39  24  |  Ch 1 Note On  A2
 In:  90  35  27  |  Ch 1 Note On  F2
 In:  90  37  2B  |  Ch 1 Note On  G2
 In:  90  32  22  |  Ch 1 Note On  D2
 In:  80  32  00  |  Ch 1 Note Off D2
 In:  80  37  00  |  Ch 1 Note Off G2
 In:  80  38  00  |  Ch 1 Note Off G#2
 In:  80  35  00  |  Ch 1 Note Off F2
 In:  80  36  00  |  Ch 1 Note Off F#2
 In:  80  34  00  |  Ch 1 Note Off E2
 In:  80  39  00  |  Ch 1 Note Off A2
 In:  80  30  00  |  Ch 1 Note Off C2
 In:  90  31  26  |  Ch 1 Note On  C#2
 In:  90  38  21  |  Ch 1 Note On  G#2
 In:  90  36  17  |  Ch 1 Note On  F#2
 In:  80  36  00  |  Ch 1 Note Off F#2
 In:  80  31  00  |  Ch 1 Note Off C#2
 In:  80  38  00  |  Ch 1 Note Off G#2
 In:  90  3D  61  |  Ch 1 Note On  C#3
 In:  90  36  28  |  Ch 1 Note On  F#2
 In:  90  3F  1D  |  Ch 1 Note On  D#3
 In:  90  39  22  |  Ch 1 Note On  A2
 In:  80  39  00  |  Ch 1 Note Off A2
 In:  80  3F  00  |  Ch 1 Note Off D#3
 In:  80  3D  00  |  Ch 1 Note Off C#3
 In:  80  36  00  |  Ch 1 Note Off F#2
 In:  90  42  6D  |  Ch 1 Note On  F#3
 In:  90  44  62  |  Ch 1 Note On  G#3
 In:  90  3B  43  |  Ch 1 Note On  B2
 In:  90  3E  25  |  Ch 1 Note On  D3
 In:  80  3E  00  |  Ch 1 Note Off D3
 In:  80  3B  00  |  Ch 1 Note Off B2
 In:  80  42  00  |  Ch 1 Note Off F#3
 In:  80  44  00  |  Ch 1 Note Off G#3
 In:  90  46  1E  |  Ch 1 Note On  A#3
 In:  90  44  1D  |  Ch 1 Note On  G#3
 In:  90  42  21  |  Ch 1 Note On  F#3
 In:  80  42  00  |  Ch 1 Note Off F#3
 In:  80  44  00  |  Ch 1 Note Off G#3
 In:  80  46  00  |  Ch 1 Note Off A#3
 In:  90  3F  55  |  Ch 1 Note On  D#3
 In:  90  3D  56  |  Ch 1 Note On  C#3
 In:  90  3C  48  |  Ch 1 Note On  C3
 In:  90  40  31  |  Ch 1 Note On  E3
 In:  90  39  32  |  Ch 1 Note On  A2
 In:  90  41  3C  |  Ch 1 Note On  F3
 In:  90  3B  31  |  Ch 1 Note On  B2
 In:  90  3E  24  |  Ch 1 Note On  D3
 In:  80  3E  00  |  Ch 1 Note Off D3
 In:  80  41  00  |  Ch 1 Note Off F3
 In:  80  3B  00  |  Ch 1 Note Off B2
 In:  80  40  00  |  Ch 1 Note Off E3
 In:  80  3C  00  |  Ch 1 Note Off C3
 In:  80  39  00  |  Ch 1 Note Off A2
 In:  80  3D  00  |  Ch 1 Note Off C#3
 In:  80  3F  00  |  Ch 1 Note Off D#3
 In:  90  3A  63  |  Ch 1 Note On  A#2
 In:  90  3D  2C  |  Ch 1 Note On  C#3
 In:  90  38  1B  |  Ch 1 Note On  G#2
 In:  90  39  19  |  Ch 1 Note On  A2
 In:  80  3D  00  |  Ch 1 Note Off C#3
 In:  80  38  00  |  Ch 1 Note Off G#2
 In:  80  3A  00  |  Ch 1 Note Off A#2
 In:  90  38  4E  |  Ch 1 Note On  G#2
 In:  90  36  5A  |  Ch 1 Note On  F#2
 In:  90  3A  21  |  Ch 1 Note On  A#2
 In:  90  35  1D  |  Ch 1 Note On  F2
 In:  80  3A  00  |  Ch 1 Note Off A#2
 In:  80  35  00  |  Ch 1 Note Off F2
 In:  80  38  00  |  Ch 1 Note Off G#2
 In:  80  36  00  |  Ch 1 Note Off F#2
 In:  90  33  21  |  Ch 1 Note On  D#2
 In:  90  31  24  |  Ch 1 Note On  C#2
 In:  90  36  1D  |  Ch 1 Note On  F#2
 In:  80  36  00  |  Ch 1 Note Off F#2
 In:  80  31  00  |  Ch 1 Note Off C#2
 In:  80  33  00  |  Ch 1 Note Off D#2
 In:  90  31  27  |  Ch 1 Note On  C#2
 In:  90  32  28  |  Ch 1 Note On  D2
 In:  90  30  2A  |  Ch 1 Note On  C2
 In:  90  34  20  |  Ch 1 Note On  E2
 In:  90  33  0A  |  Ch 1 Note On  D#2
 In:  80  33  00  |  Ch 1 Note Off D#2
 In:  80  34  00  |  Ch 1 Note Off E2
 In:  80  31  00  |  Ch 1 Note Off C#2
 In:  80  30  00  |  Ch 1 Note Off C2
 In:  80  32  00  |  Ch 1 Note Off D2
 In:  90  36  39  |  Ch 1 Note On  F#2
 In:  90  34  39  |  Ch 1 Note On  E2
 In:  90  35  28  |  Ch 1 Note On  F2
 In:  90  37  20  |  Ch 1 Note On  G2
 In:  90  39  16  |  Ch 1 Note On  A2
 In:  80  39  00  |  Ch 1 Note Off A2
 In:  80  37  00  |  Ch 1 Note Off G2
 In:  80  35  00  |  Ch 1 Note Off F2
 In:  80  36  00  |  Ch 1 Note Off F#2
 In:  80  34  00  |  Ch 1 Note Off E2
 In:  90  37  25  |  Ch 1 Note On  G2
 In:  90  38  32  |  Ch 1 Note On  G#2
 In:  90  36  50  |  Ch 1 Note On  F#2
 In:  90  35  27  |  Ch 1 Note On  F2
 In:  90  3A  32  |  Ch 1 Note On  A#2
 In:  90  39  1B  |  Ch 1 Note On  A2
 In:  80  39  00  |  Ch 1 Note Off A2
 In:  80  35  00  |  Ch 1 Note Off F2
 In:  80  36  00  |  Ch 1 Note Off F#2
 In:  80  3A  00  |  Ch 1 Note Off A#2
 In:  80  38  00  |  Ch 1 Note Off G#2
 In:  80  37  00  |  Ch 1 Note Off G2
 In:  90  3A  40  |  Ch 1 Note On  A#2
 In:  90  39  25  |  Ch 1 Note On  A2
 In:  90  3D  22  |  Ch 1 Note On  C#3
 In:  90  3B  1C  |  Ch 1 Note On  B2
 In:  80  3B  00  |  Ch 1 Note Off B2
 In:  80  3D  00  |  Ch 1 Note Off C#3
 In:  80  39  00  |  Ch 1 Note Off A2
 In:  80  3A  00  |  Ch 1 Note Off A#2
 In:  90  3F  63  |  Ch 1 Note On  D#3
 In:  90  3D  58  |  Ch 1 Note On  C#3
 In:  90  3C  40  |  Ch 1 Note On  C3
 In:  90  3B  34  |  Ch 1 Note On  B2
 In:  90  41  22  |  Ch 1 Note On  F3
 In:  90  3E  1B  |  Ch 1 Note On  D3
 In:  90  40  16  |  Ch 1 Note On  E3
 In:  80  40  00  |  Ch 1 Note Off E3
 In:  80  3E  00  |  Ch 1 Note Off D3
 In:  80  41  00  |  Ch 1 Note Off F3
 In:  80  3B  00  |  Ch 1 Note Off B2
 In:  80  3D  00  |  Ch 1 Note Off C#3
 In:  80  3F  00  |  Ch 1 Note Off D#3
 In:  80  3C  00  |  Ch 1 Note Off C3
 In:  90  42  4D  |  Ch 1 Note On  F#3
 In:  90  3E  34  |  Ch 1 Note On  D3
 In:  90  3F  3A  |  Ch 1 Note On  D#3
 In:  90  40  26  |  Ch 1 Note On  E3
 In:  90  44  14  |  Ch 1 Note On  G#3
 In:  90  43  1C  |  Ch 1 Note On  G3
 In:  80  43  00  |  Ch 1 Note Off G3
 In:  80  44  00  |  Ch 1 Note Off G#3
 In:  80  3F  00  |  Ch 1 Note Off D#3
 In:  80  40  00  |  Ch 1 Note Off E3
 In:  80  3E  00  |  Ch 1 Note Off D3
 In:  80  42  00  |  Ch 1 Note Off F#3
 In:  90  46  1F  |  Ch 1 Note On  A#3
 In:  90  44  1D  |  Ch 1 Note On  G#3
 In:  90  40  26  |  Ch 1 Note On  E3
 In:  90  42  26  |  Ch 1 Note On  F#3
 In:  90  3C  2D  |  Ch 1 Note On  C3
 In:  90  45  22  |  Ch 1 Note On  A3
 In:  90  41  25  |  Ch 1 Note On  F3
 In:  90  47  1A  |  Ch 1 Note On  B3
 In:  80  47  00  |  Ch 1 Note Off B3
 In:  80  41  00  |  Ch 1 Note Off F3
 In:  80  42  00  |  Ch 1 Note Off F#3
 In:  80  44  00  |  Ch 1 Note Off G#3
 In:  80  40  00  |  Ch 1 Note Off E3
 In:  80  45  00  |  Ch 1 Note Off A3
 In:  80  46  00  |  Ch 1 Note Off A#3
 In:  80  3C  00  |  Ch 1 Note Off C3
 In:  90  46  17  |  Ch 1 Note On  A#3
 In:  90  47  21  |  Ch 1 Note On  B3
 In:  90  48  4C  |  Ch 1 Note On  C4
 In:  90  44  2A  |  Ch 1 Note On  G#3
 In:  90  41  26  |  Ch 1 Note On  F3
 In:  90  43  25  |  Ch 1 Note On  G3
 In:  90  3E  2D  |  Ch 1 Note On  D3
 In:  90  40  28  |  Ch 1 Note On  E3
 In:  90  3C  40  |  Ch 1 Note On  C3
 In:  90  45  13  |  Ch 1 Note On  A3
 In:  80  3C  00  |  Ch 1 Note Off C3
 In:  80  40  00  |  Ch 1 Note Off E3
 In:  80  3E  00  |  Ch 1 Note Off D3
 In:  80  45  00  |  Ch 1 Note Off A3
 In:  80  43  00  |  Ch 1 Note Off G3
 In:  80  44  00  |  Ch 1 Note Off G#3
 In:  80  41  00  |  Ch 1 Note Off F3
 In:  80  48  00  |  Ch 1 Note Off C4
 In:  80  46  00  |  Ch 1 Note Off A#3
 In:  80  47  00  |  Ch 1 Note Off B3
 In:  90  44  20  |  Ch 1 Note On  G#3
 In:  90  42  50  |  Ch 1 Note On  F#3
 In:  90  40  42  |  Ch 1 Note On  E3
 In:  90  46  1B  |  Ch 1 Note On  A#3
 In:  90  45  1D  |  Ch 1 Note On  A3
 In:  90  3E  3F  |  Ch 1 Note On  D3
 In:  90  3B  33  |  Ch 1 Note On  B2
 In:  90  41  1E  |  Ch 1 Note On  F3
 In:  80  41  00  |  Ch 1 Note Off F3
 In:  80  46  00  |  Ch 1 Note Off A#3
 In:  80  45  00  |  Ch 1 Note Off A3
 In:  80  3E  00  |  Ch 1 Note Off D3
 In:  80  42  00  |  Ch 1 Note Off F#3
 In:  80  44  00  |  Ch 1 Note Off G#3
 In:  80  40  00  |  Ch 1 Note Off E3
 In:  80  3B  00  |  Ch 1 Note Off B2
 In:  90  3F  73  |  Ch 1 Note On  D#3
 In:  90  3D  50  |  Ch 1 Note On  C#3
 In:  90  37  56  |  Ch 1 Note On  G2
 In:  90  3B  43  |  Ch 1 Note On  B2
 In:  90  3C  2C  |  Ch 1 Note On  C3
 In:  80  3C  00  |  Ch 1 Note Off C3
 In:  80  40  00  |  Ch 1 Note Off E3
 In:  80  3B  00  |  Ch 1 Note Off B2
 In:  80  3D  00  |  Ch 1 Note Off C#3
 In:  80  3F  00  |  Ch 1 Note Off D#3
 In:  80  37  00  |  Ch 1 Note Off G2
 In:  90  33  52  |  Ch 1 Note On  D#2
 In:  90  36  61  |  Ch 1 Note On  F#2
 In:  90  38  5B  |  Ch 1 Note On  G#2
 In:  90  3A  63  |  Ch 1 Note On  A#2
 In:  90  34  25  |  Ch 1 Note On  E2
 In:  80  34  00  |  Ch 1 Note Off E2
 In:  80  38  00  |  Ch 1 Note Off G#2
 In:  80  3A  00  |  Ch 1 Note Off A#2
 In:  80  36  00  |  Ch 1 Note Off F#2
 In:  80  33  00  |  Ch 1 Note Off D#2
 In:  90  31  43  |  Ch 1 Note On  C#2
 In:  90  36  31  |  Ch 1 Note On  F#2
 In:  90  33  45  |  Ch 1 Note On  D#2
 In:  90  38  25  |  Ch 1 Note On  G#2
 In:  90  37  13  |  Ch 1 Note On  G2
 In:  80  37  00  |  Ch 1 Note Off G2
 In:  80  38  00  |  Ch 1 Note Off G#2
 In:  80  33  00  |  Ch 1 Note Off D#2
 In:  80  36  00  |  Ch 1 Note Off F#2
 In:  80  31  00  |  Ch 1 Note Off C#2
 In:  90  30  27  |  Ch 1 Note On  C2
 In:  90  32  26  |  Ch 1 Note On  D2
 In:  90  35  1D  |  Ch 1 Note On  F2
 In:  90  34  26  |  Ch 1 Note On  E2
 In:  90  36  18  |  Ch 1 Note On  F#2
 In:  90  37  19  |  Ch 1 Note On  G2
 In:  90  33  33  |  Ch 1 Note On  D#2
 In:  90  38  33  |  Ch 1 Note On  G#2
 In:  80  38  00  |  Ch 1 Note Off G#2
 In:  80  33  00  |  Ch 1 Note Off D#2
 In:  80  36  00  |  Ch 1 Note Off F#2
 In:  80  34  00  |  Ch 1 Note Off E2
 In:  80  37  00  |  Ch 1 Note Off G2
 In:  80  32  00  |  Ch 1 Note Off D2
 In:  80  35  00  |  Ch 1 Note Off F2
 In:  80  30  00  |  Ch 1 Note Off C2
 In:  90  33  60  |  Ch 1 Note On  D#2
 In:  90  37  27  |  Ch 1 Note On  G2
 In:  90  34  39  |  Ch 1 Note On  E2
 In:  90  31  28  |  Ch 1 Note On  C#2
 In:  90  32  39  |  Ch 1 Note On  D2
 In:  90  35  26  |  Ch 1 Note On  F2
 In:  90  36  26  |  Ch 1 Note On  F#2
 In:  90  39  24  |  Ch 1 Note On  A2
 In:  80  39  00  |  Ch 1 Note Off A2
 In:  80  36  00  |  Ch 1 Note Off F#2
 In:  80  35  00  |  Ch 1 Note Off F2
 In:  80  37  00  |  Ch 1 Note Off G2
 In:  80  32  00  |  Ch 1 Note Off D2
 In:  80  34  00  |  Ch 1 Note Off E2
 In:  80  31  00  |  Ch 1 Note Off C#2
 In:  80  33  00  |  Ch 1 Note Off D#2
 In:  90  31  53  |  Ch 1 Note On  C#2
 In:  90  33  23  |  Ch 1 Note On  D#2
 In:  90  32  23  |  Ch 1 Note On  D2
 In:  90  36  17  |  Ch 1 Note On  F#2
 In:  90  30  17  |  Ch 1 Note On  C2
 In:  80  36  00  |  Ch 1 Note Off F#2
 In:  80  34  00  |  Ch 1 Note Off E2
 In:  80  30  00  |  Ch 1 Note Off C2
 In:  80  33  00  |  Ch 1 Note Off D#2
 In:  80  32  00  |  Ch 1 Note Off D2
 In:  80  31  00  |  Ch 1 Note Off C#2
 In:  90  33  20  |  Ch 1 Note On  D#2
 In:  90  34  26  |  Ch 1 Note On  E2
 In:  90  32  27  |  Ch 1 Note On  D2
 In:  90  31  2E  |  Ch 1 Note On  C#2
 In:  90  35  28  |  Ch 1 Note On  F2
 In:  90  39  30  |  Ch 1 Note On  A2
 In:  90  36  35  |  Ch 1 Note On  F#2
 In:  90  37  28  |  Ch 1 Note On  G2
 In:  90  3B  17  |  Ch 1 Note On  B2
 In:  80  3B  00  |  Ch 1 Note Off B2
 In:  80  36  00  |  Ch 1 Note Off F#2
 In:  80  31  00  |  Ch 1 Note Off C#2
 In:  80  39  00  |  Ch 1 Note Off A2
 In:  80  37  00  |  Ch 1 Note Off G2
 In:  80  35  00  |  Ch 1 Note Off F2
 In:  80  32  00  |  Ch 1 Note Off D2
 In:  80  33  00  |  Ch 1 Note Off D#2
 In:  80  34  00  |  Ch 1 Note Off E2
 In:  90  35  24  |  Ch 1 Note On  F2
 In:  90  36  22  |  Ch 1 Note On  F#2
 In:  90  37  24  |  Ch 1 Note On  G2
 In:  90  34  31  |  Ch 1 Note On  E2
 In:  90  33  45  |  Ch 1 Note On  D#2
 In:  90  38  41  |  Ch 1 Note On  G#2
 In:  90  39  2E  |  Ch 1 Note On  A2
 In:  90  3B  2B  |  Ch 1 Note On  B2
 In:  90  3C  26  |  Ch 1 Note On  C3
 In:  80  33  00  |  Ch 1 Note Off D#2
 In:  80  3C  00  |  Ch 1 Note Off C3
 In:  80  38  00  |  Ch 1 Note Off G#2
 In:  80  34  00  |  Ch 1 Note Off E2
 In:  80  36  00  |  Ch 1 Note Off F#2
 In:  80  39  00  |  Ch 1 Note Off A2
 In:  80  3B  00  |  Ch 1 Note Off B2
 In:  80  35  00  |  Ch 1 Note Off F2
 In:  80  37  00  |  Ch 1 Note Off G2
 In:  90  38  23  |  Ch 1 Note On  G#2
 In:  90  3A  23  |  Ch 1 Note On  A#2
 In:  90  39  1B  |  Ch 1 Note On  A2
 In:  90  3D  2D  |  Ch 1 Note On  C#3
 In:  90  3C  23  |  Ch 1 Note On  C3
 In:  90  3B  1F  |  Ch 1 Note On  B2
 In:  90  3E  1D  |  Ch 1 Note On  D3
 In:  90  37  18  |  Ch 1 Note On  G2
 In:  80  3E  00  |  Ch 1 Note Off D3
 In:  80  37  00  |  Ch 1 Note Off G2
 In:  80  3D  00  |  Ch 1 Note Off C#3
 In:  80  3B  00  |  Ch 1 Note Off B2
 In:  80  3C  00  |  Ch 1 Note Off C3
 In:  80  3A  00  |  Ch 1 Note Off A#2
 In:  80  38  00  |  Ch 1 Note Off G#2
 In:  80  39  00  |  Ch 1 Note Off A2
 In:  90  3A  27  |  Ch 1 Note On  A#2
 In:  90  3D  21  |  Ch 1 Note On  C#3
 In:  90  3B  22  |  Ch 1 Note On  B2
 In:  90  3C  24  |  Ch 1 Note On  C3
 In:  90  3F  28  |  Ch 1 Note On  D#3
 In:  90  3E  23  |  Ch 1 Note On  D3
 In:  90  40  1D  |  Ch 1 Note On  E3
 In:  80  3F  00  |  Ch 1 Note Off D#3
 In:  80  40  00  |  Ch 1 Note Off E3
 In:  80  3E  00  |  Ch 1 Note Off D3
 In:  80  3C  00  |  Ch 1 Note Off C3
 In:  80  3D  00  |  Ch 1 Note Off C#3
 In:  80  3A  00  |  Ch 1 Note Off A#2
 In:  80  3B  00  |  Ch 1 Note Off B2
 In:  90  3F  2A  |  Ch 1 Note On  D#3
 In:  90  3D  28  |  Ch 1 Note On  C#3
 In:  90  3E  23  |  Ch 1 Note On  D3
 In:  90  40  24  |  Ch 1 Note On  E3
 In:  90  42  24  |  Ch 1 Note On  F#3
 In:  90  41  20  |  Ch 1 Note On  F3
 In:  90  43  20  |  Ch 1 Note On  G3
 In:  90  3C  22  |  Ch 1 Note On  C3
 In:  80  42  00  |  Ch 1 Note Off F#3
 In:  80  43  00  |  Ch 1 Note Off G3
 In:  80  3C  00  |  Ch 1 Note Off C3
 In:  80  41  00  |  Ch 1 Note Off F3
 In:  80  40  00  |  Ch 1 Note Off E3
 In:  80  3D  00  |  Ch 1 Note Off C#3
 In:  80  3E  00  |  Ch 1 Note Off D3
 In:  80  3F  00  |  Ch 1 Note Off D#3
 In:  90  42  60  |  Ch 1 Note On  F#3
 In:  90  3F  5C  |  Ch 1 Note On  D#3
 In:  90  44  19  |  Ch 1 Note On  G#3
 In:  90  40  14  |  Ch 1 Note On  E3
 In:  90  41  0A  |  Ch 1 Note On  F3
 In:  80  44  00  |  Ch 1 Note Off G#3
 In:  80  41  00  |  Ch 1 Note Off F3
 In:  80  40  00  |  Ch 1 Note Off E3
 In:  80  3F  00  |  Ch 1 Note Off D#3
 In:  80  42  00  |  Ch 1 Note Off F#3
 In:  90  44  23  |  Ch 1 Note On  G#3
 In:  90  42  24  |  Ch 1 Note On  F#3
 In:  90  46  20  |  Ch 1 Note On  A#3
 In:  90  45  20  |  Ch 1 Note On  A3
 In:  90  41  24  |  Ch 1 Note On  F3
 In:  90  43  23  |  Ch 1 Note On  G3
 In:  90  47  1B  |  Ch 1 Note On  B3
 In:  80  46  00  |  Ch 1 Note Off A#3
 In:  80  42  00  |  Ch 1 Note Off F#3
 In:  80  44  00  |  Ch 1 Note Off G#3
 In:  80  41  00  |  Ch 1 Note Off F3
 In:  80  43  00  |  Ch 1 Note Off G3
 In:  80  47  00  |  Ch 1 Note Off B3
 In:  80  45  00  |  Ch 1 Note Off A3
 In:  90  48  28  |  Ch 1 Note On  C4
 In:  90  46  26  |  Ch 1 Note On  A#3
 In:  90  47  1E  |  Ch 1 Note On  B3
 In:  90  44  3E  |  Ch 1 Note On  G#3
 In:  90  43  27  |  Ch 1 Note On  G3
 In:  90  45  26  |  Ch 1 Note On  A3
 In:  80  45  00  |  Ch 1 Note Off A3
 In:  80  43  00  |  Ch 1 Note Off G3
 In:  80  44  00  |  Ch 1 Note Off G#3
 In:  80  46  00  |  Ch 1 Note Off A#3
 In:  80  47  00  |  Ch 1 Note Off B3
 In:  80  48  00  |  Ch 1 Note Off C4
 In:  90  42  56  |  Ch 1 Note On  F#3
 In:  90  43  2C  |  Ch 1 Note On  G3
 In:  90  3F  4B  |  Ch 1 Note On  D#3
 In:  90  45  26  |  Ch 1 Note On  A3
 In:  90  41  27  |  Ch 1 Note On  F3
 In:  90  40  23  |  Ch 1 Note On  E3
 In:  80  45  00  |  Ch 1 Note Off A3
 In:  80  40  00  |  Ch 1 Note Off E3
 In:  80  41  00  |  Ch 1 Note Off F3
 In:  80  43  00  |  Ch 1 Note Off G3
 In:  80  3F  00  |  Ch 1 Note Off D#3
 In:  80  42  00  |  Ch 1 Note Off F#3
 In:  90  33  34  |  Ch 1 Note On  D#2
 In:  90  31  2B  |  Ch 1 Note On  C#2
 In:  90  35  27  |  Ch 1 Note On  F2
 In:  90  30  20  |  Ch 1 Note On  C2
 In:  90  32  16  |  Ch 1 Note On  D2
 In:  90  34  0E  |  Ch 1 Note On  E2
 In:  80  34  00  |  Ch 1 Note Off E2
 In:  80  33  00  |  Ch 1 Note Off D#2
 In:  80  32  00  |  Ch 1 Note Off D2
 In:  80  31  00  |  Ch 1 Note Off C#2
 In:  80  35  00  |  Ch 1 Note Off F2
 In:  80  30  00  |  Ch 1 Note Off C2
 In:  90  31  0A  |  Ch 1 Note On  C#2
 In:  90  33  23  |  Ch 1 Note On  D#2
 In:  90  32  22  |  Ch 1 Note On  D2
 In:  90  34  20  |  Ch 1 Note On  E2
 In:  90  30  1F  |  Ch 1 Note On  C2
 In:  90  35  1F  |  Ch 1 Note On  F2
 In:  90  36  1D  |  Ch 1 Note On  F#2
 In:  90  37  16  |  Ch 1 Note On  G2
 In:  80  36  00  |  Ch 1 Note Off F#2
 In:  80  37  00  |  Ch 1 Note Off G2
 In:  80  35  00  |  Ch 1 Note Off F2
 In:  80  30  00  |  Ch 1 Note Off C2
 In:  80  32  00  |  Ch 1 Note Off D2
 In:  80  33  00  |  Ch 1 Note Off D#2
 In:  80  34  00  |  Ch 1 Note Off E2
 In:  80  31  00  |  Ch 1 Note Off C#2
 In:  90  33  31  |  Ch 1 Note On  D#2
 In:  90  36  24  |  Ch 1 Note On  F#2
 In:  90  37  20  |  Ch 1 Note On  G2
 In:  90  35  1F  |  Ch 1 Note On  F2
 In:  90  34  21  |  Ch 1 Note On  E2
 In:  90  32  20  |  Ch 1 Note On  D2
 In:  80  32  00  |  Ch 1 Note Off D2
 In:  80  34  00  |  Ch 1 Note Off E2
 In:  80  37  00  |  Ch 1 Note Off G2
 In:  80  35  00  |  Ch 1 Note Off F2
 In:  80  33  00  |  Ch 1 Note Off D#2
 In:  80  36  00  |  Ch 1 Note Off F#2
 In:  90  36  43  |  Ch 1 Note On  F#2
 In:  90  38  3E  |  Ch 1 Note On  G#2
 In:  90  34  37  |  Ch 1 Note On  E2
 In:  90  35  2D  |  Ch 1 Note On  F2
 In:  90  37  2B  |  Ch 1 Note On  G2
 In:  90  39  3A  |  Ch 1 Note On  A2
 In:  80  34  00  |  Ch 1 Note Off E2
 In:  80  39  00  |  Ch 1 Note Off A2
 In:  80  35  00  |  Ch 1 Note Off F2
 In:  80  37  00  |  Ch 1 Note Off G2
 In:  80  36  00  |  Ch 1 Note Off F#2
 In:  80  38  00  |  Ch 1 Note Off G#2
 In:  90  3A  28  |  Ch 1 Note On  A#2
 In:  90  3C  25  |  Ch 1 Note On  C3
 In:  90  38  28  |  Ch 1 Note On  G#2
 In:  90  37  24  |  Ch 1 Note On  G2
 In:  90  39  26  |  Ch 1 Note On  A2
 In:  90  3B  24  |  Ch 1 Note On  B2
 In:  90  35  2A  |  Ch 1 Note On  F2
 In:  80  35  00  |  Ch 1 Note Off F2
 In:  80  3B  00  |  Ch 1 Note Off B2
 In:  80  38  00  |  Ch 1 Note Off G#2
 In:  80  39  00  |  Ch 1 Note Off A2
 In:  80  37  00  |  Ch 1 Note Off G2
 In:  80  3A  00  |  Ch 1 Note Off A#2
 In:  80  3C  00  |  Ch 1 Note Off C3
 In:  90  3E  35  |  Ch 1 Note On  D3
 In:  90  3A  48  |  Ch 1 Note On  A#2
 In:  90  3D  3B  |  Ch 1 Note On  C#3
 In:  90  39  28  |  Ch 1 Note On  A2
 In:  90  3B  31  |  Ch 1 Note On  B2
 In:  90  3C  28  |  Ch 1 Note On  C3
 In:  80  3C  00  |  Ch 1 Note Off C3
 In:  80  3D  00  |  Ch 1 Note Off C#3
 In:  80  3A  00  |  Ch 1 Note Off A#2
 In:  80  3B  00  |  Ch 1 Note Off B2
 In:  80  39  00  |  Ch 1 Note Off A2
 In:  80  3E  00  |  Ch 1 Note Off D3
 In:  90  40  57  |  Ch 1 Note On  E3
 In:  90  3F  5D  |  Ch 1 Note On  D#3
 In:  90  3D  5C  |  Ch 1 Note On  C#3
 In:  90  3B  49  |  Ch 1 Note On  B2
 In:  90  3C  4A  |  Ch 1 Note On  C3
 In:  90  3E  3A  |  Ch 1 Note On  D3
 In:  80  3E  00  |  Ch 1 Note Off D3
 In:  80  3C  00  |  Ch 1 Note Off C3
 In:  80  3D  00  |  Ch 1 Note Off C#3
 In:  80  3F  00  |  Ch 1 Note Off D#3
 In:  80  3B  00  |  Ch 1 Note Off B2
 In:  80  40  00  |  Ch 1 Note Off E3
 In:  90  3F  75  |  Ch 1 Note On  D#3
 In:  90  42  6D  |  Ch 1 Note On  F#3
 In:  90  3C  5B  |  Ch 1 Note On  C3
 In:  90  3E  53  |  Ch 1 Note On  D3
 In:  90  40  3E  |  Ch 1 Note On  E3
 In:  90  41  3A  |  Ch 1 Note On  F3
 In:  80  41  00  |  Ch 1 Note Off F3
 In:  80  42  00  |  Ch 1 Note Off F#3
 In:  80  40  00  |  Ch 1 Note Off E3
 In:  80  3E  00  |  Ch 1 Note Off D3
 In:  80  3F  00  |  Ch 1 Note Off D#3
 In:  80  3C  00  |  Ch 1 Note Off C3
 In:  90  42  63  |  Ch 1 Note On  F#3
 In:  90  44  53  |  Ch 1 Note On  G#3
 In:  90  3E  4D  |  Ch 1 Note On  D3
 In:  90  45  26  |  Ch 1 Note On  A3
 In:  90  41  1D  |  Ch 1 Note On  F3
 In:  90  43  18  |  Ch 1 Note On  G3
 In:  80  41  00  |  Ch 1 Note Off F3
 In:  80  43  00  |  Ch 1 Note Off G3
 In:  80  45  00  |  Ch 1 Note Off A3
 In:  80  3E  00  |  Ch 1 Note Off D3
 In:  80  40  00  |  Ch 1 Note Off E3
 In:  80  44  00  |  Ch 1 Note Off G#3
 In:  90  46  55  |  Ch 1 Note On  A#3
 In:  90  47  2E  |  Ch 1 Note On  B3
 In:  90  41  2B  |  Ch 1 Note On  F3
 In:  90  44  25  |  Ch 1 Note On  G#3
 In:  90  40  28  |  Ch 1 Note On  E3
 In:  90  43  23  |  Ch 1 Note On  G3
 In:  90  45  0F  |  Ch 1 Note On  A3
 In:  80  40  00  |  Ch 1 Note Off E3
 In:  80  45  00  |  Ch 1 Note Off A3
 In:  80  43  00  |  Ch 1 Note Off G3
 In:  80  44  00  |  Ch 1 Note Off G#3
 In:  80  41  00  |  Ch 1 Note Off F3
 In:  80  47  00  |  Ch 1 Note Off B3
 In:  80  46  00  |  Ch 1 Note Off A#3
 In:  90  46  6F  |  Ch 1 Note On  A#3
 In:  90  43  33  |  Ch 1 Note On  G3
 In:  90  48  1B  |  Ch 1 Note On  C4
 In:  90  44  28  |  Ch 1 Note On  G#3
 In:  90  41  2E  |  Ch 1 Note On  F3
 In:  90  47  1C  |  Ch 1 Note On  B3
 In:  90  45  23  |  Ch 1 Note On  A3
 In:  80  44  00  |  Ch 1 Note Off G#3
 In:  80  41  00  |  Ch 1 Note Off F3
 In:  80  45  00  |  Ch 1 Note Off A3
 In:  80  47  00  |  Ch 1 Note Off B3
 In:  80  48  00  |  Ch 1 Note Off C4
 In:  80  46  00  |  Ch 1 Note Off A#3
 In:  90  46  50  |  Ch 1 Note On  A#3
 In:  90  47  30  |  Ch 1 Note On  B3
 In:  90  48  39  |  Ch 1 Note On  C4
 In:  90  44  28  |  Ch 1 Note On  G#3
 In:  90  43  24  |  Ch 1 Note On  G3
 In:  90  41  23  |  Ch 1 Note On  F3
 In:  90  45  15  |  Ch 1 Note On  A3
 In:  80  41  00  |  Ch 1 Note Off F3
 In:  80  43  00  |  Ch 1 Note Off G3
 In:  80  44  00  |  Ch 1 Note Off G#3
 In:  80  45  00  |  Ch 1 Note Off A3
 In:  80  48  00  |  Ch 1 Note Off C4
 In:  80  47  00  |  Ch 1 Note Off B3
 In:  80  46  00  |  Ch 1 Note Off A#3
 In:  90  44  34  |  Ch 1 Note On  G#3
 In:  90  42  32  |  Ch 1 Note On  F#3
 In:  90  40  26  |  Ch 1 Note On  E3
 In:  90  46  14  |  Ch 1 Note On  A#3
 In:  90  45  0C  |  Ch 1 Note On  A3
 In:  80  46  00  |  Ch 1 Note Off A#3
 In:  80  45  00  |  Ch 1 Note Off A3
 In:  80  40  00  |  Ch 1 Note Off E3
 In:  80  42  00  |  Ch 1 Note Off F#3
 In:  80  44  00  |  Ch 1 Note Off G#3
 In:  90  42  60  |  Ch 1 Note On  F#3
 In:  90  3F  39  |  Ch 1 Note On  D#3
 In:  90  3E  30  |  Ch 1 Note On  D3
 In:  90  3C  34  |  Ch 1 Note On  C3
 In:  90  43  1A  |  Ch 1 Note On  G3
 In:  90  40  1F  |  Ch 1 Note On  E3
 In:  80  43  00  |  Ch 1 Note Off G3
 In:  80  40  00  |  Ch 1 Note Off E3
 In:  80  3C  00  |  Ch 1 Note Off C3
 In:  80  3F  00  |  Ch 1 Note Off D#3
 In:  80  3E  00  |  Ch 1 Note Off D3
 In:  80  42  00  |  Ch 1 Note Off F#3
 In:  90  3F  46  |  Ch 1 Note On  D#3
 In:  90  40  25  |  Ch 1 Note On  E3
 In:  90  41  26  |  Ch 1 Note On  F3
 In:  90  3D  2E  |  Ch 1 Note On  C#3
 In:  90  3C  2C  |  Ch 1 Note On  C3
 In:  90  3B  28  |  Ch 1 Note On  B2
 In:  90  3E  19  |  Ch 1 Note On  D3
 In:  80  3E  00  |  Ch 1 Note Off D3
 In:  80  3B  00  |  Ch 1 Note Off B2
 In:  80  3C  00  |  Ch 1 Note Off C3
 In:  80  41  00  |  Ch 1 Note Off F3
 In:  80  3D  00  |  Ch 1 Note Off C#3
 In:  80  40  00  |  Ch 1 Note Off E3
 In:  80  3F  00  |  Ch 1 Note Off D#3
 In:  90  3D  3C  |  Ch 1 Note On  C#3
 In:  90  3E  27  |  Ch 1 Note On  D3
 In:  90  3A  46  |  Ch 1 Note On  A#2
 In:  90  39  3C  |  Ch 1 Note On  A2
 In:  90  3C  27  |  Ch 1 Note On  C3
 In:  90  3B  30  |  Ch 1 Note On  B2
 In:  80  3B  00  |  Ch 1 Note Off B2
 In:  80  3C  00  |  Ch 1 Note Off C3
 In:  80  3E  00  |  Ch 1 Note Off D3
 In:  80  3A  00  |  Ch 1 Note Off A#2
 In:  80  39  00  |  Ch 1 Note Off A2
 In:  80  3D  00  |  Ch 1 Note Off C#3
 In:  90  3A  6E  |  Ch 1 Note On  A#2
 In:  90  3C  37  |  Ch 1 Note On  C3
 In:  90  3B  21  |  Ch 1 Note On  B2
 In:  90  37  28  |  Ch 1 Note On  G2
 In:  90  38  25  |  Ch 1 Note On  G#2
 In:  90  39  23  |  Ch 1 Note On  A2
 In:  80  38  00  |  Ch 1 Note Off G#2
 In:  80  39  00  |  Ch 1 Note Off A2
 In:  80  3B  00  |  Ch 1 Note Off B2
 In:  80  37  00  |  Ch 1 Note Off G2
 In:  80  3C  00  |  Ch 1 Note Off C3
 In:  80  3A  00  |  Ch 1 Note Off A#2
 In:  90  38  5C  |  Ch 1 Note On  G#2
 In:  90  3B  2D  |  Ch 1 Note On  B2
 In:  90  36  26  |  Ch 1 Note On  F#2
 In:  90  35  2C  |  Ch 1 Note On  F2
 In:  90  3A  1F  |  Ch 1 Note On  A#2
 In:  90  37  22  |  Ch 1 Note On  G2
 In:  90  39  1B  |  Ch 1 Note On  A2
 In:  80  3A  00  |  Ch 1 Note Off A#2
 In:  80  39  00  |  Ch 1 Note Off A2
 In:  80  37  00  |  Ch 1 Note Off G2
 In:  80  3B  00  |  Ch 1 Note Off B2
 In:  80  35  00  |  Ch 1 Note Off F2
 In:  80  36  00  |  Ch 1 Note Off F#2
 In:  80  38  00  |  Ch 1 Note Off G#2
 In:  90  36  48  |  Ch 1 Note On  F#2
 In:  90  39  32  |  Ch 1 Note On  A2
 In:  90  34  4F  |  Ch 1 Note On  E2
 In:  90  38  28  |  Ch 1 Note On  G#2
 In:  90  35  30  |  Ch 1 Note On  F2
 In:  90  37  24  |  Ch 1 Note On  G2
 In:  80  38  00  |  Ch 1 Note Off G#2
 In:  80  37  00  |  Ch 1 Note Off G2
 In:  80  35  00  |  Ch 1 Note Off F2
 In:  80  39  00  |  Ch 1 Note Off A2
 In:  80  34  00  |  Ch 1 Note Off E2
 In:  80  36  00  |  Ch 1 Note Off F#2
 In:  90  33  4A  |  Ch 1 Note On  D#2
 In:  90  36  25  |  Ch 1 Note On  F#2
 In:  90  39  1D  |  Ch 1 Note On  A2
 In:  90  37  1B  |  Ch 1 Note On  G2
 In:  90  35  1C  |  Ch 1 Note On  F2
 In:  90  34  16  |  Ch 1 Note On  E2
 In:  80  37  00  |  Ch 1 Note Off G2
 In:  80  39  00  |  Ch 1 Note Off A2
 In:  80  35  00  |  Ch 1 Note Off F2
 In:  80  34  00  |  Ch 1 Note Off E2
 In:  80  36  00  |  Ch 1 Note Off F#2
 In:  80  33  00  |  Ch 1 Note Off D#2
 In:  90  33  4C  |  Ch 1 Note On  D#2
 In:  90  36  25  |  Ch 1 Note On  F#2
 In:  90  34  24  |  Ch 1 Note On  E2
 In:  90  35  1D  |  Ch 1 Note On  F2
 In:  80  35  00  |  Ch 1 Note Off F2
 In:  80  34  00  |  Ch 1 Note Off E2
 In:  80  36  00  |  Ch 1 Note Off F#2
 In:  80  33  00  |  Ch 1 Note Off D#2
 In:  90  38  49  |  Ch 1 Note On  G#2
 In:  90  3A  27  |  Ch 1 Note On  A#2
 In:  90  37  27  |  Ch 1 Note On  G2
 In:  90  35  28  |  Ch 1 Note On  F2
 In:  90  39  21  |  Ch 1 Note On  A2
 In:  90  3C  22  |  Ch 1 Note On  C3
 In:  90  36  25  |  Ch 1 Note On  F#2
 In:  90  3B  1F  |  Ch 1 Note On  B2
 In:  80  36  00  |  Ch 1 Note Off F#2
 In:  80  3B  00  |  Ch 1 Note Off B2
 In:  80  3C  00  |  Ch 1 Note Off C3
 In:  80  35  00  |  Ch 1 Note Off F2
 In:  80  39  00  |  Ch 1 Note Off A2
 In:  80  3A  00  |  Ch 1 Note Off A#2
 In:  80  37  00  |  Ch 1 Note Off G2
 In:  80  38  00  |  Ch 1 Note Off G#2
 In:  90  3A  43  |  Ch 1 Note On  A#2
 In:  90  38  43  |  Ch 1 Note On  G#2
 In:  90  3C  23  |  Ch 1 Note On  C3
 In:  90  37  28  |  Ch 1 Note On  G2
 In:  90  39  25  |  Ch 1 Note On  A2
 In:  90  3B  20  |  Ch 1 Note On  B2
 In:  80  3B  00  |  Ch 1 Note Off B2
 In:  80  3C  00  |  Ch 1 Note Off C3
 In:  80  38  00  |  Ch 1 Note Off G#2
 In:  80  39  00  |  Ch 1 Note Off A2
 In:  80  37  00  |  Ch 1 Note Off G2
 In:  80  3A  00  |  Ch 1 Note Off A#2
 In:  90  3D  3E  |  Ch 1 Note On  C#3
 In:  90  39  28  |  Ch 1 Note On  A2
 In:  90  3A  3C  |  Ch 1 Note On  A#2
 In:  90  3B  28  |  Ch 1 Note On  B2
 In:  90  3C  2F  |  Ch 1 Note On  C3
 In:  90  3E  23  |  Ch 1 Note On  D3
 In:  80  3E  00  |  Ch 1 Note Off D3
 In:  80  3C  00  |  Ch 1 Note Off C3
 In:  80  3A  00  |  Ch 1 Note Off A#2
 In:  80  3B  00  |  Ch 1 Note Off B2
 In:  80  3D  00  |  Ch 1 Note Off C#3
 In:  80  39  00  |  Ch 1 Note Off A2
 In:  90  3F  54  |  Ch 1 Note On  D#3
 In:  90  3D  43  |  Ch 1 Note On  C#3
 In:  90  40  2F  |  Ch 1 Note On  E3
 In:  90  3B  31  |  Ch 1 Note On  B2
 In:  90  3C  31  |  Ch 1 Note On  C3
 In:  90  3E  22  |  Ch 1 Note On  D3
 In:  80  3E  00  |  Ch 1 Note Off D3
 In:  80  3B  00  |  Ch 1 Note Off B2
 In:  80  3D  00  |  Ch 1 Note Off C#3
 In:  80  40  00  |  Ch 1 Note Off E3
 In:  80  3F  00  |  Ch 1 Note Off D#3
 In:  90  42  4B  |  Ch 1 Note On  F#3
 In:  90  3E  3C  |  Ch 1 Note On  D3
 In:  90  3F  4F  |  Ch 1 Note On  D#3
 In:  90  43  2D  |  Ch 1 Note On  G3
 In:  90  3C  3E  |  Ch 1 Note On  C3
 In:  90  40  31  |  Ch 1 Note On  E3
 In:  90  41  21  |  Ch 1 Note On  F3
 In:  80  3C  00  |  Ch 1 Note Off C3
 In:  80  41  00  |  Ch 1 Note Off F3
 In:  80  40  00  |  Ch 1 Note Off E3
 In:  80  3F  00  |  Ch 1 Note Off D#3
 In:  80  3E  00  |  Ch 1 Note Off D3
 In:  80  43  00  |  Ch 1 Note Off G3
 In:  80  42  00  |  Ch 1 Note Off F#3
 In:  90  44  27  |  Ch 1 Note On  G#3
 In:  90  40  29  |  Ch 1 Note On  E3
 In:  90  46  23  |  Ch 1 Note On  A#3
 In:  90  42  41  |  Ch 1 Note On  F#3
 In:  90  41  28  |  Ch 1 Note On  F3
 In:  90  47  2B  |  Ch 1 Note On  B3
 In:  90  43  23  |  Ch 1 Note On  G3
 In:  80  47  00  |  Ch 1 Note Off B3
 In:  80  43  00  |  Ch 1 Note Off G3
 In:  80  42  00  |  Ch 1 Note Off F#3
 In:  80  46  00  |  Ch 1 Note Off A#3
 In:  80  41  00  |  Ch 1 Note Off F3
 In:  80  45  00  |  Ch 1 Note Off A3
 In:  80  44  00  |  Ch 1 Note Off G#3
 In:  80  40  00  |  Ch 1 Note Off E3
 In:  90  46  4A  |  Ch 1 Note On  A#3
 In:  90  47  22  |  Ch 1 Note On  B3
 In:  90  44  2A  |  Ch 1 Note On  G#3
 In:  90  45  1C  |  Ch 1 Note On  A3
 In:  90  41  26  |  Ch 1 Note On  F3
 In:  90  48  46  |  Ch 1 Note On  C4
 In:  90  40  22  |  Ch 1 Note On  E3
 In:  90  43  12  |  Ch 1 Note On  G3
 In:  80  48  00  |  Ch 1 Note Off C4
 In:  80  40  00  |  Ch 1 Note Off E3
 In:  80  43  00  |  Ch 1 Note Off G3
 In:  80  41  00  |  Ch 1 Note Off F3
 In:  80  44  00  |  Ch 1 Note Off G#3
 In:  80  45  00  |  Ch 1 Note Off A3
 In:  80  47  00  |  Ch 1 Note Off B3
 In:  80  46  00  |  Ch 1 Note Off A#3
 In:  90  46  67  |  Ch 1 Note On  A#3
 In:  90  47  49  |  Ch 1 Note On  B3
 In:  90  48  58  |  Ch 1 Note On  C4
 In:  90  45  18  |  Ch 1 Note On  A3
 In:  90  41  23  |  Ch 1 Note On  F3
 In:  90  43  22  |  Ch 1 Note On  G3
 In:  80  41  00  |  Ch 1 Note Off F3
 In:  80  43  00  |  Ch 1 Note Off G3
 In:  80  45  00  |  Ch 1 Note Off A3
 In:  80  46  00  |  Ch 1 Note Off A#3
 In:  80  48  00  |  Ch 1 Note Off C4
 In:  80  47  00  |  Ch 1 Note Off B3
 In:  90  46  45  |  Ch 1 Note On  A#3
 In:  90  47  2C  |  Ch 1 Note On  B3
 In:  90  48  41  |  Ch 1 Note On  C4
 In:  90  45  2D  |  Ch 1 Note On  A3
 In:  90  43  40  |  Ch 1 Note On  G3
 In:  90  41  45  |  Ch 1 Note On  F3
 In:  90  44  16  |  Ch 1 Note On  G#3
 In:  80  44  00  |  Ch 1 Note Off G#3
 In:  80  41  00  |  Ch 1 Note Off F3
 In:  80  43  00  |  Ch 1 Note Off G3
 In:  80  45  00  |  Ch 1 Note Off A3
 In:  80  48  00  |  Ch 1 Note Off C4
 In:  80  46  00  |  Ch 1 Note Off A#3
 In:  80  47  00  |  Ch 1 Note Off B3
 In:  90  46  6B  |  Ch 1 Note On  A#3
 In:  90  47  4E  |  Ch 1 Note On  B3
 In:  90  45  4C  |  Ch 1 Note On  A3
 In:  90  44  38  |  Ch 1 Note On  G#3
 In:  90  41  48  |  Ch 1 Note On  F3
 In:  90  40  4A  |  Ch 1 Note On  E3
 In:  90  43  27  |  Ch 1 Note On  G3
 In:  80  40  00  |  Ch 1 Note Off E3
 In:  80  43  00  |  Ch 1 Note Off G3
 In:  80  41  00  |  Ch 1 Note Off F3
 In:  80  44  00  |  Ch 1 Note Off G#3
 In:  80  46  00  |  Ch 1 Note Off A#3
 In:  80  45  00  |  Ch 1 Note Off A3
 In:  80  47  00  |  Ch 1 Note Off B3
 In:  90  42  63  |  Ch 1 Note On  F#3
 In:  90  44  50  |  Ch 1 Note On  G#3
 In:  90  43  3D  |  Ch 1 Note On  G3
 In:  90  45  37  |  Ch 1 Note On  A3
 In:  90  3E  4E  |  Ch 1 Note On  D3
 In:  90  40  45  |  Ch 1 Note On  E3
 In:  90  41  25  |  Ch 1 Note On  F3
 In:  90  3B  2D  |  Ch 1 Note On  B2
 In:  80  3B  00  |  Ch 1 Note Off B2
 In:  80  41  00  |  Ch 1 Note Off F3
 In:  80  3E  00  |  Ch 1 Note Off D3
 In:  80  40  00  |  Ch 1 Note Off E3
 In:  80  45  00  |  Ch 1 Note Off A3
 In:  80  43  00  |  Ch 1 Note Off G3
 In:  80  44  00  |  Ch 1 Note Off G#3
 In:  80  42  00  |  Ch 1 Note Off F#3
 In:  90  42  5F  |  Ch 1 Note On  F#3
 In:  90  3F  62  |  Ch 1 Note On  D#3
 In:  90  41  39  |  Ch 1 Note On  F3
 In:  90  40  39  |  Ch 1 Note On  E3
 In:  90  3C  3C  |  Ch 1 Note On  C3
 In:  90  3E  26  |  Ch 1 Note On  D3
 In:  80  3E  00  |  Ch 1 Note Off D3
 In:  80  3C  00  |  Ch 1 Note Off C3
 In:  80  3F  00  |  Ch 1 Note Off D#3
 In:  80  41  00  |  Ch 1 Note Off F3
 In:  80  40  00  |  Ch 1 Note Off E3
 In:  80  42  00  |  Ch 1 Note Off F#3
 In:  90  40  5D  |  Ch 1 Note On  E3
 In:  90  3F  73  |  Ch 1 Note On  D#3
 In:  90  3E  55  |  Ch 1 Note On  D3
 In:  90  3C  4E  |  Ch 1 Note On  C3
 In:  90  3D  4F  |  Ch 1 Note On  C#3
 In:  90  3B  53  |  Ch 1 Note On  B2
 In:  80  3D  00  |  Ch 1 Note Off C#3
 In:  80  3B  00  |  Ch 1 Note Off B2
 In:  80  3C  00  |  Ch 1 Note Off C3
 In:  80  3E  00  |  Ch 1 Note Off D3
 In:  80  3F  00  |  Ch 1 Note Off D#3
 In:  80  40  00  |  Ch 1 Note Off E3
 In:  90  3D  72  |  Ch 1 Note On  C#3
 In:  90  3E  3F  |  Ch 1 Note On  D3
 In:  90  39  4C  |  Ch 1 Note On  A2
 In:  90  3C  31  |  Ch 1 Note On  C3
 In:  90  3B  39  |  Ch 1 Note On  B2
 In:  90  3A  39  |  Ch 1 Note On  A#2
 In:  80  3A  00  |  Ch 1 Note Off A#2
 In:  80  3E  00  |  Ch 1 Note Off D3
 In:  80  3C  00  |  Ch 1 Note Off C3
 In:  80  3B  00  |  Ch 1 Note Off B2
 In:  80  3D  00  |  Ch 1 Note Off C#3
 In:  80  39  00  |  Ch 1 Note Off A2
 In:  90  3A  69  |  Ch 1 Note On  A#2
 In:  90  37  31  |  Ch 1 Note On  G2
 In:  90  3C  26  |  Ch 1 Note On  C3
 In:  90  3D  24  |  Ch 1 Note On  C#3
 In:  90  3B  22  |  Ch 1 Note On  B2
 In:  90  3E  1F  |  Ch 1 Note On  D3
 In:  80  3D  00  |  Ch 1 Note Off C#3
 In:  80  3E  00  |  Ch 1 Note Off D3
 In:  80  3C  00  |  Ch 1 Note Off C3
 In:  80  3B  00  |  Ch 1 Note Off B2
 In:  80  37  00  |  Ch 1 Note Off G2
 In:  80  39  00  |  Ch 1 Note Off A2
 In:  80  3A  00  |  Ch 1 Note Off A#2
 In:  90  38  6F  |  Ch 1 Note On  G#2
 In:  90  3A  57  |  Ch 1 Note On  A#2
 In:  90  3C  52  |  Ch 1 Note On  C3
 In:  90  37  43  |  Ch 1 Note On  G2
 In:  90  3B  40  |  Ch 1 Note On  B2
 In:  90  39  2E  |  Ch 1 Note On  A2
 In:  90  35  23  |  Ch 1 Note On  F2
 In:  80  35  00  |  Ch 1 Note Off F2
 In:  80  3B  00  |  Ch 1 Note Off B2
 In:  80  39  00  |  Ch 1 Note Off A2
 In:  80  3C  00  |  Ch 1 Note Off C3
 In:  80  3A  00  |  Ch 1 Note Off A#2
 In:  80  37  00  |  Ch 1 Note Off G2
 In:  80  38  00  |  Ch 1 Note Off G#2
 In:  90  38  6E  |  Ch 1 Note On  G#2
 In:  90  36  63  |  Ch 1 Note On  F#2
 In:  90  3B  50  |  Ch 1 Note On  B2
 In:  90  35  46  |  Ch 1 Note On  F2
 In:  90  39  34  |  Ch 1 Note On  A2
 In:  90  37  3D  |  Ch 1 Note On  G2
 In:  90  3A  19  |  Ch 1 Note On  A#2
 In:  80  3A  00  |  Ch 1 Note Off A#2
 In:  80  35  00  |  Ch 1 Note Off F2
 In:  80  37  00  |  Ch 1 Note Off G2
 In:  80  39  00  |  Ch 1 Note Off A2
 In:  80  36  00  |  Ch 1 Note Off F#2
 In:  80  3B  00  |  Ch 1 Note Off B2
 In:  80  38  00  |  Ch 1 Note Off G#2
 In:  90  36  6A  |  Ch 1 Note On  F#2
 In:  90  38  4E  |  Ch 1 Note On  G#2
 In:  90  39  2C  |  Ch 1 Note On  A2
 In:  90  34  52  |  Ch 1 Note On  E2
 In:  90  37  30  |  Ch 1 Note On  G2
 In:  90  35  45  |  Ch 1 Note On  F2
 In:  80  37  00  |  Ch 1 Note Off G2
 In:  80  39  00  |  Ch 1 Note Off A2
 In:  80  35  00  |  Ch 1 Note Off F2
 In:  80  34  00  |  Ch 1 Note Off E2
 In:  80  38  00  |  Ch 1 Note Off G#2
 In:  80  36  00  |  Ch 1 Note Off F#2
 In:  90  36  5F  |  Ch 1 Note On  F#2
 In:  90  33  46  |  Ch 1 Note On  D#2
 In:  90  34  43  |  Ch 1 Note On  E2
 In:  90  35  2C  |  Ch 1 Note On  F2
 In:  90  39  25  |  Ch 1 Note On  A2
 In:  90  37  24  |  Ch 1 Note On  G2
 In:  90  38  21  |  Ch 1 Note On  G#2
 In:  80  38  00  |  Ch 1 Note Off G#2
 In:  80  39  00  |  Ch 1 Note Off A2
 In:  80  33  00  |  Ch 1 Note Off D#2
 In:  80  37  00  |  Ch 1 Note Off G2
 In:  80  35  00  |  Ch 1 Note Off F2
 In:  80  34  00  |  Ch 1 Note Off E2
 In:  80  36  00  |  Ch 1 Note Off F#2
 In:  90  33  72  |  Ch 1 Note On  D#2
 In:  90  36  64  |  Ch 1 Note On  F#2
 In:  90  34  26  |  Ch 1 Note On  E2
 In:  90  37  21  |  Ch 1 Note On  G2
 In:  90  32  27  |  Ch 1 Note On  D2
 In:  90  35  21  |  Ch 1 Note On  F2
 In:  80  37  00  |  Ch 1 Note Off G2
 In:  80  35  00  |  Ch 1 Note Off F2
 In:  80  32  00  |  Ch 1 Note Off D2
 In:  80  34  00  |  Ch 1 Note Off E2
 In:  80  36  00  |  Ch 1 Note Off F#2
 In:  80  33  00  |  Ch 1 Note Off D#2
 In:  90  31  77  |  Ch 1 Note On  C#2
 In:  90  33  75  |  Ch 1 Note On  D#2
 In:  90  34  3D  |  Ch 1 Note On  E2
 In:  90  35  32  |  Ch 1 Note On  F2
 In:  90  32  30  |  Ch 1 Note On  D2
 In:  90  30  28  |  Ch 1 Note On  C2
 In:  90  37  23  |  Ch 1 Note On  G2
 In:  80  37  00  |  Ch 1 Note Off G2
 In:  80  30  00  |  Ch 1 Note Off C2
 In:  80  32  00  |  Ch 1 Note Off D2
 In:  80  35  00  |  Ch 1 Note Off F2
 In:  80  34  00  |  Ch 1 Note Off E2
 In:  80  33  00  |  Ch 1 Note Off D#2
 In:  80  31  00  |  Ch 1 Note Off C#2
 In:  90  31  60  |  Ch 1 Note On  C#2
 In:  90  33  5C  |  Ch 1 Note On  D#2
 In:  90  35  4D  |  Ch 1 Note On  F2
 In:  90  34  40  |  Ch 1 Note On  E2
 In:  90  30  37  |  Ch 1 Note On  C2
 In:  90  32  3C  |  Ch 1 Note On  D2
 In:  80  34  00  |  Ch 1 Note Off E2
 In:  80  32  00  |  Ch 1 Note Off D2
 In:  80  35  00  |  Ch 1 Note Off F2
 In:  80  30  00  |  Ch 1 Note Off C2
 In:  80  33  00  |  Ch 1 Note Off D#2
 In:  80  31  00  |  Ch 1 Note Off C#2
 In:  90  33  76  |  Ch 1 Note On  D#2
 In:  90  36  73  |  Ch 1 Note On  F#2
 In:  90  37  57  |  Ch 1 Note On  G2
 In:  90  35  4B  |  Ch 1 Note On  F2
 In:  90  34  50  |  Ch 1 Note On  E2
 In:  90  32  44  |  Ch 1 Note On  D2
 In:  80  32  00  |  Ch 1 Note Off D2
 In:  80  34  00  |  Ch 1 Note Off E2
 In:  80  35  00  |  Ch 1 Note Off F2
 In:  80  36  00  |  Ch 1 Note Off F#2
 In:  80  37  00  |  Ch 1 Note Off G2
 In:  80  33  00  |  Ch 1 Note Off D#2
 In:  90  36  4A  |  Ch 1 Note On  F#2
 In:  90  34  44  |  Ch 1 Note On  E2
 In:  90  35  28  |  Ch 1 Note On  F2
 In:  90  37  24  |  Ch 1 Note On  G2
 In:  90  39  22  |  Ch 1 Note On  A2
 In:  90  38  24  |  Ch 1 Note On  G#2
 In:  80  38  00  |  Ch 1 Note Off G#2
 In:  80  39  00  |  Ch 1 Note Off A2
 In:  80  35  00  |  Ch 1 Note Off F2
 In:  80  37  00  |  Ch 1 Note Off G2
 In:  80  34  00  |  Ch 1 Note Off E2
 In:  80  36  00  |  Ch 1 Note Off F#2
 In:  90  38  6F  |  Ch 1 Note On  G#2
 In:  90  3A  71  |  Ch 1 Note On  A#2
 In:  90  37  2B  |  Ch 1 Note On  G2
 In:  90  39  2C  |  Ch 1 Note On  A2
 In:  90  35  26  |  Ch 1 Note On  F2
 In:  90  3B  0F  |  Ch 1 Note On  B2
 In:  80  35  00  |  Ch 1 Note Off F2
 In:  80  3B  00  |  Ch 1 Note Off B2
 In:  80  37  00  |  Ch 1 Note Off G2
 In:  80  39  00  |  Ch 1 Note Off A2
 In:  80  3A  00  |  Ch 1 Note Off A#2
 In:  80  38  00  |  Ch 1 Note Off G#2
 In:  90  3A  63  |  Ch 1 Note On  A#2
 In:  90  39  52  |  Ch 1 Note On  A2
 In:  90  3D  54  |  Ch 1 Note On  C#3
 In:  90  3B  43  |  Ch 1 Note On  B2
 In:  90  3E  41  |  Ch 1 Note On  D3
 In:  90  3C  34  |  Ch 1 Note On  C3
 In:  80  3D  00  |  Ch 1 Note Off C#3
 In:  80  3C  00  |  Ch 1 Note Off C3
 In:  80  3E  00  |  Ch 1 Note Off D3
 In:  80  3B  00  |  Ch 1 Note Off B2
 In:  80  3A  00  |  Ch 1 Note Off A#2
 In:  80  39  00  |  Ch 1 Note Off A2
 In:  90  3D  6F  |  Ch 1 Note On  C#3
 In:  90  3B  55  |  Ch 1 Note On  B2
 In:  90  3C  4C  |  Ch 1 Note On  C3
 In:  90  40  4C  |  Ch 1 Note On  E3
 In:  90  39  38  |  Ch 1 Note On  A2
 In:  90  3E  25  |  Ch 1 Note On  D3
 In:  90  3F  24  |  Ch 1 Note On  D#3
 In:  80  39  00  |  Ch 1 Note Off A2
 In:  80  3F  00  |  Ch 1 Note Off D#3
 In:  80  3E  00  |  Ch 1 Note Off D3
 In:  80  40  00  |  Ch 1 Note Off E3
 In:  80  3C  00  |  Ch 1 Note Off C3
 In:  80  3D  00  |  Ch 1 Note Off C#3
 In:  90  3F  72  |  Ch 1 Note On  D#3
 In:  90  3C  59  |  Ch 1 Note On  C3
 In:  90  40  55  |  Ch 1 Note On  E3
 In:  90  42  57  |  Ch 1 Note On  F#3
 In:  90  3E  52  |  Ch 1 Note On  D3
 In:  90  41  4A  |  Ch 1 Note On  F3
 In:  80  42  00  |  Ch 1 Note Off F#3
 In:  80  41  00  |  Ch 1 Note Off F3
 In:  80  3E  00  |  Ch 1 Note Off D3
 In:  80  3C  00  |  Ch 1 Note Off C3
 In:  80  40  00  |  Ch 1 Note Off E3
 In:  80  3F  00  |  Ch 1 Note Off D#3
 In:  90  44  21  |  Ch 1 Note On  G#3
 In:  90  42  3D  |  Ch 1 Note On  F#3
 In:  90  40  30  |  Ch 1 Note On  E3
 In:  90  43  1C  |  Ch 1 Note On  G3
 In:  90  3E  32  |  Ch 1 Note On  D3
 In:  90  45  21  |  Ch 1 Note On  A3
 In:  90  41  24  |  Ch 1 Note On  F3
 In:  80  41  00  |  Ch 1 Note Off F3
 In:  80  45  00  |  Ch 1 Note Off A3
 In:  80  3E  00  |  Ch 1 Note Off D3
 In:  80  42  00  |  Ch 1 Note Off F#3
 In:  80  40  00  |  Ch 1 Note Off E3
 In:  80  43  00  |  Ch 1 Note Off G3
 In:  80  44  00  |  Ch 1 Note Off G#3
 In:  90  46  3B  |  Ch 1 Note On  A#3
 In:  90  45  27  |  Ch 1 Note On  A3
 In:  90  47  26  |  Ch 1 Note On  B3
 In:  90  44  3F  |  Ch 1 Note On  G#3
 In:  90  41  39  |  Ch 1 Note On  F3
 In:  90  43  27  |  Ch 1 Note On  G3
 In:  90  40  39  |  Ch 1 Note On  E3
 In:  80  40  00  |  Ch 1 Note Off E3
 In:  80  43  00  |  Ch 1 Note Off G3
 In:  80  41  00  |  Ch 1 Note Off F3
 In:  80  44  00  |  Ch 1 Note Off G#3
 In:  80  45  00  |  Ch 1 Note Off A3
 In:  80  47  00  |  Ch 1 Note Off B3
 In:  80  46  00  |  Ch 1 Note Off A#3
 In:  90  46  25  |  Ch 1 Note On  A#3
 In:  90  47  24  |  Ch 1 Note On  B3
 In:  90  48  3D  |  Ch 1 Note On  C4
 In:  90  45  25  |  Ch 1 Note On  A3
 In:  90  41  27  |  Ch 1 Note On  F3
 In:  90  44  25  |  Ch 1 Note On  G#3
 In:  90  43  23  |  Ch 1 Note On  G3
 In:  80  44  00  |  Ch 1 Note Off G#3
 In:  80  43  00  |  Ch 1 Note Off G3
 In:  80  41  00  |  Ch 1 Note Off F3
 In:  80  45  00  |  Ch 1 Note Off A3
 In:  80  48  00  |  Ch 1 Note Off C4
 In:  80  46  00  |  Ch 1 Note Off A#3
 In:  80  47  00  |  Ch 1 Note Off B3