 In:  90  3C  58  |  Ch 1 Note On  C3
 In:  90  32  41  |  Ch 1 Note On  D2
 In:  90  37  2B  |  Ch 1 Note On  G2
 In:  90  34  42  |  Ch 1 Note On  E2
 In:  90  35  1C  |  Ch 1 Note On  F2
 In:  80  35  00  |  Ch 1 Note Off F2
 In:  80  34  00  |  Ch 1 Note Off E2
 In:  80  37  00  |  Ch 1 Note Off G2
 In:  80  32  00  |  Ch 1 Note Off D2
 In:  80  3C  00  |  Ch 1 Note Off C3
 In:  90  43  50  |  Ch 1 Note On  G3
 In:  90  39  2E  |  Ch 1 Note On  A2
 In:  90  40  4F  |  Ch 1 Note On  E3
 In:  80  40  00  |  Ch 1 Note Off E3
 In:  80  43  00  |  Ch 1 Note Off G3
 In:  80  39  00  |  Ch 1 Note Off A2
 In:  90  44  27  |  Ch 1 Note On  G#3
 In:  90  42  53  |  Ch 1 Note On  F#3
 In:  90  3C  26  |  Ch 1 Note On  C3
 In:  90  45  2B  |  Ch 1 Note On  A3
 In:  80  42  00  |  Ch 1 Note Off F#3
 In:  80  44  00  |  Ch 1 Note Off G#3
 In:  80  45  00  |  Ch 1 Note Off A3
 In:  80  3C  00  |  Ch 1 Note Off C3
 In:  90  3A  42  |  Ch 1 Note On  A#2
 In:  90  3F  38  |  Ch 1 Note On  D#3
 In:  90  35  22  |  Ch 1 Note On  F2
 In:  90  40  28  |  Ch 1 Note On  E3
 In:  80  3A  00  |  Ch 1 Note Off A#2
 In:  80  3F  00  |  Ch 1 Note Off D#3
 In:  80  40  00  |  Ch 1 Note Off E3
 In:  80  35  00  |  Ch 1 Note Off F2
 In:  90  31  23  |  Ch 1 Note On  C#2
 In:  90  36  2B  |  Ch 1 Note On  F#2
 In:  90  37  25  |  Ch 1 Note On  G2
 In:  90  39  25  |  Ch 1 Note On  A2
 In:  80  36  00  |  Ch 1 Note Off F#2
 In:  80  37  00  |  Ch 1 Note Off G2
 In:  80  31  00  |  Ch 1 Note Off C#2
 In:  80  39  00  |  Ch 1 Note Off A2
 In:  90  33  2E  |  Ch 1 Note On  D#2
 In:  90  30  2D  |  Ch 1 Note On  C2
 In:  90  36  27  |  Ch 1 Note On  F#2
 In:  90  37  0D  |  Ch 1 Note On  G2
 In:  80  37  00  |  Ch 1 Note Off G2
 In:  80  36  00  |  Ch 1 Note Off F#2
 In:  80  33  00  |  Ch 1 Note Off D#2
 In:  80  30  00  |  Ch 1 Note Off C2
 In:  90  36  2C  |  Ch 1 Note On  F#2
 In:  90  3B  30  |  Ch 1 Note On  B2
 In:  90  3C  28  |  Ch 1 Note On  C3
 In:  90  32  23  |  Ch 1 Note On  D2
 In:  90  34  26  |  Ch 1 Note On  E2
 In:  80  34  00  |  Ch 1 Note Off E2
 In:  80  36  00  |  Ch 1 Note Off F#2
 In:  80  32  00  |  Ch 1 Note Off D2
 In:  80  3C  00  |  Ch 1 Note Off C3
 In:  90  3C  4D  |  Ch 1 Note On  C3
 In:  90  41  25  |  Ch 1 Note On  F3
 In:  90  37  27  |  Ch 1 Note On  G2
 In:  90  35  27  |  Ch 1 Note On  F2
 In:  80  35  00  |  Ch 1 Note Off F2
 In:  80  37  00  |  Ch 1 Note Off G2
 In:  80  3C  00  |  Ch 1 Note Off C3
 In:  80  41  00  |  Ch 1 Note Off F3
 In:  90  41  42  |  Ch 1 Note On  F3
 In:  90  45  48  |  Ch 1 Note On  A3
 In:  90  43  4A  |  Ch 1 Note On  G3
 In:  80  43  00  |  Ch 1 Note Off G3
 In:  80  41  00  |  Ch 1 Note Off F3
 In:  80  45  00  |  Ch 1 Note Off A3
 In:  90  46  3D  |  Ch 1 Note On  A#3
 In:  90  44  42  |  Ch 1 Note On  G#3
 In:  90  42  32  |  Ch 1 Note On  F#3
 In:  80  44  00  |  Ch 1 Note Off G#3
 In:  80  46  00  |  Ch 1 Note Off A#3
 In:  80  42  00  |  Ch 1 Note Off F#3
 In:  90  3D  27  |  Ch 1 Note On  C#3
 In:  90  39  20  |  Ch 1 Note On  A2
 In:  90  40  41  |  Ch 1 Note On  E3
 In:  80  3D  00  |  Ch 1 Note Off C#3
 In:  80  40  00  |  Ch 1 Note Off E3
 In:  80  39  00  |  Ch 1 Note Off A2
 In:  90  35  27  |  Ch 1 Note On  F2
 In:  90  37  2C  |  Ch 1 Note On  G2
 In:  90  39  2F  |  Ch 1 Note On  A2
 In:  90  3B  3D  |  Ch 1 Note On  B2
 In:  80  39  00  |  Ch 1 Note Off A2
 In:  80  37  00  |  Ch 1 Note Off G2
 In:  80  3B  00  |  Ch 1 Note Off B2
 In:  80  35  00  |  Ch 1 Note Off F2
 In:  90  3A  1A  |  Ch 1 Note On  A#2
 In:  90  3D  1D  |  Ch 1 Note On  C#3
 In:  90  40  16  |  Ch 1 Note On  E3
 In:  80  3D  00  |  Ch 1 Note Off C#3
 In:  80  40  00  |  Ch 1 Note Off E3
 In:  80  3A  00  |  Ch 1 Note Off A#2
 In:  90  38  28  |  Ch 1 Note On  G#2
 In:  90  36  37  |  Ch 1 Note On  F#2
 In:  90  3A  32  |  Ch 1 Note On  A#2
 In:  80  3A  00  |  Ch 1 Note Off A#2
 In:  80  38  00  |  Ch 1 Note Off G#2
 In:  80  36  00  |  Ch 1 Note Off F#2
 In:  90  33  30  |  Ch 1 Note On  D#2
 In:  90  31  34  |  Ch 1 Note On  C#2
 In:  80  31  00  |  Ch 1 Note Off C#2
 In:  80  33  00  |  Ch 1 Note Off D#2
 In:  90  3D  4F  |  Ch 1 Note On  C#3
 In:  90  3F  4E  |  Ch 1 Note On  D#3
 In:  80  3D  00  |  Ch 1 Note Off C#3
 In:  80  3F  00  |  Ch 1 Note Off D#3
 In:  90  42  11  |  Ch 1 Note On  F#3
 In:  90  46  45  |  Ch 1 Note On  A#3
 In:  90  44  36  |  Ch 1 Note On  G#3
 In:  80  46  00  |  Ch 1 Note Off A#3
 In:  80  44  00  |  Ch 1 Note Off G#3
 In:  80  42  00  |  Ch 1 Note Off F#3
 In:  90  48  38  |  Ch 1 Note On  C4
 In:  90  45  40  |  Ch 1 Note On  A3
 In:  90  47  3E  |  Ch 1 Note On  B3
 In:  80  47  00  |  Ch 1 Note Off B3
 In:  80  45  00  |  Ch 1 Note Off A3
 In:  80  48  00  |  Ch 1 Note Off C4
 In:  90  43  5C  |  Ch 1 Note On  G3
 In:  90  40  5B  |  Ch 1 Note On  E3
 In:  90  41  61  |  Ch 1 Note On  F3
 In:  80  41  00  |  Ch 1 Note Off F3
 In:  80  40  00  |  Ch 1 Note Off E3
 In:  80  43  00  |  Ch 1 Note Off G3
 In:  90  3B  4C  |  Ch 1 Note On  B2
 In:  90  3C  5E  |  Ch 1 Note On  C3
 In:  90  3E  5E  |  Ch 1 Note On  D3
 In:  80  3B  00  |  Ch 1 Note Off B2
 In:  80  3C  00  |  Ch 1 Note Off C3
 In:  80  3E  00  |  Ch 1 Note Off D3
 In:  90  35  4E  |  Ch 1 Note On  F2
 In:  90  37  49  |  Ch 1 Note On  G2
 In:  90  39  47  |  Ch 1 Note On  A2
 In:  80  35  00  |  Ch 1 Note Off F2
 In:  80  37  00  |  Ch 1 Note Off G2
 In:  80  39  00  |  Ch 1 Note Off A2
 In:  90  30  4E  |  Ch 1 Note On  C2
 In:  90  32  5C  |  Ch 1 Note On  D2
 In:  90  34  4E  |  Ch 1 Note On  E2
 In:  80  32  00  |  Ch 1 Note Off D2
 In:  80  30  00  |  Ch 1 Note Off C2
 In:  80  34  00  |  Ch 1 Note Off E2
 In:  90  31  42  |  Ch 1 Note On  C#2
 In:  90  30  2E  |  Ch 1 Note On  C2
 In:  90  34  4D  |  Ch 1 Note On  E2
 In:  80  34  00  |  Ch 1 Note Off E2
 In:  80  31  00  |  Ch 1 Note Off C#2
 In:  80  30  00  |  Ch 1 Note Off C2
 In:  90  35  28  |  Ch 1 Note On  F2
 In:  90  37  3D  |  Ch 1 Note On  G2
 In:  90  39  25  |  Ch 1 Note On  A2
 In:  80  37  00  |  Ch 1 Note Off G2
 In:  80  35  00  |  Ch 1 Note Off F2
 In:  80  39  00  |  Ch 1 Note Off A2
 In:  90  42  2D  |  Ch 1 Note On  F#3
 In:  90  3C  2A  |  Ch 1 Note On  C3
 In:  90  47  39  |  Ch 1 Note On  B3
 In:  90  45  27  |  Ch 1 Note On  A3
 In:  80  45  00  |  Ch 1 Note Off A3
 In:  80  42  00  |  Ch 1 Note Off F#3
 In:  80  47  00  |  Ch 1 Note Off B3
 In:  80  3C  00  |  Ch 1 Note Off C3
 In:  90  35  3B  |  Ch 1 Note On  F2
 In:  90  3A  28  |  Ch 1 Note On  A#2
 In:  90  3E  2D  |  Ch 1 Note On  D3
 In:  90  3C  28  |  Ch 1 Note On  C3
 In:  80  3C  00  |  Ch 1 Note Off C3
 In:  80  3E  00  |  Ch 1 Note Off D3
 In:  80  3A  00  |  Ch 1 Note Off A#2
 In:  80  35  00  |  Ch 1 Note Off F2
 In:  90  3E  2A  |  Ch 1 Note On  D3
 In:  90  43  48  |  Ch 1 Note On  G3
 In:  90  47  46  |  Ch 1 Note On  B3
 In:  80  47  00  |  Ch 1 Note Off B3
 In:  80  43  00  |  Ch 1 Note Off G3
 In:  80  3E  00  |  Ch 1 Note Off D3
 In:  90  40  40  |  Ch 1 Note On  E3
 In:  90  34  38  |  Ch 1 Note On  E2
 In:  90  35  31  |  Ch 1 Note On  F2
 In:  90  3B  3D  |  Ch 1 Note On  B2
 In:  80  3B  00  |  Ch 1 Note Off B2
 In:  80  40  00  |  Ch 1 Note Off E3
 In:  80  35  00  |  Ch 1 Note Off F2
 In:  80  34  00  |  Ch 1 Note Off E2
 In:  90  38  23  |  Ch 1 Note On  G#2
 In:  90  35  1C  |  Ch 1 Note On  F2
 In:  90  3E  0D  |  Ch 1 Note On  D3
 In:  80  3E  00  |  Ch 1 Note Off D3
 In:  80  38  00  |  Ch 1 Note Off G#2
 In:  80  35  00  |  Ch 1 Note Off F2
 In:  90  38  07  |  Ch 1 Note On  G#2
 In:  90  30  21  |  Ch 1 Note On  C2
 In:  90  33  28  |  Ch 1 Note On  D#2
 In:  80  33  00  |  Ch 1 Note Off D#2
 In:  80  38  00  |  Ch 1 Note Off G#2
 In:  80  30  00  |  Ch 1 Note Off C2
 In:  90  40  24  |  Ch 1 Note On  E3
 In:  90  3B  24  |  Ch 1 Note On  B2
 In:  90  43  25  |  Ch 1 Note On  G3
 In:  80  3B  00  |  Ch 1 Note Off B2
 In:  80  40  00  |  Ch 1 Note Off E3
 In:  80  43  00  |  Ch 1 Note Off G3
 In:  90  46  28  |  Ch 1 Note On  A#3
 In:  90  48  25  |  Ch 1 Note On  C4
 In:  90  40  23  |  Ch 1 Note On  E3
 In:  80  46  00  |  Ch 1 Note Off A#3
 In:  80  48  00  |  Ch 1 Note Off C4
 In:  80  40  00  |  Ch 1 Note Off E3
 In:  90  41  24  |  Ch 1 Note On  F3
 In:  90  3C  24  |  Ch 1 Note On  C3
 In:  80  3C  00  |  Ch 1 Note Off C3
 In:  80  41  00  |  Ch 1 Note Off F3
 In:  80  45  00  |  Ch 1 Note Off A3
 In:  90  37  25  |  Ch 1 Note On  G2
 In:  90  3C  30  |  Ch 1 Note On  C3
 In:  90  40  25  |  Ch 1 Note On  E3
 In:  80  3C  00  |  Ch 1 Note Off C3
 In:  80  40  00  |  Ch 1 Note Off E3
 In:  80  37  00  |  Ch 1 Note Off G2
 In:  90  3D  3B  |  Ch 1 Note On  C#3
 In:  90  39  1F  |  Ch 1 Note On  A2
 In:  90  40  23  |  Ch 1 Note On  E3
 In:  80  3D  00  |  Ch 1 Note Off C#3
 In:  80  40  00  |  Ch 1 Note Off E3
 In:  80  39  00  |  Ch 1 Note Off A2
 In:  90  34  15  |  Ch 1 Note On  E2
 In:  90  39  37  |  Ch 1 Note On  A2
 In:  90  3E  27  |  Ch 1 Note On  D3
 In:  80  39  00  |  Ch 1 Note Off A2
 In:  80  3E  00  |  Ch 1 Note Off D3
 In:  80  34  00  |  Ch 1 Note Off E2
 In:  90  35  1C  |  Ch 1 Note On  F2
 In:  90  38  26  |  Ch 1 Note On  G#2
 In:  90  3C  26  |  Ch 1 Note On  C3
 In:  80  38  00  |  Ch 1 Note Off G#2
 In:  80  3C  00  |  Ch 1 Note Off C3
 In:  80  35  00  |  Ch 1 Note Off F2
 In:  90  35  22  |  Ch 1 Note On  F2
 In:  90  39  24  |  Ch 1 Note On  A2
 In:  90  3B  2B  |  Ch 1 Note On  B2
 In:  90  3C  27  |  Ch 1 Note On  C3
 In:  80  3C  00  |  Ch 1 Note Off C3
 In:  80  3B  00  |  Ch 1 Note Off B2
 In:  80  39  00  |  Ch 1 Note Off A2
 In:  80  35  00  |  Ch 1 Note Off F2
 In:  90  3C  0A  |  Ch 1 Note On  C3
 In:  90  45  23  |  Ch 1 Note On  A3
 In:  90  43  26  |  Ch 1 Note On  G3
 In:  90  40  23  |  Ch 1 Note On  E3
 In:  80  40  00  |  Ch 1 Note Off E3
 In:  80  43  00  |  Ch 1 Note Off G3
 In:  80  45  00  |  Ch 1 Note Off A3
 In:  80  3C  00  |  Ch 1 Note Off C3
 In:  90  3F  46  |  Ch 1 Note On  D#3
 In:  90  43  28  |  Ch 1 Note On  G3
 In:  90  3C  23  |  Ch 1 Note On  C3
 In:  80  3F  00  |  Ch 1 Note Off D#3
 In:  80  3C  00  |  Ch 1 Note Off C3
 In:  80  43  00  |  Ch 1 Note Off G3
 In:  90  36  23  |  Ch 1 Note On  F#2
 In:  90  32  16  |  Ch 1 Note On  D2
 In:  90  3B  14  |  Ch 1 Note On  B2
 In:  80  36  00  |  Ch 1 Note Off F#2
 In:  80  3B  00  |  Ch 1 Note Off B2
 In:  80  32  00  |  Ch 1 Note Off D2
 In:  90  30  21  |  Ch 1 Note On  C2
 In:  90  37  11  |  Ch 1 Note On  G2
 In:  90  32  1C  |  Ch 1 Note On  D2
 In:  80  37  00  |  Ch 1 Note Off G2
 In:  80  32  00  |  Ch 1 Note Off D2
 In:  80  30  00  |  Ch 1 Note Off C2
 In:  90  40  1B  |  Ch 1 Note On  E3
 In:  90  37  1A  |  Ch 1 Note On  G2
 In:  90  35  1C  |  Ch 1 Note On  F2
 In:  90  39  16  |  Ch 1 Note On  A2
 In:  80  39  00  |  Ch 1 Note Off A2
 In:  80  35  00  |  Ch 1 Note Off F2
 In:  80  37  00  |  Ch 1 Note Off G2
 In:  80  40  00  |  Ch 1 Note Off E3
 In:  90  42  28  |  Ch 1 Note On  F#3
 In:  90  45  21  |  Ch 1 Note On  A3
 In:  90  3C  1F  |  Ch 1 Note On  C3
 In:  80  42  00  |  Ch 1 Note Off F#3
 In:  80  3C  00  |  Ch 1 Note Off C3
 In:  80  45  00  |  Ch 1 Note Off A3
 In:  90  41  2E  |  Ch 1 Note On  F3
 In:  90  3D  40  |  Ch 1 Note On  C#3
 In:  90  37  1F  |  Ch 1 Note On  G2
 In:  90  39  1F  |  Ch 1 Note On  A2
 In:  80  3D  00  |  Ch 1 Note Off C#3
 In:  80  41  00  |  Ch 1 Note Off F3
 In:  80  39  00  |  Ch 1 Note Off A2
 In:  80  37  00  |  Ch 1 Note Off G2
 In:  90  3A  30  |  Ch 1 Note On  A#2
 In:  90  38  2A  |  Ch 1 Note On  G#2
 In:  90  36  33  |  Ch 1 Note On  F#2
 In:  80  38  00  |  Ch 1 Note Off G#2
 In:  80  36  00  |  Ch 1 Note Off F#2
 In:  80  3A  00  |  Ch 1 Note Off A#2
 In:  90  3C  1A  |  Ch 1 Note On  C3
 In:  90  45  2D  |  Ch 1 Note On  A3
 In:  90  40  31  |  Ch 1 Note On  E3
 In:  90  43  37  |  Ch 1 Note On  G3
 In:  80  43  00  |  Ch 1 Note Off G3
 In:  80  40  00  |  Ch 1 Note Off E3
 In:  80  45  00  |  Ch 1 Note Off A3
 In:  80  3C  00  |  Ch 1 Note Off C3
 In:  90  3C  08  |  Ch 1 Note On  C3
 In:  90  37  21  |  Ch 1 Note On  G2
 In:  80  37  00  |  Ch 1 Note Off G2
 In:  80  3C  00  |  Ch 1 Note Off C3
 In:  90  35  52  |  Ch 1 Note On  F2
 In:  90  32  58  |  Ch 1 Note On  D2
 In:  80  32  00  |  Ch 1 Note Off D2
 In:  80  35  00  |  Ch 1 Note Off F2
 In:  90  3F  4F  |  Ch 1 Note On  D#3
 In:  90  3B  2D  |  Ch 1 Note On  B2
 In:  90  42  31  |  Ch 1 Note On  F#3
 In:  90  43  41  |  Ch 1 Note On  G3
 In:  80  42  00  |  Ch 1 Note Off F#3
 In:  80  3F  00  |  Ch 1 Note Off D#3
 In:  80  43  00  |  Ch 1 Note Off G3
 In:  80  3B  00  |  Ch 1 Note Off B2
 In:  90  34  1F  |  Ch 1 Note On  E2
 In:  90  3A  1F  |  Ch 1 Note On  A#2
 In:  90  38  16  |  Ch 1 Note On  G#2
 In:  80  38  00  |  Ch 1 Note Off G#2
 In:  80  3A  00  |  Ch 1 Note Off A#2
 In:  80  3C  00  |  Ch 1 Note Off C3
 In:  80  34  00  |  Ch 1 Note Off E2
 In:  90  45  4E  |  Ch 1 Note On  A3
 In:  90  47  4F  |  Ch 1 Note On  B3
 In:  90  43  3A  |  Ch 1 Note On  G3
 In:  90  3E  25  |  Ch 1 Note On  D3
 In:  90  40  1E  |  Ch 1 Note On  E3
 In:  80  40  00  |  Ch 1 Note Off E3
 In:  80  45  00  |  Ch 1 Note Off A3
 In:  80  3E  00  |  Ch 1 Note Off D3
 In:  80  43  00  |  Ch 1 Note Off G3
 In:  80  47  00  |  Ch 1 Note Off B3
 In:  90  40  25  |  Ch 1 Note On  E3
 In:  90  37  20  |  Ch 1 Note On  G2
 In:  90  3B  27  |  Ch 1 Note On  B2
 In:  90  3C  50  |  Ch 1 Note On  C3
 In:  90  3E  3B  |  Ch 1 Note On  D3
 In:  80  3C  00  |  Ch 1 Note Off C3
 In:  80  3E  00  |  Ch 1 Note Off D3
 In:  80  3B  00  |  Ch 1 Note Off B2
 In:  80  40  00  |  Ch 1 Note Off E3
 In:  80  37  00  |  Ch 1 Note Off G2
 In:  90  35  32  |  Ch 1 Note On  F2
 In:  90  34  31  |  Ch 1 Note On  E2
 In:  90  37  36  |  Ch 1 Note On  G2
 In:  90  32  2A  |  Ch 1 Note On  D2
 In:  90  30  27  |  Ch 1 Note On  C2
 In:  80  30  00  |  Ch 1 Note Off C2
 In:  80  32  00  |  Ch 1 Note Off D2
 In:  80  37  00  |  Ch 1 Note Off G2
 In:  80  35  00  |  Ch 1 Note Off F2
 In:  80  34  00  |  Ch 1 Note Off E2
 In:  90  3F  4A  |  Ch 1 Note On  D#3
 In:  90  41  43  |  Ch 1 Note On  F3
 In:  90  3C  1E  |  Ch 1 Note On  C3
 In:  90  3B  13  |  Ch 1 Note On  B2
 In:  80  3B  00  |  Ch 1 Note Off B2
 In:  80  3C  00  |  Ch 1 Note Off C3
 In:  80  3F  00  |  Ch 1 Note Off D#3
 In:  80  41  00  |  Ch 1 Note Off F3
 In:  90  47  05  |  Ch 1 Note On  B3
 In:  90  44  2E  |  Ch 1 Note On  G#3
 In:  90  41  08  |  Ch 1 Note On  F3
 In:  80  44  00  |  Ch 1 Note Off G#3
 In:  80  47  00  |  Ch 1 Note Off B3
 In:  80  41  00  |  Ch 1 Note Off F3
 In:  90  3D  31  |  Ch 1 Note On  C#3
 In:  90  40  2A  |  Ch 1 Note On  E3
 In:  90  39  24  |  Ch 1 Note On  A2
 In:  80  3D  00  |  Ch 1 Note Off C#3
 In:  80  40  00  |  Ch 1 Note Off E3
 In:  80  39  00  |  Ch 1 Note Off A2
 In:  90  43  0A  |  Ch 1 Note On  G3
 In:  90  3C  22  |  Ch 1 Note On  C3
 In:  90  40  26  |  Ch 1 Note On  E3
 In:  80  40  00  |  Ch 1 Note Off E3
 In:  80  43  00  |  Ch 1 Note Off G3
 In:  80  3C  00  |  Ch 1 Note Off C3
 In:  90  39  22  |  Ch 1 Note On  A2
 In:  90  3C  2F  |  Ch 1 Note On  C3
 In:  90  40  27  |  Ch 1 Note On  E3
 In:  80  3C  00  |  Ch 1 Note Off C3
 In:  80  40  00  |  Ch 1 Note Off E3
 In:  80  39  00  |  Ch 1 Note Off A2
 In:  90  3C  37  |  Ch 1 Note On  C3
 In:  90  39  2C  |  Ch 1 Note On  A2
 In:  90  35  22  |  Ch 1 Note On  F2
 In:  80  39  00  |  Ch 1 Note Off A2
 In:  80  3C  00  |  Ch 1 Note Off C3
 In:  80  35  00  |  Ch 1 Note Off F2
 In:  90  34  27  |  Ch 1 Note On  E2
 In:  90  37  27  |  Ch 1 Note On  G2
 In:  90  3B  32  |  Ch 1 Note On  B2
 In:  80  3B  00  |  Ch 1 Note Off B2
 In:  80  37  00  |  Ch 1 Note Off G2
 In:  80  34  00  |  Ch 1 Note Off E2
 In:  90  35  32  |  Ch 1 Note On  F2
 In:  90  39  28  |  Ch 1 Note On  A2
 In:  90  32  2A  |  Ch 1 Note On  D2
 In:  80  39  00  |  Ch 1 Note Off A2
 In:  80  35  00  |  Ch 1 Note Off F2
 In:  80  32  00  |  Ch 1 Note Off D2
 In:  90  34  37  |  Ch 1 Note On  E2
 In:  90  30  25  |  Ch 1 Note On  C2
 In:  80  37  00  |  Ch 1 Note Off G2
 In:  80  34  00  |  Ch 1 Note Off E2
 In:  80  30  00  |  Ch 1 Note Off C2
 In:  90  32  1D  |  Ch 1 Note On  D2
 In:  90  35  21  |  Ch 1 Note On  F2
 In:  90  39  1C  |  Ch 1 Note On  A2
 In:  80  32  00  |  Ch 1 Note Off D2
 In:  80  35  00  |  Ch 1 Note Off F2
 In:  80  39  00  |  Ch 1 Note Off A2
 In:  90  37  35  |  Ch 1 Note On  G2
 In:  90  34  24  |  Ch 1 Note On  E2
 In:  90  3B  24  |  Ch 1 Note On  B2
 In:  80  3B  00  |  Ch 1 Note Off B2
 In:  80  37  00  |  Ch 1 Note Off G2
 In:  80  34  00  |  Ch 1 Note Off E2
 In:  90  3F  4F  |  Ch 1 Note On  D#3
 In:  90  3A  45  |  Ch 1 Note On  A#2
 In:  90  36  2B  |  Ch 1 Note On  F#2
 In:  80  3A  00  |  Ch 1 Note Off A#2
 In:  80  3F  00  |  Ch 1 Note Off D#3
 In:  80  36  00  |  Ch 1 Note Off F#2
 In:  90  3B  27  |  Ch 1 Note On  B2
 In:  90  3E  3F  |  Ch 1 Note On  D3
 In:  90  43  27  |  Ch 1 Note On  G3
 In:  80  43  00  |  Ch 1 Note Off G3
 In:  80  3E  00  |  Ch 1 Note Off D3
 In:  80  3B  00  |  Ch 1 Note Off B2
 In:  90  3D  26  |  Ch 1 Note On  C#3
 In:  90  46  2B  |  Ch 1 Note On  A#3
 In:  80  46  00  |  Ch 1 Note Off A#3
 In:  80  3D  00  |  Ch 1 Note Off C#3
 In:  90  3E  1B  |  Ch 1 Note On  D3
 In:  90  45  2E  |  Ch 1 Note On  A3
 In:  90  41  30  |  Ch 1 Note On  F3
 In:  90  43  30  |  Ch 1 Note On  G3
 In:  80  43  00  |  Ch 1 Note Off G3
 In:  80  45  00  |  Ch 1 Note Off A3
 In:  80  41  00  |  Ch 1 Note Off F3
 In:  80  3E  00  |  Ch 1 Note Off D3
 In:  90  42  1F  |  Ch 1 Note On  F#3
 In:  90  46  26  |  Ch 1 Note On  A#3
 In:  90  44  51  |  Ch 1 Note On  G#3
 In:  80  44  00  |  Ch 1 Note Off G#3
 In:  80  46  00  |  Ch 1 Note Off A#3
 In:  80  42  00  |  Ch 1 Note Off F#3
 In:  90  3D  23  |  Ch 1 Note On  C#3
 In:  90  3F  3C  |  Ch 1 Note On  D#3
 In:  80  3F  00  |  Ch 1 Note Off D#3
 In:  80  3D  00  |  Ch 1 Note Off C#3
 In:  90  37  26  |  Ch 1 Note On  G2
 In:  90  39  27  |  Ch 1 Note On  A2
 In:  90  3C  33  |  Ch 1 Note On  C3
 In:  90  41  27  |  Ch 1 Note On  F3
 In:  90  40  27  |  Ch 1 Note On  E3
 In:  80  40  00  |  Ch 1 Note Off E3
 In:  80  41  00  |  Ch 1 Note Off F3
 In:  80  3C  00  |  Ch 1 Note Off C3
 In:  80  39  00  |  Ch 1 Note Off A2
 In:  80  37  00  |  Ch 1 Note Off G2
 In:  90  41  34  |  Ch 1 Note On  F3
 In:  90  48  21  |  Ch 1 Note On  C4
 In:  80  48  00  |  Ch 1 Note Off C4
 In:  80  41  00  |  Ch 1 Note Off F3
 In:  90  3C  25  |  Ch 1 Note On  C3
 In:  90  43  28  |  Ch 1 Note On  G3
 In:  90  41  26  |  Ch 1 Note On  F3
 In:  80  41  00  |  Ch 1 Note Off F3
 In:  80  43  00  |  Ch 1 Note Off G3
 In:  80  3C  00  |  Ch 1 Note Off C3
 In:  90  39  28  |  Ch 1 Note On  A2
 In:  90  3E  4D  |  Ch 1 Note On  D3
 In:  80  3E  00  |  Ch 1 Note Off D3
 In:  80  39  00  |  Ch 1 Note Off A2
 In:  90  34  50  |  Ch 1 Note On  E2
 In:  90  3B  44  |  Ch 1 Note On  B2
 In:  90  3C  4A  |  Ch 1 Note On  C3
 In:  80  3C  00  |  Ch 1 Note Off C3
 In:  80  3B  00  |  Ch 1 Note Off B2
 In:  80  34  00  |  Ch 1 Note Off E2
 In:  90  30  24  |  Ch 1 Note On  C2
 In:  90  39  24  |  Ch 1 Note On  A2
 In:  90  33  27  |  Ch 1 Note On  D#2
 In:  80  39  00  |  Ch 1 Note Off A2
 In:  80  33  00  |  Ch 1 Note Off D#2
 In:  80  30  00  |  Ch 1 Note Off C2
 In:  90  3A  2A  |  Ch 1 Note On  A#2
 In:  90  37  26  |  Ch 1 Note On  G2
 In:  90  40  24  |  Ch 1 Note On  E3
 In:  90  41  21  |  Ch 1 Note On  F3
 In:  80  41  00  |  Ch 1 Note Off F3
 In:  80  40  00  |  Ch 1 Note Off E3
 In:  80  3A  00  |  Ch 1 Note Off A#2
 In:  80  37  00  |  Ch 1 Note Off G2
 In:  90  3F  5E  |  Ch 1 Note On  D#3
 In:  90  45  4A  |  Ch 1 Note On  A3
 In:  90  3C  1C  |  Ch 1 Note On  C3
 In:  80  3C  00  |  Ch 1 Note Off C3
 In:  80  3F  00  |  Ch 1 Note Off D#3
 In:  80  45  00  |  Ch 1 Note Off A3
 In:  90  47  27  |  Ch 1 Note On  B3
 In:  90  48  2D  |  Ch 1 Note On  C4
 In:  90  40  20  |  Ch 1 Note On  E3
 In:  90  44  54  |  Ch 1 Note On  G#3
 In:  80  44  00  |  Ch 1 Note Off G#3
 In:  80  48  00  |  Ch 1 Note Off C4
 In:  80  47  00  |  Ch 1 Note Off B3
 In:  80  40  00  |  Ch 1 Note Off E3
 In:  90  48  25  |  Ch 1 Note On  C4
 In:  90  45  4A  |  Ch 1 Note On  A3
 In:  80  45  00  |  Ch 1 Note Off A3
 In:  80  48  00  |  Ch 1 Note Off C4
 In:  90  45  45  |  Ch 1 Note On  A3
 In:  90  3C  56  |  Ch 1 Note On  C3
 In:  80  45  00  |  Ch 1 Note Off A3
 In:  80  3C  00  |  Ch 1 Note Off C3
 In:  90  39  28  |  Ch 1 Note On  A2
 In:  90  37  28  |  Ch 1 Note On  G2
 In:  80  37  00  |  Ch 1 Note Off G2
 In:  80  39  00  |  Ch 1 Note Off A2
 In:  90  38  5A  |  Ch 1 Note On  G#2
 In:  90  3E  4D  |  Ch 1 Note On  D3
 In:  90  35  2E  |  Ch 1 Note On  F2
 In:  90  37  28  |  Ch 1 Note On  G2
 In:  80  3E  00  |  Ch 1 Note Off D3
 In:  80  38  00  |  Ch 1 Note Off G#2
 In:  80  37  00  |  Ch 1 Note Off G2
 In:  80  35  00  |  Ch 1 Note Off F2
 In:  90  35  28  |  Ch 1 Note On  F2
 In:  90  34  2A  |  Ch 1 Note On  E2
 In:  80  34  00  |  Ch 1 Note Off E2
 In:  80  35  00  |  Ch 1 Note Off F2
 In:  90  42  5F  |  Ch 1 Note On  F#3
 In:  90  3B  3D  |  Ch 1 Note On  B2
 In:  90  3F  52  |  Ch 1 Note On  D#3
 In:  80  3F  00  |  Ch 1 Note Off D#3
 In:  80  42  00  |  Ch 1 Note Off F#3
 In:  80  3B  00  |  Ch 1 Note Off B2
 In:  90  44  29  |  Ch 1 Note On  G#3
 In:  90  47  27  |  Ch 1 Note On  B3
 In:  90  3E  39  |  Ch 1 Note On  D3
 In:  90  48  26  |  Ch 1 Note On  C4
 In:  80  44  00  |  Ch 1 Note Off G#3
 In:  80  48  00  |  Ch 1 Note Off C4
 In:  80  47  00  |  Ch 1 Note Off B3
 In:  80  3E  00  |  Ch 1 Note Off D3
 In:  90  46  27  |  Ch 1 Note On  A#3
 In:  90  40  23  |  Ch 1 Note On  E3
 In:  90  48  13  |  Ch 1 Note On  C4
 In:  80  40  00  |  Ch 1 Note Off E3
 In:  80  46  00  |  Ch 1 Note Off A#3
 In:  80  48  00  |  Ch 1 Note Off C4
 In:  90  45  52  |  Ch 1 Note On  A3
 In:  90  3C  56  |  Ch 1 Note On  C3
 In:  90  3E  4B  |  Ch 1 Note On  D3
 In:  80  45  00  |  Ch 1 Note Off A3
 In:  80  3E  00  |  Ch 1 Note Off D3
 In:  80  3C  00  |  Ch 1 Note Off C3
 In:  90  3F  6F  |  Ch 1 Note On  D#3
 In:  90  39  4E  |  Ch 1 Note On  A2
 In:  80  3F  00  |  Ch 1 Note Off D#3
 In:  80  39  00  |  Ch 1 Note Off A2
 In:  90  35  2D  |  Ch 1 Note On  F2
 In:  90  3A  20  |  Ch 1 Note On  A#2
 In:  80  3A  00  |  Ch 1 Note Off A#2
 In:  80  35  00  |  Ch 1 Note Off F2
 In:  90  38  41  |  Ch 1 Note On  G#2
 In:  90  32  28  |  Ch 1 Note On  D2
 In:  90  34  27  |  Ch 1 Note On  E2
 In:  80  38  00  |  Ch 1 Note Off G#2
 In:  80  34  00  |  Ch 1 Note Off E2
 In:  80  32  00  |  Ch 1 Note Off D2
 In:  90  39  4D  |  Ch 1 Note On  A2
 In:  80  39  00  |  Ch 1 Note Off A2
 In:  90  3C  41  |  Ch 1 Note On  C3
 In:  90  3B  31  |  Ch 1 Note On  B2
 In:  80  3B  00  |  Ch 1 Note Off B2
 In:  80  3C  00  |  Ch 1 Note Off C3
 In:  90  44  29  |  Ch 1 Note On  G#3
 In:  90  40  2E  |  Ch 1 Note On  E3
 In:  90  45  1E  |  Ch 1 Note On  A3
 In:  90  47  1D  |  Ch 1 Note On  B3
 In:  90  42  25  |  Ch 1 Note On  F#3
 In:  80  42  00  |  Ch 1 Note Off F#3
 In:  80  45  00  |  Ch 1 Note Off A3
 In:  80  47  00  |  Ch 1 Note Off B3
 In:  80  44  00  |  Ch 1 Note Off G#3
 In:  80  40  00  |  Ch 1 Note Off E3
 In:  90  48  49  |  Ch 1 Note On  C4
 In:  90  46  69  |  Ch 1 Note On  A#3
 In:  90  47  32  |  Ch 1 Note On  B3
 In:  90  43  48  |  Ch 1 Note On  G3
 In:  80  46  00  |  Ch 1 Note Off A#3
 In:  80  47  00  |  Ch 1 Note Off B3
 In:  80  43  00  |  Ch 1 Note Off G3
 In:  80  48  00  |  Ch 1 Note Off C4
 In:  90  46  64  |  Ch 1 Note On  A#3
 In:  80  46  00  |  Ch 1 Note Off A#3
 In:  90  44  79  |  Ch 1 Note On  G#3
 In:  90  42  49  |  Ch 1 Note On  F#3
 In:  90  41  2F  |  Ch 1 Note On  F3
 In:  80  42  00  |  Ch 1 Note Off F#3
 In:  80  44  00  |  Ch 1 Note Off G#3
 In:  80  41  00  |  Ch 1 Note Off F3
 In:  90  42  7A  |  Ch 1 Note On  F#3
 In:  90  3E  50  |  Ch 1 Note On  D3
 In:  90  44  2B  |  Ch 1 Note On  G#3
 In:  80  44  00  |  Ch 1 Note Off G#3
 In:  80  42  00  |  Ch 1 Note Off F#3
 In:  80  3E  00  |  Ch 1 Note Off D3
 In:  90  43  5B  |  Ch 1 Note On  G3
 In:  90  39  32  |  Ch 1 Note On  A2
 In:  90  37  39  |  Ch 1 Note On  G2
 In:  80  43  00  |  Ch 1 Note Off G3
 In:  80  39  00  |  Ch 1 Note Off A2
 In:  80  37  00  |  Ch 1 Note Off G2
 In:  90  34  3C  |  Ch 1 Note On  E2
 In:  90  43  5A  |  Ch 1 Note On  G3
 In:  90  32  2D  |  Ch 1 Note On  D2
 In:  90  3F  27  |  Ch 1 Note On  D#3
 In:  80  3F  00  |  Ch 1 Note Off D#3
 In:  80  43  00  |  Ch 1 Note Off G3
 In:  80  32  00  |  Ch 1 Note Off D2
 In:  80  34  00  |  Ch 1 Note Off E2
 In:  90  30  2E  |  Ch 1 Note On  C2
 In:  90  3D  29  |  Ch 1 Note On  C#3
 In:  90  40  2A  |  Ch 1 Note On  E3
 In:  90  41  27  |  Ch 1 Note On  F3
 In:  80  41  00  |  Ch 1 Note Off F3
 In:  80  3D  00  |  Ch 1 Note Off C#3
 In:  80  40  00  |  Ch 1 Note Off E3
 In:  80  30  00  |  Ch 1 Note Off C2
 In:  90  30  3B  |  Ch 1 Note On  C2
 In:  90  33  34  |  Ch 1 Note On  D#2
 In:  90  3A  1F  |  Ch 1 Note On  A#2
 In:  80  33  00  |  Ch 1 Note Off D#2
 In:  80  3A  00  |  Ch 1 Note Off A#2
 In:  80  30  00  |  Ch 1 Note Off C2
 In:  90  3F  73  |  Ch 1 Note On  D#3
 In:  90  38  72  |  Ch 1 Note On  G#2
 In:  90  34  59  |  Ch 1 Note On  E2
 In:  90  41  5E  |  Ch 1 Note On  F3
 In:  80  38  00  |  Ch 1 Note Off G#2
 In:  80  3F  00  |  Ch 1 Note Off D#3
 In:  80  41  00  |  Ch 1 Note Off F3
 In:  80  32  00  |  Ch 1 Note Off D2
 In:  80  34  00  |  Ch 1 Note Off E2
 In:  90  37  58  |  Ch 1 Note On  G2
 In:  90  45  62  |  Ch 1 Note On  A3
 In:  90  3C  79  |  Ch 1 Note On  C3
 In:  80  3C  00  |  Ch 1 Note Off C3
 In:  80  37  00  |  Ch 1 Note Off G2
 In:  80  45  00  |  Ch 1 Note Off A3
 In:  90  3F  71  |  Ch 1 Note On  D#3
 In:  90  48  34  |  Ch 1 Note On  C4
 In:  90  39  39  |  Ch 1 Note On  A2
 In:  90  3B  26  |  Ch 1 Note On  B2
 In:  80  3B  00  |  Ch 1 Note Off B2
 In:  80  3F  00  |  Ch 1 Note Off D#3
 In:  80  39  00  |  Ch 1 Note Off A2
 In:  80  48  00  |  Ch 1 Note Off C4
 In:  90  3B  28  |  Ch 1 Note On  B2
 In:  80  3B  00  |  Ch 1 Note Off B2
 In:  90  46  40  |  Ch 1 Note On  A#3
 In:  90  48  46  |  Ch 1 Note On  C4
 In:  90  47  2B  |  Ch 1 Note On  B3
 In:  90  3F  26  |  Ch 1 Note On  D#3
 In:  90  39  24  |  Ch 1 Note On  A2
 In:  80  3F  00  |  Ch 1 Note Off D#3
 In:  80  47  00  |  Ch 1 Note Off B3
 In:  80  46  00  |  Ch 1 Note Off A#3
 In:  80  48  00  |  Ch 1 Note Off C4
 In:  80  39  00  |  Ch 1 Note Off A2
 In:  90  45  5A  |  Ch 1 Note On  A3
 In:  90  3F  71  |  Ch 1 Note On  D#3
 In:  90  35  4E  |  Ch 1 Note On  F2
 In:  90  37  4D  |  Ch 1 Note On  G2
 In:  90  3C  69  |  Ch 1 Note On  C3
 In:  80  3C  00  |  Ch 1 Note Off C3
 In:  80  3F  00  |  Ch 1 Note Off D#3
 In:  80  37  00  |  Ch 1 Note Off G2
 In:  80  35  00  |  Ch 1 Note Off F2
 In:  80  45  00  |  Ch 1 Note Off A3
 In:  90  3A  60  |  Ch 1 Note On  A#2
 In:  90  43  55  |  Ch 1 Note On  G3
 In:  90  34  3F  |  Ch 1 Note On  E2
 In:  90  3D  27  |  Ch 1 Note On  C#3
 In:  80  3D  00  |  Ch 1 Note Off C#3
 In:  80  3A  00  |  Ch 1 Note Off A#2
 In:  80  43  00  |  Ch 1 Note Off G3
 In:  80  34  00  |  Ch 1 Note Off E2
 In:  90  32  4C  |  Ch 1 Note On  D2
 In:  90  34  4C  |  Ch 1 Note On  E2
 In:  90  41  26  |  Ch 1 Note On  F3
 In:  90  40  24  |  Ch 1 Note On  E3
 In:  80  40  00  |  Ch 1 Note Off E3
 In:  80  41  00  |  Ch 1 Note Off F3
 In:  80  34  00  |  Ch 1 Note Off E2
 In:  80  32  00  |  Ch 1 Note Off D2
 In:  90  32  50  |  Ch 1 Note On  D2
 In:  90  40  25  |  Ch 1 Note On  E3
 In:  80  40  00  |  Ch 1 Note Off E3
 In:  80  32  00  |  Ch 1 Note Off D2
 In:  90  34  46  |  Ch 1 Note On  E2
 In:  90  38  4F  |  Ch 1 Note On  G#2
 In:  80  38  00  |  Ch 1 Note Off G#2
 In:  80  34  00  |  Ch 1 Note Off E2
 In:  90  37  52  |  Ch 1 Note On  G2
 In:  90  42  52  |  Ch 1 Note On  F#3
 In:  90  45  25  |  Ch 1 Note On  A3
 In:  90  3F  48  |  Ch 1 Note On  D#3
 In:  80  3F  00  |  Ch 1 Note Off D#3
 In:  80  42  00  |  Ch 1 Note Off F#3
 In:  80  45  00  |  Ch 1 Note Off A3
 In:  80  37  00  |  Ch 1 Note Off G2
 In:  90  47  52  |  Ch 1 Note On  B3
 In:  90  39  44  |  Ch 1 Note On  A2
 In:  90  45  63  |  Ch 1 Note On  A3
 In:  90  3B  38  |  Ch 1 Note On  B2
 In:  80  3B  00  |  Ch 1 Note Off B2
 In:  80  39  00  |  Ch 1 Note Off A2
 In:  80  45  00  |  Ch 1 Note Off A3
 In:  80  47  00  |  Ch 1 Note Off B3
 In:  90  3B  30  |  Ch 1 Note On  B2
 In:  90  43  3A  |  Ch 1 Note On  G3
 In:  90  47  21  |  Ch 1 Note On  B3
 In:  90  45  21  |  Ch 1 Note On  A3
 In:  80  43  00  |  Ch 1 Note Off G3
 In:  80  45  00  |  Ch 1 Note Off A3
 In:  80  47  00  |  Ch 1 Note Off B3
 In:  80  3B  00  |  Ch 1 Note Off B2
 In:  90  44  25  |  Ch 1 Note On  G#3
 In:  90  42  27  |  Ch 1 Note On  F#3
 In:  90  3B  23  |  Ch 1 Note On  B2
 In:  90  3C  24  |  Ch 1 Note On  C3
 In:  90  47  11  |  Ch 1 Note On  B3
 In:  80  3C  00  |  Ch 1 Note Off C3
 In:  80  42  00  |  Ch 1 Note Off F#3
 In:  80  47  00  |  Ch 1 Note Off B3
 In:  80  3B  00  |  Ch 1 Note Off B2
 In:  80  44  00  |  Ch 1 Note Off G#3
 In:  90  42  4F  |  Ch 1 Note On  F#3
 In:  90  3D  24  |  Ch 1 Note On  C#3
 In:  90  37  28  |  Ch 1 Note On  G2
 In:  90  43  1F  |  Ch 1 Note On  G3
 In:  90  39  28  |  Ch 1 Note On  A2
 In:  80  3D  00  |  Ch 1 Note Off C#3
 In:  80  43  00  |  Ch 1 Note Off G3
 In:  80  39  00  |  Ch 1 Note Off A2
 In:  80  37  00  |  Ch 1 Note Off G2
 In:  80  42  00  |  Ch 1 Note Off F#3
 In:  90  3F  58  |  Ch 1 Note On  D#3
 In:  90  3A  3E  |  Ch 1 Note On  A#2
 In:  90  35  2B  |  Ch 1 Note On  F2
 In:  90  3D  43  |  Ch 1 Note On  C#3
 In:  90  37  28  |  Ch 1 Note On  G2
 In:  80  3D  00  |  Ch 1 Note Off C#3
 In:  80  3A  00  |  Ch 1 Note Off A#2
 In:  80  37  00  |  Ch 1 Note Off G2
 In:  80  3F  00  |  Ch 1 Note Off D#3
 In:  80  35  00  |  Ch 1 Note Off F2
 In:  90  34  50  |  Ch 1 Note On  E2
 In:  90  3A  58  |  Ch 1 Note On  A#2
 In:  80  3A  00  |  Ch 1 Note Off A#2
 In:  80  34  00  |  Ch 1 Note Off E2
 In:  90  34  27  |  Ch 1 Note On  E2
 In:  80  34  00  |  Ch 1 Note Off E2
 In:  90  37  23  |  Ch 1 Note On  G2
 In:  90  39  23  |  Ch 1 Note On  A2
 In:  80  39  00  |  Ch 1 Note Off A2
 In:  80  37  00  |  Ch 1 Note Off G2
 In:  90  39  3B  |  Ch 1 Note On  A2
 In:  90  3F  21  |  Ch 1 Note On  D#3
 In:  80  3F  00  |  Ch 1 Note Off D#3
 In:  80  39  00  |  Ch 1 Note Off A2
 In:  90  42  50  |  Ch 1 Note On  F#3
 In:  90  3C  25  |  Ch 1 Note On  C3
 In:  90  3B  20  |  Ch 1 Note On  B2
 In:  80  3B  00  |  Ch 1 Note Off B2
 In:  80  3C  00  |  Ch 1 Note Off C3
 In:  80  42  00  |  Ch 1 Note Off F#3
 In:  90  44  22  |  Ch 1 Note On  G#3
 In:  90  3C  48  |  Ch 1 Note On  C3
 In:  90  3E  40  |  Ch 1 Note On  D3
 In:  90  45  0A  |  Ch 1 Note On  A3
 In:  80  45  00  |  Ch 1 Note Off A3
 In:  80  3E  00  |  Ch 1 Note Off D3
 In:  80  3C  00  |  Ch 1 Note Off C3
 In:  80  44  00  |  Ch 1 Note Off G#3
 In:  90  46  25  |  Ch 1 Note On  A#3
 In:  90  3C  2E  |  Ch 1 Note On  C3
 In:  90  47  1F  |  Ch 1 Note On  B3
 In:  80  47  00  |  Ch 1 Note Off B3
 In:  80  3C  00  |  Ch 1 Note Off C3
 In:  80  46  00  |  Ch 1 Note Off A#3
 In:  90  44  24  |  Ch 1 Note On  G#3
 In:  90  45  2F  |  Ch 1 Note On  A3
 In:  90  39  16  |  Ch 1 Note On  A2
 In:  80  39  00  |  Ch 1 Note Off A2
 In:  80  45  00  |  Ch 1 Note Off A3
 In:  80  44  00  |  Ch 1 Note Off G#3
 In:  90  43  26  |  Ch 1 Note On  G3
 In:  90  42  2C  |  Ch 1 Note On  F#3
 In:  90  37  21  |  Ch 1 Note On  G2
 In:  80  42  00  |  Ch 1 Note Off F#3
 In:  80  43  00  |  Ch 1 Note Off G3
 In:  80  37  00  |  Ch 1 Note Off G2
 In:  90  41  1F  |  Ch 1 Note On  F3
 In:  90  35  20  |  Ch 1 Note On  F2
 In:  80  41  00  |  Ch 1 Note Off F3
 In:  80  35  00  |  Ch 1 Note Off F2
 In:  90  40  17  |  Ch 1 Note On  E3
 In:  90  34  1F  |  Ch 1 Note On  E2
 In:  90  3D  15  |  Ch 1 Note On  C#3
 In:  80  3D  00  |  Ch 1 Note Off C#3
 In:  80  40  00  |  Ch 1 Note Off E3
 In:  80  34  00  |  Ch 1 Note Off E2
 In:  90  32  0B  |  Ch 1 Note On  D2
 In:  90  3E  1B  |  Ch 1 Note On  D3
 In:  80  3E  00  |  Ch 1 Note Off D3
 In:  80  32  00  |  Ch 1 Note Off D2
 In:  90  30  1E  |  Ch 1 Note On  C2
 In:  90  3C  44  |  Ch 1 Note On  C3
 In:  80  3C  00  |  Ch 1 Note Off C3
 In:  80  30  00  |  Ch 1 Note Off C2
 In:  90  30  1E  |  Ch 1 Note On  C2
 In:  90  3C  17  |  Ch 1 Note On  C3
 In:  90  3B  14  |  Ch 1 Note On  B2
 In:  80  3B  00  |  Ch 1 Note Off B2
 In:  80  3C  00  |  Ch 1 Note Off C3
 In:  80  30  00  |  Ch 1 Note Off C2
 In:  90  35  24  |  Ch 1 Note On  F2
 In:  90  3E  28  |  Ch 1 Note On  D3
 In:  90  41  21  |  Ch 1 Note On  F3
 In:  90  3C  23  |  Ch 1 Note On  C3
 In:  80  3C  00  |  Ch 1 Note Off C3
 In:  80  3E  00  |  Ch 1 Note Off D3
 In:  80  41  00  |  Ch 1 Note Off F3
 In:  80  35  00  |  Ch 1 Note Off F2
 In:  90  43  26  |  Ch 1 Note On  G3
 In:  90  3E  54  |  Ch 1 Note On  D3
 In:  90  41  44  |  Ch 1 Note On  F3
 In:  90  40  3A  |  Ch 1 Note On  E3
 In:  90  39  26  |  Ch 1 Note On  A2
 In:  90  3B  26  |  Ch 1 Note On  B2
 In:  80  40  00  |  Ch 1 Note Off E3
 In:  80  41  00  |  Ch 1 Note Off F3
 In:  80  3B  00  |  Ch 1 Note Off B2
 In:  80  39  00  |  Ch 1 Note Off A2
 In:  80  3E  00  |  Ch 1 Note Off D3
 In:  80  43  00  |  Ch 1 Note Off G3
 In:  90  47  25  |  Ch 1 Note On  B3
 In:  90  3C  22  |  Ch 1 Note On  C3
 In:  90  41  45  |  Ch 1 Note On  F3
 In:  80  41  00  |  Ch 1 Note Off F3
 In:  80  3C  00  |  Ch 1 Note Off C3
 In:  80  47  00  |  Ch 1 Note Off B3
 In:  90  48  23  |  Ch 1 Note On  C4
 In:  90  45  27  |  Ch 1 Note On  A3
 In:  90  43  27  |  Ch 1 Note On  G3
 In:  90  3E  24  |  Ch 1 Note On  D3
 In:  90  40  23  |  Ch 1 Note On  E3
 In:  80  40  00  |  Ch 1 Note Off E3
 In:  80  3E  00  |  Ch 1 Note Off D3
 In:  80  43  00  |  Ch 1 Note Off G3
 In:  80  45  00  |  Ch 1 Note Off A3
 In:  80  48  00  |  Ch 1 Note Off C4
 In:  90  48  21  |  Ch 1 Note On  C4
 In:  90  45  26  |  Ch 1 Note On  A3
 In:  90  40  26  |  Ch 1 Note On  E3
 In:  90  41  26  |  Ch 1 Note On  F3
 In:  80  41  00  |  Ch 1 Note Off F3
 In:  80  45  00  |  Ch 1 Note Off A3
 In:  80  40  00  |  Ch 1 Note Off E3
 In:  80  48  00  |  Ch 1 Note Off C4
 In:  90  46  4A  |  Ch 1 Note On  A#3
 In:  90  42  54  |  Ch 1 Note On  F#3
 In:  90  3C  25  |  Ch 1 Note On  C3
 In:  80  42  00  |  Ch 1 Note Off F#3
 In:  80  3C  00  |  Ch 1 Note Off C3
 In:  80  46  00  |  Ch 1 Note Off A#3
 In:  90  37  46  |  Ch 1 Note On  G2
 In:  90  41  5E  |  Ch 1 Note On  F3
 In:  80  41  00  |  Ch 1 Note Off F3
 In:  80  37  00  |  Ch 1 Note Off G2
 In:  90  3D  22  |  Ch 1 Note On  C#3
 In:  90  38  2C  |  Ch 1 Note On  G#2
 In:  90  34  25  |  Ch 1 Note On  E2
 In:  80  38  00  |  Ch 1 Note Off G#2
 In:  80  3D  00  |  Ch 1 Note Off C#3
 In:  80  34  00  |  Ch 1 Note Off E2
 In:  90  36  4C  |  Ch 1 Note On  F#2
 In:  80  36  00  |  Ch 1 Note Off F#2
 In:  90  30  3F  |  Ch 1 Note On  C2
 In:  90  33  5A  |  Ch 1 Note On  D#2
 In:  80  33  00  |  Ch 1 Note Off D#2
 In:  90  39  30  |  Ch 1 Note On  A2
 In:  80  39  00  |  Ch 1 Note Off A2
 In:  80  30  00  |  Ch 1 Note Off C2
 In:  90  30  25  |  Ch 1 Note On  C2
 In:  90  3A  35  |  Ch 1 Note On  A#2
 In:  90  32  2F  |  Ch 1 Note On  D2
 In:  80  3A  00  |  Ch 1 Note Off A#2
 In:  80  32  00  |  Ch 1 Note Off D2
 In:  80  30  00  |  Ch 1 Note Off C2
 In:  90  40  48  |  Ch 1 Note On  E3
 In:  90  37  40  |  Ch 1 Note On  G2
 In:  90  35  40  |  Ch 1 Note On  F2
 In:  90  39  41  |  Ch 1 Note On  A2
 In:  80  39  00  |  Ch 1 Note Off A2
 In:  80  37  00  |  Ch 1 Note Off G2
 In:  80  40  00  |  Ch 1 Note Off E3
 In:  80  35  00  |  Ch 1 Note Off F2
 In:  90  3B  27  |  Ch 1 Note On  B2
 In:  90  43  4C  |  Ch 1 Note On  G3
 In:  90  45  4A  |  Ch 1 Note On  A3
 In:  90  3E  3F  |  Ch 1 Note On  D3
 In:  80  3E  00  |  Ch 1 Note Off D3
 In:  80  45  00  |  Ch 1 Note Off A3
 In:  80  43  00  |  Ch 1 Note Off G3
 In:  80  3B  00  |  Ch 1 Note Off B2
 In:  90  3E  19  |  Ch 1 Note On  D3
 In:  90  47  27  |  Ch 1 Note On  B3
 In:  80  3E  00  |  Ch 1 Note Off D3
 In:  80  47  00  |  Ch 1 Note Off B3
 In:  90  48  3C  |  Ch 1 Note On  C4
 In:  90  40  28  |  Ch 1 Note On  E3
 In:  90  41  27  |  Ch 1 Note On  F3
 In:  80  41  00  |  Ch 1 Note Off F3
 In:  80  40  00  |  Ch 1 Note Off E3
 In:  80  48  00  |  Ch 1 Note Off C4
 In:  90  42  50  |  Ch 1 Note On  F#3
 In:  90  39  2E  |  Ch 1 Note On  A2
 In:  90  3B  29  |  Ch 1 Note On  B2
 In:  90  3C  4B  |  Ch 1 Note On  C3
 In:  90  41  1D  |  Ch 1 Note On  F3
 In:  90  43  1B  |  Ch 1 Note On  G3
 In:  80  3C  00  |  Ch 1 Note Off C3
 In:  80  41  00  |  Ch 1 Note Off F3
 In:  80  43  00  |  Ch 1 Note Off G3
 In:  80  42  00  |  Ch 1 Note Off F#3
 In:  80  3B  00  |  Ch 1 Note Off B2
 In:  80  39  00  |  Ch 1 Note Off A2
 In:  90  34  39  |  Ch 1 Note On  E2
 In:  90  3E  48  |  Ch 1 Note On  D3
 In:  90  40  42  |  Ch 1 Note On  E3
 In:  90  35  26  |  Ch 1 Note On  F2
 In:  80  35  00  |  Ch 1 Note Off F2
 In:  80  40  00  |  Ch 1 Note Off E3
 In:  80  3E  00  |  Ch 1 Note Off D3
 In:  80  34  00  |  Ch 1 Note Off E2
 In:  90  3C  26  |  Ch 1 Note On  C3
 In:  90  36  22  |  Ch 1 Note On  F#2
 In:  90  37  20  |  Ch 1 Note On  G2
 In:  80  36  00  |  Ch 1 Note Off F#2
 In:  80  3C  00  |  Ch 1 Note Off C3
 In:  80  37  00  |  Ch 1 Note Off G2
 In:  90  34  39  |  Ch 1 Note On  E2
 In:  90  39  35  |  Ch 1 Note On  A2
 In:  90  32  24  |  Ch 1 Note On  D2
 In:  80  32  00  |  Ch 1 Note Off D2
 In:  80  39  00  |  Ch 1 Note Off A2
 In:  80  34  00  |  Ch 1 Note Off E2
 In:  90  30  3D  |  Ch 1 Note On  C2
 In:  90  32  48  |  Ch 1 Note On  D2
 In:  90  37  58  |  Ch 1 Note On  G2
 In:  80  37  00  |  Ch 1 Note Off G2
 In:  80  32  00  |  Ch 1 Note Off D2
 In:  80  30  00  |  Ch 1 Note Off C2
 In:  90  36  5A  |  Ch 1 Note On  F#2
 In:  90  38  5B  |  Ch 1 Note On  G#2
 In:  90  37  28  |  Ch 1 Note On  G2
 In:  80  38  00  |  Ch 1 Note Off G#2
 In:  80  36  00  |  Ch 1 Note Off F#2
 In:  80  37  00  |  Ch 1 Note Off G2
 In:  90  3F  6E  |  Ch 1 Note On  D#3
 In:  90  3B  55  |  Ch 1 Note On  B2
 In:  90  3A  67  |  Ch 1 Note On  A#2
 In:  90  3C  58  |  Ch 1 Note On  C3
 In:  90  3D  6B  |  Ch 1 Note On  C#3
 In:  90  41  34  |  Ch 1 Note On  F3
 In:  80  3D  00  |  Ch 1 Note Off C#3
 In:  80  3A  00  |  Ch 1 Note Off A#2
 In:  80  3F  00  |  Ch 1 Note Off D#3
 In:  80  41  00  |  Ch 1 Note Off F3
 In:  80  3C  00  |  Ch 1 Note Off C3
 In:  80  3B  00  |  Ch 1 Note Off B2
 In:  90  3E  59  |  Ch 1 Note On  D3
 In:  90  42  6D  |  Ch 1 Note On  F#3
 In:  90  43  32  |  Ch 1 Note On  G3
 In:  80  43  00  |  Ch 1 Note Off G3
 In:  80  42  00  |  Ch 1 Note Off F#3
 In:  80  3E  00  |  Ch 1 Note Off D3
 In:  90  41  25  |  Ch 1 Note On  F3
 In:  90  46  28  |  Ch 1 Note On  A#3
 In:  90  42  38  |  Ch 1 Note On  F#3
 In:  90  44  43  |  Ch 1 Note On  G#3
 In:  90  43  1F  |  Ch 1 Note On  G3
 In:  90  47  1D  |  Ch 1 Note On  B3
 In:  80  42  00  |  Ch 1 Note Off F#3
 In:  80  44  00  |  Ch 1 Note Off G#3
 In:  80  43  00  |  Ch 1 Note Off G3
 In:  80  47  00  |  Ch 1 Note Off B3
 In:  80  46  00  |  Ch 1 Note Off A#3
 In:  80  41  00  |  Ch 1 Note Off F3
 In:  90  48  10  |  Ch 1 Note On  C4
 In:  90  46  3F  |  Ch 1 Note On  A#3
 In:  90  43  0C  |  Ch 1 Note On  G3
 In:  90  44  30  |  Ch 1 Note On  G#3
 In:  90  45  17  |  Ch 1 Note On  A3
 In:  80  44  00  |  Ch 1 Note Off G#3
 In:  80  45  00  |  Ch 1 Note Off A3
 In:  80  46  00  |  Ch 1 Note Off A#3
 In:  80  43  00  |  Ch 1 Note Off G3
 In:  80  48  00  |  Ch 1 Note Off C4
 In:  9E  35  6D  |  Ch 15 Note On  F2
 In:  9E  3B  61  |  Ch 15 Note On  B2
 In:  9E  39  5E  |  Ch 15 Note On  A2
 In:  8E  39  00  |  Ch 15 Note Off A2
 In:  8E  3B  00  |  Ch 15 Note Off B2
 In:  8E  35  00  |  Ch 15 Note Off F2
 In:  9E  34  72  |  Ch 15 Note On  E2
 In:  9E  30  4D  |  Ch 15 Note On  C2
 In:  9E  32  4D  |  Ch 15 Note On  D2
 In:  8E  32  00  |  Ch 15 Note Off D2
 In:  8E  30  00  |  Ch 15 Note Off C2
 In:  8E  34  00  |  Ch 15 Note Off E2
 In:  9E  3C  7F  |  Ch 15 Note On  C3
 In:  9E  3B  7F  |  Ch 15 Note On  B2
 In:  9E  35  6B  |  Ch 15 Note On  F2
 In:  9E  37  69  |  Ch 15 Note On  G2
 In:  9E  39  6E  |  Ch 15 Note On  A2
 In:  8E  39  00  |  Ch 15 Note Off A2
 In:  8E  3B  00  |  Ch 15 Note Off B2
 In:  8E  37  00  |  Ch 15 Note Off G2
 In:  8E  35  00  |  Ch 15 Note Off F2
 In:  8E  3C  00  |  Ch 15 Note Off C3
 In:  9E  34  62  |  Ch 15 Note On  E2
 In:  9E  32  7C  |  Ch 15 Note On  D2
 In:  9E  30  69  |  Ch 15 Note On  C2
 In:  8E  34  00  |  Ch 15 Note Off E2
 In:  8E  32  00  |  Ch 15 Note Off D2
 In:  8E  30  00  |  Ch 15 Note Off C2
 In:  9E  37  7F  |  Ch 15 Note On  G2
 In:  9E  3E  73  |  Ch 15 Note On  D3
 In:  9E  3B  7F  |  Ch 15 Note On  B2
 In:  9E  3C  6B  |  Ch 15 Note On  C3
 In:  8E  3C  00  |  Ch 15 Note Off C3
 In:  8E  3B  00  |  Ch 15 Note Off B2
 In:  8E  3E  00  |  Ch 15 Note Off D3
 In:  8E  37  00  |  Ch 15 Note Off G2
 In:  9E  35  77  |  Ch 15 Note On  F2
 In:  9E  30  6B  |  Ch 15 Note On  C2
 In:  8E  30  00  |  Ch 15 Note Off C2
 In:  8E  35  00  |  Ch 15 Note Off F2
 In:  9E  3C  7F  |  Ch 15 Note On  C3
 In:  9E  40  7F  |  Ch 15 Note On  E3
 In:  9E  41  79  |  Ch 15 Note On  F3
 In:  9E  3B  65  |  Ch 15 Note On  B2
 In:  8E  3B  00  |  Ch 15 Note Off B2
 In:  8E  41  00  |  Ch 15 Note Off F3
 In:  8E  3C  00  |  Ch 15 Note Off C3
 In:  8E  40  00  |  Ch 15 Note Off E3
 In:  9E  32  7F  |  Ch 15 Note On  D2
 In:  9E  35  6D  |  Ch 15 Note On  F2
 In:  9E  37  6C  |  Ch 15 Note On  G2
 In:  8E  32  00  |  Ch 15 Note Off D2
 In:  8E  37  00  |  Ch 15 Note Off G2
 In:  8E  35  00  |  Ch 15 Note Off F2
 In:  9E  45  7F  |  Ch 15 Note On  A3
 In:  9E  40  7E  |  Ch 15 Note On  E3
 In:  9E  43  7F  |  Ch 15 Note On  G3
 In:  9E  3E  74  |  Ch 15 Note On  D3
 In:  9E  3C  6C  |  Ch 15 Note On  C3
 In:  8E  3C  00  |  Ch 15 Note Off C3
 In:  8E  40  00  |  Ch 15 Note Off E3
 In:  8E  3E  00  |  Ch 15 Note Off D3
 In:  8E  43  00  |  Ch 15 Note Off G3
 In:  8E  45  00  |  Ch 15 Note Off A3
 In:  9E  37  7F  |  Ch 15 Note On  G2
 In:  9E  34  7F  |  Ch 15 Note On  E2
 In:  8E  34  00  |  Ch 15 Note Off E2
 In:  8E  37  00  |  Ch 15 Note Off G2
 In:  9E  40  76  |  Ch 15 Note On  E3
 In:  9E  43  7F  |  Ch 15 Note On  G3
 In:  9E  48  7F  |  Ch 15 Note On  C4
 In:  9E  41  6D  |  Ch 15 Note On  F3
 In:  8E  41  00  |  Ch 15 Note Off F3
 In:  8E  40  00  |  Ch 15 Note Off E3
 In:  8E  43  00  |  Ch 15 Note Off G3
 In:  8E  48  00  |  Ch 15 Note Off C4
 In:  9E  39  7E  |  Ch 15 Note On  A2
 In:  9E  34  7F  |  Ch 15 Note On  E2
 In:  8E  34  00  |  Ch 15 Note Off E2
 In:  8E  39  00  |  Ch 15 Note Off A2
 In:  9E  48  7F  |  Ch 15 Note On  C4
 In:  9E  45  7C  |  Ch 15 Note On  A3
 In:  9E  43  7C  |  Ch 15 Note On  G3
 In:  9E  40  75  |  Ch 15 Note On  E3
 In:  9E  41  6D  |  Ch 15 Note On  F3
 In:  8E  43  00  |  Ch 15 Note Off G3
 In:  8E  41  00  |  Ch 15 Note Off F3
 In:  8E  45  00  |  Ch 15 Note Off A3
 In:  8E  40  00  |  Ch 15 Note Off E3
 In:  8E  48  00  |  Ch 15 Note Off C4
 In:  9E  39  6E  |  Ch 15 Note On  A2
 In:  9E  37  6F  |  Ch 15 Note On  G2
 In:  9E  34  7F  |  Ch 15 Note On  E2
 In:  9E  32  6A  |  Ch 15 Note On  D2
 In:  9E  30  67  |  Ch 15 Note On  C2
 In:  8E  30  00  |  Ch 15 Note Off C2
 In:  8E  32  00  |  Ch 15 Note Off D2
 In:  8E  37  00  |  Ch 15 Note Off G2
 In:  8E  39  00  |  Ch 15 Note Off A2
 In:  8E  34  00  |  Ch 15 Note Off E2
 In:  9E  3C  76  |  Ch 15 Note On  C3
 In:  9E  40  7F  |  Ch 15 Note On  E3
 In:  9E  43  7F  |  Ch 15 Note On  G3
 In:  9E  45  7C  |  Ch 15 Note On  A3
 In:  9E  3E  7F  |  Ch 15 Note On  D3
 In:  9E  3B  6D  |  Ch 15 Note On  B2
 In:  8E  3B  00  |  Ch 15 Note Off B2
 In:  8E  3E  00  |  Ch 15 Note Off D3
 In:  8E  40  00  |  Ch 15 Note Off E3
 In:  8E  43  00  |  Ch 15 Note Off G3
 In:  8E  3C  00  |  Ch 15 Note Off C3
 In:  8E  45  00  |  Ch 15 Note Off A3
 In:  9E  30  7B  |  Ch 15 Note On  C2
 In:  9E  37  7F  |  Ch 15 Note On  G2
 In:  9E  32  7B  |  Ch 15 Note On  D2
 In:  9E  33  7A  |  Ch 15 Note On  D#2
 In:  8E  33  00  |  Ch 15 Note Off D#2
 In:  8E  32  00  |  Ch 15 Note Off D2
 In:  8E  30  00  |  Ch 15 Note Off C2
 In:  8E  37  00  |  Ch 15 Note Off G2
 In:  9E  44  7F  |  Ch 15 Note On  G#3
 In:  9E  47  7C  |  Ch 15 Note On  B3
 In:  9E  3C  7F  |  Ch 15 Note On  C3
 In:  9E  45  7B  |  Ch 15 Note On  A3
 In:  9E  40  7F  |  Ch 15 Note On  E3
 In:  9E  41  7F  |  Ch 15 Note On  F3
 In:  8E  41  00  |  Ch 15 Note Off F3
 In:  8E  46  00  |  Ch 15 Note Off A#3
 In:  8E  45  00  |  Ch 15 Note Off A3
 In:  8E  40  00  |  Ch 15 Note Off E3
 In:  8E  47  00  |  Ch 15 Note Off B3
 In:  8E  44  00  |  Ch 15 Note Off G#3
 In:  8E  3C  00  |  Ch 15 Note Off C3
 In:  9E  31  7F  |  Ch 15 Note On  C#2
 In:  9E  33  7F  |  Ch 15 Note On  D#2
 In:  9E  42  7F  |  Ch 15 Note On  F#3
 In:  9E  3E  76  |  Ch 15 Note On  D3
 In:  9E  47  7F  |  Ch 15 Note On  B3
 In:  9E  45  7F  |  Ch 15 Note On  A3
 In:  8E  45  00  |  Ch 15 Note Off A3
 In:  8E  31  00  |  Ch 15 Note Off C#2
 In:  8E  3E  00  |  Ch 15 Note Off D3
 In:  8E  42  00  |  Ch 15 Note Off F#3
 In:  8E  47  00  |  Ch 15 Note Off B3
 In:  8E  33  00  |  Ch 15 Note Off D#2
 In:  9E  46  7F  |  Ch 15 Note On  A#3
 In:  9E  47  7F  |  Ch 15 Note On  B3
 In:  9E  42  7F  |  Ch 15 Note On  F#3
 In:  9E  3E  7C  |  Ch 15 Note On  D3
 In:  8E  42  00  |  Ch 15 Note Off F#3
 In:  8E  47  00  |  Ch 15 Note Off B3
 In:  8E  3E  00  |  Ch 15 Note Off D3
 In:  8E  46  00  |  Ch 15 Note Off A#3
 In:  9E  31  7F  |  Ch 15 Note On  C#2
 In:  9E  33  7F  |  Ch 15 Note On  D#2
 In:  9E  36  7F  |  Ch 15 Note On  F#2
 In:  8E  33  00  |  Ch 15 Note Off D#2
 In:  9E  35  64  |  Ch 15 Note On  F2
 In:  8E  36  00  |  Ch 15 Note Off F#2
 In:  8E  31  00  |  Ch 15 Note Off C#2
 In:  9E  37  2A  |  Ch 15 Note On  G2
 In:  8E  37  00  |  Ch 15 Note Off G2
 In:  9E  45  7D  |  Ch 15 Note On  A3
 In:  8E  35  00  |  Ch 15 Note Off F2
 In:  9E  44  7F  |  Ch 15 Note On  G#3
 In:  9E  3C  7C  |  Ch 15 Note On  C3
 In:  9E  40  76  |  Ch 15 Note On  E3
 In:  8E  40  00  |  Ch 15 Note Off E3
 In:  8E  44  00  |  Ch 15 Note Off G#3
 In:  8E  45  00  |  Ch 15 Note Off A3
 In:  8E  3C  00  |  Ch 15 Note Off C3
 In:  9E  33  7F  |  Ch 15 Note On  D#2
 In:  9E  38  7F  |  Ch 15 Note On  G#2
 In:  8E  33  00  |  Ch 15 Note Off D#2
 In:  8E  38  00  |  Ch 15 Note Off G#2
 In:  9E  3D  7F  |  Ch 15 Note On  C#3
 In:  9E  43  6E  |  Ch 15 Note On  G3
 In:  9E  39  76  |  Ch 15 Note On  A2
 In:  9E  3B  76  |  Ch 15 Note On  B2
 In:  9E  41  6C  |  Ch 15 Note On  F3
 In:  8E  39  00  |  Ch 15 Note Off A2
 In:  8E  41  00  |  Ch 15 Note Off F3
 In:  8E  3D  00  |  Ch 15 Note Off C#3
 In:  8E  43  00  |  Ch 15 Note Off G3
 In:  8E  3B  00  |  Ch 15 Note Off B2
 In:  9E  36  7F  |  Ch 15 Note On  F#2
 In:  9E  39  7F  |  Ch 15 Note On  A2
 In:  8E  39  00  |  Ch 15 Note Off A2
 In:  8E  36  00  |  Ch 15 Note Off F#2
 In:  9E  39  78  |  Ch 15 Note On  A2
 In:  9E  3F  7F  |  Ch 15 Note On  D#3
 In:  9E  41  7A  |  Ch 15 Note On  F3
 In:  9E  3B  7D  |  Ch 15 Note On  B2
 In:  9E  3C  7F  |  Ch 15 Note On  C3
 In:  9E  3E  71  |  Ch 15 Note On  D3
 In:  9E  40  6F  |  Ch 15 Note On  E3
 In:  8E  3E  00  |  Ch 15 Note Off D3
 In:  8E  40  00  |  Ch 15 Note Off E3
 In:  8E  3F  00  |  Ch 15 Note Off D#3
 In:  8E  3C  00  |  Ch 15 Note Off C3
 In:  8E  3B  00  |  Ch 15 Note Off B2
 In:  8E  41  00  |  Ch 15 Note Off F3
 In:  8E  39  00  |  Ch 15 Note Off A2
 In:  9E  37  79  |  Ch 15 Note On  G2
 In:  9E  32  62  |  Ch 15 Note On  D2
 In:  8E  32  00  |  Ch 15 Note Off D2
 In:  8E  37  00  |  Ch 15 Note Off G2
 In:  9E  41  7C  |  Ch 15 Note On  F3
 In:  9E  3C  7F  |  Ch 15 Note On  C3
 In:  9E  40  7E  |  Ch 15 Note On  E3
 In:  9E  39  72  |  Ch 15 Note On  A2
 In:  9E  3B  69  |  Ch 15 Note On  B2
 In:  9E  46  3B  |  Ch 15 Note On  A#3
 In:  9E  48  66  |  Ch 15 Note On  C4
 In:  8E  3B  00  |  Ch 15 Note Off B2
 In:  8E  39  00  |  Ch 15 Note Off A2
 In:  8E  40  00  |  Ch 15 Note Off E3
 In:  8E  41  00  |  Ch 15 Note Off F3
 In:  8E  3C  00  |  Ch 15 Note Off C3
 In:  9E  43  7A  |  Ch 15 Note On  G3
 In:  9E  35  71  |  Ch 15 Note On  F2
 In:  9E  37  6F  |  Ch 15 Note On  G2
 In:  9E  32  7F  |  Ch 15 Note On  D2
 In:  9E  34  7E  |  Ch 15 Note On  E2
 In:  9E  30  69  |  Ch 15 Note On  C2
 In:  8E  48  00  |  Ch 15 Note Off C4
 In:  8E  32  00  |  Ch 15 Note Off D2
 In:  8E  34  00  |  Ch 15 Note Off E2
 In:  8E  46  00  |  Ch 15 Note Off A#3
 In:  8E  30  00  |  Ch 15 Note Off C2
 In:  8E  37  00  |  Ch 15 Note Off G2
 In:  8E  35  00  |  Ch 15 Note Off F2
 In:  9E  3B  7D  |  Ch 15 Note On  B2
 In:  9E  3E  7C  |  Ch 15 Note On  D3
 In:  9E  41  76  |  Ch 15 Note On  F3
 In:  9E  40  75  |  Ch 15 Note On  E3
 In:  9E  39  64  |  Ch 15 Note On  A2
 In:  8E  40  00  |  Ch 15 Note Off E3
 In:  8E  3E  00  |  Ch 15 Note Off D3
 In:  8E  41  00  |  Ch 15 Note Off F3
 In:  8E  39  00  |  Ch 15 Note Off A2
 In:  8E  43  00  |  Ch 15 Note Off G3
 In:  9E  44  56  |  Ch 15 Note On  G#3
 In:  8E  3B  00  |  Ch 15 Note Off B2
 In:  9E  46  5E  |  Ch 15 Note On  A#3
 In:  9E  37  73  |  Ch 15 Note On  G2
 In:  9E  35  71  |  Ch 15 Note On  F2
 In:  9E  30  77  |  Ch 15 Note On  C2
 In:  8E  35  00  |  Ch 15 Note Off F2
 In:  8E  37  00  |  Ch 15 Note Off G2
 In:  8E  30  00  |  Ch 15 Note Off C2
 In:  9E  41  75  |  Ch 15 Note On  F3
 In:  8E  46  00  |  Ch 15 Note Off A#3
 In:  8E  44  00  |  Ch 15 Note Off G#3
 In:  9E  39  7F  |  Ch 15 Note On  A2
 In:  9E  3C  7F  |  Ch 15 Note On  C3
 In:  9E  40  76  |  Ch 15 Note On  E3
 In:  9E  3E  70  |  Ch 15 Note On  D3
 In:  8E  3E  00  |  Ch 15 Note Off D3
 In:  8E  3C  00  |  Ch 15 Note Off C3
 In:  8E  39  00  |  Ch 15 Note Off A2
 In:  8E  40  00  |  Ch 15 Note Off E3
 In:  8E  41  00  |  Ch 15 Note Off F3
 In:  9E  37  7C  |  Ch 15 Note On  G2
 In:  9E  35  7B  |  Ch 15 Note On  F2
 In:  9E  30  67  |  Ch 15 Note On  C2
 In:  9E  34  7F  |  Ch 15 Note On  E2
 In:  9E  32  74  |  Ch 15 Note On  D2
 In:  8E  34  00  |  Ch 15 Note Off E2
 In:  8E  32  00  |  Ch 15 Note Off D2
 In:  8E  30  00  |  Ch 15 Note Off C2
 In:  8E  35  00  |  Ch 15 Note Off F2
 In:  8E  37  00  |  Ch 15 Note Off G2
 In:  9E  37  7E  |  Ch 15 Note On  G2
 In:  9E  3C  7F  |  Ch 15 Note On  C3
 In:  9E  3B  76  |  Ch 15 Note On  B2
 In:  9E  41  69  |  Ch 15 Note On  F3
 In:  9E  45  64  |  Ch 15 Note On  A3
 In:  8E  3B  00  |  Ch 15 Note Off B2
 In:  8E  3C  00  |  Ch 15 Note Off C3
 In:  8E  37  00  |  Ch 15 Note Off G2
 In:  8E  45  00  |  Ch 15 Note Off A3
 In:  9E  35  78  |  Ch 15 Note On  F2
 In:  9E  34  7A  |  Ch 15 Note On  E2
 In:  9E  46  7F  |  Ch 15 Note On  A#3
 In:  9E  32  70  |  Ch 15 Note On  D2
 In:  9E  44  7F  |  Ch 15 Note On  G#3
 In:  8E  41  00  |  Ch 15 Note Off F3
 In:  8E  32  00  |  Ch 15 Note Off D2
 In:  8E  34  00  |  Ch 15 Note Off E2
 In:  8E  35  00  |  Ch 15 Note Off F2
 In:  9E  3E  7F  |  Ch 15 Note On  D3
 In:  9E  39  7F  |  Ch 15 Note On  A2
 In:  9E  3B  7F  |  Ch 15 Note On  B2
 In:  8E  46  00  |  Ch 15 Note Off A#3
 In:  8E  3B  00  |  Ch 15 Note Off B2
 In:  8E  39  00  |  Ch 15 Note Off A2
 In:  8E  3E  00  |  Ch 15 Note Off D3
 In:  9E  43  64  |  Ch 15 Note On  G3
 In:  9E  41  62  |  Ch 15 Note On  F3
 In:  8E  44  00  |  Ch 15 Note Off G#3
 In:  9E  34  76  |  Ch 15 Note On  E2
 In:  9E  30  6D  |  Ch 15 Note On  C2
 In:  8E  43  00  |  Ch 15 Note Off G3
 In:  8E  41  00  |  Ch 15 Note Off F3
 In:  9E  44  7F  |  Ch 15 Note On  G#3
 In:  9E  42  7F  |  Ch 15 Note On  F#3
 In:  8E  34  00  |  Ch 15 Note Off E2
 In:  8E  30  00  |  Ch 15 Note Off C2
 In:  9E  40  7C  |  Ch 15 Note On  E3
 In:  9E  3B  7E  |  Ch 15 Note On  B2
 In:  9E  3E  7B  |  Ch 15 Note On  D3
 In:  8E  3E  00  |  Ch 15 Note Off D3
 In:  8E  40  00  |  Ch 15 Note Off E3
 In:  8E  3B  00  |  Ch 15 Note Off B2
 In:  8E  44  00  |  Ch 15 Note Off G#3
 In:  9E  41  7C  |  Ch 15 Note On  F3
 In:  8E  42  00  |  Ch 15 Note Off F#3
 In:  9E  35  73  |  Ch 15 Note On  F2
 In:  9E  37  74  |  Ch 15 Note On  G2
 In:  9E  32  79  |  Ch 15 Note On  D2
 In:  9E  30  6F  |  Ch 15 Note On  C2
 In:  8E  34  00  |  Ch 15 Note Off E2
 In:  8E  30  00  |  Ch 15 Note Off C2
 In:  8E  32  00  |  Ch 15 Note Off D2
 In:  8E  35  00  |  Ch 15 Note Off F2
 In:  8E  37  00  |  Ch 15 Note Off G2
 In:  8E  41  00  |  Ch 15 Note Off F3
 In:  9E  42  7F  |  Ch 15 Note On  F#3
 In:  9E  39  7F  |  Ch 15 Note On  A2
 In:  9E  40  7F  |  Ch 15 Note On  E3
 In:  9E  3E  7F  |  Ch 15 Note On  D3
 In:  8E  42  00  |  Ch 15 Note Off F#3
 In:  9E  3C  7F  |  Ch 15 Note On  C3
 In:  8E  3C  00  |  Ch 15 Note Off C3
 In:  8E  3E  00  |  Ch 15 Note Off D3
 In:  8E  39  00  |  Ch 15 Note Off A2
 In:  9E  37  7F  |  Ch 15 Note On  G2
 In:  9E  34  76  |  Ch 15 Note On  E2
 In:  9E  30  6B  |  Ch 15 Note On  C2
 In:  8E  34  00  |  Ch 15 Note Off E2
 In:  8E  30  00  |  Ch 15 Note Off C2
 In:  8E  37  00  |  Ch 15 Note Off G2
 In:  8E  40  00  |  Ch 15 Note Off E3
 In:  9E  42  64  |  Ch 15 Note On  F#3
 In:  9E  37  7F  |  Ch 15 Note On  G2
 In:  9E  39  7F  |  Ch 15 Note On  A2
 In:  9E  3E  7A  |  Ch 15 Note On  D3
 In:  9E  3C  7E  |  Ch 15 Note On  C3
 In:  9E  40  6E  |  Ch 15 Note On  E3
 In:  9E  44  48  |  Ch 15 Note On  G#3
 In:  8E  3C  00  |  Ch 15 Note Off C3
 In:  8E  40  00  |  Ch 15 Note Off E3
 In:  9E  46  4E  |  Ch 15 Note On  A#3
 In:  8E  3E  00  |  Ch 15 Note Off D3
 In:  8E  37  00  |  Ch 15 Note Off G2
 In:  8E  39  00  |  Ch 15 Note Off A2
 In:  8E  44  00  |  Ch 15 Note Off G#3
 In:  8E  42  00  |  Ch 15 Note Off F#3
 In:  8E  46  00  |  Ch 15 Note Off A#3
 In:  9E  30  7E  |  Ch 15 Note On  C2
 In:  9E  35  7F  |  Ch 15 Note On  F2
 In:  9E  32  74  |  Ch 15 Note On  D2
 In:  9E  46  72  |  Ch 15 Note On  A#3
 In:  9E  42  7C  |  Ch 15 Note On  F#3
 In:  9E  44  7C  |  Ch 15 Note On  G#3
 In:  8E  32  00  |  Ch 15 Note Off D2
 In:  9E  43  66  |  Ch 15 Note On  G3
 In:  9E  41  65  |  Ch 15 Note On  F3
 In:  9E  47  64  |  Ch 15 Note On  B3
 In:  9E  45  61  |  Ch 15 Note On  A3
 In:  8E  30  00  |  Ch 15 Note Off C2
 In:  8E  35  00  |  Ch 15 Note Off F2
 In:  8E  41  00  |  Ch 15 Note Off F3
 In:  8E  43  00  |  Ch 15 Note Off G3
 In:  8E  45  00  |  Ch 15 Note Off A3
 In:  8E  47  00  |  Ch 15 Note Off B3
 In:  8E  46  00  |  Ch 15 Note Off A#3
 In:  8E  42  00  |  Ch 15 Note Off F#3
 In:  8E  44  00  |  Ch 15 Note Off G#3
 In:  9E  3B  7F  |  Ch 15 Note On  B2
 In:  9E  40  7F  |  Ch 15 Note On  E3
 In:  9E  3E  7F  |  Ch 15 Note On  D3
 In:  9E  44  6D  |  Ch 15 Note On  G#3
 In:  9E  42  6E  |  Ch 15 Note On  F#3
 In:  9E  46  6C  |  Ch 15 Note On  A#3
 In:  8E  3E  00  |  Ch 15 Note Off D3
 In:  9E  43  63  |  Ch 15 Note On  G3
 In:  8E  40  00  |  Ch 15 Note Off E3
 In:  9E  47  4F  |  Ch 15 Note On  B3
 In:  8E  3B  00  |  Ch 15 Note Off B2
 In:  9E  30  71  |  Ch 15 Note On  C2
 In:  9E  32  7F  |  Ch 15 Note On  D2
 In:  9E  35  77  |  Ch 15 Note On  F2
 In:  9E  34  71  |  Ch 15 Note On  E2
 In:  8E  34  00  |  Ch 15 Note Off E2
 In:  8E  32  00  |  Ch 15 Note Off D2
 In:  8E  30  00  |  Ch 15 Note Off C2
 In:  8E  35  00  |  Ch 15 Note Off F2
 In:  9E  40  7A  |  Ch 15 Note On  E3
 In:  9E  39  7B  |  Ch 15 Note On  A2
 In:  9E  3B  7B  |  Ch 15 Note On  B2
 In:  9E  3E  7C  |  Ch 15 Note On  D3
 In:  8E  3E  00  |  Ch 15 Note Off D3
 In:  8E  40  00  |  Ch 15 Note Off E3
 In:  8E  3B  00  |  Ch 15 Note Off B2
 In:  8E  39  00  |  Ch 15 Note Off A2
 In:  8E  46  00  |  Ch 15 Note Off A#3
 In:  8E  47  00  |  Ch 15 Note Off B3
 In:  8E  43  00  |  Ch 15 Note Off G3
 In:  9E  35  74  |  Ch 15 Note On  F2
 In:  9E  37  6D  |  Ch 15 Note On  G2
 In:  9E  43  53  |  Ch 15 Note On  G3
 In:  9E  45  5D  |  Ch 15 Note On  A3
 In:  9E  41  5B  |  Ch 15 Note On  F3
 In:  8E  37  00  |  Ch 15 Note Off G2
 In:  8E  35  00  |  Ch 15 Note Off F2
 In:  8E  45  00  |  Ch 15 Note Off A3
 In:  8E  41  00  |  Ch 15 Note Off F3
 In:  9E  39  7F  |  Ch 15 Note On  A2
 In:  9E  40  74  |  Ch 15 Note On  E3
 In:  9E  3C  7F  |  Ch 15 Note On  C3
 In:  9E  3E  71  |  Ch 15 Note On  D3
 In:  8E  3C  00  |  Ch 15 Note Off C3
 In:  8E  3E  00  |  Ch 15 Note Off D3
 In:  8E  40  00  |  Ch 15 Note Off E3
 In:  9E  45  59  |  Ch 15 Note On  A3
 In:  8E  39  00  |  Ch 15 Note Off A2
 In:  9E  37  6D  |  Ch 15 Note On  G2
 In:  9E  34  76  |  Ch 15 Note On  E2
 In:  9E  35  64  |  Ch 15 Note On  F2
 In:  8E  45  00  |  Ch 15 Note Off A3
 In:  8E  34  00  |  Ch 15 Note Off E2
 In:  8E  42  00  |  Ch 15 Note Off F#3
 In:  8E  35  00  |  Ch 15 Note Off F2
 In:  8E  37  00  |  Ch 15 Note Off G2
 In:  9E  46  48  |  Ch 15 Note On  A#3
 In:  9E  47  03  |  Ch 15 Note On  B3
 In:  9E  39  73  |  Ch 15 Note On  A2
 In:  9E  3C  76  |  Ch 15 Note On  C3
 In:  9E  37  65  |  Ch 15 Note On  G2
 In:  9E  45  38  |  Ch 15 Note On  A3
 In:  9E  40  69  |  Ch 15 Note On  E3
 In:  9E  41  61  |  Ch 15 Note On  F3
 In:  9E  3E  65  |  Ch 15 Note On  D3
 In:  9E  42  5A  |  Ch 15 Note On  F#3
 In:  9E  3F  6A  |  Ch 15 Note On  D#3
 In:  8E  3E  00  |  Ch 15 Note Off D3
 In:  8E  37  00  |  Ch 15 Note Off G2
 In:  8E  3C  00  |  Ch 15 Note Off C3
 In:  8E  39  00  |  Ch 15 Note Off A2
 In:  8E  46  00  |  Ch 15 Note Off A#3
 In:  8E  44  00  |  Ch 15 Note Off G#3
 In:  8E  45  00  |  Ch 15 Note Off A3
 In:  9E  37  79  |  Ch 15 Note On  G2
 In:  8E  47  00  |  Ch 15 Note Off B3
 In:  9E  34  73  |  Ch 15 Note On  E2
 In:  9E  35  71  |  Ch 15 Note On  F2
 In:  9E  30  72  |  Ch 15 Note On  C2
 In:  8E  43  00  |  Ch 15 Note Off G3
 In:  8E  34  00  |  Ch 15 Note Off E2
 In:  8E  41  00  |  Ch 15 Note Off F3
 In:  8E  40  00  |  Ch 15 Note Off E3
 In:  8E  42  00  |  Ch 15 Note Off F#3
 In:  8E  30  00  |  Ch 15 Note Off C2
 In:  8E  35  00  |  Ch 15 Note Off F2
 In:  8E  37  00  |  Ch 15 Note Off G2
 In:  9E  39  73  |  Ch 15 Note On  A2
 In:  9E  37  71  |  Ch 15 Note On  G2
 In:  9E  3C  74  |  Ch 15 Note On  C3
 In:  9E  3E  65  |  Ch 15 Note On  D3
 In:  9E  40  65  |  Ch 15 Note On  E3
 In:  9E  46  5B  |  Ch 15 Note On  A#3
 In:  9E  42  4F  |  Ch 15 Note On  F#3
 In:  8E  3E  00  |  Ch 15 Note Off D3
 In:  8E  40  00  |  Ch 15 Note Off E3
 In:  8E  3C  00  |  Ch 15 Note Off C3
 In:  8E  37  00  |  Ch 15 Note Off G2
 In:  8E  39  00  |  Ch 15 Note Off A2
 In:  8E  42  00  |  Ch 15 Note Off F#3
 In:  9E  37  73  |  Ch 15 Note On  G2
 In:  9E  35  6B  |  Ch 15 Note On  F2
 In:  9E  30  63  |  Ch 15 Note On  C2
 In:  8E  30  00  |  Ch 15 Note Off C2
 In:  8E  35  00  |  Ch 15 Note Off F2
 In:  8E  37  00  |  Ch 15 Note Off G2
 In:  9E  40  6B  |  Ch 15 Note On  E3
 In:  9E  41  6A  |  Ch 15 Note On  F3
 In:  9E  43  51  |  Ch 15 Note On  G3
 In:  8E  3F  00  |  Ch 15 Note Off D#3
 In:  9E  37  76  |  Ch 15 Note On  G2
 In:  9E  39  75  |  Ch 15 Note On  A2
 In:  9E  3C  76  |  Ch 15 Note On  C3
 In:  9E  3E  6C  |  Ch 15 Note On  D3
 In:  8E  46  00  |  Ch 15 Note Off A#3
 In:  8E  3C  00  |  Ch 15 Note Off C3
 In:  8E  3E  00  |  Ch 15 Note Off D3
 In:  8E  39  00  |  Ch 15 Note Off A2
 In:  8E  37  00  |  Ch 15 Note Off G2
 In:  9E  35  69  |  Ch 15 Note On  F2
 In:  8E  35  00  |  Ch 15 Note Off F2
 In:  9E  46  37  |  Ch 15 Note On  A#3
 In:  9E  39  7E  |  Ch 15 Note On  A2
 In:  9E  3C  7F  |  Ch 15 Note On  C3
 In:  9E  45  72  |  Ch 15 Note On  A3
 In:  8E  41  00  |  Ch 15 Note Off F3
 In:  8E  3C  00  |  Ch 15 Note Off C3
 In:  8E  40  00  |  Ch 15 Note Off E3
 In:  8E  39  00  |  Ch 15 Note Off A2
 In:  9E  35  7C  |  Ch 15 Note On  F2
 In:  9E  30  66  |  Ch 15 Note On  C2
 In:  8E  30  00  |  Ch 15 Note Off C2
 In:  8E  35  00  |  Ch 15 Note Off F2
 In:  8E  46  00  |  Ch 15 Note Off A#3
 In:  9E  41  69  |  Ch 15 Note On  F3
 In:  9E  39  7B  |  Ch 15 Note On  A2
 In:  9E  3C  7C  |  Ch 15 Note On  C3
 In:  8E  45  00  |  Ch 15 Note Off A3
 In:  9E  40  6D  |  Ch 15 Note On  E3
 In:  8E  43  00  |  Ch 15 Note Off G3
 In:  8E  3C  00  |  Ch 15 Note Off C3
 In:  8E  40  00  |  Ch 15 Note Off E3
 In:  8E  39  00  |  Ch 15 Note Off A2
 In:  8E  41  00  |  Ch 15 Note Off F3
 In:  9E  46  7B  |  Ch 15 Note On  A#3
 In:  9E  45  2E  |  Ch 15 Note On  A3
 In:  9E  37  78  |  Ch 15 Note On  G2
 In:  9E  35  74  |  Ch 15 Note On  F2
 In:  8E  35  00  |  Ch 15 Note Off F2
 In:  8E  37  00  |  Ch 15 Note Off G2
 In:  9E  40  58  |  Ch 15 Note On  E3
 In:  9E  41  5B  |  Ch 15 Note On  F3
 In:  8E  46  00  |  Ch 15 Note Off A#3
 In:  8E  45  00  |  Ch 15 Note Off A3
 In:  9E  39  7C  |  Ch 15 Note On  A2
 In:  9E  35  7F  |  Ch 15 Note On  F2
 In:  8E  40  00  |  Ch 15 Note Off E3
 In:  9E  48  78  |  Ch 15 Note On  C4
 In:  8E  35  00  |  Ch 15 Note Off F2
 In:  8E  41  00  |  Ch 15 Note Off F3
 In:  8E  39  00  |  Ch 15 Note Off A2
 In:  9E  41  4F  |  Ch 15 Note On  F3
 In:  9E  43  13  |  Ch 15 Note On  G3
 In:  9E  39  7F  |  Ch 15 Note On  A2
 In:  9E  3D  7F  |  Ch 15 Note On  C#3
 In:  9E  3C  7F  |  Ch 15 Note On  C3
 In:  9E  3E  75  |  Ch 15 Note On  D3
 In:  9E  40  71  |  Ch 15 Note On  E3
 In:  8E  3C  00  |  Ch 15 Note Off C3
 In:  8E  3D  00  |  Ch 15 Note Off C#3
 In:  8E  3E  00  |  Ch 15 Note Off D3
 In:  8E  40  00  |  Ch 15 Note Off E3
 In:  8E  48  00  |  Ch 15 Note Off C4
 In:  8E  39  00  |  Ch 15 Note Off A2
 In:  9E  46  7F  |  Ch 15 Note On  A#3
 In:  9E  32  7F  |  Ch 15 Note On  D2
 In:  9E  35  76  |  Ch 15 Note On  F2
 In:  9E  30  66  |  Ch 15 Note On  C2
 In:  9E  45  5B  |  Ch 15 Note On  A3
 In:  8E  43  00  |  Ch 15 Note Off G3
 In:  8E  41  00  |  Ch 15 Note Off F3
 In:  8E  32  00  |  Ch 15 Note Off D2
 In:  8E  35  00  |  Ch 15 Note Off F2
 In:  9E  3E  78  |  Ch 15 Note On  D3
 In:  8E  30  00  |  Ch 15 Note Off C2
 In:  9E  3A  7F  |  Ch 15 Note On  A#2
 In:  9E  39  67  |  Ch 15 Note On  A2
 In:  9E  43  78  |  Ch 15 Note On  G3
 In:  8E  45  00  |  Ch 15 Note Off A3
 In:  8E  46  00  |  Ch 15 Note Off A#3
 In:  8E  3A  00  |  Ch 15 Note Off A#2
 In:  8E  3E  00  |  Ch 15 Note Off D3
 In:  8E  39  00  |  Ch 15 Note Off A2
 In:  9E  33  7F  |  Ch 15 Note On  D#2
 In:  9E  46  6C  |  Ch 15 Note On  A#3
 In:  8E  33  00  |  Ch 15 Note Off D#2
 In:  9E  44  66  |  Ch 15 Note On  G#3
 In:  9E  48  4C  |  Ch 15 Note On  C4
 In:  8E  43  00  |  Ch 15 Note Off G3
 In:  9E  40  7E  |  Ch 15 Note On  E3
 In:  9E  39  71  |  Ch 15 Note On  A2
 In:  9E  3B  7F  |  Ch 15 Note On  B2
 In:  9E  3E  77  |  Ch 15 Note On  D3
 In:  8E  3E  00  |  Ch 15 Note Off D3
 In:  8E  39  00  |  Ch 15 Note Off A2
 In:  8E  3B  00  |  Ch 15 Note Off B2
 In:  8E  48  00  |  Ch 15 Note Off C4
 In:  8E  40  00  |  Ch 15 Note Off E3
 In:  9E  41  64  |  Ch 15 Note On  F3
 In:  9E  43  65  |  Ch 15 Note On  G3
 In:  8E  46  00  |  Ch 15 Note Off A#3
 In:  9E  39  7E  |  Ch 15 Note On  A2
 In:  8E  44  00  |  Ch 15 Note Off G#3
 In:  9E  40  7B  |  Ch 15 Note On  E3
 In:  9E  45  27  |  Ch 15 Note On  A3
 In:  9E  3B  7C  |  Ch 15 Note On  B2
 In:  9E  3E  70  |  Ch 15 Note On  D3
 In:  8E  3E  00  |  Ch 15 Note Off D3
 In:  8E  3B  00  |  Ch 15 Note Off B2
 In:  8E  43  00  |  Ch 15 Note Off G3
 In:  8E  40  00  |  Ch 15 Note Off E3
 In:  8E  41  00  |  Ch 15 Note Off F3
 In:  8E  39  00  |  Ch 15 Note Off A2
 In:  9E  31  77  |  Ch 15 Note On  C#2
 In:  9E  33  7F  |  Ch 15 Note On  D#2
 In:  9E  36  7F  |  Ch 15 Note On  F#2
 In:  8E  31  00  |  Ch 15 Note Off C#2
 In:  9E  47  05  |  Ch 15 Note On  B3
 In:  8E  36  00  |  Ch 15 Note Off F#2
 In:  8E  33  00  |  Ch 15 Note Off D#2
 In:  9E  40  7B  |  Ch 15 Note On  E3
 In:  9E  3F  7F  |  Ch 15 Note On  D#3
 In:  9E  37  6B  |  Ch 15 Note On  G2
 In:  9E  39  6B  |  Ch 15 Note On  A2
 In:  8E  37  00  |  Ch 15 Note Off G2
 In:  8E  3F  00  |  Ch 15 Note Off D#3
 In:  8E  39  00  |  Ch 15 Note Off A2
 In:  9E  42  66  |  Ch 15 Note On  F#3
 In:  8E  40  00  |  Ch 15 Note Off E3
 In:  8E  47  00  |  Ch 15 Note Off B3
 In:  9E  33  7F  |  Ch 15 Note On  D#2
 In:  9E  41  4E  |  Ch 15 Note On  F3
 In:  9E  30  64  |  Ch 15 Note On  C2
 In:  9E  32  6A  |  Ch 15 Note On  D2
 In:  8E  42  00  |  Ch 15 Note Off F#3
 In:  8E  32  00  |  Ch 15 Note Off D2
 In:  8E  30  00  |  Ch 15 Note Off C2
 In:  8E  33  00  |  Ch 15 Note Off D#2
 In:  9E  40  76  |  Ch 15 Note On  E3
 In:  9E  39  6F  |  Ch 15 Note On  A2
 In:  9E  3C  7F  |  Ch 15 Note On  C3
 In:  9E  42  59  |  Ch 15 Note On  F#3
 In:  8E  3C  00  |  Ch 15 Note Off C3
 In:  8E  40  00  |  Ch 15 Note Off E3
 In:  8E  41  00  |  Ch 15 Note Off F3
 In:  8E  39  00  |  Ch 15 Note Off A2
 In:  8E  42  00  |  Ch 15 Note Off F#3
 In:  9E  33  7F  |  Ch 15 Note On  D#2
 In:  9E  37  78  |  Ch 15 Note On  G2
 In:  9E  35  74  |  Ch 15 Note On  F2
 In:  9E  41  3C  |  Ch 15 Note On  F3
 In:  8E  35  00  |  Ch 15 Note Off F2
 In:  8E  33  00  |  Ch 15 Note Off D#2
 In:  8E  37  00  |  Ch 15 Note Off G2
 In:  9E  40  23  |  Ch 15 Note On  E3
 In:  9E  3B  7F  |  Ch 15 Note On  B2
 In:  9E  3E  7F  |  Ch 15 Note On  D3
 In:  8E  45  00  |  Ch 15 Note Off A3
 In:  8E  3E  00  |  Ch 15 Note Off D3
 In:  8E  40  00  |  Ch 15 Note Off E3
 In:  8E  3B  00  |  Ch 15 Note Off B2
 In:  8E  41  00  |  Ch 15 Note Off F3
 In:  9E  33  7F  |  Ch 15 Note On  D#2
 In:  9E  37  7F  |  Ch 15 Note On  G2
 In:  9E  46  43  |  Ch 15 Note On  A#3
 In:  8E  33  00  |  Ch 15 Note Off D#2
 In:  8E  37  00  |  Ch 15 Note Off G2
 In:  9E  41  67  |  Ch 15 Note On  F3
 In:  9E  42  59  |  Ch 15 Note On  F#3
 In:  8E  46  00  |  Ch 15 Note Off A#3
 In:  9E  3F  7F  |  Ch 15 Note On  D#3
 In:  9E  3B  75  |  Ch 15 Note On  B2
 In:  9E  40  75  |  Ch 15 Note On  E3
 In:  9E  3E  75  |  Ch 15 Note On  D3
 In:  9E  39  6B  |  Ch 15 Note On  A2
 In:  8E  3F  00  |  Ch 15 Note Off D#3
 In:  8E  3E  00  |  Ch 15 Note Off D3
 In:  8E  3B  00  |  Ch 15 Note Off B2
 In:  8E  39  00  |  Ch 15 Note Off A2
 In:  8E  40  00  |  Ch 15 Note Off E3
 In:  8E  42  00  |  Ch 15 Note Off F#3
 In:  9E  37  6D  |  Ch 15 Note On  G2
 In:  8E  41  00  |  Ch 15 Note Off F3
 In:  9E  30  65  |  Ch 15 Note On  C2
 In:  9E  35  66  |  Ch 15 Note On  F2
 In:  9E  44  7F  |  Ch 15 Note On  G#3
 In:  9E  46  7F  |  Ch 15 Note On  A#3
 In:  8E  46  00  |  Ch 15 Note Off A#3
 In:  8E  35  00  |  Ch 15 Note Off F2
 In:  8E  37  00  |  Ch 15 Note Off G2
 In:  8E  30  00  |  Ch 15 Note Off C2
 In:  9E  42  79  |  Ch 15 Note On  F#3
 In:  8E  44  00  |  Ch 15 Note Off G#3
 In:  9E  40  7C  |  Ch 15 Note On  E3
 In:  9E  37  6A  |  Ch 15 Note On  G2
 In:  9E  3B  7B  |  Ch 15 Note On  B2
 In:  9E  39  68  |  Ch 15 Note On  A2
 In:  9E  41  64  |  Ch 15 Note On  F3
 In:  9E  43  64  |  Ch 15 Note On  G3
 In:  8E  3B  00  |  Ch 15 Note Off B2
 In:  8E  39  00  |  Ch 15 Note Off A2
 In:  8E  37  00  |  Ch 15 Note Off G2
 In:  8E  40  00  |  Ch 15 Note Off E3
 In:  8E  42  00  |  Ch 15 Note Off F#3
 In:  9E  30  77  |  Ch 15 Note On  C2
 In:  9E  35  7E  |  Ch 15 Note On  F2
 In:  9E  32  7A  |  Ch 15 Note On  D2
 In:  8E  43  00  |  Ch 15 Note Off G3
 In:  8E  32  00  |  Ch 15 Note Off D2
 In:  9E  46  7F  |  Ch 15 Note On  A#3
 In:  9E  44  7F  |  Ch 15 Note On  G#3
 In:  8E  30  00  |  Ch 15 Note Off C2
 In:  8E  41  00  |  Ch 15 Note Off F3
 In:  8E  35  00  |  Ch 15 Note Off F2
 In:  9E  40  7C  |  Ch 15 Note On  E3
 In:  9E  3B  7F  |  Ch 15 Note On  B2
 In:  9E  3E  7F  |  Ch 15 Note On  D3
 In:  8E  3E  00  |  Ch 15 Note Off D3
 In:  9E  41  5C  |  Ch 15 Note On  F3
 In:  8E  3B  00  |  Ch 15 Note Off B2
 In:  8E  46  00  |  Ch 15 Note Off A#3
 In:  8E  40  00  |  Ch 15 Note Off E3
 In:  8E  44  00  |  Ch 15 Note Off G#3
 In:  9E  37  7A  |  Ch 15 Note On  G2
 In:  9E  34  7F  |  Ch 15 Note On  E2
 In:  8E  34  00  |  Ch 15 Note Off E2
 In:  8E  37  00  |  Ch 15 Note Off G2
 In:  9E  45  64  |  Ch 15 Note On  A3
 In:  8E  41  00  |  Ch 15 Note Off F3
 In:  9E  3B  7F  |  Ch 15 Note On  B2
 In:  9E  37  6A  |  Ch 15 Note On  G2
 In:  9E  40  6B  |  Ch 15 Note On  E3
 In:  9E  3E  79  |  Ch 15 Note On  D3
 In:  9E  39  69  |  Ch 15 Note On  A2
 In:  9E  41  68  |  Ch 15 Note On  F3
 In:  8E  3E  00  |  Ch 15 Note Off D3
 In:  8E  41  00  |  Ch 15 Note Off F3
 In:  8E  40  00  |  Ch 15 Note Off E3
 In:  8E  3B  00  |  Ch 15 Note Off B2
 In:  8E  39  00  |  Ch 15 Note Off A2
 In:  8E  37  00  |  Ch 15 Note Off G2
 In:  9E  41  6E  |  Ch 15 Note On  F3
 In:  9E  30  7C  |  Ch 15 Note On  C2
 In:  8E  45  00  |  Ch 15 Note Off A3
 In:  9E  37  7D  |  Ch 15 Note On  G2
 In:  8E  30  00  |  Ch 15 Note Off C2
 In:  8E  37  00  |  Ch 15 Note Off G2
 In:  9E  40  69  |  Ch 15 Note On  E3
 In:  9E  45  2F  |  Ch 15 Note On  A3
 In:  8E  40  00  |  Ch 15 Note Off E3
 In:  8E  41  00  |  Ch 15 Note Off F3
 In:  9E  34  7F  |  Ch 15 Note On  E2
 In:  9E  35  7C  |  Ch 15 Note On  F2
 In:  9E  37  74  |  Ch 15 Note On  G2
 In:  9E  41  6C  |  Ch 15 Note On  F3
 In:  8E  34  00  |  Ch 15 Note Off E2
 In:  8E  37  00  |  Ch 15 Note Off G2
 In:  8E  35  00  |  Ch 15 Note Off F2
 In:  9E  40  7E  |  Ch 15 Note On  E3
 In:  9E  3B  7F  |  Ch 15 Note On  B2
 In:  9E  39  6D  |  Ch 15 Note On  A2
 In:  9E  3E  76  |  Ch 15 Note On  D3
 In:  9E  42  77  |  Ch 15 Note On  F#3
 In:  8E  3E  00  |  Ch 15 Note Off D3
 In:  8E  41  00  |  Ch 15 Note Off F3
 In:  8E  3B  00  |  Ch 15 Note Off B2
 In:  8E  40  00  |  Ch 15 Note Off E3
 In:  8E  39  00  |  Ch 15 Note Off A2
 In:  9E  30  78  |  Ch 15 Note On  C2
 In:  9E  33  7F  |  Ch 15 Note On  D#2
 In:  9E  35  7C  |  Ch 15 Note On  F2
 In:  9E  37  7D  |  Ch 15 Note On  G2
 In:  8E  42  00  |  Ch 15 Note Off F#3
 In:  8E  33  00  |  Ch 15 Note Off D#2
 In:  8E  30  00  |  Ch 15 Note Off C2
 In:  9E  41  5D  |  Ch 15 Note On  F3
 In:  8E  37  00  |  Ch 15 Note Off G2
 In:  8E  35  00  |  Ch 15 Note Off F2
 In:  8E  45  00  |  Ch 15 Note Off A3
 In:  9E  3D  7F  |  Ch 15 Note On  C#3
 In:  9E  40  6C  |  Ch 15 Note On  E3
 In:  9E  3B  7F  |  Ch 15 Note On  B2
 In:  9E  37  6F  |  Ch 15 Note On  G2
 In:  9E  39  69  |  Ch 15 Note On  A2
 In:  8E  3D  00  |  Ch 15 Note Off C#3
 In:  8E  41  00  |  Ch 15 Note Off F3
 In:  8E  40  00  |  Ch 15 Note Off E3
 In:  8E  3B  00  |  Ch 15 Note Off B2
 In:  8E  39  00  |  Ch 15 Note Off A2
 In:  8E  37  00  |  Ch 15 Note Off G2
 In:  9E  33  7F  |  Ch 15 Note On  D#2
 In:  9E  37  6C  |  Ch 15 Note On  G2
 In:  9E  41  6C  |  Ch 15 Note On  F3
 In:  9E  35  68  |  Ch 15 Note On  F2
 In:  8E  33  00  |  Ch 15 Note Off D#2
 In:  8E  35  00  |  Ch 15 Note Off F2
 In:  8E  37  00  |  Ch 15 Note Off G2
 In:  9E  45  58  |  Ch 15 Note On  A3
 In:  9E  48  67  |  Ch 15 Note On  C4
 In:  9E  3D  7F  |  Ch 15 Note On  C#3
 In:  9E  3B  7F  |  Ch 15 Note On  B2
 In:  9E  40  6C  |  Ch 15 Note On  E3
 In:  9E  37  6C  |  Ch 15 Note On  G2
 In:  9E  39  6A  |  Ch 15 Note On  A2
 In:  8E  41  00  |  Ch 15 Note Off F3
 In:  8E  3D  00  |  Ch 15 Note Off C#3
 In:  8E  40  00  |  Ch 15 Note Off E3
 In:  8E  39  00  |  Ch 15 Note Off A2
 In:  8E  3B  00  |  Ch 15 Note Off B2
 In:  8E  37  00  |  Ch 15 Note Off G2
 In:  9E  35  79  |  Ch 15 Note On  F2
 In:  9E  37  7C  |  Ch 15 Note On  G2
 In:  9E  34  78  |  Ch 15 Note On  E2
 In:  9E  41  6A  |  Ch 15 Note On  F3
 In:  9E  30  5B  |  Ch 15 Note On  C2
 In:  8E  34  00  |  Ch 15 Note Off E2
 In:  8E  30  00  |  Ch 15 Note Off C2
 In:  8E  37  00  |  Ch 15 Note Off G2
 In:  8E  35  00  |  Ch 15 Note Off F2
 In:  8E  48  00  |  Ch 15 Note Off C4
 In:  8E  41  00  |  Ch 15 Note Off F3
 In:  9E  3B  76  |  Ch 15 Note On  B2
 In:  8E  45  00  |  Ch 15 Note Off A3
 In:  9E  40  6D  |  Ch 15 Note On  E3
 In:  9E  37  5F  |  Ch 15 Note On  G2
 In:  8E  3B  00  |  Ch 15 Note Off B2
 In:  8E  37  00  |  Ch 15 Note Off G2
 In:  8E  40  00  |  Ch 15 Note Off E3
 In:  9E  45  5C  |  Ch 15 Note On  A3
 In:  9E  41  71  |  Ch 15 Note On  F3
 In:  8E  41  00  |  Ch 15 Note Off F3
 In:  9E  41  67  |  Ch 15 Note On  F3
 In:  9E  40  7F  |  Ch 15 Note On  E3
 In:  9E  3E  7F  |  Ch 15 Note On  D3
 In:  9E  37  75  |  Ch 15 Note On  G2
 In:  9E  39  71  |  Ch 15 Note On  A2
 In:  9E  30  7F  |  Ch 15 Note On  C2
 In:  9E  35  7F  |  Ch 15 Note On  F2
 In:  9E  34  7F  |  Ch 15 Note On  E2
 In:  9E  32  7F  |  Ch 15 Note On  D2
 In:  8E  32  00  |  Ch 15 Note Off D2
 In:  8E  34  00  |  Ch 15 Note Off E2
 In:  8E  39  00  |  Ch 15 Note Off A2
 In:  8E  3E  00  |  Ch 15 Note Off D3
 In:  8E  41  00  |  Ch 15 Note Off F3
 In:  8E  40  00  |  Ch 15 Note Off E3
 In:  8E  45  00  |  Ch 15 Note Off A3
 In:  8E  35  00  |  Ch 15 Note Off F2
 In:  8E  3B  00  |  Ch 15 Note Off B2
 In:  8E  37  00  |  Ch 15 Note Off G2
 In:  9E  41  72  |  Ch 15 Note On  F3
 In:  9E  45  64  |  Ch 15 Note On  A3
 In:  8E  41  00  |  Ch 15 Note Off F3
 In:  8E  45  00  |  Ch 15 Note Off A3
 In:  9E  40  71  |  Ch 15 Note On  E3
 In:  9E  3F  7F  |  Ch 15 Note On  D#3
 In:  9E  39  69  |  Ch 15 Note On  A2
 In:  8E  3F  00  |  Ch 15 Note Off D#3
 In:  8E  40  00  |  Ch 15 Note Off E3
 In:  9E  41  6D  |  Ch 15 Note On  F3
 In:  9E  45  63  |  Ch 15 Note On  A3
 In:  8E  39  00  |  Ch 15 Note Off A2
 In:  9E  33  7F  |  Ch 15 Note On  D#2
 In:  9E  30  67  |  Ch 15 Note On  C2
 In:  9E  35  63  |  Ch 15 Note On  F2
 In:  9E  37  62  |  Ch 15 Note On  G2
 In:  8E  30  00  |  Ch 15 Note Off C2
 In:  8E  37  00  |  Ch 15 Note Off G2
 In:  8E  35  00  |  Ch 15 Note Off F2
 In:  8E  33  00  |  Ch 15 Note Off D#2
 In:  8E  41  00  |  Ch 15 Note Off F3
 In:  8E  45  00  |  Ch 15 Note Off A3
 In:  9E  3A  7F  |  Ch 15 Note On  A#2
 In:  9E  41  6D  |  Ch 15 Note On  F3
 In:  9E  45  69  |  Ch 15 Note On  A3
 In:  8E  3D  00  |  Ch 15 Note Off C#3
 In:  8E  3A  00  |  Ch 15 Note Off A#2
 In:  9E  33  7F  |  Ch 15 Note On  D#2
 In:  9E  30  6C  |  Ch 15 Note On  C2
 In:  9E  35  7F  |  Ch 15 Note On  F2
 In:  8E  30  00  |  Ch 15 Note Off C2
 In:  8E  41  00  |  Ch 15 Note Off F3
 In:  8E  45  00  |  Ch 15 Note Off A3
 In:  8E  33  00  |  Ch 15 Note Off D#2
 In:  8E  35  00  |  Ch 15 Note Off F2
 In:  9E  3D  7F  |  Ch 15 Note On  C#3
 In:  9E  3A  7F  |  Ch 15 Note On  A#2
 In:  9E  40  76  |  Ch 15 Note On  E3
 In:  9E  37  6A  |  Ch 15 Note On  G2
 In:  9E  41  60  |  Ch 15 Note On  F3
 In:  9E  39  5C  |  Ch 15 Note On  A2
 In:  9E  45  46  |  Ch 15 Note On  A3
 In:  9E  3B  58  |  Ch 15 Note On  B2
 In:  8E  3A  00  |  Ch 15 Note Off A#2
 In:  8E  3B  00  |  Ch 15 Note Off B2
 In:  8E  39  00  |  Ch 15 Note Off A2
 In:  8E  40  00  |  Ch 15 Note Off E3
 In:  8E  3D  00  |  Ch 15 Note Off C#3
 In:  8E  37  00  |  Ch 15 Note Off G2
 In:  9E  33  7F  |  Ch 15 Note On  D#2
 In:  9E  37  7F  |  Ch 15 Note On  G2
 In:  9E  35  7F  |  Ch 15 Note On  F2
 In:  8E  41  00  |  Ch 15 Note Off F3
 In:  8E  45  00  |  Ch 15 Note Off A3
 In:  8E  35  00  |  Ch 15 Note Off F2
 In:  8E  37  00  |  Ch 15 Note Off G2
 In:  8E  33  00  |  Ch 15 Note Off D#2
 In:  9E  45  61  |  Ch 15 Note On  A3
 In:  9E  41  69  |  Ch 15 Note On  F3
 In:  9E  43  68  |  Ch 15 Note On  G3
 In:  9E  3A  7F  |  Ch 15 Note On  A#2
 In:  9E  3D  7F  |  Ch 15 Note On  C#3
 In:  9E  40  76  |  Ch 15 Note On  E3
 In:  9E  37  6D  |  Ch 15 Note On  G2
 In:  9E  39  64  |  Ch 15 Note On  A2
 In:  8E  40  00  |  Ch 15 Note Off E3
 In:  8E  39  00  |  Ch 15 Note Off A2
 In:  8E  37  00  |  Ch 15 Note Off G2
 In:  8E  3D  00  |  Ch 15 Note Off C#3
 In:  8E  3A  00  |  Ch 15 Note Off A#2
 In:  8E  41  00  |  Ch 15 Note Off F3
 In:  8E  43  00  |  Ch 15 Note Off G3
 In:  8E  45  00  |  Ch 15 Note Off A3
 In:  9E  33  7F  |  Ch 15 Note On  D#2
 In:  9E  37  7B  |  Ch 15 Note On  G2
 In:  9E  45  5C  |  Ch 15 Note On  A3
 In:  9E  41  6B  |  Ch 15 Note On  F3
 In:  9E  43  60  |  Ch 15 Note On  G3
 In:  8E  37  00  |  Ch 15 Note Off G2
 In:  8E  33  00  |  Ch 15 Note Off D#2
 In:  9E  3D  7F  |  Ch 15 Note On  C#3
 In:  9E  37  65  |  Ch 15 Note On  G2
 In:  9E  39  64  |  Ch 15 Note On  A2
 In:  8E  3D  00  |  Ch 15 Note Off C#3
 In:  8E  37  00  |  Ch 15 Note Off G2
 In:  8E  39  00  |  Ch 15 Note Off A2
 In:  8E  43  00  |  Ch 15 Note Off G3
 In:  8E  3A  00  |  Ch 15 Note Off A#2
 In:  8E  41  00  |  Ch 15 Note Off F3
 In:  8E  45  00  |  Ch 15 Note Off A3
 In:  9E  33  7F  |  Ch 15 Note On  D#2
 In:  9E  35  7C  |  Ch 15 Note On  F2
 In:  9E  30  60  |  Ch 15 Note On  C2
 In:  9E  45  64  |  Ch 15 Note On  A3
 In:  9E  41  6B  |  Ch 15 Note On  F3
 In:  8E  35  00  |  Ch 15 Note Off F2
 In:  8E  33  00  |  Ch 15 Note Off D#2
 In:  9E  43  3A  |  Ch 15 Note On  G3
 In:  8E  30  00  |  Ch 15 Note Off C2
 In:  9E  3E  7C  |  Ch 15 Note On  D3
 In:  9E  39  7F  |  Ch 15 Note On  A2
 In:  9E  3C  7F  |  Ch 15 Note On  C3
 In:  8E  3C  00  |  Ch 15 Note Off C3
 In:  8E  41  00  |  Ch 15 Note Off F3
 In:  8E  45  00  |  Ch 15 Note Off A3
 In:  8E  39  00  |  Ch 15 Note Off A2
 In:  8E  3E  00  |  Ch 15 Note Off D3
 In:  9E  35  7F  |  Ch 15 Note On  F2
 In:  9E  33  7F  |  Ch 15 Note On  D#2
 In:  9E  30  67  |  Ch 15 Note On  C2
 In:  8E  30  00  |  Ch 15 Note Off C2
 In:  8E  33  00  |  Ch 15 Note Off D#2
 In:  9E  40  66  |  Ch 15 Note On  E3
 In:  8E  35  00  |  Ch 15 Note Off F2
 In:  9E  39  7F  |  Ch 15 Note On  A2
 In:  9E  37  68  |  Ch 15 Note On  G2
 In:  9E  3C  7F  |  Ch 15 Note On  C3
 In:  9E  3E  7F  |  Ch 15 Note On  D3
 In:  8E  3C  00  |  Ch 15 Note Off C3
 In:  8E  39  00  |  Ch 15 Note Off A2
 In:  8E  3E  00  |  Ch 15 Note Off D3
 In:  8E  37  00  |  Ch 15 Note Off G2
 In:  9E  37  7D  |  Ch 15 Note On  G2
 In:  8E  40  00  |  Ch 15 Note Off E3
 In:  8E  43  00  |  Ch 15 Note Off G3
 In:  9E  39  7F  |  Ch 15 Note On  A2
 In:  8E  37  00  |  Ch 15 Note Off G2
 In:  9E  3E  77  |  Ch 15 Note On  D3
 In:  9E  3C  7F  |  Ch 15 Note On  C3
 In:  9E  40  6A  |  Ch 15 Note On  E3
 In:  9E  41  0C  |  Ch 15 Note On  F3
 In:  8E  3C  00  |  Ch 15 Note Off C3
 In:  8E  39  00  |  Ch 15 Note Off A2
 In:  8E  3E  00  |  Ch 15 Note Off D3
 In:  9E  33  66  |  Ch 15 Note On  D#2
 In:  9E  37  54  |  Ch 15 Note On  G2
 In:  8E  40  00  |  Ch 15 Note Off E3
 In:  8E  33  00  |  Ch 15 Note Off D#2
 In:  9E  42  2B  |  Ch 15 Note On  F#3
 In:  8E  41  00  |  Ch 15 Note Off F3
 In:  8E  37  00  |  Ch 15 Note Off G2
 In:  9E  3A  7F  |  Ch 15 Note On  A#2
 In:  9E  3E  7D  |  Ch 15 Note On  D3
 In:  9E  44  31  |  Ch 15 Note On  G#3
 In:  9E  39  6F  |  Ch 15 Note On  A2
 In:  8E  3A  00  |  Ch 15 Note Off A#2
 In:  8E  39  00  |  Ch 15 Note Off A2
 In:  8E  3E  00  |  Ch 15 Note Off D3
 In:  9E  31  66  |  Ch 15 Note On  C#2
 In:  8E  44  00  |  Ch 15 Note Off G#3
 In:  9E  33  6C  |  Ch 15 Note On  D#2
 In:  9E  37  5A  |  Ch 15 Note On  G2
 In:  9E  35  56  |  Ch 15 Note On  F2
 In:  9E  30  40  |  Ch 15 Note On  C2
 In:  9E  3A  7F  |  Ch 15 Note On  A#2
 In:  9E  39  6D  |  Ch 15 Note On  A2
 In:  9E  3D  7F  |  Ch 15 Note On  C#3
 In:  9E  40  73  |  Ch 15 Note On  E3
 In:  9E  3E  68  |  Ch 15 Note On  D3
 In:  8E  31  00  |  Ch 15 Note Off C#2
 In:  8E  3E  00  |  Ch 15 Note Off D3
 In:  8E  40  00  |  Ch 15 Note Off E3
 In:  8E  37  00  |  Ch 15 Note Off G2
 In:  8E  35  00  |  Ch 15 Note Off F2
 In:  8E  3D  00  |  Ch 15 Note Off C#3
 In:  8E  30  00  |  Ch 15 Note Off C2
 In:  8E  42  00  |  Ch 15 Note Off F#3
 In:  8E  33  00  |  Ch 15 Note Off D#2
 In:  8E  39  00  |  Ch 15 Note Off A2
 In:  8E  3A  00  |  Ch 15 Note Off A#2
 In:  9E  33  7F  |  Ch 15 Note On  D#2
 In:  9E  37  6B  |  Ch 15 Note On  G2
 In:  9E  35  69  |  Ch 15 Note On  F2
 In:  9E  3C  7F  |  Ch 15 Note On  C3
 In:  9E  39  7F  |  Ch 15 Note On  A2
 In:  8E  35  00  |  Ch 15 Note Off F2
 In:  8E  37  00  |  Ch 15 Note Off G2
 In:  8E  33  00  |  Ch 15 Note Off D#2
 In:  8E  3C  00  |  Ch 15 Note Off C3
 In:  8E  39  00  |  Ch 15 Note Off A2
 In:  9E  42  6F  |  Ch 15 Note On  F#3
 In:  9E  30  76  |  Ch 15 Note On  C2
 In:  9E  37  69  |  Ch 15 Note On  G2
 In:  9E  34  69  |  Ch 15 Note On  E2
 In:  9E  32  68  |  Ch 15 Note On  D2
 In:  8E  32  00  |  Ch 15 Note Off D2
 In:  8E  34  00  |  Ch 15 Note Off E2
 In:  8E  30  00  |  Ch 15 Note Off C2
 In:  9E  3A  7F  |  Ch 15 Note On  A#2
 In:  9E  3D  7F  |  Ch 15 Note On  C#3
 In:  8E  35  00  |  Ch 15 Note Off F2
 In:  8E  42  00  |  Ch 15 Note Off F#3
 In:  9E  40  5E  |  Ch 15 Note On  E3
 In:  8E  40  00  |  Ch 15 Note Off E3
 In:  8E  37  00  |  Ch 15 Note Off G2
 In:  8E  3D  00  |  Ch 15 Note Off C#3
 In:  8E  3A  00  |  Ch 15 Note Off A#2
 In:  9E  42  6C  |  Ch 15 Note On  F#3
 In:  9E  35  79  |  Ch 15 Note On  F2
 In:  9E  33  7F  |  Ch 15 Note On  D#2
 In:  9E  44  65  |  Ch 15 Note On  G#3
 In:  8E  42  00  |  Ch 15 Note Off F#3
 In:  8E  33  00  |  Ch 15 Note Off D#2
 In:  8E  35  00  |  Ch 15 Note Off F2
 In:  9E  42  6B  |  Ch 15 Note On  F#3
 In:  8E  44  00  |  Ch 15 Note Off G#3
 In:  9E  37  72  |  Ch 15 Note On  G2
 In:  9E  39  71  |  Ch 15 Note On  A2
 In:  9E  30  3A  |  Ch 15 Note On  C2
 In:  9E  3A  7C  |  Ch 15 Note On  A#2
 In:  9E  44  7B  |  Ch 15 Note On  G#3
 In:  9E  3D  7F  |  Ch 15 Note On  C#3
 In:  9E  40  7F  |  Ch 15 Note On  E3
 In:  8E  30  00  |  Ch 15 Note Off C2
 In:  8E  42  00  |  Ch 15 Note Off F#3
 In:  8E  37  00  |  Ch 15 Note Off G2
 In:  8E  39  00  |  Ch 15 Note Off A2
 In:  8E  40  00  |  Ch 15 Note Off E3
 In:  8E  3D  00  |  Ch 15 Note Off C#3
 In:  8E  3A  00  |  Ch 15 Note Off A#2
 In:  9E  42  69  |  Ch 15 Note On  F#3
 In:  9E  39  7C  |  Ch 15 Note On  A2
 In:  9E  37  7A  |  Ch 15 Note On  G2
 In:  9E  32  63  |  Ch 15 Note On  D2
 In:  8E  44  00  |  Ch 15 Note Off G#3
 In:  8E  32  00  |  Ch 15 Note Off D2
 In:  9E  3A  7F  |  Ch 15 Note On  A#2
 In:  9E  3D  7F  |  Ch 15 Note On  C#3
 In:  9E  40  7F  |  Ch 15 Note On  E3
 In:  8E  3D  00  |  Ch 15 Note Off C#3
 In:  9E  3B  6B  |  Ch 15 Note On  B2
 In:  9E  44  6A  |  Ch 15 Note On  G#3
 In:  8E  37  00  |  Ch 15 Note Off G2
 In:  8E  3B  00  |  Ch 15 Note Off B2
 In:  8E  42  00  |  Ch 15 Note Off F#3
 In:  8E  3A  00  |  Ch 15 Note Off A#2
 In:  8E  39  00  |  Ch 15 Note Off A2
 In:  8E  40  00  |  Ch 15 Note Off E3
 In:  9E  42  6D  |  Ch 15 Note On  F#3
 In:  9E  33  7F  |  Ch 15 Note On  D#2
 In:  9E  30  6D  |  Ch 15 Note On  C2
 In:  9E  39  65  |  Ch 15 Note On  A2
 In:  9E  35  7F  |  Ch 15 Note On  F2
 In:  8E  44  00  |  Ch 15 Note Off G#3
 In:  9E  40  7F  |  Ch 15 Note On  E3
 In:  9E  3D  7F  |  Ch 15 Note On  C#3
 In:  9E  3A  7F  |  Ch 15 Note On  A#2
 In:  8E  35  00  |  Ch 15 Note Off F2
 In:  8E  39  00  |  Ch 15 Note Off A2
 In:  8E  30  00  |  Ch 15 Note Off C2
 In:  8E  3A  00  |  Ch 15 Note Off A#2
 In:  8E  40  00  |  Ch 15 Note Off E3
 In:  8E  3D  00  |  Ch 15 Note Off C#3
 In:  8E  33  00  |  Ch 15 Note Off D#2
 In:  9E  36  7F  |  Ch 15 Note On  F#2
 In:  9E  44  4C  |  Ch 15 Note On  G#3
 In:  8E  42  00  |  Ch 15 Note Off F#3
 In:  9E  33  68  |  Ch 15 Note On  D#2
 In:  9E  3A  7F  |  Ch 15 Note On  A#2
 In:  9E  3D  7F  |  Ch 15 Note On  C#3
 In:  9E  3E  7F  |  Ch 15 Note On  D3
 In:  8E  3A  00  |  Ch 15 Note Off A#2
 In:  9E  46  22  |  Ch 15 Note On  A#3
 In:  9E  39  65  |  Ch 15 Note On  A2
 In:  9E  37  5D  |  Ch 15 Note On  G2
 In:  8E  3D  00  |  Ch 15 Note Off C#3
 In:  8E  36  00  |  Ch 15 Note Off F#2
 In:  8E  37  00  |  Ch 15 Note Off G2
 In:  8E  39  00  |  Ch 15 Note Off A2
 In:  8E  46  00  |  Ch 15 Note Off A#3
 In:  9E  42  76  |  Ch 15 Note On  F#3
 In:  8E  3E  00  |  Ch 15 Note Off D3
 In:  8E  44  00  |  Ch 15 Note Off G#3
 In:  8E  33  00  |  Ch 15 Note Off D#2
 In:  9E  33  6A  |  Ch 15 Note On  D#2
 In:  9E  31  71  |  Ch 15 Note On  C#2
 In:  9E  37  64  |  Ch 15 Note On  G2
 In:  9E  44  6B  |  Ch 15 Note On  G#3
 In:  9E  3A  7F  |  Ch 15 Note On  A#2
 In:  9E  40  76  |  Ch 15 Note On  E3
 In:  8E  37  00  |  Ch 15 Note Off G2
 In:  8E  42  00  |  Ch 15 Note Off F#3
 In:  8E  3A  00  |  Ch 15 Note Off A#2
 In:  8E  40  00  |  Ch 15 Note Off E3
 In:  8E  31  00  |  Ch 15 Note Off C#2
 In:  9E  42  6D  |  Ch 15 Note On  F#3
 In:  8E  33  00  |  Ch 15 Note Off D#2
 In:  9E  38  7F  |  Ch 15 Note On  G#2
 In:  8E  44  00  |  Ch 15 Note Off G#3
 In:  9E  3F  7F  |  Ch 15 Note On  D#3
 In:  9E  41  7F  |  Ch 15 Note On  F3
 In:  9E  31  7F  |  Ch 15 Note On  C#2
 In:  8E  41  00  |  Ch 15 Note Off F3
 In:  9E  44  7C  |  Ch 15 Note On  G#3
 In:  8E  38  00  |  Ch 15 Note Off G#2
 In:  8E  3F  00  |  Ch 15 Note Off D#3
 In:  8E  42  00  |  Ch 15 Note Off F#3
 In:  9E  42  6D  |  Ch 15 Note On  F#3
 In:  8E  44  00  |  Ch 15 Note Off G#3
 In:  9E  3D  7F  |  Ch 15 Note On  C#3
 In:  9E  3F  7F  |  Ch 15 Note On  D#3
 In:  9E  44  50  |  Ch 15 Note On  G#3
 In:  8E  42  00  |  Ch 15 Note Off F#3
 In:  8E  3F  00  |  Ch 15 Note Off D#3
 In:  9E  38  7F  |  Ch 15 Note On  G#2
 In:  8E  3D  00  |  Ch 15 Note Off C#3
 In:  9E  42  71  |  Ch 15 Note On  F#3
 In:  8E  31  00  |  Ch 15 Note Off C#2
 In:  8E  44  00  |  Ch 15 Note Off G#3
 In:  9E  3F  7F  |  Ch 15 Note On  D#3
 In:  9E  3D  7F  |  Ch 15 Note On  C#3
 In:  8E  38  00  |  Ch 15 Note Off G#2
 In:  8E  3D  00  |  Ch 15 Note Off C#3
 In:  8E  3F  00  |  Ch 15 Note Off D#3
 In:  9E  33  77  |  Ch 15 Note On  D#2
 In:  9E  31  70  |  Ch 15 Note On  C#2
 In:  8E  42  00  |  Ch 15 Note Off F#3
 In:  9E  42  76  |  Ch 15 Note On  F#3
 In:  9E  3F  7F  |  Ch 15 Note On  D#3
 In:  8E  31  00  |  Ch 15 Note Off C#2
 In:  9E  3D  7F  |  Ch 15 Note On  C#3
 In:  8E  33  00  |  Ch 15 Note Off D#2
 In:  8E  3D  00  |  Ch 15 Note Off C#3
 In:  8E  3F  00  |  Ch 15 Note Off D#3
 In:  8E  42  00  |  Ch 15 Note Off F#3
 In:  9E  31  7F  |  Ch 15 Note On  C#2
 In:  9E  42  6B  |  Ch 15 Note On  F#3
 In:  9E  33  7F  |  Ch 15 Note On  D#2
 In:  9E  39  7F  |  Ch 15 Note On  A2
 In:  9E  3C  7F  |  Ch 15 Note On  C3
 In:  9E  3B  7C  |  Ch 15 Note On  B2
 In:  8E  42  00  |  Ch 15 Note Off F#3
 In:  8E  3C  00  |  Ch 15 Note Off C3
 In:  8E  3B  00  |  Ch 15 Note Off B2
 In:  8E  39  00  |  Ch 15 Note Off A2
 In:  8E  33  00  |  Ch 15 Note Off D#2
 In:  8E  31  00  |  Ch 15 Note Off C#2
 In:  9E  42  6B  |  Ch 15 Note On  F#3
 In:  9E  33  75  |  Ch 15 Note On  D#2
 In:  9E  31  65  |  Ch 15 Note On  C#2
 In:  9E  3A  7F  |  Ch 15 Note On  A#2
 In:  9E  38  7F  |  Ch 15 Note On  G#2
 In:  9E  3D  7F  |  Ch 15 Note On  C#3
 In:  8E  3D  00  |  Ch 15 Note Off C#3
 In:  9E  44  7F  |  Ch 15 Note On  G#3
 In:  8E  3A  00  |  Ch 15 Note Off A#2
 In:  8E  38  00  |  Ch 15 Note Off G#2
 In:  8E  42  00  |  Ch 15 Note Off F#3
 In:  8E  33  00  |  Ch 15 Note Off D#2
 In:  8E  31  00  |  Ch 15 Note Off C#2
 In:  9E  3A  7F  |  Ch 15 Note On  A#2
 In:  9E  38  7F  |  Ch 15 Note On  G#2
 In:  9E  3D  7F  |  Ch 15 Note On  C#3
 In:  9E  33  6D  |  Ch 15 Note On  D#2
 In:  9E  42  77  |  Ch 15 Note On  F#3
 In:  9E  31  7F  |  Ch 15 Note On  C#2
 In:  8E  44  00  |  Ch 15 Note Off G#3
 In:  8E  3D  00  |  Ch 15 Note Off C#3
 In:  8E  38  00  |  Ch 15 Note Off G#2
 In:  8E  3A  00  |  Ch 15 Note Off A#2
 In:  8E  33  00  |  Ch 15 Note Off D#2
 In:  8E  31  00  |  Ch 15 Note Off C#2
 In:  9E  44  7F  |  Ch 15 Note On  G#3
 In:  8E  42  00  |  Ch 15 Note Off F#3
 In:  9E  31  6D  |  Ch 15 Note On  C#2
 In:  9E  3C  6D  |  Ch 15 Note On  C3
 In:  9E  3E  76  |  Ch 15 Note On  D3
 In:  8E  3E  00  |  Ch 15 Note Off D3
 In:  8E  3C  00  |  Ch 15 Note Off C3
 In:  8E  44  00  |  Ch 15 Note Off G#3
 In:  9E  42  67  |  Ch 15 Note On  F#3
 In:  8E  42  00  |  Ch 15 Note Off F#3
 In:  9E  37  5E  |  Ch 15 Note On  G2
 In:  8E  37  00  |  Ch 15 Note Off G2
 In:  9E  3F  7F  |  Ch 15 Note On  D#3
 In:  8E  31  00  |  Ch 15 Note Off C#2
 In:  9E  3D  79  |  Ch 15 Note On  C#3
 In:  8E  3D  00  |  Ch 15 Note Off C#3
 In:  8E  3F  00  |  Ch 15 Note Off D#3
 In:  9E  41  5F  |  Ch 15 Note On  F3
 In:  9E  36  7F  |  Ch 15 Note On  F#2
 In:  9E  38  6C  |  Ch 15 Note On  G#2
 In:  9E  33  7F  |  Ch 15 Note On  D#2
 In:  9E  37  75  |  Ch 15 Note On  G2
 In:  9E  3D  7F  |  Ch 15 Note On  C#3
 In:  8E  37  00  |  Ch 15 Note Off G2
 In:  8E  41  00  |  Ch 15 Note Off F3
 In:  8E  38  00  |  Ch 15 Note Off G#2
 In:  8E  33  00  |  Ch 15 Note Off D#2
 In:  9E  42  08  |  Ch 15 Note On  F#3
 In:  8E  3D  00  |  Ch 15 Note Off C#3
 In:  8E  36  00  |  Ch 15 Note Off F#2
 In:  9E  44  50  |  Ch 15 Note On  G#3
 In:  9E  46  43  |  Ch 15 Note On  A#3
 In:  9E  41  46  |  Ch 15 Note On  F3
 In:  9E  38  7F  |  Ch 15 Note On  G#2
 In:  9E  3A  7F  |  Ch 15 Note On  A#2
 In:  8E  46  00  |  Ch 15 Note Off A#3
 In:  8E  44  00  |  Ch 15 Note Off G#3
 In:  8E  42  00  |  Ch 15 Note Off F#3
 In:  8E  3A  00  |  Ch 15 Note Off A#2
 In:  9E  33  7F  |  Ch 15 Note On  D#2
 In:  9E  31  7F  |  Ch 15 Note On  C#2
 In:  8E  38  00  |  Ch 15 Note Off G#2
 In:  8E  33  00  |  Ch 15 Note Off D#2
 In:  8E  31  00  |  Ch 15 Note Off C#2
 In:  9E  38  7F  |  Ch 15 Note On  G#2
 In:  9E  3A  7F  |  Ch 15 Note On  A#2
 In:  8E  3A  00  |  Ch 15 Note Off A#2
 In:  8E  38  00  |  Ch 15 Note Off G#2
 In:  9E  43  60  |  Ch 15 Note On  G3
 In:  9E  45  6A  |  Ch 15 Note On  A3
 In:  9E  31  7F  |  Ch 15 Note On  C#2
 In:  9E  33  7F  |  Ch 15 Note On  D#2
 In:  8E  41  00  |  Ch 15 Note Off F3
 In:  8E  33  00  |  Ch 15 Note Off D#2
 In:  8E  31  00  |  Ch 15 Note Off C#2
 In:  9E  41  71  |  Ch 15 Note On  F3
 In:  9E  38  7F  |  Ch 15 Note On  G#2
 In:  9E  3A  7F  |  Ch 15 Note On  A#2
 In:  9E  36  7F  |  Ch 15 Note On  F#2
 In:  8E  3A  00  |  Ch 15 Note Off A#2
 In:  8E  36  00  |  Ch 15 Note Off F#2
 In:  8E  38  00  |  Ch 15 Note Off G#2
 In:  8E  43  00  |  Ch 15 Note Off G3
 In:  9E  31  7F  |  Ch 15 Note On  C#2
 In:  9E  33  7F  |  Ch 15 Note On  D#2
 In:  8E  45  00  |  Ch 15 Note Off A3
 In:  9E  46  60  |  Ch 15 Note On  A#3
 In:  8E  41  00  |  Ch 15 Note Off F3
 In:  8E  31  00  |  Ch 15 Note Off C#2
 In:  9E  36  7F  |  Ch 15 Note On  F#2
 In:  8E  33  00  |  Ch 15 Note Off D#2
 In:  9E  38  7F  |  Ch 15 Note On  G#2
 In:  9E  3A  7F  |  Ch 15 Note On  A#2
 In:  9E  44  33  |  Ch 15 Note On  G#3
 In:  8E  3A  00  |  Ch 15 Note Off A#2
 In:  8E  38  00  |  Ch 15 Note Off G#2
 In:  8E  36  00  |  Ch 15 Note Off F#2
 In:  9E  42  73  |  Ch 15 Note On  F#3
 In:  9E  31  7F  |  Ch 15 Note On  C#2
 In:  9E  33  7F  |  Ch 15 Note On  D#2
 In:  8E  44  00  |  Ch 15 Note Off G#3
 In:  8E  46  00  |  Ch 15 Note Off A#3
 In:  8E  31  00  |  Ch 15 Note Off C#2
 In:  8E  33  00  |  Ch 15 Note Off D#2
 In:  9E  41  62  |  Ch 15 Note On  F3
 In:  8E  42  00  |  Ch 15 Note Off F#3
 In:  9E  3D  7F  |  Ch 15 Note On  C#3
 In:  9E  3F  7F  |  Ch 15 Note On  D#3
 In:  8E  41  00  |  Ch 15 Note Off F3
 In:  8E  3F  00  |  Ch 15 Note Off D#3
 In:  8E  3D  00  |  Ch 15 Note Off C#3
 In:  9E  44  35  |  Ch 15 Note On  G#3
 In:  9E  42  79  |  Ch 15 Note On  F#3
 In:  8E  44  00  |  Ch 15 Note Off G#3
 In:  9E  33  7F  |  Ch 15 Note On  D#2
 In:  9E  36  7A  |  Ch 15 Note On  F#2
 In:  8E  33  00  |  Ch 15 Note Off D#2
 In:  8E  36  00  |  Ch 15 Note Off F#2
 In:  9E  3D  7F  |  Ch 15 Note On  C#3
 In:  9E  3F  7F  |  Ch 15 Note On  D#3
 In:  9E  46  4A  |  Ch 15 Note On  A#3
 In:  8E  42  00  |  Ch 15 Note Off F#3
 In:  8E  3F  00  |  Ch 15 Note Off D#3
 In:  8E  3D  00  |  Ch 15 Note Off C#3
 In:  9E  45  3F  |  Ch 15 Note On  A3
 In:  8E  46  00  |  Ch 15 Note Off A#3
 In:  9E  42  3C  |  Ch 15 Note On  F#3
 In:  9E  31  7F  |  Ch 15 Note On  C#2
 In:  9E  33  7C  |  Ch 15 Note On  D#2
 In:  8E  33  00  |  Ch 15 Note Off D#2
 In:  8E  31  00  |  Ch 15 Note Off C#2
 In:  9E  3A  7F  |  Ch 15 Note On  A#2
 In:  9E  38  7F  |  Ch 15 Note On  G#2
 In:  8E  42  00  |  Ch 15 Note Off F#3
 In:  8E  38  00  |  Ch 15 Note Off G#2
 In:  8E  3A  00  |  Ch 15 Note Off A#2
 In:  9E  42  6F  |  Ch 15 Note On  F#3
 In:  9E  31  7F  |  Ch 15 Note On  C#2
 In:  9E  33  7F  |  Ch 15 Note On  D#2
 In:  8E  33  00  |  Ch 15 Note Off D#2
 In:  8E  31  00  |  Ch 15 Note Off C#2
 In:  9E  38  7F  |  Ch 15 Note On  G#2
 In:  9E  3A  7F  |  Ch 15 Note On  A#2
 In:  9E  36  7F  |  Ch 15 Note On  F#2
 In:  8E  42  00  |  Ch 15 Note Off F#3
 In:  8E  36  00  |  Ch 15 Note Off F#2
 In:  8E  3A  00  |  Ch 15 Note Off A#2
 In:  8E  38  00  |  Ch 15 Note Off G#2
 In:  9E  33  7F  |  Ch 15 Note On  D#2
 In:  9E  31  7F  |  Ch 15 Note On  C#2
 In:  9E  42  68  |  Ch 15 Note On  F#3
 In:  8E  33  00  |  Ch 15 Note Off D#2
 In:  8E  31  00  |  Ch 15 Note Off C#2
 In:  9E  3D  7F  |  Ch 15 Note On  C#3
 In:  9E  3F  7F  |  Ch 15 Note On  D#3
 In:  9E  46  41  |  Ch 15 Note On  A#3
 In:  8E  42  00  |  Ch 15 Note Off F#3
 In:  8E  3F  00  |  Ch 15 Note Off D#3
 In:  8E  3D  00  |  Ch 15 Note Off C#3
 In:  9E  44  56  |  Ch 15 Note On  G#3
 In:  9E  36  7F  |  Ch 15 Note On  F#2
 In:  9E  38  7F  |  Ch 15 Note On  G#2
 In:  9E  42  4D  |  Ch 15 Note On  F#3
 In:  8E  36  00  |  Ch 15 Note Off F#2
 In:  8E  38  00  |  Ch 15 Note Off G#2
 In:  8E  46  00  |  Ch 15 Note Off A#3
 In:  8E  44  00  |  Ch 15 Note Off G#3
 In:  9E  3F  7F  |  Ch 15 Note On  D#3
 In:  9E  3D  7F  |  Ch 15 Note On  C#3
 In:  8E  3D  00  |  Ch 15 Note Off C#3
 In:  8E  45  00  |  Ch 15 Note Off A3
 In:  8E  3F  00  |  Ch 15 Note Off D#3
 In:  9E  36  7F  |  Ch 15 Note On  F#2
 In:  9E  38  7F  |  Ch 15 Note On  G#2
 In:  8E  42  00  |  Ch 15 Note Off F#3
 In:  8E  36  00  |  Ch 15 Note Off F#2
 In:  8E  38  00  |  Ch 15 Note Off G#2
 In:  9E  41  68  |  Ch 15 Note On  F3
 In:  9E  3A  7F  |  Ch 15 Note On  A#2
 In:  9E  43  64  |  Ch 15 Note On  G3
 In:  9E  45  60  |  Ch 15 Note On  A3
 In:  8E  41  00  |  Ch 15 Note Off F3
 In:  8E  3A  00  |  Ch 15 Note Off A#2
 In:  9E  31  7F  |  Ch 15 Note On  C#2
 In:  9E  33  7F  |  Ch 15 Note On  D#2
 In:  9E  41  6C  |  Ch 15 Note On  F3
 In:  8E  33  00  |  Ch 15 Note Off D#2
 In:  8E  31  00  |  Ch 15 Note Off C#2
 In:  8E  43  00  |  Ch 15 Note Off G3
 In:  8E  45  00  |  Ch 15 Note Off A3
 In:  9E  38  7F  |  Ch 15 Note On  G#2
 In:  9E  3A  7F  |  Ch 15 Note On  A#2
 In:  9E  36  7F  |  Ch 15 Note On  F#2
 In:  8E  3A  00  |  Ch 15 Note Off A#2
 In:  8E  36  00  |  Ch 15 Note Off F#2
 In:  8E  38  00  |  Ch 15 Note Off G#2
 In:  8E  41  00  |  Ch 15 Note Off F3
 In:  9E  45  5B  |  Ch 15 Note On  A3
 In:  9E  44  5F  |  Ch 15 Note On  G#3
 In:  9E  31  7F  |  Ch 15 Note On  C#2
 In:  9E  33  7F  |  Ch 15 Note On  D#2
 In:  8E  33  00  |  Ch 15 Note Off D#2
 In:  8E  45  00  |  Ch 15 Note Off A3
 In:  8E  31  00  |  Ch 15 Note Off C#2
 In:  9E  42  7F  |  Ch 15 Note On  F#3
 In:  9E  36  7F  |  Ch 15 Note On  F#2
 In:  9E  38  7F  |  Ch 15 Note On  G#2
 In:  8E  44  00  |  Ch 15 Note Off G#3
 In:  8E  38  00  |  Ch 15 Note Off G#2
 In:  8E  36  00  |  Ch 15 Note Off F#2
 In:  9E  31  7F  |  Ch 15 Note On  C#2
 In:  9E  33  7F  |  Ch 15 Note On  D#2
 In:  8E  42  00  |  Ch 15 Note Off F#3
 In:  8E  31  00  |  Ch 15 Note Off C#2
 In:  8E  33  00  |  Ch 15 Note Off D#2
 In:  9E  42  6F  |  Ch 15 Note On  F#3
 In:  9E  3D  7F  |  Ch 15 Note On  C#3
 In:  9E  3F  7F  |  Ch 15 Note On  D#3
 In:  8E  42  00  |  Ch 15 Note Off F#3
 In:  8E  3D  00  |  Ch 15 Note Off C#3
 In:  8E  3F  00  |  Ch 15 Note Off D#3
 In:  9E  41  22  |  Ch 15 Note On  F3
 In:  9E  43  51  |  Ch 15 Note On  G3
 In:  9E  31  7F  |  Ch 15 Note On  C#2
 In:  9E  33  7F  |  Ch 15 Note On  D#2
 In:  8E  33  00  |  Ch 15 Note Off D#2
 In:  8E  31  00  |  Ch 15 Note Off C#2
 In:  9E  44  6E  |  Ch 15 Note On  G#3
 In:  9E  3F  7F  |  Ch 15 Note On  D#3
 In:  8E  43  00  |  Ch 15 Note Off G3
 In:  9E  3D  7F  |  Ch 15 Note On  C#3
 In:  9E  46  5B  |  Ch 15 Note On  A#3
 In:  8E  41  00  |  Ch 15 Note Off F3
 In:  8E  3F  00  |  Ch 15 Note Off D#3
 In:  8E  3D  00  |  Ch 15 Note Off C#3
 In:  9E  43  44  |  Ch 15 Note On  G3
 In:  9E  31  7F  |  Ch 15 Note On  C#2
 In:  9E  33  7F  |  Ch 15 Note On  D#2
 In:  8E  46  00  |  Ch 15 Note Off A#3
 In:  8E  31  00  |  Ch 15 Note Off C#2
 In:  8E  33  00  |  Ch 15 Note Off D#2
 In:  8E  43  00  |  Ch 15 Note Off G3
 In:  9E  41  7C  |  Ch 15 Note On  F3
 In:  8E  44  00  |  Ch 15 Note Off G#3
 In:  9E  38  7F  |  Ch 15 Note On  G#2
 In:  9E  36  7F  |  Ch 15 Note On  F#2
 In:  9E  3A  7F  |  Ch 15 Note On  A#2
 In:  8E  3A  00  |  Ch 15 Note Off A#2
 In:  8E  36  00  |  Ch 15 Note Off F#2
 In:  8E  38  00  |  Ch 15 Note Off G#2
 In:  9E  46  7F  |  Ch 15 Note On  A#3
 In:  9E  31  7F  |  Ch 15 Note On  C#2
 In:  9E  33  7F  |  Ch 15 Note On  D#2
 In:  8E  41  00  |  Ch 15 Note Off F3
 In:  8E  33  00  |  Ch 15 Note Off D#2
 In:  8E  31  00  |  Ch 15 Note Off C#2
 In:  9E  45  76  |  Ch 15 Note On  A3
 In:  9E  38  7F  |  Ch 15 Note On  G#2
 In:  9E  3A  7F  |  Ch 15 Note On  A#2
 In:  9E  36  58  |  Ch 15 Note On  F#2
 In:  9E  43  7D  |  Ch 15 Note On  G3
 In:  8E  36  00  |  Ch 15 Note Off F#2
 In:  8E  3A  00  |  Ch 15 Note Off A#2
 In:  8E  38  00  |  Ch 15 Note Off G#2
 In:  8E  46  00  |  Ch 15 Note Off A#3
 In:  9E  31  7F  |  Ch 15 Note On  C#2
 In:  8E  45  00  |  Ch 15 Note Off A3
 In:  9E  33  7F  |  Ch 15 Note On  D#2
 In:  8E  43  00  |  Ch 15 Note Off G3
 In:  9E  45  60  |  Ch 15 Note On  A3
 In:  8E  31  00  |  Ch 15 Note Off C#2
 In:  8E  33  00  |  Ch 15 Note Off D#2
 In:  9E  3F  7F  |  Ch 15 Note On  D#3
 In:  9E  3D  7F  |  Ch 15 Note On  C#3
 In:  9E  41  79  |  Ch 15 Note On  F3
 In:  8E  3D  00  |  Ch 15 Note Off C#3
 In:  8E  3F  00  |  Ch 15 Note Off D#3
 In:  8E  45  00  |  Ch 15 Note Off A3
 In:  9E  31  7F  |  Ch 15 Note On  C#2
 In:  9E  33  7F  |  Ch 15 Note On  D#2
 In:  8E  33  00  |  Ch 15 Note Off D#2
 In:  8E  31  00  |  Ch 15 Note Off C#2
 In:  9E  46  7F  |  Ch 15 Note On  A#3
 In:  8E  41  00  |  Ch 15 Note Off F3
 In:  9E  38  7F  |  Ch 15 Note On  G#2
 In:  9E  3A  7F  |  Ch 15 Note On  A#2
 In:  9E  36  7F  |  Ch 15 Note On  F#2
 In:  9E  44  2E  |  Ch 15 Note On  G#3
 In:  8E  36  00  |  Ch 15 Note Off F#2
 In:  8E  3A  00  |  Ch 15 Note Off A#2
 In:  8E  44  00  |  Ch 15 Note Off G#3
 In:  8E  46  00  |  Ch 15 Note Off A#3
 In:  8E  38  00  |  Ch 15 Note Off G#2
 In:  9E  41  75  |  Ch 15 Note On  F3
 In:  9E  31  7F  |  Ch 15 Note On  C#2
 In:  9E  33  7F  |  Ch 15 Note On  D#2
 In:  8E  33  00  |  Ch 15 Note Off D#2
 In:  8E  31  00  |  Ch 15 Note Off C#2
 In:  9E  42  62  |  Ch 15 Note On  F#3
 In:  8E  41  00  |  Ch 15 Note Off F3
 In:  9E  3A  7F  |  Ch 15 Note On  A#2
 In:  9E  3D  7F  |  Ch 15 Note On  C#3
 In:  9E  31  7F  |  Ch 15 Note On  C#2
 In:  9E  33  7F  |  Ch 15 Note On  D#2
 In:  8E  3D  00  |  Ch 15 Note Off C#3
 In:  8E  3A  00  |  Ch 15 Note Off A#2
 In:  8E  33  00  |  Ch 15 Note Off D#2
 In:  8E  31  00  |  Ch 15 Note Off C#2
 In:  9E  40  74  |  Ch 15 Note On  E3
 In:  8E  42  00  |  Ch 15 Note Off F#3
 In:  8E  40  00  |  Ch 15 Note Off E3
 In:  9E  3F  7F  |  Ch 15 Note On  D#3
 In:  9E  3D  7F  |  Ch 15 Note On  C#3
 In:  9E  44  4A  |  Ch 15 Note On  G#3
 In:  9E  31  7F  |  Ch 15 Note On  C#2
 In:  9E  33  7F  |  Ch 15 Note On  D#2
 In:  8E  3F  00  |  Ch 15 Note Off D#3
 In:  8E  3D  00  |  Ch 15 Note Off C#3
 In:  8E  33  00  |  Ch 15 Note Off D#2
 In:  8E  31  00  |  Ch 15 Note Off C#2
 In:  9E  43  66  |  Ch 15 Note On  G3
 In:  8E  44  00  |  Ch 15 Note Off G#3
 In:  9E  3F  7F  |  Ch 15 Note On  D#3
 In:  9E  31  7F  |  Ch 15 Note On  C#2
 In:  9E  3D  7F  |  Ch 15 Note On  C#3
 In:  9E  33  7F  |  Ch 15 Note On  D#2
 In:  9E  44  53  |  Ch 15 Note On  G#3
 In:  8E  3F  00  |  Ch 15 Note Off D#3
 In:  8E  3D  00  |  Ch 15 Note Off C#3
 In:  8E  33  00  |  Ch 15 Note Off D#2
 In:  8E  31  00  |  Ch 15 Note Off C#2
 In:  8E  44  00  |  Ch 15 Note Off G#3
 In:  9E  45  6C  |  Ch 15 Note On  A3
 In:  8E  43  00  |  Ch 15 Note Off G3
 In:  8E  45  00  |  Ch 15 Note Off A3
 In:  9E  3A  7F  |  Ch 15 Note On  A#2
 In:  9E  38  7F  |  Ch 15 Note On  G#2
 In:  9E  33  7F  |  Ch 15 Note On  D#2
 In:  9E  36  7F  |  Ch 15 Note On  F#2
 In:  8E  33  00  |  Ch 15 Note Off D#2
 In:  9E  43  76  |  Ch 15 Note On  G3
 In:  9E  45  7F  |  Ch 15 Note On  A3
 In:  8E  36  00  |  Ch 15 Note Off F#2
 In:  8E  38  00  |  Ch 15 Note Off G#2
 In:  8E  3A  00  |  Ch 15 Note Off A#2
 In:  8E  45  00  |  Ch 15 Note Off A3
 In:  8E  43  00  |  Ch 15 Note Off G3
 In:  9E  43  6F  |  Ch 15 Note On  G3
 In:  9E  36  7F  |  Ch 15 Note On  F#2
 In:  9E  33  7F  |  Ch 15 Note On  D#2
 In:  9E  3A  7F  |  Ch 15 Note On  A#2
 In:  9E  38  7F  |  Ch 15 Note On  G#2
 In:  8E  33  00  |  Ch 15 Note Off D#2
 In:  8E  43  00  |  Ch 15 Note Off G3
 In:  8E  38  00  |  Ch 15 Note Off G#2
 In:  8E  3A  00  |  Ch 15 Note Off A#2
 In:  8E  36  00  |  Ch 15 Note Off F#2
 In:  9E  43  6D  |  Ch 15 Note On  G3
 In:  9E  45  74  |  Ch 15 Note On  A3
 In:  8E  45  00  |  Ch 15 Note Off A3
 In:  8E  43  00  |  Ch 15 Note Off G3
 In:  9E  43  6B  |  Ch 15 Note On  G3
 In:  9E  33  7F  |  Ch 15 Note On  D#2
 In:  9E  31  7F  |  Ch 15 Note On  C#2
 In:  9E  3F  7F  |  Ch 15 Note On  D#3
 In:  9E  3D  7F  |  Ch 15 Note On  C#3
 In:  8E  43  00  |  Ch 15 Note Off G3
 In:  8E  3F  00  |  Ch 15 Note Off D#3
 In:  8E  33  00  |  Ch 15 Note Off D#2
 In:  8E  3D  00  |  Ch 15 Note Off C#3
 In:  8E  31  00  |  Ch 15 Note Off C#2
 In:  9E  43  5A  |  Ch 15 Note On  G3
 In:  9E  45  5C  |  Ch 15 Note On  A3
 In:  9E  31  7F  |  Ch 15 Note On  C#2
 In:  9E  33  7F  |  Ch 15 Note On  D#2
 In:  9E  3F  7F  |  Ch 15 Note On  D#3
 In:  8E  43  00  |  Ch 15 Note Off G3
 In:  8E  45  00  |  Ch 15 Note Off A3
 In:  8E  33  00  |  Ch 15 Note Off D#2
 In:  8E  3F  00  |  Ch 15 Note Off D#3
 In:  8E  31  00  |  Ch 15 Note Off C#2
 In:  9E  45  63  |  Ch 15 Note On  A3
 In:  9E  43  5B  |  Ch 15 Note On  G3
 In:  8E  45  00  |  Ch 15 Note Off A3
 In:  9E  36  7F  |  Ch 15 Note On  F#2
 In:  9E  33  7F  |  Ch 15 Note On  D#2
 In:  8E  43  00  |  Ch 15 Note Off G3
 In:  9E  38  7F  |  Ch 15 Note On  G#2
 In:  9E  3A  7F  |  Ch 15 Note On  A#2
 In:  8E  33  00  |  Ch 15 Note Off D#2
 In:  8E  36  00  |  Ch 15 Note Off F#2
 In:  8E  3A  00  |  Ch 15 Note Off A#2
 In:  8E  38  00  |  Ch 15 Note Off G#2
 In:  9E  43  70  |  Ch 15 Note On  G3
 In:  9E  45  75  |  Ch 15 Note On  A3
 In:  8E  45  00  |  Ch 15 Note Off A3
 In:  8E  43  00  |  Ch 15 Note Off G3
 In:  9E  43  6C  |  Ch 15 Note On  G3
 In:  9E  36  7F  |  Ch 15 Note On  F#2
 In:  9E  33  7F  |  Ch 15 Note On  D#2
 In:  9E  3A  7F  |  Ch 15 Note On  A#2
 In:  9E  38  7F  |  Ch 15 Note On  G#2
 In:  8E  3A  00  |  Ch 15 Note Off A#2
 In:  8E  38  00  |  Ch 15 Note Off G#2
 In:  8E  33  00  |  Ch 15 Note Off D#2
 In:  8E  36  00  |  Ch 15 Note Off F#2
 In:  9E  45  64  |  Ch 15 Note On  A3
 In:  8E  45  00  |  Ch 15 Note Off A3
 In:  8E  43  00  |  Ch 15 Note Off G3
 In:  9E  43  66  |  Ch 15 Note On  G3
 In:  8E  45  00  |  Ch 15 Note Off A3
 In:  8E  43  00  |  Ch 15 Note Off G3
 In:  9E  31  7F  |  Ch 15 Note On  C#2
 In:  9E  33  7F  |  Ch 15 Note On  D#2
 In:  9E  3F  7F  |  Ch 15 Note On  D#3
 In:  9E  3D  7F  |  Ch 15 Note On  C#3
 In:  8E  3D  00  |  Ch 15 Note Off C#3
 In:  8E  3F  00  |  Ch 15 Note Off D#3
 In:  8E  31  00  |  Ch 15 Note Off C#2
 In:  8E  33  00  |  Ch 15 Note Off D#2
 In:  9E  45  71  |  Ch 15 Note On  A3
 In:  8E  45  00  |  Ch 15 Note Off A3
 In:  8E  43  00  |  Ch 15 Note Off G3
 In:  9E  43  7F  |  Ch 15 Note On  G3
 In:  9E  45  7F  |  Ch 15 Note On  A3
 In:  8E  45  00  |  Ch 15 Note Off A3
 In:  8E  43  00  |  Ch 15 Note Off G3
 In:  9E  45  6D  |  Ch 15 Note On  A3
 In:  9E  43  6C  |  Ch 15 Note On  G3
 In:  9E  31  7F  |  Ch 15 Note On  C#2
 In:  9E  33  7F  |  Ch 15 Note On  D#2
 In:  8E  45  00  |  Ch 15 Note Off A3
 In:  8E  43  00  |  Ch 15 Note Off G3
 In:  8E  33  00  |  Ch 15 Note Off D#2
 In:  8E  31  00  |  Ch 15 Note Off C#2
 In:  9E  3D  7F  |  Ch 15 Note On  C#3
 In:  9E  48  68  |  Ch 15 Note On  C4
 In:  9E  3A  7F  |  Ch 15 Note On  A#2
 In:  8E  48  00  |  Ch 15 Note Off C4
 In:  9E  36  7F  |  Ch 15 Note On  F#2
 In:  9E  33  7F  |  Ch 15 Note On  D#2
 In:  9E  48  76  |  Ch 15 Note On  C4
 In:  8E  3D  00  |  Ch 15 Note Off C#3
 In:  8E  3A  00  |  Ch 15 Note Off A#2
 In:  9E  45  71  |  Ch 15 Note On  A3
 In:  8E  33  00  |  Ch 15 Note Off D#2
 In:  8E  36  00  |  Ch 15 Note Off F#2
 In:  8E  45  00  |  Ch 15 Note Off A3
 In:  8E  47  00  |  Ch 15 Note Off B3
 In:  9E  47  63  |  Ch 15 Note On  B3
 In:  9E  3D  7F  |  Ch 15 Note On  C#3
 In:  9E  3F  7F  |  Ch 15 Note On  D#3
 In:  8E  3F  00  |  Ch 15 Note Off D#3
 In:  8E  47  00  |  Ch 15 Note Off B3
 In:  8E  3D  00  |  Ch 15 Note Off C#3
 In:  8E  48  00  |  Ch 15 Note Off C4
 In:  9E  36  7F  |  Ch 15 Note On  F#2
 In:  9E  33  7F  |  Ch 15 Note On  D#2
 In:  9E  43  6D  |  Ch 15 Note On  G3
 In:  8E  33  00  |  Ch 15 Note Off D#2
 In:  8E  36  00  |  Ch 15 Note Off F#2
 In:  8E  43  00  |  Ch 15 Note Off G3
 In:  9E  3A  7F  |  Ch 15 Note On  A#2
 In:  9E  38  7F  |  Ch 15 Note On  G#2
 In:  9E  43  70  |  Ch 15 Note On  G3
 In:  9E  41  6F  |  Ch 15 Note On  F3
 In:  8E  38  00  |  Ch 15 Note Off G#2
 In:  8E  3A  00  |  Ch 15 Note Off A#2
 In:  9E  42  6A  |  Ch 15 Note On  F#3
 In:  9E  31  7F  |  Ch 15 Note On  C#2
 In:  9E  33  7F  |  Ch 15 Note On  D#2
 In:  8E  41  00  |  Ch 15 Note Off F3
 In:  8E  43  00  |  Ch 15 Note Off G3
 In:  8E  33  00  |  Ch 15 Note Off D#2
 In:  8E  31  00  |  Ch 15 Note Off C#2
 In:  8E  42  00  |  Ch 15 Note Off F#3
 In:  9E  41  71  |  Ch 15 Note On  F3
 In:  9E  43  71  |  Ch 15 Note On  G3
 In:  9E  3D  7F  |  Ch 15 Note On  C#3
 In:  9E  3A  7F  |  Ch 15 Note On  A#2
 In:  8E  41  00  |  Ch 15 Note Off F3
 In:  8E  3A  00  |  Ch 15 Note Off A#2
 In:  8E  43  00  |  Ch 15 Note Off G3
 In:  9E  46  4F  |  Ch 15 Note On  A#3
 In:  8E  3D  00  |  Ch 15 Note Off C#3
 In:  9E  44  61  |  Ch 15 Note On  G#3
 In:  9E  33  7F  |  Ch 15 Note On  D#2
 In:  9E  36  7F  |  Ch 15 Note On  F#2
 In:  8E  46  00  |  Ch 15 Note Off A#3
 In:  9E  42  2C  |  Ch 15 Note On  F#3
 In:  8E  44  00  |  Ch 15 Note Off G#3
 In:  9E  43  6C  |  Ch 15 Note On  G3
 In:  9E  41  70  |  Ch 15 Note On  F3
 In:  8E  42  00  |  Ch 15 Note Off F#3
 In:  8E  36  00  |  Ch 15 Note Off F#2
 In:  8E  33  00  |  Ch 15 Note Off D#2
 In:  9E  3D  7F  |  Ch 15 Note On  C#3
 In:  9E  3E  76  |  Ch 15 Note On  D3
 In:  9E  42  6F  |  Ch 15 Note On  F#3
 In:  8E  3E  00  |  Ch 15 Note Off D3
 In:  8E  43  00  |  Ch 15 Note Off G3
 In:  8E  3D  00  |  Ch 15 Note Off C#3
 In:  9E  40  64  |  Ch 15 Note On  E3
 In:  8E  41  00  |  Ch 15 Note Off F3
 In:  9E  33  7F  |  Ch 15 Note On  D#2
 In:  9E  35  7F  |  Ch 15 Note On  F2
 In:  9E  3E  61  |  Ch 15 Note On  D3
 In:  9E  39  6A  |  Ch 15 Note On  A2
 In:  8E  33  00  |  Ch 15 Note Off D#2
 In:  8E  35  00  |  Ch 15 Note Off F2
 In:  8E  39  00  |  Ch 15 Note Off A2
 In:  8E  42  00  |  Ch 15 Note Off F#3
 In:  9E  46  5D  |  Ch 15 Note On  A#3
 In:  9E  44  6D  |  Ch 15 Note On  G#3
 In:  9E  39  7F  |  Ch 15 Note On  A2
 In:  9E  3B  7F  |  Ch 15 Note On  B2
 In:  9E  42  50  |  Ch 15 Note On  F#3
 In:  9E  37  7D  |  Ch 15 Note On  G2
 In:  9E  34  7F  |  Ch 15 Note On  E2
 In:  9E  35  79  |  Ch 15 Note On  F2
 In:  8E  3C  00  |  Ch 15 Note Off C3
 In:  8E  3E  00  |  Ch 15 Note Off D3
 In:  8E  3B  00  |  Ch 15 Note Off B2
 In:  8E  34  00  |  Ch 15 Note Off E2
 In:  8E  35  00  |  Ch 15 Note Off F2
 In:  8E  39  00  |  Ch 15 Note Off A2
 In:  8E  37  00  |  Ch 15 Note Off G2
 In:  9E  41  08  |  Ch 15 Note On  F3
 In:  9E  43  33  |  Ch 15 Note On  G3
 In:  8E  42  00  |  Ch 15 Note Off F#3
 In:  8E  44  00  |  Ch 15 Note Off G#3
 In:  9E  37  7C  |  Ch 15 Note On  G2
 In:  9E  39  7C  |  Ch 15 Note On  A2
 In:  9E  3B  7F  |  Ch 15 Note On  B2
 In:  9E  3E  7A  |  Ch 15 Note On  D3
 In:  9E  3C  72  |  Ch 15 Note On  C3
 In:  8E  40  00  |  Ch 15 Note Off E3
 In:  8E  46  00  |  Ch 15 Note Off A#3
 In:  8E  3C  00  |  Ch 15 Note Off C3
 In:  8E  3E  00  |  Ch 15 Note Off D3
 In:  8E  37  00  |  Ch 15 Note Off G2
 In:  8E  39  00  |  Ch 15 Note Off A2
 In:  8E  3B  00  |  Ch 15 Note Off B2
 In:  9E  34  7F  |  Ch 15 Note On  E2
 In:  9E  30  5C  |  Ch 15 Note On  C2
 In:  9E  35  69  |  Ch 15 Note On  F2
 In:  8E  43  00  |  Ch 15 Note Off G3
 In:  8E  30  00  |  Ch 15 Note Off C2
 In:  8E  34  00  |  Ch 15 Note Off E2
 In:  9E  42  34  |  Ch 15 Note On  F#3
 In:  8E  35  00  |  Ch 15 Note Off F2
 In:  9E  45  45  |  Ch 15 Note On  A3
 In:  8E  41  00  |  Ch 15 Note Off F3
 In:  9E  3C  7F  |  Ch 15 Note On  C3
 In:  9E  39  7F  |  Ch 15 Note On  A2
 In:  9E  3B  7F  |  Ch 15 Note On  B2
 In:  9E  3E  76  |  Ch 15 Note On  D3
 In:  9E  40  74  |  Ch 15 Note On  E3
 In:  8E  40  00  |  Ch 15 Note Off E3
 In:  8E  3E  00  |  Ch 15 Note Off D3
 In:  8E  3B  00  |  Ch 15 Note Off B2
 In:  8E  3C  00  |  Ch 15 Note Off C3
 In:  8E  39  00  |  Ch 15 Note Off A2
 In:  9E  41  55  |  Ch 15 Note On  F3
 In:  9E  43  64  |  Ch 15 Note On  G3
 In:  9E  30  7C  |  Ch 15 Note On  C2
 In:  9E  34  7F  |  Ch 15 Note On  E2
 In:  9E  35  7C  |  Ch 15 Note On  F2
 In:  9E  37  7C  |  Ch 15 Note On  G2
 In:  8E  45  00  |  Ch 15 Note Off A3
 In:  8E  42  00  |  Ch 15 Note Off F#3
 In:  8E  34  00  |  Ch 15 Note Off E2
 In:  8E  37  00  |  Ch 15 Note Off G2
 In:  8E  35  00  |  Ch 15 Note Off F2
 In:  8E  30  00  |  Ch 15 Note Off C2
 In:  9E  3C  7F  |  Ch 15 Note On  C3
 In:  9E  39  7F  |  Ch 15 Note On  A2
 In:  9E  3E  78  |  Ch 15 Note On  D3
 In:  9E  40  71  |  Ch 15 Note On  E3
 In:  8E  40  00  |  Ch 15 Note Off E3
 In:  8E  3E  00  |  Ch 15 Note Off D3
 In:  8E  3C  00  |  Ch 15 Note Off C3
 In:  8E  39  00  |  Ch 15 Note Off A2
 In:  8E  41  00  |  Ch 15 Note Off F3
 In:  9E  45  59  |  Ch 15 Note On  A3
 In:  8E  43  00  |  Ch 15 Note Off G3
 In:  9E  43  51  |  Ch 15 Note On  G3
 In:  9E  3B  7F  |  Ch 15 Note On  B2
 In:  9E  3E  7F  |  Ch 15 Note On  D3
 In:  9E  35  7F  |  Ch 15 Note On  F2
 In:  9E  32  7F  |  Ch 15 Note On  D2
 In:  9E  40  6D  |  Ch 15 Note On  E3
 In:  9E  41  65  |  Ch 15 Note On  F3
 In:  8E  41  00  |  Ch 15 Note Off F3
 In:  8E  40  00  |  Ch 15 Note Off E3
 In:  8E  32  00  |  Ch 15 Note Off D2
 In:  8E  3E  00  |  Ch 15 Note Off D3
 In:  8E  3B  00  |  Ch 15 Note Off B2
 In:  8E  35  00  |  Ch 15 Note Off F2
 In:  9E  44  4F  |  Ch 15 Note On  G#3
 In:  8E  43  00  |  Ch 15 Note Off G3
 In:  8E  45  00  |  Ch 15 Note Off A3
 In:  8E  44  00  |  Ch 15 Note Off G#3
 In:  9E  32  61  |  Ch 15 Note On  D2
 In:  9E  35  72  |  Ch 15 Note On  F2
 In:  9E  45  53  |  Ch 15 Note On  A3
 In:  9E  40  7E  |  Ch 15 Note On  E3
 In:  9E  3B  7F  |  Ch 15 Note On  B2
 In:  9E  41  73  |  Ch 15 Note On  F3
 In:  8E  35  00  |  Ch 15 Note Off F2
 In:  8E  32  00  |  Ch 15 Note Off D2
 In:  8E  3B  00  |  Ch 15 Note Off B2
 In:  8E  40  00  |  Ch 15 Note Off E3
 In:  8E  45  00  |  Ch 15 Note Off A3
 In:  9E  42  7D  |  Ch 15 Note On  F#3
 In:  9E  40  7F  |  Ch 15 Note On  E3
 In:  9E  3B  7F  |  Ch 15 Note On  B2
 In:  9E  32  65  |  Ch 15 Note On  D2
 In:  9E  37  6B  |  Ch 15 Note On  G2
 In:  9E  35  62  |  Ch 15 Note On  F2
 In:  9E  44  34  |  Ch 15 Note On  G#3
 In:  8E  41  00  |  Ch 15 Note Off F3
 In:  8E  35  00  |  Ch 15 Note Off F2
 In:  8E  32  00  |  Ch 15 Note Off D2
 In:  8E  37  00  |  Ch 15 Note Off G2
 In:  9E  45  59  |  Ch 15 Note On  A3
 In:  9E  43  5E  |  Ch 15 Note On  G3
 In:  8E  3B  00  |  Ch 15 Note Off B2
 In:  8E  40  00  |  Ch 15 Note Off E3
 In:  8E  44  00  |  Ch 15 Note Off G#3
 In:  8E  42  00  |  Ch 15 Note Off F#3
 In:  9E  47  0E  |  Ch 15 Note On  B3
 In:  9E  3A  7F  |  Ch 15 Note On  A#2
 In:  9E  3E  7F  |  Ch 15 Note On  D3
 In:  9E  3D  7F  |  Ch 15 Note On  C#3
 In:  9E  33  7F  |  Ch 15 Note On  D#2
 In:  9E  36  7F  |  Ch 15 Note On  F#2
 In:  8E  33  00  |  Ch 15 Note Off D#2
 In:  8E  3D  00  |  Ch 15 Note Off C#3
 In:  8E  3E  00  |  Ch 15 Note Off D3
 In:  9E  42  3D  |  Ch 15 Note On  F#3
 In:  9E  40  6D  |  Ch 15 Note On  E3
 In:  8E  3A  00  |  Ch 15 Note Off A#2
 In:  8E  36  00  |  Ch 15 Note Off F#2
 In:  8E  47  00  |  Ch 15 Note Off B3
 In:  8E  42  00  |  Ch 15 Note Off F#3
 In:  8E  40  00  |  Ch 15 Note Off E3
 In:  9E  36  7F  |  Ch 15 Note On  F#2
 In:  9E  33  7F  |  Ch 15 Note On  D#2
 In:  8E  33  00  |  Ch 15 Note Off D#2
 In:  9E  3D  7F  |  Ch 15 Note On  C#3
 In:  9E  3A  7F  |  Ch 15 Note On  A#2
 In:  9E  3E  77  |  Ch 15 Note On  D3
 In:  8E  3E  00  |  Ch 15 Note Off D3
 In:  8E  36  00  |  Ch 15 Note Off F#2
 In:  8E  3D  00  |  Ch 15 Note Off C#3
 In:  8E  3A  00  |  Ch 15 Note Off A#2
 In:  9E  44  3C  |  Ch 15 Note On  G#3
 In:  8E  43  00  |  Ch 15 Note Off G3
 In:  9E  43  7F  |  Ch 15 Note On  G3
 In:  8E  45  00  |  Ch 15 Note Off A3
 In:  8E  44  00  |  Ch 15 Note Off G#3
 In:  9E  33  7F  |  Ch 15 Note On  D#2
 In:  8E  33  00  |  Ch 15 Note Off D#2
 In:  9E  3D  79  |  Ch 15 Note On  C#3
 In:  9E  46  7F  |  Ch 15 Note On  A#3
 In:  8E  3D  00  |  Ch 15 Note Off C#3
 In:  8E  43  00  |  Ch 15 Note Off G3
 In:  9E  45  6B  |  Ch 15 Note On  A3
 In:  9E  33  7F  |  Ch 15 Note On  D#2
 In:  9E  31  7F  |  Ch 15 Note On  C#2
 In:  9E  43  6D  |  Ch 15 Note On  G3
 In:  8E  45  00  |  Ch 15 Note Off A3
 In:  8E  46  00  |  Ch 15 Note Off A#3
 In:  8E  33  00  |  Ch 15 Note Off D#2
 In:  8E  31  00  |  Ch 15 Note Off C#2
 In:  9E  3D  7F  |  Ch 15 Note On  C#3
 In:  9E  46  7F  |  Ch 15 Note On  A#3
 In:  9E  44  7F  |  Ch 15 Note On  G#3
 In:  8E  43  00  |  Ch 15 Note Off G3
 In:  8E  3D  00  |  Ch 15 Note Off C#3
 In:  9E  33  7F  |  Ch 15 Note On  D#2
 In:  9E  31  7F  |  Ch 15 Note On  C#2
 In:  9E  36  7F  |  Ch 15 Note On  F#2
 In:  8E  31  00  |  Ch 15 Note Off C#2
 In:  8E  36  00  |  Ch 15 Note Off F#2
 In:  8E  33  00  |  Ch 15 Note Off D#2
 In:  9E  41  68  |  Ch 15 Note On  F3
 In:  8E  44  00  |  Ch 15 Note Off G#3
 In:  8E  46  00  |  Ch 15 Note Off A#3
 In:  9E  3A  7F  |  Ch 15 Note On  A#2
 In:  9E  3D  7F  |  Ch 15 Note On  C#3
 In:  9E  3C  6F  |  Ch 15 Note On  C3
 In:  8E  3C  00  |  Ch 15 Note Off C3
 In:  8E  3D  00  |  Ch 15 Note Off C#3
 In:  8E  3A  00  |  Ch 15 Note Off A#2
 In:  9E  36  7F  |  Ch 15 Note On  F#2
 In:  9E  33  7F  |  Ch 15 Note On  D#2
 In:  8E  41  00  |  Ch 15 Note Off F3
 In:  8E  33  00  |  Ch 15 Note Off D#2
 In:  9E  43  70  |  Ch 15 Note On  G3
 In:  9E  45  6D  |  Ch 15 Note On  A3
 In:  8E  36  00  |  Ch 15 Note Off F#2
 In:  9E  3A  7F  |  Ch 15 Note On  A#2
 In:  9E  41  7E  |  Ch 15 Note On  F3
 In:  8E  45  00  |  Ch 15 Note Off A3
 In:  8E  3A  00  |  Ch 15 Note Off A#2
 In:  9E  33  7F  |  Ch 15 Note On  D#2
 In:  9E  36  7F  |  Ch 15 Note On  F#2
 In:  8E  36  00  |  Ch 15 Note Off F#2
 In:  8E  33  00  |  Ch 15 Note Off D#2
 In:  8E  41  00  |  Ch 15 Note Off F3
 In:  9E  3D  7F  |  Ch 15 Note On  C#3
 In:  8E  3D  00  |  Ch 15 Note Off C#3
 In:  9E  33  7F  |  Ch 15 Note On  D#2
 In:  8E  33  00  |  Ch 15 Note Off D#2
 In:  9E  3F  7F  |  Ch 15 Note On  D#3
 In:  9E  3D  71  |  Ch 15 Note On  C#3
 In:  9E  33  7F  |  Ch 15 Note On  D#2
 In:  9E  31  6D  |  Ch 15 Note On  C#2
 In:  9E  47  50  |  Ch 15 Note On  B3
 In:  9E  45  54  |  Ch 15 Note On  A3
 In:  9E  37  59  |  Ch 15 Note On  G2
 In:  8E  3F  00  |  Ch 15 Note Off D#3
 In:  8E  37  00  |  Ch 15 Note Off G2
 In:  8E  47  00  |  Ch 15 Note Off B3
 In:  9E  3A  73  |  Ch 15 Note On  A#2
 In:  9E  3D  7F  |  Ch 15 Note On  C#3
 In:  9E  3F  7C  |  Ch 15 Note On  D#3
 In:  8E  33  00  |  Ch 15 Note Off D#2
 In:  8E  45  00  |  Ch 15 Note Off A3
 In:  9E  36  6A  |  Ch 15 Note On  F#2
 In:  8E  31  00  |  Ch 15 Note Off C#2
 In:  9E  46  6A  |  Ch 15 Note On  A#3
 In:  8E  3D  00  |  Ch 15 Note Off C#3
 In:  8E  3F  00  |  Ch 15 Note Off D#3
 In:  8E  3A  00  |  Ch 15 Note Off A#2
 In:  8E  36  00  |  Ch 15 Note Off F#2
 In:  8E  46  00  |  Ch 15 Note Off A#3
 In:  9E  3D  7F  |  Ch 15 Note On  C#3
 In:  9E  3A  7E  |  Ch 15 Note On  A#2
 In:  9E  3F  78  |  Ch 15 Note On  D#3
 In:  9E  36  46  |  Ch 15 Note On  F#2
 In:  9E  41  6C  |  Ch 15 Note On  F3
 In:  9E  3E  5B  |  Ch 15 Note On  D3
 In:  9E  40  5F  |  Ch 15 Note On  E3
 In:  9E  38  36  |  Ch 15 Note On  G#2
 In:  9E  33  38  |  Ch 15 Note On  D#2
 In:  8E  43  00  |  Ch 15 Note Off G3
 In:  9E  31  4A  |  Ch 15 Note On  C#2
 In:  8E  3F  00  |  Ch 15 Note Off D#3
 In:  8E  3D  00  |  Ch 15 Note Off C#3
 In:  8E  33  00  |  Ch 15 Note Off D#2
 In:  8E  36  00  |  Ch 15 Note Off F#2
 In:  8E  41  00  |  Ch 15 Note Off F3
 In:  8E  3E  00  |  Ch 15 Note Off D3
 In:  8E  31  00  |  Ch 15 Note Off C#2
 In:  9E  32  7F  |  Ch 15 Note On  D2
 In:  8E  3A  00  |  Ch 15 Note Off A#2
 In:  8E  38  00  |  Ch 15 Note Off G#2
 In:  9E  43  2E  |  Ch 15 Note On  G3
 In:  9E  3F  16  |  Ch 15 Note On  D#3
 In:  9E  3D  5E  |  Ch 15 Note On  C#3
 In:  8E  32  00  |  Ch 15 Note Off D2
 In:  8E  40  00  |  Ch 15 Note Off E3
 In:  9E  3A  7F  |  Ch 15 Note On  A#2
 In:  8E  3F  00  |  Ch 15 Note Off D#3
 In:  9E  39  76  |  Ch 15 Note On  A2
 In:  8E  43  00  |  Ch 15 Note Off G3
 In:  8E  3D  00  |  Ch 15 Note Off C#3
 In:  9E  43  5D  |  Ch 15 Note On  G3
 In:  8E  3A  00  |  Ch 15 Note Off A#2
 In:  9E  3E  7F  |  Ch 15 Note On  D3
 In:  9E  40  76  |  Ch 15 Note On  E3
 In:  9E  3C  7F  |  Ch 15 Note On  C3
 In:  9E  3D  7F  |  Ch 15 Note On  C#3
 In:  8E  43  00  |  Ch 15 Note Off G3
 In:  9E  37  6D  |  Ch 15 Note On  G2
 In:  9E  34  52  |  Ch 15 Note On  E2
 In:  9E  35  4E  |  Ch 15 Note On  F2
 In:  8E  3D  00  |  Ch 15 Note Off C#3
 In:  9E  43  6C  |  Ch 15 Note On  G3
 In:  9E  45  6C  |  Ch 15 Note On  A3
 In:  8E  3C  00  |  Ch 15 Note Off C3
 In:  8E  39  00  |  Ch 15 Note Off A2
 In:  8E  40  00  |  Ch 15 Note Off E3
 In:  8E  3E  00  |  Ch 15 Note Off D3
 In:  8E  35  00  |  Ch 15 Note Off F2
 In:  8E  37  00  |  Ch 15 Note Off G2
 In:  8E  34  00  |  Ch 15 Note Off E2
 In:  8E  45  00  |  Ch 15 Note Off A3
 In:  8E  43  00  |  Ch 15 Note Off G3
 In:  9E  3E  7B  |  Ch 15 Note On  D3
 In:  9E  3D  7F  |  Ch 15 Note On  C#3
 In:  9E  3C  75  |  Ch 15 Note On  C3
 In:  9E  40  6B  |  Ch 15 Note On  E3
 In:  9E  39  75  |  Ch 15 Note On  A2
 In:  9E  43  6C  |  Ch 15 Note On  G3
 In:  9E  3B  5F  |  Ch 15 Note On  B2
 In:  9E  36  7C  |  Ch 15 Note On  F#2
 In:  9E  34  74  |  Ch 15 Note On  E2
 In:  9E  35  71  |  Ch 15 Note On  F2
 In:  9E  37  6D  |  Ch 15 Note On  G2
 In:  8E  3D  00  |  Ch 15 Note Off C#3
 In:  8E  40  00  |  Ch 15 Note Off E3
 In:  8E  3B  00  |  Ch 15 Note Off B2
 In:  8E  3C  00  |  Ch 15 Note Off C3
 In:  8E  39  00  |  Ch 15 Note Off A2
 In:  8E  3E  00  |  Ch 15 Note Off D3
 In:  8E  36  00  |  Ch 15 Note Off F#2
 In:  8E  34  00  |  Ch 15 Note Off E2
 In:  8E  35  00  |  Ch 15 Note Off F2
 In:  8E  37  00  |  Ch 15 Note Off G2
 In:  8E  43  00  |  Ch 15 Note Off G3
 In:  9E  43  5D  |  Ch 15 Note On  G3
 In:  9E  3E  7E  |  Ch 15 Note On  D3
 In:  9E  39  7F  |  Ch 15 Note On  A2
 In:  9E  3C  7D  |  Ch 15 Note On  C3
 In:  9E  3D  7F  |  Ch 15 Note On  C#3
 In:  9E  40  7C  |  Ch 15 Note On  E3
 In:  9E  3B  7C  |  Ch 15 Note On  B2
 In:  9E  36  7F  |  Ch 15 Note On  F#2
 In:  9E  33  7F  |  Ch 15 Note On  D#2
 In:  9E  34  78  |  Ch 15 Note On  E2
 In:  9E  35  76  |  Ch 15 Note On  F2
 In:  9E  37  6F  |  Ch 15 Note On  G2
 In:  8E  43  00  |  Ch 15 Note Off G3
 In:  8E  3D  00  |  Ch 15 Note Off C#3
 In:  8E  3B  00  |  Ch 15 Note Off B2
 In:  8E  33  00  |  Ch 15 Note Off D#2
 In:  8E  3C  00  |  Ch 15 Note Off C3
 In:  8E  3E  00  |  Ch 15 Note Off D3
 In:  8E  39  00  |  Ch 15 Note Off A2
 In:  8E  34  00  |  Ch 15 Note Off E2
 In:  8E  37  00  |  Ch 15 Note Off G2
 In:  8E  35  00  |  Ch 15 Note Off F2
 In:  8E  36  00  |  Ch 15 Note Off F#2
 In:  9E  43  67  |  Ch 15 Note On  G3
 In:  9E  39  7F  |  Ch 15 Note On  A2
 In:  9E  3C  7F  |  Ch 15 Note On  C3
 In:  9E  3D  7F  |  Ch 15 Note On  C#3
 In:  9E  3E  7A  |  Ch 15 Note On  D3
 In:  9E  33  7F  |  Ch 15 Note On  D#2
 In:  9E  3A  7F  |  Ch 15 Note On  A#2
 In:  8E  43  00  |  Ch 15 Note Off G3
 In:  9E  3B  7B  |  Ch 15 Note On  B2
 In:  9E  40  73  |  Ch 15 Note On  E3
 In:  8E  33  00  |  Ch 15 Note Off D#2
 In:  8E  40  00  |  Ch 15 Note Off E3
 In:  8E  3B  00  |  Ch 15 Note Off B2
 In:  8E  3D  00  |  Ch 15 Note Off C#3
 In:  8E  3A  00  |  Ch 15 Note Off A#2
 In:  8E  3C  00  |  Ch 15 Note Off C3
 In:  8E  3E  00  |  Ch 15 Note Off D3
 In:  8E  36  00  |  Ch 15 Note Off F#2
 In:  8E  39  00  |  Ch 15 Note Off A2
 In:  9E  36  7D  |  Ch 15 Note On  F#2
 In:  9E  33  76  |  Ch 15 Note On  D#2
 In:  9E  39  70  |  Ch 15 Note On  A2
 In:  9E  3D  7F  |  Ch 15 Note On  C#3
 In:  9E  3E  6F  |  Ch 15 Note On  D3
 In:  9E  3C  6C  |  Ch 15 Note On  C3
 In:  8E  33  00  |  Ch 15 Note Off D#2
 In:  9E  43  6A  |  Ch 15 Note On  G3
 In:  8E  36  00  |  Ch 15 Note Off F#2
 In:  8E  3C  00  |  Ch 15 Note Off C3
 In:  8E  3D  00  |  Ch 15 Note Off C#3
 In:  8E  3E  00  |  Ch 15 Note Off D3
 In:  8E  39  00  |  Ch 15 Note Off A2
 In:  8E  43  00  |  Ch 15 Note Off G3
 In:  9E  36  69  |  Ch 15 Note On  F#2
 In:  9E  39  7E  |  Ch 15 Note On  A2
 In:  9E  3D  7F  |  Ch 15 Note On  C#3
 In:  9E  3E  7A  |  Ch 15 Note On  D3
 In:  9E  3C  79  |  Ch 15 Note On  C3
 In:  9E  3B  6C  |  Ch 15 Note On  B2
 In:  9E  33  33  |  Ch 15 Note On  D#2
 In:  8E  3B  00  |  Ch 15 Note Off B2
 In:  8E  33  00  |  Ch 15 Note Off D#2
 In:  8E  3C  00  |  Ch 15 Note Off C3
 In:  8E  3D  00  |  Ch 15 Note Off C#3
 In:  8E  3E  00  |  Ch 15 Note Off D3
 In:  8E  39  00  |  Ch 15 Note Off A2
 In:  8E  36  00  |  Ch 15 Note Off F#2
 In:  9E  43  65  |  Ch 15 Note On  G3
 In:  8E  43  00  |  Ch 15 Note Off G3
 In:  9E  3D  7F  |  Ch 15 Note On  C#3
 In:  9E  3F  7F  |  Ch 15 Note On  D#3
 In:  9E  3C  75  |  Ch 15 Note On  C3
 In:  9E  41  5C  |  Ch 15 Note On  F3
 In:  8E  3C  00  |  Ch 15 Note Off C3
 In:  8E  3F  00  |  Ch 15 Note Off D#3
 In:  8E  3D  00  |  Ch 15 Note Off C#3
 In:  9E  33  7F  |  Ch 15 Note On  D#2
 In:  9E  34  7E  |  Ch 15 Note On  E2
 In:  8E  41  00  |  Ch 15 Note Off F3
 In:  8E  34  00  |  Ch 15 Note Off E2
 In:  8E  33  00  |  Ch 15 Note Off D#2
 In:  9E  3D  7F  |  Ch 15 Note On  C#3
 In:  9E  3B  7F  |  Ch 15 Note On  B2
 In:  8E  3D  00  |  Ch 15 Note Off C#3
 In:  8E  3B  00  |  Ch 15 Note Off B2
 In:  9E  33  7F  |  Ch 15 Note On  D#2
 In:  9E  34  63  |  Ch 15 Note On  E2
 In:  9E  35  5E  |  Ch 15 Note On  F2
 In:  9E  43  73  |  Ch 15 Note On  G3
 In:  8E  35  00  |  Ch 15 Note Off F2
 In:  8E  34  00  |  Ch 15 Note Off E2
 In:  8E  33  00  |  Ch 15 Note Off D#2
 In:  9E  3B  7F  |  Ch 15 Note On  B2
 In:  9E  3C  7F  |  Ch 15 Note On  C3
 In:  9E  3E  7F  |  Ch 15 Note On  D3
 In:  8E  3E  00  |  Ch 15 Note Off D3
 In:  8E  3C  00  |  Ch 15 Note Off C3
 In:  8E  3B  00  |  Ch 15 Note Off B2
 In:  9E  35  7B  |  Ch 15 Note On  F2
 In:  9E  34  76  |  Ch 15 Note On  E2
 In:  9E  32  67  |  Ch 15 Note On  D2
 In:  8E  32  00  |  Ch 15 Note Off D2
 In:  8E  34  00  |  Ch 15 Note Off E2
 In:  8E  35  00  |  Ch 15 Note Off F2
 In:  9E  39  78  |  Ch 15 Note On  A2
 In:  9E  3B  79  |  Ch 15 Note On  B2
 In:  9E  3C  70  |  Ch 15 Note On  C3
 In:  9E  3E  6C  |  Ch 15 Note On  D3
 In:  8E  3C  00  |  Ch 15 Note Off C3
 In:  8E  3E  00  |  Ch 15 Note Off D3
 In:  8E  39  00  |  Ch 15 Note Off A2
 In:  8E  43  00  |  Ch 15 Note Off G3
 In:  9E  41  7B  |  Ch 15 Note On  F3
 In:  9E  37  69  |  Ch 15 Note On  G2
 In:  9E  32  69  |  Ch 15 Note On  D2
 In:  8E  32  00  |  Ch 15 Note Off D2
 In:  8E  41  00  |  Ch 15 Note Off F3
 In:  8E  37  00  |  Ch 15 Note Off G2
 In:  9E  43  68  |  Ch 15 Note On  G3
 In:  9E  3A  7F  |  Ch 15 Note On  A#2
 In:  9E  3D  7F  |  Ch 15 Note On  C#3
 In:  9E  3E  6A  |  Ch 15 Note On  D3
 In:  9E  41  68  |  Ch 15 Note On  F3
 In:  8E  3E  00  |  Ch 15 Note Off D3
 In:  8E  3D  00  |  Ch 15 Note Off C#3
 In:  8E  41  00  |  Ch 15 Note Off F3
 In:  9E  31  6C  |  Ch 15 Note On  C#2
 In:  9E  33  7F  |  Ch 15 Note On  D#2
 In:  8E  3A  00  |  Ch 15 Note Off A#2
 In:  9E  36  65  |  Ch 15 Note On  F#2
 In:  8E  43  00  |  Ch 15 Note Off G3
 In:  8E  36  00  |  Ch 15 Note Off F#2
 In:  9E  41  6D  |  Ch 15 Note On  F3
 In:  8E  33  00  |  Ch 15 Note Off D#2
 In:  8E  31  00  |  Ch 15 Note Off C#2
 In:  9E  3A  7F  |  Ch 15 Note On  A#2
 In:  9E  3D  7F  |  Ch 15 Note On  C#3
 In:  9E  39  6D  |  Ch 15 Note On  A2
 In:  8E  41  00  |  Ch 15 Note Off F3
 In:  9E  43  52  |  Ch 15 Note On  G3
 In:  8E  3D  00  |  Ch 15 Note Off C#3
 In:  8E  3A  00  |  Ch 15 Note Off A#2
 In:  8E  39  00  |  Ch 15 Note Off A2
 In:  9E  41  6F  |  Ch 15 Note On  F3
 In:  8E  43  00  |  Ch 15 Note Off G3
 In:  9E  31  5C  |  Ch 15 Note On  C#2
 In:  9E  36  6B  |  Ch 15 Note On  F#2
 In:  9E  35  61  |  Ch 15 Note On  F2
 In:  8E  41  00  |  Ch 15 Note Off F3
 In:  9E  39  76  |  Ch 15 Note On  A2
 In:  9E  3F  7F  |  Ch 15 Note On  D#3
 In:  9E  3D  7F  |  Ch 15 Note On  C#3
 In:  8E  3D  00  |  Ch 15 Note Off C#3
 In:  8E  36  00  |  Ch 15 Note Off F#2
 In:  8E  3F  00  |  Ch 15 Note Off D#3
 In:  9E  43  5D  |  Ch 15 Note On  G3
 In:  8E  3A  00  |  Ch 15 Note Off A#2
 In:  8E  31  00  |  Ch 15 Note Off C#2
 In:  8E  35  00  |  Ch 15 Note Off F2
 In:  8E  43  00  |  Ch 15 Note Off G3
 In:  9E  41  58  |  Ch 15 Note On  F3
 In:  8E  41  00  |  Ch 15 Note Off F3
 In:  9E  31  6A  |  Ch 15 Note On  C#2
 In:  9E  36  72  |  Ch 15 Note On  F#2
 In:  9E  37  5B  |  Ch 15 Note On  G2
 In:  9E  39  6F  |  Ch 15 Note On  A2
 In:  9E  3F  7F  |  Ch 15 Note On  D#3
 In:  9E  3A  7F  |  Ch 15 Note On  A#2
 In:  9E  40  62  |  Ch 15 Note On  E3
 In:  8E  36  00  |  Ch 15 Note Off F#2
 In:  8E  3A  00  |  Ch 15 Note Off A#2
 In:  8E  3F  00  |  Ch 15 Note Off D#3
 In:  9E  35  1E  |  Ch 15 Note On  F2
 In:  8E  40  00  |  Ch 15 Note Off E3
 In:  8E  39  00  |  Ch 15 Note Off A2
 In:  8E  35  00  |  Ch 15 Note Off F2
 In:  8E  37  00  |  Ch 15 Note Off G2
 In:  8E  31  00  |  Ch 15 Note Off C#2
 In:  9E  31  6C  |  Ch 15 Note On  C#2
 In:  9E  36  7F  |  Ch 15 Note On  F#2
 In:  9E  37  6C  |  Ch 15 Note On  G2
 In:  9E  33  7F  |  Ch 15 Note On  D#2
 In:  9E  35  6D  |  Ch 15 Note On  F2
 In:  9E  3F  7F  |  Ch 15 Note On  D#3
 In:  9E  39  6D  |  Ch 15 Note On  A2
 In:  9E  3A  7F  |  Ch 15 Note On  A#2
 In:  9E  40  6C  |  Ch 15 Note On  E3
 In:  8E  33  00  |  Ch 15 Note Off D#2
 In:  8E  40  00  |  Ch 15 Note Off E3
 In:  8E  3F  00  |  Ch 15 Note Off D#3
 In:  9E  45  15  |  Ch 15 Note On  A3
 In:  8E  36  00  |  Ch 15 Note Off F#2
 In:  8E  3A  00  |  Ch 15 Note Off A#2
 In:  9E  47  60  |  Ch 15 Note On  B3
 In:  8E  39  00  |  Ch 15 Note Off A2
 In:  8E  35  00  |  Ch 15 Note Off F2
 In:  8E  37  00  |  Ch 15 Note Off G2
 In:  9E  43  6F  |  Ch 15 Note On  G3
 In:  8E  31  00  |  Ch 15 Note Off C#2
 In:  8E  43  00  |  Ch 15 Note Off G3
 In:  9E  44  5B  |  Ch 15 Note On  G#3
 In:  9E  43  50  |  Ch 15 Note On  G3
 In:  8E  43  00  |  Ch 15 Note Off G3
 In:  9E  48  5A  |  Ch 15 Note On  C4
 In:  8E  44  00  |  Ch 15 Note Off G#3
 In:  8E  47  00  |  Ch 15 Note Off B3
 In:  8E  45  00  |  Ch 15 Note Off A3
 In:  8E  48  00  |  Ch 15 Note Off C4
 In:  9E  44  1F  |  Ch 15 Note On  G#3
 In:  9E  42  7F  |  Ch 15 Note On  F#3
 In:  8E  44  00  |  Ch 15 Note Off G#3
 In:  9E  45  4C  |  Ch 15 Note On  A3
 In:  8E  42  00  |  Ch 15 Note Off F#3
 In:  8E  45  00  |  Ch 15 Note Off A3
 In:  9E  46  0F  |  Ch 15 Note On  A#3
 In:  9E  42  52  |  Ch 15 Note On  F#3
 In:  8E  46  00  |  Ch 15 Note Off A#3
 In:  8E  42  00  |  Ch 15 Note Off F#3